<svg id="Layer_1" data-name="Layer 1" width="1000" height="1400" xmlns="http://www.w3.org/2000/svg" xmlns:xlink="http://www.w3.org/1999/xlink" viewBox="0 0 1159.26 405.13"><defs><style>.cls-1{fill:none;}.cls-2{clip-path:url(#clip-path);}.cls-3{fill:#fecf8c;}</style><clipPath id="clip-path" transform="translate(0 -3.08)"><rect class="cls-1" y="-146.29" width="1159.25" height="703.85"/></clipPath></defs><title>background-design</title><g class="cls-2"><g id="Mask_Group_19" data-name="Mask Group 19"><g id="Mumbai_Decal" data-name="Mumbai Decal"><path id="Path_200" data-name="Path 200" class="cls-3" d="M1055.16,205.25h-.11l-2.1-1.52-2-2.07L1049,199l-1.85-3.34-1.73-4-1.74.41-1.64.59-1.55.73-1.44.86-1.35,1-1.24,1.11-1.16,1.11-1.07,1.19-1,1.22-.85,1.23-.77,1.22-.67,1.13h-1l-1.24-.38-1.3-.68-1.32-1-1.24-1.27-1.15-1.52-.93-1.78-.65-2-.27-2.23.14-2.41.67-2.6,1.24-2.75-.88-.61-.87-.6-.85-.64-.84-.64-.84-.67-.8-.69-.78-.71-.73-.74-.68-.78-.63-.81-.56-.85-.49-.9-4.57-.53h-4.84l-4.95.44-5.06.88-5,1.28-4.86,1.67-4.59,2-4.19,2.29-3.71,2.58-3.15,2.84-2.48,3-1.65,3.22L964,194.39l-1.81-1.52-1.67-1.6L959,189.58l-1.5-1.76L956.23,186l-1.18-1.89-1-1.93-.92-2-.79-2-.68-2-.56-2.07L942.4,173,932,172l-11.73-.72L907.58,171l-13.23.35L881,172.46l-13.08,2-12.37,3.1-11.28,4.33-9.78,5.73-7.85,7.28-5.55,9-4.46-1.2-4.38-2.92-3.85-4.28-2.92-5.34-1.57-6,.19-6.4,2.33-6.4,5-6.08,7.93-5.42,11.34-4.45,15.14-3.18,19.41-1.35-6.83-4.71-4.48-4.69-2.47-4.58-.68-4.4.76-4.14,1.88-3.78,2.73-3.34,3.26-2.82,3.46-2.23,3.39-1.55,3-.78,2.29.06-1.38,3.94.47,4,2.09,3.8,3.63,3.47,4.8,2.91,5.85,2.23,6.66,1.16,7.33.12,7.75-1.24,8-2.76,8-4.45,7.85-6.38-1.24-.6-1.41-.87-1.5-1.11-1.53-1.36-1.41-1.54-1.23-1.71-.95-1.87-.59-2-.1-2.09.46-2.16,1.13-2.22,1.87-2.23,5.07.18,4.73-.53,4.42-1.12,4-1.58L948,96l3.24-2.09,2.81-2.13,2.34-2.06,1.85-1.84,1.36-1.49.83-1,.26-.36-2.33,1-2.7.92-3,.8-3.24.66-3.4.5-3.52.29H939l-3.56-.23L932,88.36l-3.33-.88-3.1-1.27-2.83-1.7-2,10.58-4.17,8.06-5.81,5.68-6.82,3.54-7.32,1.55-7.26-.25-6.67-1.88-5.52-3.33-3.83-4.58-1.57-5.64,1.24-6.53,4.58-7.23,2.35,3.06,2.47,2.13,2.47,1.26,2.39.54,2.29-.11,2.14-.65,1.94-1.11,1.68-1.4,1.25-1.61,1-1.75.62-1.78.16-1.69-.63-2.89-1.06-2.13-1.41-1.47L893.55,74l-1.86-.51-1.93-.19h-2l-1.86.11-1.7.07h-1.47l-1.14-.31-.73-.66-.35-1.79-.15-1.88V66.85l.21-2,.39-2,.54-2,.7-1.89.83-1.8,1-1.7,1.1-1.56,1.24-1.4,1.32-1.2-2-.78-3.5-.91-4.85-.93L871.5,48l-6.73-.52-7.33-.08-7.66.45L842,49l-7.58,2-7.21,2.93-6.56,4L815,63.16l-1.09,1.36-1,1.41-.88,1.47-.77,1.51-.65,1.56-.53,1.59-.39,1.64-.24,1.67-.09,1.69.07,1.7.25,1.73.43,1.76L811.84,85l2,2.1L816,88.62l2.31,1,2.38.55,2.38.18,2.32-.14,2.17-.37,2-.54,1.72-.65,1.37-.65,1-.61,1.35-1,1.24-1.24,1.14-1.47,1-1.64.76-1.79.49-1.92.2-2-.13-2.1-.54-2.13-1-2.16-1.45-2.14-2-2.1,10.67-1.32,8.37.51L860.13,67l4.54,3.39,2.94,4.36,1.6,5,.45,5.41-.47,5.46L868,95.84l-1.65,4.66-1.91,3.8-2,2.63L860,109.37,857,111.6l-3.28,2.06-3.6,1.77-3.87,1.43-4.1,1-4.26.6-4.42.1-4.5-.47L824.44,117l-4.55-1.73-4.5-2.45-5.75,8.22-6.42,6-7,4.16-7.33,2.52-7.55,1.12h-7.54l-7.42-1-7.12-1.7L752.68,130l-6-2.43-5.16-2.43-4.18-2.23-.27-.17-.21-.17-.16-.17-.14-.19-.07-.15v-.27l.09-.1.13-.08.17-.07h.45l8.84-.4,7.61-2,6.51-3.45,5.5-4.58,4.66-5.46,3.93-6.06,3.34-6.41,2.87-6.5,2.54-6.32,2.31-5.89,2.24-5.18L790,65l-1.1.52-1.09.55-1.1.6-1.09.63-1.07.67-1.07.69-1.07.71-1.06.75-1.05.75-1,.77-1,.78-1,.79-2,10.62-4,8.07-5.62,6-6.92,4.26-7.9,3-8.56,2.22-8.87,1.84-8.82,1.89-8.46,2.38-7.75,3.34-6.72,4.66-5.33,6.47-.09.26-.1.27-.13.24-.15.24-.17.21-.2.19-.23.14-.23.11h-.55l-.31-.07-.32-.15-1.85-.5-2-.85-2-1.19-2-1.48-1.9-1.72-1.78-1.93-1.61-2-1.39-2.16-1.11-2.23-.78-2.22-.42-2.13v-2L655.65,116l-18.42,3.75-15.61.82-13-1.6-10.5-3.57-8.21-5-6.1-6-4.14-6.55-.78-2.23-1.86,5.14-4.14,6.57-6.09,6-8.21,5-10.49,3.56-13,1.61-15.6-.82-18.43-3.75-21.41-7.15v2l-.4,2.13-.8,2.23-1.1,2.22L476,122.55l-1.61,2.06-1.78,1.93-1.9,1.72-2,1.48-2,1.19-2,.84-1.93.45-.32.16-.31.07h-.54l-.24-.1-.21-.14L461,132l-.17-.21-.15-.24-.12-.24-.11-.27-.09-.25L455,124.33l-6.72-4.66-7.75-3.34L432.08,114l-8.82-1.9-8.86-1.82L405.84,108l-7.91-3L391,100.72l-5.61-5.94-3.95-8.08-2-10.61-1-.79-1-.78-1-.78L375.37,73l-1.05-.74-1.07-.71-1.07-.69-1.08-.67L370,69.55l-1.1-.6-1.09-.56-1.08-.51L369,72.13l2.24,5.2,2.32,5.93,2.54,6.32,2.86,6.5,3.34,6.41,3.93,6.07,4.66,5.45,5.56,4.56,6.49,3.45,7.61,2,8.84.4h.45l.17,0,.13.09.09.1V125l-.06.14-.1.18-.12.23-.23.17-.27.18-4.17,2.22-5.23,2.37-6,2.42-6.63,2.22-7.11,1.7-7.42,1-7.57.06-7.53-1.11-7.34-2.52-7-4.16-6.43-6-5.72-8.14-4.51,2.46-4.54,1.72-4.55,1.11-4.5.46-4.4-.1-4.28-.6-4.1-1-3.87-1.42L303,116.7l-3.29-2-2.93-2.22L294.32,110l-1.95-2.62-1.92-3.8-1.66-4.66-1.23-5.21-.47-5.45.44-5.42,1.6-5,3-4.37L296.63,70,303,67.91l8.37-.51L322,68.77l-2,2.09L318.53,73l-.95,2.15-.53,2.15-.16,2.09.21,2,.5,1.92.76,1.79,1,1.65,1.14,1.46,1.24,1.23,1.35,1,1,.63,1.4.66,1.77.49,2,.55,2.18.38,2.32.12,2.38-.17,2.37-.55,2.31-1,2.19-1.5,2-2.12,1.7-2.76.44-1.74.25-1.74.07-1.71-.08-1.69L347,76.68l-.4-1.65-.52-1.59-.67-1.54-.76-1.52-.88-1.47-1-1.41-1.07-1.36-5.69-5.25-6.57-4L322.28,54l-7.61-2-7.76-1.11-7.66-.44-7.31.08-6.75.5-5.91.78-4.83.92-3.53.92-1.87.7,1.24,1.23L271.53,57l1.1,1.57,1,1.69.83,1.82.7,1.89.55,1.95.39,2,.21,2v1.94l-.14,1.88-.35,1.79-.74.66-1.14.3-1.45,0-1.72-.07-1.87-.1h-2l-1.93.2-1.84.5-1.67.93-1.41,1.47L259,81.49l-.64,2.87.16,1.69.63,1.77,1,1.76,1.45,1.62,1.68,1.4,2,1.11,2.12.62,2.29.13,2.38-.54,2.47-1.28L277,90.53l2.35-3.07,4.58,7.25,1.24,6.53-1.59,5.64-3.82,4.56-5.53,3.34-6.75,1.84-7.26.26-7.32-1.55-6.82-3.52-5.77-5.71-4.17-8-2-10.59-2.83,1.7-3.12,1.26-3.31.9-3.47.55-3.55.23h-3.56l-3.5-.29-3.41-.49-3.24-.67-3-.8-2.7-.9-2.32-1,.26.38.81,1,1.36,1.49,1.86,1.83,2.35,2,2.8,2.15L208.76,99l3.65,1.9,4,1.59,4.4,1.11,4.75.55,5.05-.19,1.88,2.22,1.13,2.23.45,2.14-.1,2.1-.58,2-.94,1.87-1.23,1.72-1.41,1.53-1.53,1.35-1.5,1.11-1.42.86-1.23.6L232,130l8,4.45,8,2.77,7.76,1.22,7.32-.09,6.68-1.23,5.83-2.23,4.8-2.91,3.55-3.46,2.1-3.83.46-4-1.41-4,2.3-.07,3,.78,3.36,1.55,3.49,2.22,3.24,2.84,2.74,3.34,1.89,3.78.75,4.12-.67,4.45-2.47,4.6L298.32,149l-6.82,4.71,19.4,1.4,15.17,3.08,11.35,4.45,7.94,5.42,4.95,6.08,2.35,6.4.2,6.39-1.58,6-2.92,5.34-3.89,4.35-4.31,2.94-4.49,1.11-5.53-9-7.86-7.28-9.78-5.73-11.27-4.32-12.37-3.1-13.07-2-13.35-1.11-13.23-.35-12.69.28-11.75.7-10.39,1-8.66,1.11-.54,2.06-.7,2-.8,2-.91,2-1,1.93-1.23,1.88-1.24,1.81-1.42,1.77-1.55,1.68-1.68,1.61-1.79,1.54-1.93,1.43-1.66-3.21-2.47-3-3.16-2.83L179.89,187l-4.2-2.3-4.59-2L166.26,181l-5-1.29-5.05-.88-4.95-.44H146.4l-4.56.53-.49.91-.56.84-.64.83-.68.76-.73.75-.77.72-.8.68-.83.67-.86.64-.85.63-.88.61-.85.6,1.24,2.76.66,2.6.15,2.41-.3,2.23-.64,2-.93,1.77-1.15,1.53-1.24,1.26-1.32,1-1.31.69-1.24.38h-1l-.67-1.19-.76-1.24-.87-1.22-1-1.22-1.08-1.18L120.32,199l-1.24-1.11-1.34-1-1.45-.85-1.55-.74-1.64-.59-1.73-.42-1.74,4.06-1.85,3.34-1.94,2.76-1.7,1.7h.13l2.1,1.63,2,2.07,1.95,2.66,1.86,3.33,1.72,4,1.74-.42,1.65-.58,1.54-.73,1.45-.87,1.34-1,1.23-1.11,1.17-1.11,1.06-1.19,1-1.23.87-1.22.77-1.23.66-1.19h1l1.23.38,1.24.69,1.31,1,1.24,1.26,1.15,1.53.93,1.77.64,2,.28,2.23-.14,2.41-.67,2.59-1.14,2.8.87.62.86.6.87.62.84.65.83.67.8.69.79.7.73.75.68.78.62.82.57.86.49.88,4.57.54h4.83l5-.43,5.05-.89,5-1.29,4.85-1.66,4.59-2,4.22-2.3,3.71-2.59,3.16-2.83,2.47-3,1.64-3.21,1.95,1.44,1.79,1.52,1.67,1.61,1.56,1.69,1.41,1.76,1.3,1.81,1.17,1.88,1,1.94.92,2,.8,2,.68,2,.55,2.06,8.66,1.11,10.39,1,11.75.7,12.57.3,13.23-.34,13.35-1.11,13.08-2L303.74,234,315,229.65l9.79-5.72,7.85-7.29,5.53-9,4.48,1.2,4.36,2.9,3.85,4.29,2.93,5.34,1.57,6-.18,6.41-2.35,6.41-5,6.08L340,251.72l-11.36,4.45-15.06,3.07-19.42,1.4,6.84,4.71,4.47,4.68,2.48,4.58.67,4.45-.76,4.13L306,287l-2.72,3.34L300,293.11l-3.46,2.22-3.45,1.5-3,.78-2.3-.08,1.4-3.93-.46-4-2.1-3.81L283,282.34l-4.81-2.92-5.85-2.21L265.7,276l-7.32-.1-7.75,1.24-8,2.76-8,4.45-7.85,6.4,1.23.59,1.41.88,1.51,1.11,1.51,1.34,1.41,1.55,1.24,1.71,1,1.87.57,2,.1,2.09-.45,2.23-1.14,2.22-1.87,2.22-5.06-.18-4.73.54L219,312l-4,1.58-3.71,1.91L208,317.56l-2.8,2.15-2.32,2.06L201,323.61l-1.26,1.58-.83,1-.26.37,2.34-1,2.7-.89,3-.81,3.23-.67,3.41-.5,3.49-.29h3.55l3.54.23,3.45.55,3.33.89,3.1,1.28,2.83,1.69,2-10.58,4.17-8.06,5.78-5.7,6.8-3.57,7.31-1.54,7.27.25,6.67,1.88,5.51,3.33,3.84,4.58,1.56,5.6-1.24,6.54L281.77,327l-2.35-3L277,321.85l-2.47-1.26-2.39-.54-2.28.11-2,.63-1.94,1.12-1.68,1.4-1.32,1.59-1,1.75-.62,1.77-.16,1.7.63,2.88,1.07,2.13,1.34,1.47,1.66.93,1.87.47,1.94.19h2l1.87-.1,1.71-.08h1.47l1.13.31.74.66.34,1.79.14,1.88,0,2-.22,2-.38,2-.64,1.95-.68,1.89-.84,1.8-.94,1.69-1.1,1.57-1.24,1.4-1.38,1.2,2,.78,3.51.91,4.85.91,5.9.78,6.74.51,7.32.09,7.67-.45,7.8-1.16,7.62-2,7.23-2.9,6.54-4,5.68-5.25,1.08-1.36,1-1.42.87-1.46.77-1.51.66-1.56.53-1.6.38-1.62.24-1.67.1-1.69-.09-1.72-.24-1.72-.44-1.76-1.71-2.76-2-2.1-2.17-1.51-2.32-1-2.37-.54-2.39-.18-2.3.18-2.2.36-2,.55-1.71.63-1.39.68-1,.62-1.34,1-1.24,1.26L322,327.87l-1,1.6-.75,1.8-.49,1.92-.2,2,.15,2.1.54,2.13,1,2.15,1.45,2.15,1.95,2.1-10.66,1.38-8.36-.53-6.35-2.12-4.54-3.4-2.95-4.37-1.6-5-.43-5.4.47-5.47,1.12-5.16,1.66-4.66,1.9-3.8,2-2.67,2.47-2.43,2.93-2.23,3.29-2,3.6-1.77,3.91-1.54,4.1-1,4.27-.6,4.4-.09,4.52.44,4.55,1.11,4.54,1.73,4.5,2.46,5.73-8.15,6.43-6,7-4.17,7.34-2.51,7.53-1.11,7.56.06,7.42,1,7.1,1.72,6.63,2.22,6,2.43,5.16,2.43,4.18,2.23.27.16.21.18.17.17.1.17v.42l-.09.1-.13.09h-.61l-8.85.4-7.6,2-6.54,3.47-5.5,4.58-4.66,5.46L384.79,312l-3.33,6.41-2.87,6.5-2.54,6.33-2.31,5.88-2.25,5.19-2.28,4.22,1.11-.52,1.08-.56,1.09-.59,1.09-.63,1.09-.67,1.06-.69,1.08-.72,1.05-.73,1-.76,1-.78,1-.78,1-.79,1.95-10.61,4-8.07,5.62-5.95,6.92-4.26,7.9-3,8.55-2.23,8.9-1.79,8.83-1.89,8.46-2.38,7.76-3.34,6.71-4.67,5.34-6.46.09-.27.1-.26.12-.24.17-.25.17-.21.2-.18.22-.14.24-.1h.54l.31.08.32.15,1.93.45,2,.84,2,1.2,2,1.48,1.91,1.73,1.77,1.92,1.61,2.06,1.4,2.15,1.1,2.22.79,2.23.42,2.12v1.93l21.4-7.15,18.43-3.74,15.61-.84,13,1.62,10.5,3.56,8.22,5.06,6.07,6,4.16,6.55.77,2.23,1.86-5.16,4.14-6.54,6.09-6,8.21-5,10.5-3.57,13-1.59,15.6.82,18.41,3.74,21.48,7.11v-2l.42-2.12.79-2.23L682,291l1.39-2.15,1.61-2.08,1.78-1.91,1.9-1.73,2-1.49,2-1.18,2-.84,1.94-.46.33-.15.31-.07h.54l.23.11.21.15.21.17.17.23.16.23.12.26.11.25.09.26,5.32,6.47,6.71,4.67,7.77,3.34,8.46,2.38,8.82,1.89,8.79,1.93,8.56,2.22,7.9,3,6.94,4.26,5.6,5.95,4,8.08,1.94,10.56,1,.77,1,.78,1,.78,1.05.76,1,.73,1.07.73,1.08.69,1.08.66,1.08.64,1.09.59,1.1.56,1.09.52-2.3-4.23-2.24-5.19-2.31-5.88L783.26,322l-2.86-6.5-3.38-6.4L773.1,303l-4.66-5.45L762.92,293l-6.49-3.44-7.61-2-8.86-.4h-.6l-.14-.09-.09-.1v-.41l.1-.18.17-.17.22-.16.27-.18,4.17-2.23,5.16-2.43,6-2.42,6.63-2.23,7.11-1.71,7.42-1,7.56-.07,7.53,1.12,7.34,2.51,7,4.15,6.44,6,5.72,8.14,4.5-2.46,4.55-1.73,4.54-1.11,4.52-.46,4.4.1,4.28.59,4.09,1,3.86,1.44,3.6,1.76,3.29,2,2.93,2.22,2.48,2.44,2,2.64,1.93,3.89,1.65,4.66,1.23,5.21.47,5.47-.44,5.41-1.67,5-3,4.37-4.54,3.39-6.34,2.13-8.36.51-10.62-1.37,2-2.1,1.45-2.14,1-2.15.53-2.15.15-2.09-.2-2-.51-1.92-.75-1.79-1-1.65-1.15-1.45-1.23-1.25-1.36-1-1-.63-1.38-.66-1.71-.64-2-.53-2.19-.38-2.35-.13-2.39.18-2.37.54-2.31,1-2.18,1.51-2,2.1-1.71,2.77-.43,1.75-.25,1.73-.08,1.72.1,1.69.23,1.66.4,1.63.52,1.59.66,1.56.76,1.51.88,1.47,1,1.42,1.08,1.35,5.69,5.25,6.57,4.05L837,357.6l7.59,2,7.77,1.11,7.65.46,7.33-.09,6.74-.51,5.9-.77,4.85-.92,3.51-.91,2-.78L889,356l-1.24-1.39-1.1-1.56-1-1.69-.84-1.82-.7-1.9-.54-1.93-.38-2-.23-2v-1.94l.14-1.88.35-1.79.73-.65,1.15-.32h1.46l1.71.07,1.86.11h2l1.93-.2,1.84-.5,1.66-.93,1.42-1.47,1-2.14.64-2.88-.17-1.68-.62-1.78-1-1.75-1.38-1.63L896,319l-1.94-1.11-2.14-.64-2.28-.11-2.37.55-2.48,1.26L882.33,321,880,324.07l-4.57-7.23-1.23-6.53,1.6-5.69,3.82-4.57,5.51-3.33,6.67-1.88,7.27-.26,7.33,1.56,6.81,3.52,5.77,5.71,4.18,8.15,2,10.6,2.84-1.7,3.11-1.26,3.29-1,3.45-.55,3.55-.23H945l3.51.28,3.44.5,3.23.67,3,.8,2.7.9,2.33,1-.26-.37-.83-1-1.35-1.48-1.86-1.84-2.35-2.06-2.8-2.13-3.25-2-3.71-1.9-4-1.65L938.45,308l-4.74-.54-5.06.19-1.87-2.23-1.12-2.22L925.2,301l.1-2.09.57-2,1-1.86,1.24-1.73,1.42-1.54,1.52-1.35,1.5-1.11,1.41-.87,1.24-.6-7.86-6.4-8-4.45-8-2.76L903.52,273l-7.32.09-6.68,1.23-5.84,2.17-4.87,2.93-3.55,3.46-2.1,3.81-.46,4,1.45,3.91-2.3.07-3-.78-3.37-1.56L862,290.12l-3.25-2.84L856,283.94l-1.95-3.79-.75-4.14.67-4.45,2.47-4.58,4.48-4.7,6.83-4.69-19.41-1.4-15.18-3.08-11.34-4.45-7.94-5.42L809,237.15l-2.36-6.4-.18-6.4,1.58-6,2.92-5.34,3.84-4.3,4.37-2.9,4.48-1.19,5.52,9,7.85,7.27,9.82,5.88,11.29,4.34,12.36,3.08,13.08,2,13.34,1.11,13.24.33,12.67-.25,11.77-.73,10.37-1,8.66-1.11.56-2.07.69-2,.79-2,.92-2,1.05-1.91,1.18-1.89,1.23-1.81,1.41-1.76L963,217.4l1.67-1.62,1.81-1.51,1.93-1.45,1.65,3.23,2.48,3,3.15,2.82,3.71,2.59,4.21,2.3,4.59,2,4.84,1.66,5,1.28,5.07.89,5,.43h4.85l4.56-.52.48-.9.57-.85.63-.81.67-.78.74-.74.78-.71.8-.69.83-.67.85-.65.86-.62.86-.62.87-.59-1.24-2.76-.67-2.6-.15-2.42.29-2.22.65-2,.93-1.78,1.15-1.53,1.24-1.25,1.33-1,1.24-.68,1.24-.38h1l.67,1.19.77,1.22.86,1.24,1,1.21,1.07,1.19,1.15,1.11,1.24,1.12,1.35,1,1.44.85,1.54.75,1.64.58,1.75.43,1.73-4.06,1.84-3.34,2-2.65,1.68-1.7M89.07,210.13h-.24l-2-.24-.13-5.2-2.6-4.34-4.59-3.84-6.12-3.71-7.17-4-7.76-4.6-7.89-5.56-7.52-7-6.7-8.7-5.41-10.82L27.28,138.8l-1.43-16.17-4.59,1.68-4.08.78H13.62l-3.09-.68L7.9,123.29l-2.16-1.56L4,119.87l-1.24-2-.87-2.08-.44-2V112l.33-1.5,6.19.37,4.73-.79,3.38-1.67,2.12-2.29.94-2.64L19,100.73l-1.13-2.52-2-2.07L13,94.77l-3.51-.34-4.1.9L.75,97.71,0,95.48V92.59l.7-3.26L2.08,86l2-3.21,2.63-2.87,3.2-2.15,3.71-1.25,4.24-.1,4.75,1.28,5.22,3,5.58,4.92.4-.65.41-.65.43-.63.46-.64.43-.63.43-.62.44-.65.38-.63.37-.65.32-.65.28-.68.22-.7-3.64-1.5-2.8-1.87-1.94-2.13-1.24-2.22-.66-2.37-.17-2.37.24-2.23.51-2.08.7-1.81.82-1.44.79-1,.68-.44,5.22,2.05,4.5.71,3.86-.5,3.26-1.46L50.87,55l2.26-2.67L55,49.41l1.52-2.89,1.24-2.64,1-2.17.84-1.42.73-.47,1.41.8,1.23.91,1.12,1,1,1.11.86,1.12.75,1.2.67,1.24.57,1.29.52,1.32.47,1.31.43,1.33.41,1.32,11.51-6.38L92,43.27l10-2.22,9.35-.85,8.66.16,8.08.72,7.42.87,6.9.59,6.37-.09,5.87-1.23,5.41-2.78,5-4.75h.88l1.12.31,1.24.64,1.32,1L170.92,37l1.18,1.71,1,2.06.7,2.43.35,2.8L174,49.15l-.66,3.56-1.24,3.93.21.2.24.21.23.22.25.21.24.22.26.21.23.22.25.2.26.21.24.2.24.2.25.18L176,56l.85-3.34.66-3.43.38-3.54V42.15l-.27-3.59-.72-3.51-1.24-3.39L174,28.43l-2.27-3-2.89-2.72-3.56-2.4-.24-.19-.21-.18-.17-.18-.12-.17-.11-.17v-.48l.08-.16.16-.14.21-.15.29-.12.46-.22,1.12-.42,1.72-.54,2.3-.5,2.8-.34h3.28l3.71.35,4.05.92,4.32,1.6,4.62,2.4,4.81,3.33,4.95,4.45L205.1,28l1.32-1.6.92-1.78.54-1.9.26-2V18.62L208,16.5l-.3-2.15-.39-2.1-.4-2.06-.36-2-.26-1.85.16,0,.15-.06H208l.18.06.15,0L211,8l2.68,1.72,2.65,1.84,2.57,1.92,2.48,2,2.39,2.08,2,2.29,1.8,2.41,1.48,2.56,1.14,2.7.75,2.85.3,3,.34.08.74-.08,1.07-.24,1.33-.42,1.5-.63,1.58-.88,1.6-1.11L241,28.7l1.38-1.76,1.13-2.1.82-2.47.42-2.87h.95l1.86,3.34,1.34,3.21.93,3,.57,2.84.3,2.61.08,2.36V39l-.13,1.79-.16,1.31V43.2l.13.75.34.36,9.15-2,9.45-1.6,9.65-1.18,9.81-.77,9.89-.3,9.9.17,9.82.64,9.67,1.11,9.44,1.69L347,44.31l8.85,2.79,8.44,3.34,3.73,1.4,3.71,1.58,3.72,1.71,3.71,1.75,3.77,1.68,3.81,1.54,3.86,1.32,3.91,1,4,.6,4.11.12,4.2-.45,4.34-1.12.67-.37.62-.45.61-.49.58-.51.56-.52.58-.49.57-.46.59-.4.62-.32.67-.21.69-.1.75,0,1.52.93,1.34,1,1.16,1.11,1,1.22.89,1.29.79,1.34.68,1.39.62,1.45.54,1.44.52,1.47.5,1.46.49,1.45,5.5.35,5.48.54,5.46.66,5.48.73,5.47.72,5.48.66,5.48.53,5.48.33,5.5.09,5.51-.25,5.64-.68,5.54-1.11.1.06h.25l.12.06h.25l.11,0,.1.08.09.08.07.1v.25l-.26,2.29-.47,2.11-.62,1.95-.75,1.8L492.88,86,492,87.48l-1,1.41-1,1.32-1,1.2-.94,1.11-.84,1-.75,1,8.32,3.18,8.83,2,9.15,1.11,9.28.33,9.18-.43,8.89-1.18,8.45-1.84,7.66-2.53L563,92l5.63-3.76,4.29-4.32,2.75-4.83v-.3l.07-.22.14-.16.17-.08h.44l.23.06.25.1.24.14.22.14.18.16.07.1,1.43-2.88.13-.18.2-.16.21-.14.24-.14.23-.1.25-.06h.43l.19.08.12.16.08.22v.3L583.9,81l4.24,4.26L593.77,89l6.74,3.15,7.68,2.55,8.4,1.9,8.93,1.11,9.19.43L644,97.8l9.15-1.11,8.83-2,8.28-2.88-.75-1-.86-1-.93-1.11-1-1.2-1-1.29-1-1.42-.93-1.53L663,81.57l-.74-1.79-.63-2-.46-2.11-.28-2.28v-.26l.07-.1L661,73l.1-.08.12-.06h.24l.12,0h.14l.1-.07H662l5.55,1.11,5.53.65,5.52.23,5.5-.08,5.49-.33,5.48-.53,5.47-.66,5.47-.71,5.47-.74L716.9,71l5.48-.53,5.53-.59.49-1.45.5-1.45.52-1.47.55-1.45.62-1.43.68-1.4.78-1.35.9-1.29,1-1.21,1.24-1.11,1.32-1,1.53-.92h.75l.7.1.66.2.61.32.6.4.57.46.58.5.56.51.59.51.6.49.62.46.68.38,4.32,1.11,4.22.46,4.1-.12,4-.62,3.93-1L770,57.17l3.81-1.55,3.71-1.69,3.71-1.74,3.71-1.71,3.71-1.58,3.71-1.37,8.43-3.33,8.86-2.78,9.2-2.23,9.47-1.68L838,36.4l9.82-.66,9.9-.15,9.9.3,10,.63,9.66,1.19,9.44,1.59,9.15,2,.35-.35.12-.76V39.07l-.1-1.48-.12-1.8V33.7l.09-2.37.3-2.6.56-2.84.94-3,1.35-3.19,1.85-3.34h.89l.42,2.87.81,2.47,1.14,2.1,1.37,1.76L917.31,27l1.59,1.11,1.6.87,1.5.64,1.32.43,1.08.23.75.07.32-.07.31-3,.74-2.84,1.14-2.69,1.49-2.56,1.79-2.42,2.06-2.3,2.27-2.15,2.47-2,2.56-1.92L943,6.48l2.7-1.71,2.68-1.64.15,0h1.78l.16,0L950.16,5l-.36,2L949.4,9,949,11.12l-.3,2.14-.18,2.12v2.09l.24,2,.55,1.9.91,1.77,1.31,1.6,1.81,1.39,4.95-4.45,4.81-3.34,4.6-2.39,4.34-1.6,4-.9,3.71-.37,3.27.06,2.8.33,2.28.5,1.75.53L991,15l.36.43.27.13.22.14.15.15.1.15v.48l-.1.18-.13.17-.18.17-.2.18-.23.19-3.58,2.4-2.89,2.73-2.26,3-1.67,3.27-1.24,3.34-.71,3.53-.28,3.56v3.59l.38,3.54.65,3.43.86,3.29,1,3.08.25-.18.23-.2.26-.2.24-.19.26-.22.25-.21.24-.23.24-.21.24-.21L984,54l.21-.21.24-.2-1.24-3.94-.66-3.55L982.42,43l.35-2.8.7-2.42,1-2.06,1.24-1.7,1.23-1.35,1.33-1L989.5,31l1.13-.32h.88l4.94,4.74,5.4,2.8,5.87,1.23,6.37.1,6.92-.59,7.42-.88,8.06-.72,8.66-.16,9.35.85,10,2.22,10.76,4.1,11.52,6.38.42-1.31.42-1.33.47-1.32.52-1.31.58-1.29.66-1.25.75-1.2.85-1.11,1-1.12,1.11-1,1.24-.91,1.41-.79.73.45.84,1.44L1099,41l1.24,2.65,1.57,2.92,1.87,2.9,2.28,2.66,2.73,2.22,3.26,1.46,3.86.5,4.49-.71,5.21-2.16.69.44.8,1,.8,1.46.7,1.8.51,2.08.23,2.28-.16,2.36-.66,2.37-1.24,2.29-1.93,2.13-2.73,1.78-3.64,1.5.22.7.27.67.33.66.37.66.4.63.42.64.43.62.45.63.43.64.44.63.41.65.41.65,5.57-4.9,5.15-3,4.73-1.31,4.24.09,3.71,1.25L1150,77l2.62,2.8,2,3.22,1.38,3.34.7,3.26v2.9l-.75,2.28-4.6-2.44-4.11-.9-3.5.35L1141,93.16l-2,2.08-1.13,2.51-.16,2.73.94,2.63,2.1,2.29,3.39,1.65,4.75.8,6.18-.35.34,1.49v1.8l-.46,2-.85,2.07-1.24,2-1.72,1.86-2.16,1.57-2.63,1.11-3.1.64h-3.57l-4.08-.79-4.58-1.67-1.43,16.16L1126,149.12l-5.42,10.82-6.7,8.72-7.64,6.92-7.88,5.56-7.77,4.6-7.18,4-6.18,3.72-4.59,3.85-2.39,4h.21l2,.23.12,5.21,2.68,4.45,4.58,3.84,6.11,3.72,7.18,4,7.77,4.61,7.88,5.56,7.54,7,6.69,8.71,5.43,10.83,3.71,13.35,1.42,16.16,4.59-1.68,4.07-.78h3.58l3.1.64,2.63,1.11,2.15,1.57,1.74,1.85,1.23,2,.87,2.08.46,2v1.8l-.34,1.49-6.18-.35-4.74.79-3.39,1.66-2.11,2.3-.93,2.63.16,2.7,1.13,2.53,1.94,2.09,2.81,1.33,3.51.36,4.08-.9,4.61-2.43.75,2.29v2.89l-.72,3.26-1.36,3.34-2,3.21-2.62,2.8-3.19,2.16-3.71,1.26-4.25.1-4.72-1.32-5.16-3-5.58-4.9-.4.65-.42.65-.43.63-.45.64-.4.69-.43.62-.43.63-.39.65-.37.64-.32.66-.28.69-.21.69,3.63,1.51,2.74,1.85,1.94,2.07,1.24,2.29.66,2.37.17,2.37-.24,2.23-.51,2.08-.71,1.8-.8,1.44-.8,1-.68.45-5.2-2.16-4.49-.71-3.87.5-3.26,1.45-2.74,2.23-2.25,2.68-1.88,2.9-1.51,2.89-1.24,2.66-1,2.16-.83,1.42-.73.47-1.41-.81-1.24-.9-1.11-1-1-1.11-.85-1.12-.74-1.2-.67-1.24-.57-1.29-.52-1.32-.47-1.32L1090,359l-.42-1.32-11.5,6.38-10.76,4.1-10.06,2.24-9.34.84-8.66-.16-8-.73-7.42-.87-6.9-.59-6.38.1-6,1.27L999.17,373l-4.95,4.75h-.89l-1.11-.31-1.24-.66-1.32-1-1.31-1.34-1.24-1.71-1-2.06-.72-2.43-.33-2.8.1-3.17.67-3.55,1.23-3.92-.22-.22-.22-.21-.24-.21-.24-.22-.25-.22-.25-.21-.25-.21-.24-.22-.25-.21-.25-.19-.24-.18-.24-.19-1,3.08-.87,3.28-.64,3.44-.38,3.54-.08,3.59.29,3.57.7,3.52,1.23,3.33,1.74,3.32,2.27,3,2.88,2.74,3.51,2.4.24.18.2.19.18.18.13.16.1.18v.48l-.09.16-.16.14-.21.15-.28.13-.47.2-1.12.43-1.73.54-2.26.44-2.8.35h-3.27l-3.71-.36-4-.91-4.34-1.6-4.6-2.39-4.81-3.34L955.85,382l-1.78,1.58-1.31,1.6-.92,1.74-.55,1.91-.25,2V393l.19,2.12.3,2.14.37,2.11.4,2.09.35,2,.27,1.85h-2.1l-2.68-1.63-2.69-1.72-2.65-1.82-2.57-2-2.48-2-2.26-2.17-2-2.29-1.78-2.4-1.48-2.54-1.15-2.7-.74-2.85-.31-3-.32-.08-.74.08-1.08.23-1.27.41-1.49.64-1.65.91-1.59,1.11-1.45,1.43L917,384.58l-1.13,2.1-.88,2.49-.42,2.86h-.9l-1.85-3.33-1.35-3.2-.93-3-.58-2.84-.28-2.61-.09-2.37v-2.09l.11-1.8.11-1.48v-1.11l-.11-.74-.34-.36-9.14,2.07-9.44,1.6-9.65,1.19-9.82.75-9.89.31-9.9-.16-9.83-.66L831,371.07l-9.48-1.66-9.2-2.23-8.86-2.78-8.43-3.33-3.77-1.38-3.71-1.58-3.72-1.7-3.71-1.74L776.38,353l-3.86-1.62-3.8-1.27-3.92-1-4-.6-4.09-.13-4.2.46-4.35,1.11-.66.37-.62.44-.61.5-.58.52-.57.51-.57.5-.57.45-.59.4-.62.32-.67.2-.69.1h-.77l-1.51-.91-1.33-1-1.24-1.11-1-1.22-.89-1.28-.8-1.35-.68-1.4-.61-1.43L732,343l-.51-1.47-.49-1.46-.51-1.44-5.49-.36-5.47-.54-5.48-.66-5.46-.74-5.47-.72-5.48-.66-5.48-.52-5.49-.34-5.5-.08-5.5.25-5.54.63L664.59,336h-.72l-.11-.06-.11-.06-.09-.08-.06-.1v-.25l.27-2.29.46-2.11.63-1.95.75-1.8.86-1.67.93-1.52,1-1.43,1-1.3,1-1.2.93-1.11.85-1,.74-1-8.27-2.89-8.82-2-9.15-1.12-9.28-.33-9.2.43-8.88,1.11-8.4,1.88-7.67,2.55-6.75,3.17-5.63,3.76L586.52,328l-2.81,4.43v.3l-.07.23-.14.15-.17.1h-.43l-.25-.07-.23-.09-.25-.13-.21-.15-.18-.16-.08-.09-1.42,2.88-.15.17-.18.16-.21.15-.24.12-.25.11-.23.06h-.45l-.17-.09-.12-.16-.09-.22v-.3l-2.75-4.83-4.28-4.32-5.62-3.75-6.77-3.19-7.67-2.53-8.4-1.88-8.88-1.11-9.19-.45-9.28.35-9.15,1.1-8.82,2-8.27,2.88.74,1,.85,1,.93,1.11,1,1.2,1,1.3,1,1.42.93,1.53.87,1.67.74,1.8.63,2,.46,2.11.27,2.29v.25l-.06.1-.09.08-.1.06h-.83l-5.55-1.11-5.54-.62-5.5-.25-5.5.07-5.49.33-5.48.54-5.48.65-5.52,1.14-5.47.72-5.46.67-5.48.53-5.49.36-.5,1.45-.51,1.45-.59,1.46-.56,1.46-.61,1.43-.64,1.4-.77,1.35-.9,1.28-1,1.22-1.17,1.11-1.33,1-1.53.92h-.76l-.69-.09-.65-.22-.63-.31-.6-.4-.57-.46-.57-.5-.6-.48-.6-.51-.59-.5-.63-.44-.67-.38-4.34-1.11-4.21-.46-4.09.11-4,.61-3.92,1-3.84,1.32-3.83,1.54-3.71,1.69-3.71,1.75-3.71,1.7-3.71,1.58L367,364l-8.45,3.34-8.84,2.78-9.22,2.22L330.88,374l-9.68,1.11-9.89.68-9.89.16-9.9-.31-9.81-.75-9.66-1.19-9.45-1.59-9.15-2-.33.36-.13.76v1.12l.11,1.46.12,1.8v2.1l-.09,2.37-.17,2.62-.59,2.85-.92,3-1.35,3.2-1.84,3.33h-1l-.41-2.87-.81-2.46-1.15-2.1L243.54,386,242,384.51l-1.6-1.11-1.6-.87-1.48-.66-1.33-.41-1.07-.24-.76-.07-.32.07-.31,3-.75,2.84-1.13,2.7-1.48,2.55-1.8,2.43L226.35,397l-2.27,2.17-2.47,2L219.07,403l-2.63,1.78-2.7,1.77-2.68,1.63-.16.06h-1.76l-.14-.06.24-1.84.36-2,.41-2.05.38-2.12.3-2.13.21-2.18v-2.07l-.24-2-.55-1.9-.91-1.76-1.33-1.6-1.79-1.4-5,4.45-4.81,3.33-4.6,2.4-4.34,1.59-4,.92-3.71.36-3.37-.06-2.8-.34-2.28-.51-1.75-.52-1.11-.44-.47-.2-.27-.14-.23-.14-.14-.14-.1-.16V395l.1-.16.13-.17.17-.18.2-.19.24-.19,3.57-2.39,2.9-2.73,2.26-3,1.7-3.23,1.23-3.4.71-3.52.3-3.57-.08-3.58-.4-3.54-.64-3.43-.85-3.34-1-3.08-.25.17-.24.19-.26.2-.23.21-.26.22-.25.21-.24.21-.24.22-.25.21-.23.22-.24.21-.22.2,1.23,3.94.66,3.54.1,3.18-.34,2.8-.71,2.42-1,2.06-1.24,1.7-1.31,1.35-1.31,1-1.24.65-1.11.31h-.88l-5-4.75-5.39-2.78L151.39,372l-6.37-.1-6.86.62-7.42.88-8.08.71-8.66.16-9.47-.84-10-2.23-10.76-4.1-11.52-6.38L71.8,362l-.43,1.32-.46,1.32-.52,1.3-.49,1.27-.66,1.26-.75,1.2-.85,1.11-1,1.12-1.1,1-1.24.9-1.47.8-.72-.46-.89-1.42-1-2.23L59,367.85,57.53,365l-1.87-2.9-2.28-2.67-2.73-2.23-3.26-1.41-3.85-.5L39,356l-5.2,2.15-.69-.44-.79-1-.8-1.42-.72-1.82-.52-2.13-.23-2.22.17-2.36.65-2.37,1.24-2.29L34.09,340l2.73-1.85,3.65-1.53-.22-.68-.27-.69-.33-.66-.37-.65-.4-.64-.42-.63L38,332l-.45-.63-.44-.63-.43-.65-.41-.63-.41-.66-5.58,4.91-5.16,3L20.42,338H16.23l-3.71-1.25-3.19-2.22L6.7,331.72l-2-3.2-1.37-3.34-.7-3.26V319l.74-2.23,4.56,2.3L12,320l3.45-.32,2.82-1.33,2-2.08,1.14-2.51.15-2.73-.93-2.63-2.12-2.29-3.37-1.68-4.75-.78L4.22,304l-.33-1.49v-1.8l.44-2,.87-2.08,1.24-2,1.73-1.85,2.16-1.58L13,290.08l3.1-.63h3.58l4.18.72,4.59,1.67,1.42-16.13,3.71-13.35L39,251.57l6.7-8.71,7.52-7,7.88-5.56,7.71-4.67,7.17-4L82.06,218l4.59-3.85,2.4-4m970,42.45-1.13-.57-1.13-.64-1.11-.72-1.07-.79-1-.85-1-.9-.92-1-.85-1-.78-1-.68-1.05-.59-1.06-.5-1.11-.52.7-.4.8-.27.9-.2,1-.09,1v2.22l.08,1.11.11,1.11.11,1.12.12,1,.11,1-.38.21-.42.17-.47.12-.48.1h-2.07l-.52-.07-.48-.1-.46-.12-.43-.14-.56-.1-.53-.16-.5-.21-.51-.23-.48-.28-.49-.28-.48-.29-.49-.28-.5-.26-.49-.23-.51-.2-.54-.13-1.6,2.05-1.81,1.93-1.94,1.63-2.09,1.4-2.23,1.2-2.32,1-2.48.88-2.47.74-2.48.65-2.54.56-2.55.54-2.54.52-.36.15-.38.23-.4.28-.42.3-.42.28-.42.26-.4.2-.37.1H1005l-.3-.15-.26-.34-.2-.52-.52-1.46-.35-1.42-.2-1.41-.07-1.39.07-1.4.16-1.36.29-1.36.38-1.35.46-1.33.53-1.34.59-1.31.65-1.3-1.56-.31-1.56-.2-1.58-.1H1000l-1.6.07-1.58.13-1.58.2-1.56.23-1.55.29-1.53.3-1.48.35-1.49.27-2.19.8-2.15,1L981.17,253l-2,1.24-1.94,1.33L975.37,257l-1.76,1.57L972,260.22,970.46,262l-1.41,1.84-1.24,1.9-1.07,1.94-.18.21-.18.2-.19.19-.18.16-.2.14-.19.13-.2.09-.2.07h-.78l-1-1.22-.9-1.26-.82-1.3-.7-1.32-.62-1.37-.55-1.39-.48-1.41-.4-1.44-.35-1.44-.28-1.48-.25-1.48-.2-1.5-1,.12-1.82.21-2.58.29-3.2.35-3.71.42-4,.47-4.28.49-4.36.52-4.33.52-4.17.52-3.85.5-3.44.47,4,1.92,3.94,2.1,3.9,2.23,3.86,2.35,3.8,2.48,3.71,2.62,3.62,2.75,3.51,2.87,3.36,3,3.2,3.15,3.09,3.28,2.84,3.42,1-.25,1-.35,1.08-.4,1.09-.42,1.12-.41,1.13-.37,1.12-.29,1.13-.16h1.11l1.1.17,1.09.39,1,.66.11,3.78.36,3.72.61,3.62.82,3.56,1,3.49,1.24,3.42,1.37,3.34,1.55,3.34,1.67,3.26,1.78,3.21,1.86,3.19,2,3.13.16.1.14.1h.51l.1-.08.07-.1.06-.11v-.42l-.79-4.53-.4-4.33-.09-4.14.16-4,.31-3.94.39-3.88.37-3.89.28-3.9.11-4-.13-4.08-.47-4.19-.88-4.45-.53-1.12-.65-1-.73-.92-.8-.88-.87-.81-.94-.77-1-.72-1-.71-1.05-.69-1-.68-1.06-.69-1.07-.69-.08-.16-.09-.18-.07-.16-.08-.2v-1.14l.08-.19.1-.17.12-.08.11-.1.11-.1.11-.12.12-.11.1-.09.11-.11.11-.09.1-.07.11-.07.12-.06h.11l2.48-.52,2.58-.34,2.61-.17H988l2.61.21,2.56.41,2.47.64,2.4.84,2.28,1.11,2.14,1.34,2.07,1.57,1.77,1.84,2.35-1,2.48-.83,2.61-.59,2.7-.36,2.75-.17H1022l2.81.26,2.74.41,2.65.6,2.55.75,2.48.92,2.25,1.11,3.13,1.77,2.75,2,2.48,2.22,2.21,2.4,1.9,2.58,1.6,2.74,1.3,2.88,1,3,.68,3.07.36,3.16v3.2l-.25,3.24-.42,1.37-.37,1.3-.61,1.44-.68,1.44-.76,1.42-.82,1.37-.85,1.3-.9,1.21-.94,1.11-.93.95-1,.79-.95.59-.78-.95-.8-1-.84-1-.87-1-.92-1-1-.91-1-.82-1.1-.68-1.24-.52-1.24-.33-1.36-.11-1.46.14-1.4.36-1.24.49-1.23.63-1.1.75-1,.84-.9.93-.78,1-.7,1.12-.59,1.11-.47,1.11-.37,1.11-.27,1.18v2.24l.18,2.09.39,2,.53,1.87.72,1.75.89,1.66,1,1.55,1.23,1.44,1.42,1.42,1.57,1.24,1.77,1.12,1.93,1.11,2.75,1.26,3,1.11,3.17.93,3.24.78,3.33.58,3.32.38,3.39.15,3.38-.09,3.31-.34,3.22-.62,3.08-.9,2.89-1.22.78-.54.82-.51.81-.53.83-.52.83-.53.8-.54.79-.57.75-.59.69-.64.62-.68.55-.73.49-.8-6.67-.89-5.38-1.6L1065,332.7l-3.13-2.58-2.23-2.9-1.48-3.05-.78-3.06-.26-2.94.15-2.67.4-2.23.55-1.72.57-1,1,.65,1.12.56,1.24.48,1.24.39,1.23.3,1.24.2,1.32.1h1.33l1.31-.1,1.23-.21,1.24-.31,1.24-.44-2.13-2.1-1.45-2.22-.85-2.23-.3-2.22.14-2.23.52-2.1.8-1.95,1-1.75,1.24-1.48,1.24-1.2,1.23-.8,1.15-.39,2.38,2.81,2.47,2.06,2.48,1.36,2.47.76,2.48.23,2.32-.21,2.19-.58,2-.86,1.78-1.11,1.5-1.11,1.24-1.21.83-1.12.91-2,.6-2.22.24-2.23-.11-2.22-.54-2.1-1-1.85-1.44-1.5-1.93-1-2.48-.46-3,.22-3.65,1-4.27,1.93-.4-5.5.69-4.38,1.61-3.34,2.32-2.44,2.88-1.62,3.23-.91,3.42-.3,3.37.21,3.19.6,2.81.91,2.23,1.11,1.48,1.2-.8-4.45-1.73-4.34-2.48-4.11-3.29-3.72-3.94-3.14-4.53-2.43-5-1.57-5.41-.54-5.74.67-6,2-6.18,3.51-6.18,5.18m-956.4,2.85-6.18-5.19-6.13-3.54-6-2-5.74-.67-5.42.53-5,1.57-4.51,2.43L60,251.78l-3.3,3.72-2.53,4.12L52.4,264l-.8,4.45,1.47-1.22,2.23-1.11,2.81-.91,3.14-.6,3.39-.2,3.4.3,3.22.91,2.9,1.62,2.32,2.44,1.6,3.34.71,4.38-.42,5.5L74.1,281l-3.71-1-3-.23-2.39.44-2,1.11-1.45,1.5-1,1.84L60,286.68l-.12,2.23.24,2.22.6,2.23.91,2,.83,1.11,1.24,1.2,1.5,1.18L67,299.94l2,.86,2.16.55,2.33.23,2.47-.24,2.47-.74,2.48-1.37,2.47-2.06,2.38-2.82,1.14.4,1.23.81,1.24,1.18,1.17,1.49,1,1.74.82,2,.51,2.1.15,2.23-.31,2.22-.85,2.23-1.46,2.22L88.29,315l1.23.45,1.24.31L92,316l1.31.1h1.32l1.24-.07,1.24-.2,1.23-.3,1.24-.39,1.24-.48,1.11-.57,1-.63.56,1,.54,1.73.42,2.22.14,2.68-.11,3-.78,3.07-1.49,3.08-2.23,2.9-3.16,2.61L92.68,338l-5.37,1.61-6.68.89.48.8.56.73.63.68.68.64.75.6.78.56.8.54.83.53L87,346l.83.53.8.52.78.54,2.89,1.15,3.1.91,3.2.61,3.32.35,3.37.09,3.4-.16,3.37-.34,3.33-.59,3.24-.78,3.12-1,3-1.11,2.75-1.27,1.93-1.11,1.76-1.11,1.58-1.24,1.4-1.35,1.24-1.45,1-1.55.89-1.66.72-1.75.53-1.86.37-2,.21-2.1v-2.23l-.27-1.19-.36-1.11-.47-1.11-.58-1.12-.69-1.11-.8-1-.9-.94-1-.85L133,317l-1.24-.64-1.3-.49-1.4-.35-1.46-.15-1.36.11-1.24.34-1.16.51-1.1.69-1,.81-1,.9-.92,1-.87,1-.78,1-.8,1-.8.95-.94-.59-.95-.79-1-.95-.93-1.11-.94-1.17-.85-1.3-.82-1.38L109.4,315l-.68-1.45-.62-1.44-.51-1.4-.42-1.37-.17-3.27v-3.19l.37-3.16.67-3.07,1-3,1.24-2.87,1.7-2.73,1.9-2.58,2.2-2.42,2.47-2.22,2.83-2,3.13-1.78,2.26-1.11,2.48-.92,2.56-.75,2.66-.6,2.73-.41,2.77-.24h2.78l2.76.17,2.71.38,2.61.58,2.47.82,2.35,1,1.77-1.84,2-1.59,2-1.33,2.28-1.11,2.4-.85,2.47-.63,2.55-.41,2.61-.21h2.62l2.63.17,2.58.36,2.47.51h.24l.11.08.11.08.1.09.11.1.11.1.1.11.11.1.12.11.11.1.12.09.1.17.09.19v1.16l-.06.2-.09.17-.09.18-.09.15-1.05.69-1.07.69-1,.68L181,275l-1,.71-1,.72-.93.77-.88.81-.82.88-.73.93-.64,1-.53,1.11-.88,4.38-.47,4.22-.13,4.07.11,4,.3,3.9.37,3.87.38,3.89.31,3.94.16,4,0,4.21-.41,4.32-.79,4.58v.53l.09.1.09.08.11.05h.4l.15-.06.16-.12,2-3.12,1.9-3.18,1.78-3.23,1.81-3.29,1.54-3.34,1.37-3.34L186,309l1-3.49.82-3.54.6-3.64.37-3.7.11-3.78,1-.66,1.08-.39,1.1-.18h1.11l1.13.17,1.14.29,1.11.35,1.13.43,1.1.42,1.06.4,1,.35,1,.24,2.83-3.41,3-3.28,3.2-3.14,3.37-3,3.5-2.87,3.62-2.75,3.71-2.61,3.8-2.48,3.87-2.36,3.9-2.22,3.92-2.1,3.94-2-3.43-.46-3.86-.5-4.15-.53-4.34-.51-4.37-.51-4.28-.5-4.06-.47-3.71-.41-3.19-.37-2.58-.28-1.84-.22-.94-.11-.21,1.49-.23,1.48-.3,1.48L202.8,261l-.4,1.44-.48,1.41-.54,1.39-.61,1.36-.72,1.32-.81,1.3-.9,1.26-1,1.22h-.79l-.2-.08-.2-.09-.19-.12-.2-.14-.19-.16-.18-.19-.17-.21-.18-.21L194,268.6l-1.23-1.88-1.39-1.81-1.51-1.75-1.63-1.65L186.43,260l-1.85-1.45-1.94-1.34-2-1.23-2.09-1.11-2.15-1-2.18-.8-1.47-.34-1.51-.32-1.51-.33-1.56-.27-1.55-.24-1.59-.2-1.58-.13-1.6-.08h-1.57l-1.58.1-1.56.2-1.56.31.64,1.3.61,1.31.52,1.34.46,1.33.38,1.35.29,1.36.17,1.37v1.37l-.08,1.4-.2,1.42-.34,1.42-.51,1.46-.21.53-.25.33-.3.15h-.35l-.38-.11-.41-.19-.41-.27-.42-.27-.42-.3-.35-.14-.38-.23-.36-.16-2.47-.51-2.55-.53-2.48-.58-2.47-.65-2.47-.74-2.48-.88-2.32-1-2.23-1.2-2.08-1.4-2-1.62L128,256.53l-1.6-2.23-.54.15-.51.18-.5.24-.49.26-.49.28-.48.29-.48.29-.5.27-.49.23-.52.21-.53.17-.56.09-.42.13-.47.12-.48.1-.51.08-.52.06h-1.11l-.52-.07-.48-.07-.47-.13-.42-.17-.39-.21.11-1,.13-1,.12-1.11.1-1.12.08-1.11v-2.22l-.09-1-.19-1-.28-.9-.4-.8-.53-.7-.49,1.11-.58,1.06-.69,1.05-.77,1-.86,1-.92,1-1,.91-1,.86-1.07.79-1.1.71-1.13.64-1.14.57M1056.51,156l6.18,5.17,6.19,3.52,6,2,5.74.68,5.41-.54,5-1.55,4.51-2.45,4-3.15,3.29-3.7,2.55-4.1,1.72-4.36.8-4.45-1.48,1.2-2.24,1.11-2.8.9-3.19.62-3.39.2-3.4-.29-3.22-.92-2.9-1.62-2.32-2.45-1.61-3.33-.7-4.38.41-5.5,4.27,1.92,3.73,1,3,.23,2.47-.47,2-1,1.44-1.49,1-1.85.52-2.1.13-2.22-.26-2.23-.59-2.22-.92-2-.82-1.11-1.24-1.22-1.5-1.16-1.78-1.06-2-.86-2.18-.58-2.34-.22-2.47.24-2.48.76-2.47,1.37-2.47,2.06-2.38,2.8-1.15-.39-1.23-.81-1.24-1.18-1.24-1.49-1-1.75-.82-2-.51-2.1-.15-2.22.31-2.23.84-2.22,1.45-2.23,2.13-2.1-1.24-.42-1.24-.32-1.23-.21-1.24-.1h-1.32l-1.33.11-1.23.2-1.24.3-1.24.39-1.23.47-1.12.57-1,.63-.55-1-.56-1.71-.41-2.23-.15-2.68.28-2.94.77-3.07,1.45-3.06,2.23-2.9,3.15-2.61,4.19-2.22,5.38-1.6,6.67-.9-.47-.8-.56-.73-.63-.69-.69-.62-.74-.61-.79-.55-.8-.54-.82-.54-.84-.51-.82-.52-.81-.54-.77-.54-2.91-1.2-3.08-.91-3.2-.61-3.32-.35-3.37-.08-3.4.14-3.38.38-3.32.58-3.24.78-3.13.95-3,1.11L1031.94,66,1030,67l-1.76,1.11-1.58,1.24-1.41,1.35L1024,72.19l-1,1.54-.89,1.65-.7,1.77-.55,1.86-.37,2-.2,2.08v2.22l.26,1.18.37,1.17.49,1.11.58,1.11.69,1.12.79,1,.9.93,1,.85,1.1.74,1.24.62,1.23.5,1.4.36,1.48.14,1.36-.11,1.23-.33,1.24-.52,1.1-.67,1-.82,1-.92.91-1,.87-1,.84-1,.8-1,.79-1,.94.6,1,.78.94,1,.93,1.11.9,1.21.87,1.3.81,1.37.76,1.42.69,1.45.61,1.42.5,1.43.43,1.34.23,3.25v3.2l-.37,3.15-.68,3.08-1,3-1.23,2.87-1.61,2.73-1.9,2.58-2.38,2.43-2.47,2.22-2.83,2-3.13,1.78-2.27,1.05-2.47.92-2.56.77-2.66.58-2.73.42-2.77.24h-2.79l-2.76-.16-2.7-.37-2.61-.59-2.48-.82-2.34-1.05-1.77,1.85-2,1.57-2.12,1.35-2.29,1.11-2.39.86-2.47.63-2.56.41-2.6.21H983l-2.62-.17-2.59-.35-2.47-.52h-.35l-.11-.09-.11-.09-.1-.1-.11-.1-.11-.1-.12-.11-.1-.11-.12-.1-.11-.09-.1-.18-.09-.18V140l.08-.18.08-.17.09-.18.09-.16,1-.69,1.06-.69,1.07-.67,1-.7,1-.7,1-.74.94-.77.88-.8.81-.88.73-.93.63-1,.53-1.11.9-4.38.45-4.22.15-4.07-.11-4-.3-3.9-.37-3.87-.38-3.89-.33-3.93-.14-4,.08-4.15.4-4.33.8-4.53v-.53l-.08-.1-.09-.09-.11-.06h-.4l-.16.07-.16.11-2,3.14L981.13,86l-1.78,3.22-1.67,3.26-1.53,3.33-1.38,3.34-1.23,3.44-1,3.48-.83,3.56-.59,3.64-.39,3.7-.1,3.78-1,.64-1.08.4-1.09.18h-1.12l-1.13-.15-1.13-.29-1.13-.36-1.11-.42-1.1-.42-1.06-.4-1-.35-1-.26-2.83,3.43-3,3.27-3.2,3.14-3.36,3-3.5,2.88L938,137.83l-3.72,2.6-3.8,2.49-3.87,2.36-3.9,2.23-3.93,2.1-4.13,1.87,3.41.46,3.87.49,4.16.53,4.33.52,4.38.51,4.28.5,4,.47,3.71.41,3.19.37,2.59.27,1.83.23.93.11.22-1.49.24-1.48.3-1.47.34-1.46.4-1.44.47-1.4.55-1.4.62-1.36.72-1.32.8-1.3.9-1.26,1-1.22h.78l.21.06.2.1.19.13.2.14.17.16.2.19.17.2.17.22,1.08,1.94,1.24,1.87,1.38,1.83,1.51,1.73,1.62,1.67,1.73,1.54,1.86,1.45,1.93,1.34,2,1.23,2.09,1.12,2.14,1,2.2.79,1.46.35,1.5.33,1.52.31,1.55.29,1.56.24,1.6.19,1.58.14H999l1.58-.1,1.57-.21,1.56-.3-.65-1.31-.6-1.32-.52-1.32-.47-1.33-.37-1.35-.28-1.36-.18-1.37v-2.78l.21-1.41.35-1.43.51-1.46.2-.53.26-.32.31-.17h.34l.39.1.4.2.42.27.42.28.42.3.4.27.38.24.36.15,2.47.52,2.56.53,2.48.57,2.47.65,2.48.76,2.47.87,2.31,1,2.23,1.2,2.09,1.39,2,1.64,1.8,1.88,1.6,2.15.53-.13.51-.19.5-.23.5-.27.48-.28.48-.29.48-.27.5-.28.49-.25.51-.2.55-.16.55-.09.42-.15.47-.11.49-.11.5-.07H1043l.48.1.47.12.42.17.39.21-.11,1-.13,1-.12,1.11-.1,1.11-.08,1.11v2.23l.09,1,.17,1,.29.9.41.81.52.72.49-1.12.58-1.05.68-1.05.78-1,.84-1,.94-1,1-.9,1-.86L1053,158l1.1-.72,1.14-.63,1.14-.56M100.25,159l1.13.57,1.13.63,1.1.73,1.08.79,1,.85,1,.9.91,1,.86,1,.78,1,.68,1.05.59,1.06.48,1.11.53-.7.4-.8.29-.91.17-1,.1-1V163l-.07-1.11-.1-1.12-.13-1.11-.12-1-.1-1,.38-.22.42-.17.46-.12.5-.08.5-.07h1l.51.06.52.06.48.1.46.13.43.14.55.09.54.17.51.2.51.24.48.27.48.29.48.29.48.28.5.26.49.24.52.17.53.15,1.61-2.16,1.78-1.89,2-1.61,2.09-1.4,2.22-1.2,2.32-1,2.47-.88,2.47-.75,2.48-.64,2.55-.58,2.47-.55,2.55-.51.36-.15.37-.23.41-.27.42-.29.42-.31.41-.25.4-.2.38-.1h.34l.31.16.26.33.2.52.51,1.45.36,1.43.2,1.42.06,1.4-.08,1.38-.17,1.37-.27,1.35-.37,1.35-.47,1.33-.55,1.33-.58,1.31-.65,1.31,1.55.3,1.57.2,1.59.12h1.58l1.6-.07,1.58-.13,1.57-.2,1.58-.25,1.54-.29,1.52-.3,1.5-.32,1.47-.35,2.19-.81,2.16-.94,2.09-1.12,2-1.22,1.92-1.35,1.85-1.44,1.75-1.56,1.66-1.66,1.5-1.73,1.38-1.83,1.24-1.87,1.07-2,.17-.21.19-.2.17-.19.19-.16.2-.14.2-.14.18-.08.21-.07h.78l1,1.22.9,1.26.8,1.29.7,1.32.63,1.37.55,1.38.47,1.42.4,1.44.36,1.44.28,1.48.25,1.48.2,1.49.94-.12,1.83-.2,2.58-.29,3.2-.35,3.71-.43,4.05-.46,4.28-.5,4.38-.51,4.33-.53,4.16-.52,3.85-.49,3.44-.48-4-1.87-3.93-2.1-3.9-2.22-3.86-2.37-3.81-2.48-3.71-2.62-3.64-2.73-3.5-2.88-3.36-3-3.2-3.14-3-3.28-2.84-3.41-1,.25-1,.35-1.08.4-1.1.42L194,124l-1.13.36-1.13.28-1.13.18h-1.1l-1.11-.17-1.08-.4-1-.64-.11-3.79-.36-3.7-.6-3.63-.83-3.56-1-3.48L182.11,102l-1.38-3.34-1.54-3.33-1.67-3.26-1.78-3.22-1.88-3.17-2-3.15-.16-.11-.15-.06h-.4l-.1.06-.1.08-.08.1-.07.11v.42l.79,4.53L172,92l.09,4.16-.16,4-.31,3.94-.38,3.88-.37,3.87-.29,3.9-.11,4,.14,4.07.46,4.21.89,4.39.53,1.11.63,1,.73,1,.82.87.87.81.93.77,1,.73,1,.71,1,.69,1.06.68,1.07.68,1.05.7.1.16.07.18.09.16.07.19V144l-.07.19-.1.16-.13.09-.11.1-.11.1-.11.11-.11.1-.1.12-.11.1-.11.08-.1.08-.11.07-.13.06h-.11l-2.47.51-2.59.34-2.62.18h-2.62l-2.6-.21-2.56-.41-2.47-.64-2.39-.84L159,143.19l-2.14-1.34-1.95-1.59-1.78-1.86-2.34,1.11-2.47.82-2.61.6-2.71.36-2.76.17h-2.78l-2.78-.23-2.73-.43-2.66-.59-2.56-.75-2.47-.93L122,137.48l-3.12-1.77-2.83-2-2.48-2.23-2.2-2.41-1.9-2.58-1.6-2.74-1.23-2.88-1-3-.67-3.08-.37-3.15v-3.2l.26-3.25.4-1.34.53-1.42.6-1.44.67-1.44.76-1.42.83-1.37.86-1.3.89-1.2.93-1.11,1-.94,1-.79.94-.59.8,1,.8,1,.84,1,.86,1,.9,1,1,.91,1,.81,1.1.68,1.24.52,1.24.34,1.36.11,1.47-.15,1.4-.35,1.24-.5,1.24-.64,1.1-.73,1-.85.9-.92.77-1,.7-1.11.58-1.12.48-1.11.37-1.17.27-1.18V86.15l-.2-2.09-.37-2-.54-1.86-.7-1.77-.89-1.66L133,75.25,131.8,73.8l-1.41-1.34-1.58-1.25-1.76-1.11L125.11,69l-2.73-1.26-3-1.11-3.12-1-3.25-.78-3.33-.59-3.37-.38L103,63.77l-3.38.09-3.32.34-3.21.61-3.37.89-2.9,1.22-.77.54-.82.53-.82.51-.82.52-.83.53-.8.54-.79.55-.74.62-.7.63-.61.67-.52.69-.5.8,6.68.9,5.38,1.63,4.19,2.23,3.15,2.6,2.23,2.9,1.44,3.06.8,3.06.24,2.94L102.05,96l-.41,2.23L101.1,100l-.57,1-1-.64-1.13-.57-1.23-.47-1.24-.39-1.24-.3-1.31-.2L92,98.32H90.71l-1.31.1-1.24.21-1.23.31-1.24.43,2.13,2.1,1.46,2.24.84,2.22.3,2.23-.15,2.22-.51,2.1-.81,2-1,1.75-1.24,1.49-1.23,1.17-1.24.82-1.14.39-2.37-2.83-2.48-2-2.47-1.36-2.48-.76-2.47-.23-2.34.21-2.17.57-2,.87-1.78,1L61,116.71l-1.23,1.21L59,119l-.77,2-.59,2.23-.25,2.22.12,2.23.54,2.1,1,1.86,1.44,1.5,1.94,1,2.48.46,3-.22,3.64-1,4.28-1.92.4,5.5-.69,4.39-1.61,3.33-2.32,2.44-2.9,1.68-3.24.91-3.4.3-3.39-.21-3.18-.6-2.8-.91-2.23-1.11-1.48-1.2.8,4.45,1.73,4.35,2.56,4,3.29,3.7,3.92,3.2,4.51,2.44,5,1.56,5.4.53,5.75-.67,6-2,6.19-3.51,6.18-5.19" transform="translate(0 -3.08)"/><path id="Path_201" data-name="Path 201" class="cls-3" d="M732.55,209.83l.91,3.79V217l-.77,2.9-1.38,2.45-1.84,2.08-2.14,1.67-2.28,1.28-2.29.9-2.11.53-1.8.18-1.33-.18-.69-.54,2.47-3.49.47-3.34-1.24-3.2-2.57-3-3.62-2.82L708,209.78l-4.76-2.3-4.89-2-4.65-1.67-4.13-1.31-3.3-.93-2.14-.5v.1l.19.31.33.44.45.57.51.65.55.67.54.69.5.68.42.63.3.54.13.41V207l-1.94-.87-2.21-.73-2.39-.63-2.47-.56-2.48-.53-2.47-.53-2.31-.54-2.08-.61-1.76-.7-1.4-.83-.91-1-.39-1.17h-1.86l-1,.07-1.06.1-1.07.13-1,.14-1,.15-.9.17-.78.17-.64.19-.47.18-.3.18,1.68,1.11,1.51,1.32,1.45,1.33,1.35,1.42,1.23,1.46,1,1.53.93,1.58.78,1.64.63,1.7.47,1.75.31,1.79.15,1.85-.15.17-.14.09h-.44l-.15-.08-.14-.11-.13-.11-.15-.11-.12-.1-.14-.09-.14-.06-2.73-2.05-3-1.58L656,213.18l-3.35-.74-3.36-.42-3.32-.17h-3.14l-2.91.21-2.54.3-2.22.38-1.6.33-1,.26,1.58,1.1,1.32,1.3,1.12,1.48.89,1.54.69,1.6.49,1.55.3,1.46.12,1.31v1.12l-.2.79-.35.45H638l-1.78-1.3-2-1-2.13-.8-2.25-.57-2.32-.36-2.4-.16h-2.47l-2.48.17-2.37.32-2.3.44-2.2.56-2.07.63-.1.52v2.23l-.1.84-.16.85-.27.79-.4.71-.57.6-.74.44-1,.26h-1.24l-.58-1.51-.7-1.11-.84-.85-.92-.58-.94-.33-1-.12-.94.05-.88.2-.8.31-.67.4-.52.45-.32.45-.14.37-.1.46v1.11l.08.62.17.66.26.66.37.66.49.65.63.61.78.57.95.5-1.35.55-1.38.29-1.4,0-1.42-.13-1.41-.31-1.39-.46-1.35-.58-1.3-.66-1.23-.75-1.14-.78-1-.79-.91-.79-4.33.32-4.37.13-4.34-.16-4.33-.41-4.22-.71-4.08-1-3.93-1.37-3.71-1.74L549.06,225l-3.19-2.55-2.86-3L540.53,216v2.47l-.07,2.28-.11,2.09-.17,1.88-.23,1.67-.24,1.47-.29,1.26-.28,1-.33.82-.31.57-.3.38-.31.12-.34-.16-.31-.25-.3-.3-.3-.34-.28-.34-.29-.33-.27-.3-.28-.22-.29-.15H535l-.3.1-.32.25-.41,1.91-.88,2-1.24,2-1.52,2-1.69,1.9-1.8,1.78L525,243.15l-1.67,1.42-1.56,1.1-1.24.89-.79.57-.3.2-.38-1.7-.52-1.69-.62-1.69-.66-1.69-.66-1.68L516,237.2l-.48-1.69-.31-1.68-.09-1.68.17-1.68.49-1.69.86-1.68-.57.16-.61.24-.68.27-.72.3-.72.28-.75.25-.74.18-.73.1h-.71l-.68-.18-.61-.34-.55-.54,1.32-1.11,1.24-1.17,1.24-1.21,1.23-1.26,1.17-1.29,1.08-1.33,1-1.37.93-1.38.84-1.42.73-1.46.6-1.48.49-1.49-1.78,1.31-1.8,1.23-1.82,1.11-1.84,1-1.88,1-1.94.88-2,.79-2.08.71-2.19.65-2.28.56-2.4.5-2.54.42-.22.29-.17.3-.13.34-.1.34v1l-.06.36-.06.35-.07.34-.11.33-.15.32L493.19,228l-2,1.45-2.2,1.11-2.4.69-2.57.4-2.67.16h-2.75l-2.77-.13-2.75-.18-2.7-.17-2.59-.1h-2.47V231l.18-.3.37-.33.49-.39.6-.44.71-.44.74-.47.78-.48.76-.46.76-.48.68-.45.59-.42h-.48l-1.47.07-2.33.05h-3.1l-3.77-.18-4.36-.41-4.83-.68-5.22-1-5.5-1.43-5.7-1.92-5.79-2.44-5.79-3.07-.94-.39-1.06-.32-1.24-.26-1.31-.17h-2.8l-1.46.17-1.49.33-1.46.47-1.43.63-1.39.81-1.31,1-.52-1.37-.38-1.5-.21-1.59v-1.65l.21-1.68.46-1.66.75-1.64,1-1.58,1.37-1.46,1.75-1.34,2.14-1.17,2.54-1,.34-3.42,1-2.86,1.6-2.38,2-1.9,2.3-1.48,2.47-1.12,2.48-.77,2.32-.47,2-.22h1.66l1.1.15.42.29v.13l-.12.15-.21.13-.26.17-.32.2-.36.24-.41.33-.43.41-.45.48-.46.6-.47.72-.45.86v2.59l.9,2.4,1.68,2.23,2.25,2,2.71,1.79,3,1.57,3.07,1.32,3,1.11,2.8.83,2.41.55,1.87.3h1.15l-.1-.79v-1.56l.07-.76.14-.76.2-.73.28-.71.37-.68.44-.66.54-.62.61-.57.73-.54,1.47,2.48,2,2.4,2.57,2.28,3.08,2.06,3.62,1.76,4.11,1.37,4.6.92,5.08.38,5.53-.25,6-1,6.41-1.73,6.84-2.6-2.77-.13L506.5,206l-3-.74-3-1-2.92-1.12-2.76-1.29-2.47-1.36-2.37-1.59-1.7-1.4L487,196.21l-.58-1.24.12-1.11.46-.05,1.16.1,1.8.18,2.38.22,3.05.18,3.4.1h3.82l4.2-.26,4.5-.55,4.75-.88,4.94-1.26,5.1-1.72-.27-.28-.78-.29L523.8,189l-1.53-.4-1.79-.49-2-.6-2-.71-2-.88-1.93-1-1.73-1.23-1.49-1.45-1.12-1.67.14-.29.71-.11h7.7l2.91-.15,3.23-.35,3.5-.57,3.71-.87L534,177l4-1.63-.51-.41-.47-.44-.44-.48-.4-.5-.35-.52-.31-.54-.23-.55-.19-.58-.11-.55v-1.14l.13-.55.41-.34.52-.15h.58l.68.12.75.18.82.2.9.17,1,.11h1l1.09-.15,1.13-.37,1.24-.62.77-.49.47-.55.23-.61.07-.65-.07-.67-.13-.67-.16-.65-.13-.65v-.58l.11-.53.31-.45.57-.35,1.88-.06,1.68.22,1.48.43,1.3.61,1.1.75.94.79.79.8.63.77.52.69.38.56.3.34.19.14,4.67-1.05,4.86-.82,5-.55,5-.24,5,.1,4.94.46,4.84.89,4.65,1.36,4.43,1.81,4.1,2.36,3.71,2.92,3.33,3.51,1,1.33.9,1.39.77,1.45.64,1.5.52,1.56.42,1.61.3,1.64.2,1.66.08,1.7v1.71l-.11,1.74-.23,1.73.15-.11.37-.34.54-.59.66-.82.7-1.06.71-1.28.67-1.49.58-1.7.43-1.91.23-2.12v-2.31l-.32-2.5,1.06-.16h1.13l1.23.18,1.24.34,1.23.53,1.24.7,1.24.89,1.14,1.11,1.07,1.25,1,1.42.86,1.62.75,1.8,1.5-.45,1.4-.64,1.3-.78,1.24-.91,1.12-1,1-1.12.79-1.25.86-1.25.8-1.26.7-1.25.66-1.26.57-1.21.15-.22.17-.14.21,0h.22l.25.06.25.1.26.14.25.15.24.18.25.17.21.17.13.11.89,1,.75,1.12.56,1.25.44,1.35.31,1.38.2,1.41.07,1.4v1.33l-.06,1.23-.15,1.12-.19.93-.23.73,4.95-1.58,5.18-1.25,5.37-.91,5.48-.6,5.55-.32h5.61l5.59.28,5.56.54,5.45.79,5.32,1,5.2,1.32,4.95,1.48,1.4.46,1.48.42,1.55.37,1.58.31,1.62.2,1.61.12h1.61l1.52-.18,1.52-.31,1.46-.5,1.37-.69,1.24-.91L735,193l.22-.28.22-.3.23-.32.22-.33.25-.31.23-.25.25-.21.23-.14.25,0h.25l.22.17,1.68,2.72.94,2.53.26,2.34-.26,2.14-.69,1.92-1,1.7-1.18,1.5-1.23,1.27-1.24,1.05-1.06.8-.8.55-.4.31M609.17,198.26l-2.76-.83-2.47-.47-2.1-.16-1.81.1-1.51.31-1.24.46-1,.57-.8.62-.6.64-.41.58-.26.47-.11.33,1.11.38,1.36.59,1.51.81,1.55,1,1.5,1.22,1.35,1.45,1.09,1.62.75,1.84.27,2-.26,2.22-.93,2.39L601.75,219l-1.24,1.28-1.33,1.11-1.45.95-1.52.82-1.6.64-1.66.5-1.73.37-1.75.2-1.81.07-1.82-.08-1.84-.21-1.84-.36-3.32-1L576.37,222l-1.8-1.4-1.15-1.52-.63-1.6-.18-1.61.18-1.59.45-1.5.63-1.4.7-1.2.7-1,.59-.72-2.47-.7-2.24-.13-2,.32-1.81.7-1.58,1-1.41,1.11L563.08,212l-1,1.2-.86,1.11-.66.87-.52.57-.36.15-1.86-1.11-1.84-1.6-1.72-1.95L552.78,209l-1.12-2.44L551,204l-.06-2.6.63-2.58,1.42-2.48,2.37-2.22,3.37-2,4.53-1.67,1.63-.2,1.59-.1H568l1.47.17,1.33.29,1.35.44,1.24.59,1.24.74,1.1.9,1,1.11.89,1.23.8,1.43,1.1-.8,1-1,.95-1.21.79-1.37.59-1.5.31-1.59v-1.73l-.4-1.7-.87-1.64-1.34-1.67-1.89-1.61-2.47-1.5-1.72-.78-1.83-.51-1.88-.31-1.88-.15h-1.89l-1.9.17-1.9.31-1.84.46-1.82.55-1.77.68-1.7.78-1.64.87-.21.13-.23.15-.24.17-.26.16-.23.18-.25.17-.22.15-.2.15-.19.11-.13.08h-.19v-.1l.1-.12.15-.16.17-.19.2-.19.21-.21.23-.21.23-.21.21-.21.2-.19.19-.17,2.15-1.88,2.27-1.69,2.48-1.49,2.47-1.29L566,173.8l2.76-.89,2.82-.7,2.9-.49,3-.31,3-.1,3.07.08,3.1.27,1.87.45,2.29.64,2.56.89,2.73,1.12,2.78,1.48,2.73,1.79,2.47,2.23,2.18,2.61,1.71,3.06,1.13,3.55.44,4.05-.4,4.62h0" transform="translate(0 -3.08)"/></g></g></g></svg>