<svg xmlns="http://www.w3.org/2000/svg" xmlns:xlink="http://www.w3.org/1999/xlink" width="83" height="83" viewBox="0 0 83 83">
  <defs>
    <clipPath id="clip-path">
      <rect id="Rectangle_4" data-name="Rectangle 4" width="83" height="83" transform="translate(191 866)" fill="#fff" stroke="#707070" stroke-width="1"/>
    </clipPath>
  </defs>
  <g id="Mask_Group_1" data-name="Mask Group 1" transform="translate(-191 -866)" clip-path="url(#clip-path)">
    <g id="logistics-delivery-truck-in-movement" transform="translate(191 866)">
      <g id="Group_1" data-name="Group 1" transform="translate(-10.714 -10.898)">
        <g id="Group_21" data-name="Group 21" transform="translate(18.624 18.229)">
          <g id="Page-1" transform="translate(0 0)">
            <g id="_037---Bar-Stall" data-name="037---Bar-Stall" transform="translate(0 0)">
              <path id="Shape" d="M8.677,9.466H20.4A3.909,3.909,0,0,1,16.5,13.375H12.586A3.909,3.909,0,0,1,8.677,9.466Z" transform="translate(2.072 2.261)" fill="#fd6a59"/>
              <path id="Shape-2" data-name="Shape" d="M18.143,9.466H29.87a3.909,3.909,0,0,1-3.909,3.909H22.052A3.909,3.909,0,0,1,18.143,9.466Z" transform="translate(4.333 2.261)" fill="#fd6a59"/>
              <path id="Shape-3" data-name="Shape" d="M27.609,9.466H39.336a3.909,3.909,0,0,1-3.909,3.909H31.518A3.909,3.909,0,0,1,27.609,9.466Z" transform="translate(6.594 2.261)" fill="#fd6a59"/>
              <path id="Shape-4" data-name="Shape" d="M56.679,11.727a3.933,3.933,0,0,1-1.143,2.766,3.985,3.985,0,0,1-1.788,1.016,3.574,3.574,0,0,1-.977.127H49.839a3.909,3.909,0,0,1-3.909-3.909H52.77a.977.977,0,1,0,0-1.954H46.594L44.884,5.5a.978.978,0,1,0-1.818.723l1.417,3.547h-9.3V7.818a.977.977,0,1,0-1.954,0V9.772H23.453V7.818a.977.977,0,1,0-1.954,0V9.772H12.2l1.417-3.547A.978.978,0,1,0,11.8,5.5l-1.71,4.27H3.909a.977.977,0,0,0,0,1.954H10.75a3.909,3.909,0,0,1-3.909,3.909H3.909a3.574,3.574,0,0,1-.977-.127,3.985,3.985,0,0,1-1.788-1.016A3.933,3.933,0,0,1,0,11.727a3.358,3.358,0,0,1,.528-1.8L5.4,2.267A4.861,4.861,0,0,1,9.518,0H47.161a4.861,4.861,0,0,1,4.114,2.267l4.876,7.661A3.358,3.358,0,0,1,56.679,11.727Z" transform="translate(0 0)" fill="#fd6a59"/>
              <rect id="Rectangle-path" width="56.679" height="3.909" rx="1.578" transform="translate(0 29.317)" fill="#fd6a59"/>
              <path id="Shape-5" data-name="Shape" d="M19.775,37.95l2.619,3.274V42.64a.489.489,0,0,1-.489.489h-8.8a.489.489,0,0,1-.489-.489V41.223L15.24,37.95a4.8,4.8,0,0,0,2.267-1.671A4.8,4.8,0,0,0,19.775,37.95Z" transform="translate(3.014 8.664)" fill="#fd6a59"/>
              <path id="Shape-6" data-name="Shape" d="M32.4,37.95l2.619,3.274V42.64a.489.489,0,0,1-.489.489h-8.8a.489.489,0,0,1-.489-.489V41.223l2.619-3.274a4.8,4.8,0,0,0,2.267-1.671A4.8,4.8,0,0,0,32.4,37.95Z" transform="translate(6.028 8.664)" fill="#fd6a59"/>
              <path id="Shape-7" data-name="Shape" d="M54.348,28.887V44.522a.489.489,0,0,1-.489.489H47.019a.489.489,0,0,1-.489-.489V43.105l2.619-3.274a4.877,4.877,0,0,0,3.141-5.6,5.018,5.018,0,0,0-4.973-3.875H39.69a4.9,4.9,0,0,0-3.909,1.954,4.9,4.9,0,0,0-3.909-1.954H24.054a4.9,4.9,0,0,0-3.909,1.954,4.9,4.9,0,0,0-3.909-1.954H8.614a5.018,5.018,0,0,0-4.973,3.875,4.877,4.877,0,0,0,3.136,5.6L9.4,43.105v1.417a.489.489,0,0,1-.489.489H2.066a.489.489,0,0,1-.489-.489V28.887a.489.489,0,0,1,.489-.489H53.859A.489.489,0,0,1,54.348,28.887Z" transform="translate(0.377 6.782)" fill="#fd6a59"/>
              <path id="Shape-8" data-name="Shape" d="M6.275,14.214V23.5a.489.489,0,0,1-.489.489H2.855a.489.489,0,0,1-.489-.489V14.136a6.283,6.283,0,0,0,.977.078Z" transform="translate(0.565 3.376)" fill="#fd6a59"/>
              <path id="Shape-9" data-name="Shape" d="M44.14,14.136V23.5a.489.489,0,0,1-.489.489H40.719a.489.489,0,0,1-.489-.489V14.214h2.932A6.093,6.093,0,0,0,44.14,14.136Z" transform="translate(9.608 3.376)" fill="#fd6a59"/>
              <path id="Shape-10" data-name="Shape" d="M28.1,31.554H20.279a2.932,2.932,0,0,0-.511,5.812l3.443,4.3v7.475a.977.977,0,0,0,1.954,0V41.669l3.443-4.3a2.932,2.932,0,0,0-.511-5.815Zm-3.909,8.209-1.875-2.345h3.751Zm3.909-4.3H20.279a.977.977,0,0,1,0-1.954H28.1a.977.977,0,0,1,0,1.954Z" transform="translate(4.152 7.536)" fill="#fd6a59"/>
              <path id="Shape-11" data-name="Shape" d="M15.476,31.554H7.658a2.932,2.932,0,0,0-.511,5.812l3.443,4.3v7.475a.977.977,0,0,0,1.954,0V41.669l3.443-4.3a2.932,2.932,0,0,0-.511-5.815Zm-3.909,8.209L9.691,37.417h3.751Zm3.909-4.3H7.658a.977.977,0,0,1,0-1.954h7.818a.977.977,0,0,1,0,1.954Z" transform="translate(1.137 7.536)" fill="#fd6a59"/>
              <path id="Shape-12" data-name="Shape" d="M43.65,34.485a2.932,2.932,0,0,0-2.932-2.932H32.9a2.932,2.932,0,0,0-.511,5.812l3.443,4.3v7.475a.977.977,0,1,0,1.954,0V41.669l3.443-4.3A2.932,2.932,0,0,0,43.65,34.485Zm-6.841,5.277-1.875-2.345h3.751ZM32.9,33.508h7.818a.977.977,0,1,1,0,1.954H32.9a.977.977,0,1,1,0-1.954Z" transform="translate(7.166 7.536)" fill="#fd6a59"/>
              <path id="Shape-13" data-name="Shape" d="M12.4,16.566h2.932l-.977,6.841H10.443l-.977-6.841Z" transform="translate(2.261 3.956)" fill="#fd6a59"/>
              <path id="Shape-14" data-name="Shape" d="M23.441,16.566h2.932L25.4,23.406H21.487l-.977-6.841Z" transform="translate(4.898 3.956)" fill="#fd6a59"/>
              <path id="Shape-15" data-name="Shape" d="M34.485,16.566h2.932l-.977,6.841H32.531l-.977-6.841Z" transform="translate(7.536 3.956)" fill="#fd6a59"/>
              <path id="Shape-16" data-name="Shape" d="M9.772,46.807a.489.489,0,0,1-.489.489H1.954A1.966,1.966,0,0,1,.008,45.168a2.028,2.028,0,0,1,2.056-1.781h7.22a.489.489,0,0,1,.489.489Z" transform="translate(0 10.361)" fill="#fd6a59"/>
              <path id="Shape-17" data-name="Shape" d="M21.909,47.3h-8.8a.489.489,0,0,1-.489-.489V43.875a.489.489,0,0,1,.489-.489h8.8a.489.489,0,0,1,.489.489v2.932A.489.489,0,0,1,21.909,47.3Z" transform="translate(3.015 10.361)" fill="#fd6a59"/>
              <path id="Shape-18" data-name="Shape" d="M34.531,47.3h-8.8a.489.489,0,0,1-.489-.489V43.875a.489.489,0,0,1,.489-.489h8.8a.489.489,0,0,1,.489.489c0,.751,0,2.185,0,2.932A.489.489,0,0,1,34.531,47.3Z" transform="translate(6.028 10.361)" fill="#fd6a59"/>
              <path id="Shape-19" data-name="Shape" d="M47.629,45.514A2.028,2.028,0,0,1,45.573,47.3h-7.22a.489.489,0,0,1-.489-.489V43.875a.489.489,0,0,1,.489-.489h7.329a1.966,1.966,0,0,1,1.947,2.127Z" transform="translate(9.043 10.361)" fill="#fd6a59"/>
            </g>
          </g>
        </g>
      </g>
    </g>
  </g>
</svg>
