<?xml version="1.0" encoding="utf-8"?>
<!-- Generator: Adobe Illustrator 24.0.0, SVG Export Plug-In . SVG Version: 6.00 Build 0)  -->
<svg version="1.1" id="Capa_1" xmlns="http://www.w3.org/2000/svg" xmlns:xlink="http://www.w3.org/1999/xlink" x="0px" y="0px"
	 viewBox="0 0 20.1 20.1" style="enable-background:new 0 0 20.1 20.1;" xml:space="preserve">
<style type="text/css">
	.st0{fill:#FFFFFF;}
</style>
<g>
	<g>
		<g>
			<path class="st0" d="M19.6,15.9l-3.1-3.1c-0.6-0.6-1.6-0.6-2.3,0l-1.6,1.6c-0.1-0.1-0.2-0.1-0.3-0.2c-1-0.5-2.3-1.3-3.8-2.7
				c-1.4-1.4-2.2-2.8-2.7-3.8C5.8,7.6,5.8,7.5,5.7,7.4l1-1l0.5-0.5c0.6-0.6,0.7-1.7,0-2.3L4.2,0.5C3.6-0.1,2.6-0.1,2,0.5L1.1,1.4
				l0,0C0.8,1.8,0.6,2.2,0.4,2.7C0.2,3.1,0.1,3.6,0.1,4c-0.4,3.4,1.1,6.5,5.4,10.7c5.8,5.8,10.5,5.4,10.7,5.4
				c0.4-0.1,0.9-0.2,1.3-0.3c0.5-0.2,0.9-0.4,1.3-0.7l0,0l0.9-0.9C20.2,17.5,20.2,16.5,19.6,15.9z"/>
		</g>
	</g>
</g>
</svg>
