<svg xmlns="http://www.w3.org/2000/svg" xmlns:xlink="http://www.w3.org/1999/xlink" width="83" height="83" viewBox="0 0 83 83">
  <defs>
    <clipPath id="clip-path">
      <rect id="Rectangle_4" data-name="Rectangle 4" width="83" height="83" transform="translate(191 866)" fill="#fff" stroke="#707070" stroke-width="1"/>
    </clipPath>
  </defs>
  <g id="Mask_Group_1" data-name="Mask Group 1" transform="translate(-191 -866)" clip-path="url(#clip-path)">
    <g id="logistics-delivery-truck-in-movement" transform="translate(191 866)">
      <g id="Group_1" data-name="Group 1">
        <g id="Group_23" data-name="Group 23">
          <g id="sports-car" transform="translate(8.619 8.619)">
            <g id="Group_22" data-name="Group 22">
              <path id="Path_5" data-name="Path 5" d="M65.384,24.011a1.691,1.691,0,0,0-1.3-.621h-6.4C56.1,19.224,54.042,15.143,51.7,13.6c-8.091-5.323-29.551-5.323-37.642,0-2.34,1.542-4.39,5.629-5.978,9.788h-6.4A1.685,1.685,0,0,0,.035,25.415l.948,4.593a1.683,1.683,0,0,0,1.648,1.342h1.9A11.37,11.37,0,0,0,1.8,38.782,11.131,11.131,0,0,0,5.316,47.14c.025.022.051.037.074.059v6.427a2.528,2.528,0,0,0,2.526,2.526h5.9a2.528,2.528,0,0,0,2.526-2.526V51.043H49.417v2.583a2.528,2.528,0,0,0,2.526,2.526h5.9a2.53,2.53,0,0,0,2.526-2.526v-6.3a11.552,11.552,0,0,0,.738-15.978h2.022A1.678,1.678,0,0,0,64.78,30l.95-4.592A1.7,1.7,0,0,0,65.384,24.011ZM16.835,17.82c6.449-4.245,25.643-4.245,32.088,0,1.253.822,2.864,4.144,4.341,8.212H12.5C13.971,21.965,15.582,18.645,16.835,17.82ZM9.281,39.415a4.969,4.969,0,1,1,4.969,4.969A4.968,4.968,0,0,1,9.281,39.415Zm42.3,4.969a4.968,4.968,0,1,1,4.969-4.969A4.97,4.97,0,0,1,51.577,44.384Z" fill="#fd6a59"/>
            </g>
          </g>
        </g>
      </g>
    </g>
  </g>
</svg>
