<svg xmlns="http://www.w3.org/2000/svg" xmlns:xlink="http://www.w3.org/1999/xlink" width="55" height="55" viewBox="0 0 55 55">
  <defs>
    <clipPath id="clip-path">
      <rect id="Rectangle_613" data-name="Rectangle 613" width="55" height="55" transform="translate(2644 -1432)" fill="#fd6a59" stroke="#707070" stroke-width="1"/>
    </clipPath>
  </defs>
  <g id="Mask_Group_10" data-name="Mask Group 10" transform="translate(-2644 1432)" clip-path="url(#clip-path)">
    <g id="curry" transform="translate(2644 -1432)">
      <g id="Group_104" data-name="Group 104">
        <g id="Group_103" data-name="Group 103">
          <path id="Path_89" data-name="Path 89" d="M46.942,8.062A27.5,27.5,0,0,0,10.019,6.281L4.514.776a2.647,2.647,0,0,0-4.028.336A2.726,2.726,0,0,0,.843,4.59l5.433,5.433A27.5,27.5,0,1,0,46.942,8.062ZM1.983,3.45a1.118,1.118,0,0,1-.188-1.4,1.035,1.035,0,0,1,1.58-.137L14.1,12.645a13.027,13.027,0,0,0,7.368,3.6,12.8,12.8,0,0,0-5.233,5.23,13.027,13.027,0,0,0-3.6-7.365ZM45.8,45.807A25.884,25.884,0,0,1,7.422,11.168l2.121,2.121a22.9,22.9,0,0,0,.471,28.995.806.806,0,0,0,1.229-1.042,21.284,21.284,0,0,1-.552-26.805l.811.811a11.673,11.673,0,0,1,3.256,7.38c.02.23.051.463.092.693a7.011,7.011,0,0,0,.271,1.038c-.048.189-.093.379-.132.571a.806.806,0,1,0,1.579.323,11.16,11.16,0,0,1,8.48-8.639.806.806,0,0,0-.352-1.572c-.115.026-.228.054-.341.083a7.021,7.021,0,0,0-1.037-.272c-.23-.041-.463-.073-.693-.092a11.673,11.673,0,0,1-7.38-3.256l-.81-.81a21.284,21.284,0,0,1,26.795.56.806.806,0,1,0,1.042-1.229,22.9,22.9,0,0,0-14.7-5.414h-.088a22.889,22.889,0,0,0-14.2,4.935L11.164,7.426A25.884,25.884,0,0,1,45.8,45.807Z" fill="#fd6a59"/>
        </g>
      </g>
      <g id="Group_106" data-name="Group 106">
        <g id="Group_105" data-name="Group 105">
          <path id="Path_90" data-name="Path 90" d="M44.968,12.724a.806.806,0,1,0-1.229,1.042A21.277,21.277,0,0,1,13.753,43.752a.806.806,0,1,0-1.042,1.229A22.81,22.81,0,0,0,27.492,50.4q.446,0,.894-.017A22.888,22.888,0,0,0,44.968,12.724Z" fill="#fd6a59"/>
        </g>
      </g>
      <g id="Group_108" data-name="Group 108">
        <g id="Group_107" data-name="Group 107">
          <path id="Path_91" data-name="Path 91" d="M39.735,20.284a.806.806,0,0,0-.468-.4l-1.244-.408a.8.8,0,0,0-.014-1.386,11.128,11.128,0,0,0-15.861,5.3.806.806,0,0,0,1,1.081L25,23.845A2.647,2.647,0,1,0,28.94,22.53l5.32-1.776-.654,2a.806.806,0,0,0,.515,1.017l3.5,1.146a.8.8,0,0,0,1.016-.515l1.146-3.5A.806.806,0,0,0,39.735,20.284ZM27.491,25.778a1.035,1.035,0,1,1,1.035-1.035A1.036,1.036,0,0,1,27.491,25.778Zm-2.9-3.494A9.5,9.5,0,0,1,35.4,18.676Zm12.766.846-1.967-.645.645-1.967L38,21.163Z" fill="#fd6a59"/>
        </g>
      </g>
      <g id="Group_110" data-name="Group 110">
        <g id="Group_109" data-name="Group 109">
          <path id="Path_92" data-name="Path 92" d="M40.836,25.893a2.646,2.646,0,1,0,2.646,2.646A2.649,2.649,0,0,0,40.836,25.893Zm0,3.681a1.035,1.035,0,1,1,1.035-1.035A1.036,1.036,0,0,1,40.836,29.575Z" fill="#fd6a59"/>
        </g>
      </g>
      <g id="Group_112" data-name="Group 112">
        <g id="Group_111" data-name="Group 111">
          <path id="Path_93" data-name="Path 93" d="M30.252,10.132A2.646,2.646,0,1,0,32.9,12.778,2.649,2.649,0,0,0,30.252,10.132Zm0,3.681a1.035,1.035,0,1,1,1.035-1.035A1.036,1.036,0,0,1,30.252,13.813Z" fill="#fd6a59"/>
        </g>
      </g>
      <g id="Group_114" data-name="Group 114">
        <g id="Group_113" data-name="Group 113">
          <path id="Path_94" data-name="Path 94" d="M37.451,33.181a11.2,11.2,0,0,0-4.55-7.97.806.806,0,0,0-1.278.725l.506,5.382-1.307-1.307a.806.806,0,0,0-1.139,0l-2.6,2.6a.806.806,0,0,0,0,1.139l2.6,2.6a.806.806,0,0,0,1.139,0l1.627-1.627.626,6.655a.806.806,0,0,0,1.391.474A11.2,11.2,0,0,0,37.451,33.181Zm-7.2,1.467-1.464-1.464,1.464-1.464,1.464,1.464Zm4.234,4.533L33.42,27.838a9.481,9.481,0,0,1,1.066,11.343Z" fill="#fd6a59"/>
        </g>
      </g>
      <g id="Group_116" data-name="Group 116">
        <g id="Group_115" data-name="Group 115">
          <path id="Path_95" data-name="Path 95" d="M28.032,38.811,16.548,28.377a.806.806,0,0,0-1.347.587c0,.173,0,.346.007.518l-2.886-.946a.806.806,0,0,0-1.017.515l-1.146,3.5a.806.806,0,0,0,.515,1.016l3.5,1.146a.806.806,0,0,0,1.017-.515l.546-1.666a11.119,11.119,0,0,0,3.11,4.855c.177.161.36.313.546.461a2.647,2.647,0,1,0,3.278,1.8,11.269,11.269,0,0,0,4.909.558.806.806,0,0,0,.455-1.4ZM13.908,32.93l-1.967-.645.645-1.967,1.967.645Zm6.22,8.494a1.035,1.035,0,1,1,1.035-1.035A1.036,1.036,0,0,1,20.128,41.424Zm-.2-5.23a9.537,9.537,0,0,1-2.937-5.239l8.432,7.661A9.538,9.538,0,0,1,19.928,36.194Z" fill="#fd6a59"/>
        </g>
      </g>
      <g id="Group_118" data-name="Group 118">
        <g id="Group_117" data-name="Group 117">
          <path id="Path_96" data-name="Path 96" d="M30.532,42.066a.806.806,0,0,0-1.058-.423L28.4,42.1a.806.806,0,1,0,.635,1.481l1.074-.46A.806.806,0,0,0,30.532,42.066Z" fill="#fd6a59"/>
        </g>
      </g>
      <g id="Group_120" data-name="Group 120">
        <g id="Group_119" data-name="Group 119">
          <path id="Path_97" data-name="Path 97" d="M23.86,29.027l-.46-1.074a.806.806,0,0,0-1.481.635l.46,1.074a.806.806,0,1,0,1.481-.635Z" fill="#fd6a59"/>
        </g>
      </g>
      <g id="Group_122" data-name="Group 122">
        <g id="Group_121" data-name="Group 121">
          <path id="Path_98" data-name="Path 98" d="M44.476,22.3a.806.806,0,0,0-1.019-.51l-.92.307a.806.806,0,1,0,.51,1.529l.92-.307A.806.806,0,0,0,44.476,22.3Z" fill="#fd6a59"/>
        </g>
      </g>
      <g id="Group_124" data-name="Group 124">
        <g id="Group_123" data-name="Group 123">
          <path id="Path_99" data-name="Path 99" d="M42.233,35.558l-1.228-.7a.806.806,0,0,0-.8,1.4l1.228.7a.806.806,0,0,0,.8-1.4Z" fill="#fd6a59"/>
        </g>
      </g>
      <g id="Group_126" data-name="Group 126">
        <g id="Group_125" data-name="Group 125">
          <path id="Path_100" data-name="Path 100" d="M37.983,41.7a.806.806,0,0,0-1.137-.067l-.518.46a.806.806,0,1,0,1.07,1.2l.518-.46A.806.806,0,0,0,37.983,41.7Z" fill="#fd6a59"/>
        </g>
      </g>
      <g id="Group_128" data-name="Group 128">
        <g id="Group_127" data-name="Group 127">
          <path id="Path_101" data-name="Path 101" d="M20.03,23.51a.806.806,0,0,0-1.135.1l-.383.46a.806.806,0,1,0,1.238,1.031l.383-.46A.806.806,0,0,0,20.03,23.51Z" fill="#fd6a59"/>
        </g>
      </g>
      <g id="Group_130" data-name="Group 130">
        <g id="Group_129" data-name="Group 129">
          <path id="Path_102" data-name="Path 102" d="M23,11.058l-.383-.383a.806.806,0,0,0-1.139,1.139l.383.383A.806.806,0,0,0,23,11.058Z" fill="#fd6a59"/>
        </g>
      </g>
      <g id="Group_132" data-name="Group 132">
        <g id="Group_131" data-name="Group 131">
          <path id="Path_103" data-name="Path 103" d="M13.089,23.514A.806.806,0,0,0,12,23.192l-.844.46a.806.806,0,1,0,.772,1.415l.844-.46A.806.806,0,0,0,13.089,23.514Z" fill="#fd6a59"/>
        </g>
      </g>
      <g id="Group_134" data-name="Group 134">
        <g id="Group_133" data-name="Group 133">
          <path id="Path_104" data-name="Path 104" d="M38.128,13.788l-.613-.23a.806.806,0,1,0-.566,1.509l.613.23a.806.806,0,0,0,.566-1.509Z" fill="#fd6a59"/>
        </g>
      </g>
      <g id="Group_136" data-name="Group 136">
        <g id="Group_135" data-name="Group 135">
          <path id="Path_105" data-name="Path 105" d="M25.31,42.237a.806.806,0,0,0-1.11.256l-.383.614a.806.806,0,1,0,1.366.854l.383-.614A.806.806,0,0,0,25.31,42.237Z" fill="#fd6a59"/>
        </g>
      </g>
    </g>
  </g>
</svg>
