<svg xmlns="http://www.w3.org/2000/svg" xmlns:xlink="http://www.w3.org/1999/xlink" width="83" height="83" viewBox="0 0 83 83">
  <defs>
    <clipPath id="clip-path">
      <rect id="Rectangle_4" data-name="Rectangle 4" width="83" height="83" transform="translate(191 866)" fill="#fff" stroke="#707070" stroke-width="1"/>
    </clipPath>
  </defs>
  <g id="Mask_Group_1" data-name="Mask Group 1" transform="translate(-191 -866)" clip-path="url(#clip-path)">
    <g id="logistics-delivery-truck-in-movement" transform="translate(184.677 866)">
      <g id="Group_1" data-name="Group 1" transform="translate(16.293 6.293)">
        <g id="Group_20" data-name="Group 20" transform="translate(0 0)">
          <g id="hot-chilli-pepper-">
            <g id="Group_19" data-name="Group 19">
              <g id="Group_31" data-name="Group 31">
                <g id="dairy">
                  <path id="Path_9" data-name="Path 9" d="M25.007,27.408a7.671,7.671,0,0,1,5.467,2.16,5.892,5.892,0,1,0-10.933,0A7.67,7.67,0,0,1,25.007,27.408Zm1.2-2.592a.739.739,0,0,1,.071-.212.884.884,0,0,1,.106-.212l.141-.177a1.362,1.362,0,0,1,.388-.248,1.179,1.179,0,0,1,.9,0,1.364,1.364,0,0,1,.389.248,1.811,1.811,0,0,1,.141.177.884.884,0,0,1,.106.212.755.755,0,0,1,.071.212,1.647,1.647,0,0,1,.024.236,1.178,1.178,0,0,1-.094.447,1.212,1.212,0,0,1-.248.389,1.2,1.2,0,0,1-1.673,0,1.212,1.212,0,0,1-.248-.389,1.169,1.169,0,0,1-.094-.447A1.577,1.577,0,0,1,26.209,24.816Zm-4.713,0a.739.739,0,0,1,.071-.212.884.884,0,0,1,.106-.212l.141-.177a1.362,1.362,0,0,1,.388-.248,1.179,1.179,0,0,1,.9,0,1.364,1.364,0,0,1,.389.248,1.812,1.812,0,0,1,.141.177.884.884,0,0,1,.106.212.755.755,0,0,1,.071.212,1.648,1.648,0,0,1,.024.236,1.178,1.178,0,0,1-.094.447,1.212,1.212,0,0,1-.248.389,1.2,1.2,0,0,1-1.673,0,1.212,1.212,0,0,1-.248-.389,1.169,1.169,0,0,1-.094-.447A1.577,1.577,0,0,1,21.5,24.816Zm0,0" transform="translate(7.986 8.99)" fill="#fd6a59"/>
                  <path id="Path_10" data-name="Path 10" d="M15.307,43.632H38.874a1.179,1.179,0,0,0,1.179-1.179V16.53H14.129V42.453A1.178,1.178,0,0,0,15.307,43.632Zm3.017-24.259a1.178,1.178,0,0,1,2.133.691c0,.69,1.1,1.546,2.727,2.165.118-.065.248-.118.373-.179V20.065a1.178,1.178,0,0,1,2.357,0v1.273a7.42,7.42,0,0,1,2.357,0V20.065a1.178,1.178,0,0,1,2.357,0V22.05c.125.059.251.118.372.179,1.631-.619,2.727-1.475,2.727-2.165a1.179,1.179,0,0,1,2.133-.691c1.59,2.2,3.406,7.095-.546,10.458a8.1,8.1,0,0,1-1.352,4.182,4.944,4.944,0,0,1,.2,1.37c0,3.249-3.171,5.892-7.07,5.892s-7.07-2.643-7.07-5.892a4.982,4.982,0,0,1,.2-1.37,8.1,8.1,0,0,1-1.351-4.182C14.917,26.468,16.734,21.569,18.324,19.373Zm0,0" transform="translate(5.903 6.906)" fill="#fd6a59"/>
                  <path id="Path_11" data-name="Path 11" d="M24.66,27.334c-2.6,0-4.713,1.586-4.713,3.535S22.061,34.4,24.66,34.4s4.713-1.586,4.713-3.535S27.259,27.334,24.66,27.334Zm-1.52,4.372a1.155,1.155,0,0,1-.189.141.66.66,0,0,1-.2.106.755.755,0,0,1-.212.071,1.819,1.819,0,0,1-.236.024,1.166,1.166,0,0,1-1.178-1.179,1.733,1.733,0,0,1,.024-.236.744.744,0,0,1,.071-.212.644.644,0,0,1,.106-.2,1.1,1.1,0,0,1,.141-.189,1.183,1.183,0,0,1,1.673,1.674Zm4.713,0a1.11,1.11,0,0,1-.389.248,1.189,1.189,0,0,1-.448.094,1.167,1.167,0,0,1-1.084-1.626,1.218,1.218,0,0,1,.248-.389l.177-.141a.888.888,0,0,1,.212-.106.744.744,0,0,1,.212-.071,1.126,1.126,0,0,1,.684.071,1.225,1.225,0,0,1,.389.247,1.371,1.371,0,0,1,.248.389,1.183,1.183,0,0,1,.094.448A1.24,1.24,0,0,1,27.853,31.706Zm0,0" transform="translate(8.334 11.42)" fill="#fd6a59"/>
                  <path id="Path_12" data-name="Path 12" d="M19.692,22.079A7.617,7.617,0,0,1,17.877,20.8a4.949,4.949,0,0,0,.065,4.145A8.25,8.25,0,0,1,19.692,22.079Zm0,0" transform="translate(7.292 8.692)" fill="#fd6a59"/>
                  <path id="Path_13" data-name="Path 13" d="M14.85,16.257H38.728l-3.143-4.713H17.993Zm0,0" transform="translate(6.204 4.823)" fill="#fd6a59"/>
                  <path id="Path_14" data-name="Path 14" d="M28.348,3.324a28.2,28.2,0,0,0-17.228,5.92L16.776,14.9l.967-1.454v-2a3.535,3.535,0,0,1,3.535-3.535h14.14a3.535,3.535,0,0,1,3.535,3.535v2l4.516,6.773c.015.032.028.066.04.1a1.265,1.265,0,0,1,.136.45.982.982,0,0,1,.022.1V41.791l7.052,7.053A28.235,28.235,0,0,0,28.348,3.324Zm0,0" transform="translate(4.646 1.389)" fill="#fd6a59"/>
                  <path id="Path_15" data-name="Path 15" d="M29.328,20.8a7.617,7.617,0,0,1-1.815,1.275,8.257,8.257,0,0,1,1.75,2.87A4.951,4.951,0,0,0,29.328,20.8Zm0,0" transform="translate(11.495 8.692)" fill="#fd6a59"/>
                  <path id="Path_16" data-name="Path 16" d="M32.993,0A32.993,32.993,0,1,0,65.987,32.993,32.994,32.994,0,0,0,32.993,0ZM56.375,52.777c-.01.013-.027.016-.037.028s-.015.029-.028.043a1.124,1.124,0,0,1-.236.155,1.224,1.224,0,0,1-.134.09,1.179,1.179,0,0,1-.464.1,1.142,1.142,0,0,1-.42-.083.894.894,0,0,1-.118-.072,1.113,1.113,0,0,1-.217-.125c-.013-.012-.019-.027-.031-.038s-.029-.015-.041-.027l-6.337-6.335v2.847a3.506,3.506,0,0,1-.045.445l4.708,4.708c.011.011.014.026.025.036s.024.015.034.027a1.187,1.187,0,0,1,.093.165,1.273,1.273,0,0,1,.118.2,1.073,1.073,0,0,1,.042.22,1.163,1.163,0,0,1,.027.223,1.076,1.076,0,0,1-.044.22,1.139,1.139,0,0,1-.057.214,1.234,1.234,0,0,1-.132.2,1.136,1.136,0,0,1-.1.155c-.011.011-.025.014-.035.024s-.017.026-.029.035A30.608,30.608,0,0,1,9.747,13.076c.01-.012.025-.017.035-.029s.013-.026.025-.036a1.07,1.07,0,0,1,.157-.1,1.174,1.174,0,0,1,.2-.131,1.1,1.1,0,0,1,.214-.057,1.058,1.058,0,0,1,.221-.044,1.268,1.268,0,0,1,.22.026,1.164,1.164,0,0,1,.222.044,1.172,1.172,0,0,1,.2.118,1,1,0,0,1,.166.093c.012.01.016.025.027.035s.027.014.037.025l7.277,7.277,1.335-2-6.931-6.931c-.012-.012-.015-.029-.027-.042s-.027-.016-.038-.029a1.243,1.243,0,0,1-.09-.161,1.274,1.274,0,0,1-.118-.208,1.259,1.259,0,0,1-.043-.218,1.1,1.1,0,0,1-.025-.224,1.276,1.276,0,0,1,.043-.219.749.749,0,0,1,.191-.411,1.138,1.138,0,0,1,.1-.154c.012-.012.028-.015.041-.027s.016-.027.029-.037A30.616,30.616,0,0,1,56.375,52.777Zm0,0" fill="#fd6a59"/>
                  <path id="Path_17" data-name="Path 17" d="M33.95,10.576V9.4a1.178,1.178,0,0,0-1.179-1.178H18.631A1.178,1.178,0,0,0,17.453,9.4v1.179Zm0,0" transform="translate(7.292 3.434)" fill="#fd6a59"/>
                  <path id="Path_18" data-name="Path 18" d="M43.388,48.293H19.821a3.535,3.535,0,0,1-3.535-3.535V17.944l-6.93-6.93A28.22,28.22,0,0,0,48.981,50.639l-3.252-3.252A3.508,3.508,0,0,1,43.388,48.293Zm0,0" transform="translate(1.389 4.602)" fill="#fd6a59"/>
                </g>
              </g>
            </g>
          </g>
        </g>
      </g>
    </g>
  </g>
</svg>
