<svg xmlns="http://www.w3.org/2000/svg" xmlns:xlink="http://www.w3.org/1999/xlink" width="83" height="83" viewBox="0 0 83 83">
  <defs>
    <clipPath id="clip-path">
      <rect id="Rectangle_4" data-name="Rectangle 4" width="83" height="83" transform="translate(191 866)" fill="#1badfa" stroke="#707070" stroke-width="1"/>
    </clipPath>
  </defs>
  <g id="Mask_Group_1" data-name="Mask Group 1" transform="translate(-191 -866)" clip-path="url(#clip-path)">
    <g id="logistics-delivery-truck-in-movement" transform="translate(191 866)">
      <g id="Group_1" data-name="Group 1">
        <path id="Path_2" data-name="Path 2" d="M30.754,50.905a6.933,6.933,0,1,0,6.927,6.938A6.93,6.93,0,0,0,30.754,50.905Zm0,10.4a3.464,3.464,0,1,1,3.464-3.464A3.468,3.468,0,0,1,30.754,61.307ZM83,45.78v7.4a3.341,3.341,0,0,1-3.341,3.341H76.084a9.168,9.168,0,0,0-18.142,0H39.822a9.161,9.161,0,0,0-18.131,0H17.214a3.341,3.341,0,0,1-3.341-3.341v-7.4H83ZM67.016,50.905a6.933,6.933,0,1,0,6.927,6.938A6.939,6.939,0,0,0,67.016,50.905Zm0,10.4a3.464,3.464,0,1,1,3.464-3.464A3.467,3.467,0,0,1,67.016,61.307ZM81.684,38.331,68.553,25.346a4.463,4.463,0,0,0-3.13-1.292H58.8V21.57a3.337,3.337,0,0,0-3.341-3.341H17.211A3.344,3.344,0,0,0,13.87,21.57v.523L.312,23.656l24.025,3.129L0,29.2,24.251,32.65,0,34.753l13.871,2.616v6.564H83V41.494A4.476,4.476,0,0,0,81.684,38.331Zm-5.724.434H63.252a.523.523,0,0,1-.523-.523V28.431a.523.523,0,0,1,.523-.523h2.417a.565.565,0,0,1,.368.145l10.28,9.812A.523.523,0,0,1,75.959,38.766Z" fill="#fd6a59"/>
      </g>
    </g>
  </g>
</svg>
