<svg xmlns="http://www.w3.org/2000/svg" xmlns:xlink="http://www.w3.org/1999/xlink" width="55" height="55" viewBox="0 0 55 55">
  <defs>
    <clipPath id="clip-path">
      <rect id="Rectangle_612" data-name="Rectangle 612" width="55" height="55" transform="translate(2869 -1432)" fill="#fff" stroke="#707070" stroke-width="1"/>
    </clipPath>
  </defs>
  <g id="Mask_Group_9" data-name="Mask Group 9" transform="translate(-2869 1432)" clip-path="url(#clip-path)">
    <g id="can_1_" data-name="can (1)" transform="translate(2869 -1432)">
      <g id="Group_102" data-name="Group 102">
        <path id="Path_88" data-name="Path 88" d="M39.877,8.839c0-.053,0-.107,0-.161V5.484C39.882,1.922,33.5,0,27.5,0S15.119,1.922,15.119,5.484V8.678c0,.054,0,.107,0,.161a3.736,3.736,0,0,0-1.477,2.828c0,.005,0,.01,0,.015V34.753a.907.907,0,1,0,1.813,0V14.76c2.344,1.81,6.757,2.978,12.041,2.978a32.129,32.129,0,0,0,4.191-.269.907.907,0,0,0-.238-1.8,30.318,30.318,0,0,1-3.953.253,24.633,24.633,0,0,1-8.819-1.449c-2.017-.8-3.222-1.856-3.222-2.811a1.64,1.64,0,0,1,.41-1c1.857,2.285,6.863,3.5,11.631,3.5s9.774-1.213,11.631-3.5a1.64,1.64,0,0,1,.409,1c0,1.18-1.829,2.476-4.66,3.3a.907.907,0,1,0,.508,1.741,12.673,12.673,0,0,0,4.152-1.947V46.083c0,.955-1.2,2.005-3.221,2.81A24.635,24.635,0,0,1,27.5,50.341c-6.891,0-12.04-2.248-12.04-4.258V37.775a.907.907,0,1,0-1.813,0v8.308A3.778,3.778,0,0,0,15.119,48.9v.62C15.119,53.078,21.5,55,27.5,55s12.381-1.922,12.381-5.484V48.9a3.778,3.778,0,0,0,1.473-2.814V11.666a0,0,0,0,0,0,0A3.737,3.737,0,0,0,39.877,8.839Zm-1.809-.161c0,1.533-4.021,3.671-10.568,3.671S16.932,10.211,16.932,8.678V8.445c2.322,1.654,6.53,2.524,10.568,2.524s8.246-.87,10.568-2.524Zm-9.475.456a2.587,2.587,0,0,1,2.473-1.277,3.076,3.076,0,0,1,2.051.693A23.57,23.57,0,0,1,28.593,9.134ZM38.039,5.7C35.857,4.156,31.906,3.193,27.5,3.193a27.9,27.9,0,0,0-4.594.368.907.907,0,1,0,.3,1.788A26.076,26.076,0,0,1,27.5,5.006c3.854,0,7.472.825,9.341,2.071a9.129,9.129,0,0,1-1.851.912,4.529,4.529,0,0,0-3.924-1.945c-2.293,0-4.119,1.336-4.331,3.1-4.03-.1-7.016-1.027-8.577-2.067a9.176,9.176,0,0,1,1.927-.934.907.907,0,1,0-.619-1.7A10.5,10.5,0,0,0,16.961,5.7a.96.96,0,0,1-.029-.217c0-1.533,4.02-3.671,10.568-3.671S38.069,3.951,38.069,5.484A.965.965,0,0,1,38.039,5.7ZM27.5,53.187c-5.586,0-9.33-1.556-10.311-2.964A24.641,24.641,0,0,0,27.5,52.154a24.642,24.642,0,0,0,10.31-1.931C36.829,51.631,33.086,53.187,27.5,53.187Z" fill="#fd6a59"/>
      </g>
    </g>
  </g>
</svg>
