<svg xmlns="http://www.w3.org/2000/svg" xmlns:xlink="http://www.w3.org/1999/xlink" width="83" height="83" viewBox="0 0 83 83">
  <defs>
    <clipPath id="clip-path">
      <rect id="Rectangle_4" data-name="Rectangle 4" width="83" height="83" rx="13" transform="translate(191 866)" fill="#fff" stroke="#707070" stroke-width="1"/>
    </clipPath>
  </defs>
  <g id="Group_1" data-name="Group 1" transform="translate(-191 -866)" clip-path="url(#clip-path)">
    <g id="logistics-delivery-truck-in-movement" transform="translate(166.953 850.399)">
      <g id="Group_1-2" data-name="Group 1" transform="translate(24.047 24.047)">
        <g id="Group_18" data-name="Group 18" transform="translate(0)">
          <g id="Group_30" data-name="Group 30" transform="translate(0)">
            <g id="gluten-free" transform="translate(0)">
              <g id="Group_25" data-name="Group 25" transform="translate(18.412 18.13)">
                <g id="Group_24" data-name="Group 24">
                  <path id="Path_6" data-name="Path 6" d="M45.532,10.171,32.964,22.738c.043.217.082.436.111.659a7.874,7.874,0,0,1-1.823,6.48,6.837,6.837,0,0,1-2.541-2.887l-1.728,1.728a6.837,6.837,0,0,1,2.887,2.541,7.875,7.875,0,0,1-6.48,1.823c-.224-.029-.443-.068-.659-.111L10.171,45.532A25.411,25.411,0,0,0,45.532,10.171ZM29.361,39.052a7.874,7.874,0,0,1-5.8-3.412,7.875,7.875,0,0,1,6.48-1.823,7.874,7.874,0,0,1,5.8,3.412A7.873,7.873,0,0,1,29.361,39.052Zm4.449-9.006a7.874,7.874,0,0,1,1.822-6.48,7.875,7.875,0,0,1,3.412,5.8,7.874,7.874,0,0,1-1.823,6.48A7.875,7.875,0,0,1,33.811,30.045Zm7.252,10.87a1.31,1.31,0,0,1-1.919.05L36.4,38.222a3.248,3.248,0,0,0,1.815-1.815l2.774,2.774A1.284,1.284,0,0,1,41.063,40.915Z" transform="translate(-10.171 -10.171)" fill="#fd6a59"/>
                </g>
              </g>
              <g id="Group_27" data-name="Group 27" transform="translate(7.633 7.633)">
                <g id="Group_26" data-name="Group 26">
                  <path id="Path_7" data-name="Path 7" d="M29.4,3.972a25.423,25.423,0,0,0-20.9,39.9L21.03,31.348a7.817,7.817,0,0,1-3.64-2.279,1.039,1.039,0,0,1-.161-.132l-3.315-3.315a1.041,1.041,0,1,1,1.473-1.473l3.025,3.025a8.693,8.693,0,0,1,4.885-.715,9.49,9.49,0,0,1,2.1.52L26.973,25.4a9.483,9.483,0,0,1-.52-2.1,8.694,8.694,0,0,1,.715-4.885l-3.025-3.025a1.041,1.041,0,0,1,1.473-1.473l3.315,3.315a1.056,1.056,0,0,1,.132.161,7.818,7.818,0,0,1,2.279,3.64L43.869,8.508A25.276,25.276,0,0,0,29.4,3.972ZM25.088,25.095a7.874,7.874,0,0,1-6.245-2.512,7.874,7.874,0,0,1-2.512-6.245,7.874,7.874,0,0,1,6.245,2.512A7.874,7.874,0,0,1,25.088,25.095Z" transform="translate(-3.972 -3.972)" fill="#fd6a59"/>
                </g>
              </g>
              <g id="Group_29" data-name="Group 29">
                <g id="Group_28" data-name="Group 28">
                  <path id="Path_8" data-name="Path 8" d="M56.3,9.6a32.916,32.916,0,1,0-46.65,46.45,33.125,33.125,0,0,0,46.65,0A32.783,32.783,0,0,0,56.3,9.6ZM11.806,50.119l-.081,0a1.431,1.431,0,0,1-1.037-.535,27.6,27.6,0,0,1,2.124-36.825A27.892,27.892,0,0,1,49.8,10.642a1.418,1.418,0,0,1,.121,2.118L12.815,49.7A1.432,1.432,0,0,1,11.806,50.119ZM53.13,52.9a27.89,27.89,0,0,1-36.983,2.115,1.418,1.418,0,0,1-.121-2.118l37.1-36.942a1.432,1.432,0,0,1,2.128.12A27.6,27.6,0,0,1,53.13,52.9Z" transform="translate(0)" fill="#fd6a59"/>
                </g>
              </g>
            </g>
          </g>
        </g>
      </g>
    </g>
  </g>
</svg>
