<?xml version="1.0" encoding="utf-8"?>
<!-- Generator: Adobe Illustrator 21.1.0, SVG Export Plug-In . SVG Version: 6.00 Build 0)  -->
<svg version="1.1" id="Layer_1" xmlns="http://www.w3.org/2000/svg" xmlns:xlink="http://www.w3.org/1999/xlink" x="0px" y="0px"
	 viewBox="0 0 475 470.2" style="enable-background:new 0 0 475 470.2;" xml:space="preserve">
<style type="text/css">
	.st0{fill:#1C191A;}
	.st1{opacity:0.3;}
	.st2{fill:#3F3E3E;}
	.st3{fill:url(#SVGID_1_);}
	.st4{fill:#D29C19;}
	.st5{font-family:'Roboto-Light';}
	.st6{font-size:23.5663px;}
	.st7{fill:#774F08;}
	.st8{fill:#404041;}
	.st9{fill:#D29B21;}
	.st10{fill:#D59B17;}
	.st11{font-family:'Roboto-Medium';}
	.st12{font-size:24px;}
	.st13{font-size:26.1199px;}
</style>
<g>
	<g>
		<circle class="st0" cx="239.7" cy="233.8" r="211.4"/>
		<g>
			<g class="st1">
				<path class="st2" d="M445.9,235.1c0,114.9-93.5,208.4-208.4,208.4c-114.9,0-208.4-93.5-208.4-208.4
					c0-114.9,93.5-208.4,208.4-208.4C352.4,26.7,445.9,120.2,445.9,235.1z M455.8,235.1c0-120.4-97.9-218.3-218.3-218.3
					c-120.4,0-218.3,97.9-218.3,218.3c0,120.4,97.9,218.3,218.3,218.3C357.9,453.4,455.8,355.5,455.8,235.1z"/>
			</g>
			
				<linearGradient id="SVGID_1_" gradientUnits="userSpaceOnUse" x1="20.6324" y1="367.9708" x2="329.1609" y2="59.4423" gradientTransform="matrix(0 1 -1 0 451.2064 60.2064)">
				<stop  offset="0" style="stop-color:#D29C19"/>
				<stop  offset="0.1075" style="stop-color:#C9A119"/>
				<stop  offset="0.3153" style="stop-color:#BCA919"/>
				<stop  offset="0.6168" style="stop-color:#C98E19"/>
				<stop  offset="0.7989" style="stop-color:#D27C19"/>
				<stop  offset="1" style="stop-color:#D29C0F"/>
			</linearGradient>
			<path class="st3" d="M455.8,235.1c0-120.4-97.9-218.3-218.3-218.3c-120.4,0-218.3,97.9-218.3,218.3
				c0,120.4,97.9,218.3,218.3,218.3C357.9,453.4,455.8,355.5,455.8,235.1z M445.9,235.1c0,114.9-93.5,208.4-208.4,208.4
				c-114.9,0-208.4-93.5-208.4-208.4c0-114.9,93.5-208.4,208.4-208.4C352.4,26.7,445.9,120.2,445.9,235.1z"/>
		</g>
	</g>
	<g>
		<g>
			<path class="st4" d="M42.1,169.1c8.7-1.6,13.1-2.2,21.6-2.9c-5.1-6.9-7.5-10.4-12.1-17.9c0.6-1.2,0.9-1.8,1.6-3
				c7.5,4,11.2,6.1,18.7,10.1c-0.4,0.8-0.6,1.2-1.1,2c-3.3-1.7-4.9-2.6-8.2-4.3c-3.3-1.8-5-2.7-8.3-4.6c4.6,7.4,7,11,12.1,17.9
				c-0.3,0.7-0.5,1-0.8,1.6c-8.5,0.7-12.8,1.3-21.5,3c3.5,1.2,5.3,1.9,8.8,3.1c3.5,1.3,5.2,2,8.7,3.3c-0.4,0.9-0.5,1.3-0.9,2.2
				c-8-2.9-12-4.3-19.9-7.2C41.3,171.1,41.6,170.5,42.1,169.1z"/>
			<path class="st4" d="M67.7,121.6c4.7,3.4,7,5.1,11.7,8.5c1,0.7,1.7,1.5,2.1,2.5c0.4,0.9,0.7,1.9,0.7,2.9c0,1-0.2,2.1-0.5,3.2
				c-0.4,1.1-0.9,2.2-1.6,3.3c-0.7,1.1-1.5,2.1-2.3,2.9c-0.8,0.8-1.7,1.4-2.7,1.8c-0.9,0.4-1.9,0.6-2.9,0.6c-1,0-2-0.3-3.1-1
				c-5-2.9-7.5-4.4-12.4-7.3c0.5-0.9,0.7-1.3,1.2-2.2c4.9,3,7.4,4.5,12.4,7.4c0.8,0.5,1.6,0.7,2.4,0.8c0.8,0.1,1.5-0.1,2.3-0.4
				c0.7-0.3,1.4-0.8,2.1-1.4c0.7-0.6,1.3-1.4,1.8-2.2s1-1.7,1.2-2.6c0.3-0.9,0.4-1.7,0.4-2.5c0-0.8-0.2-1.5-0.6-2.2
				s-0.9-1.3-1.7-1.9c-4.7-3.4-7.1-5-11.8-8.4C66.8,122.8,67.1,122.4,67.7,121.6z"/>
			<path class="st4" d="M73.6,113.5c8.4,1.4,12.6,2.3,20.6,4.5c-3.2-7.9-4.6-12-7.2-20.3c0.9-0.9,1.3-1.4,2.1-2.3
				c6,6.1,9,9.2,15,15.3c-0.6,0.6-0.9,0.9-1.4,1.5c-2.7-2.6-4-4-6.6-6.6c-2.7-2.8-4-4.1-6.6-6.9c2.6,8.3,4,12.4,7.2,20.3
				c-0.4,0.5-0.6,0.7-1.1,1.3c-8-2.1-12.2-3-20.6-4.4c3,2.3,4.5,3.4,7.5,5.7c2.9,2.3,4.4,3.5,7.3,5.8c-0.5,0.7-0.8,1-1.3,1.7
				c-6.7-5.3-10.1-7.9-16.8-13.2C72.4,115.1,72.8,114.6,73.6,113.5z"/>
			<path class="st4" d="M108.6,106.4c-5.8-6.3-8.7-9.5-14.5-15.9c2.3-2.3,3.5-3.4,5.9-5.5c1-0.9,2-1.7,3-2.2c1-0.5,1.9-0.9,2.7-1
				c0.9-0.1,1.7,0,2.4,0.3c0.7,0.3,1.4,0.8,2,1.6c0.3,0.4,0.6,0.9,0.7,1.4c0.2,0.5,0.2,1,0.2,1.6c0,0.5-0.1,1.1-0.3,1.7
				c-0.2,0.6-0.5,1.1-0.8,1.7c0.7-0.4,1.3-0.6,2-0.8c0.7-0.1,1.3-0.2,1.9-0.1c0.6,0.1,1.2,0.3,1.7,0.6c0.5,0.3,1,0.7,1.4,1.2
				c0.6,0.8,1,1.6,1.2,2.4c0.2,0.8,0.2,1.7-0.1,2.5c-0.2,0.8-0.6,1.7-1.2,2.5c-0.6,0.8-1.3,1.6-2.1,2.4
				C112.2,102.9,111,104.1,108.6,106.4z M102.2,96.1c1.7-1.7,2.6-2.5,4.4-4.1c1.3-1.2,2.2-2.4,2.5-3.6c0.3-1.2,0.1-2.3-0.7-3.3
				c-0.9-1.1-1.9-1.5-3.1-1.4c-1.2,0.2-2.7,1-4.3,2.5c-1.7,1.5-2.5,2.3-4.2,3.9C98.9,92.5,100,93.7,102.2,96.1z M103.2,97.2
				c2.4,2.6,3.5,3.9,5.9,6.6c1.8-1.7,2.7-2.6,4.6-4.2c0.7-0.6,1.2-1.2,1.6-1.8c0.4-0.6,0.7-1.2,0.8-1.9c0.1-0.6,0.1-1.2,0-1.8
				c-0.1-0.6-0.4-1.2-0.9-1.7c-0.4-0.5-0.8-0.8-1.3-1.1c-0.5-0.3-1.1-0.4-1.7-0.4c-0.6,0-1.3,0.2-2,0.5c-0.7,0.3-1.4,0.8-2.2,1.5
				C106.1,94.5,105.1,95.4,103.2,97.2z"/>
			<path class="st4" d="M131.6,80.1c-3.7,2.5-5.5,3.8-9.1,6.5c0.6,2.6,0.9,3.9,1.6,6.4c-0.7,0.5-1,0.8-1.7,1.3
				c-2.3-9.2-3.3-13.9-4.9-23.4c0.7-0.5,1-0.7,1.7-1.2c8.1,4.9,12,7.6,19.4,13.1c-0.7,0.4-1.1,0.7-1.8,1.1
				C134.8,82.3,133.7,81.6,131.6,80.1z M122.1,84.9c3.2-2.4,4.8-3.5,8.1-5.7c-4.2-2.9-6.3-4.3-10.6-7
				C120.5,77.3,121,79.8,122.1,84.9z"/>
			<path class="st4" d="M143.7,79.7c-0.7,0.4-1,0.6-1.7,1c-4.3-7.6-6.4-11.3-10.7-18.9c0.8-0.5,1.1-0.7,1.9-1.1
				C137.4,68.3,139.5,72.1,143.7,79.7z"/>
			<path class="st4" d="M149.9,51.9c6.6,5.4,9.7,8.3,15.7,14.2c0.4-8.5,0.8-12.8,2-21.4c1.1-0.4,1.6-0.6,2.7-1
				c2.7,8.3,4,12.5,6.7,20.9c-0.7,0.2-1.1,0.4-1.8,0.6c-1.2-3.6-1.8-5.4-3-9.1c-1.2-3.7-1.7-5.6-2.9-9.3c-1.2,8.6-1.5,12.9-2,21.4
				c-0.6,0.2-0.8,0.3-1.4,0.6c-6-5.8-9.1-8.6-15.6-14c1.6,3.5,2.4,5.2,4.1,8.7c1.5,3.5,2.3,5.2,3.9,8.7c-0.7,0.3-1.1,0.5-1.8,0.8
				c-3.6-7.9-5.4-11.9-9-19.8C148.3,52.6,148.8,52.4,149.9,51.9z"/>
			<path class="st4" d="M193.4,53.5c-4.2,1-6.3,1.5-10.4,2.7c-0.3,2.6-0.4,4-0.7,6.6c-0.8,0.2-1.2,0.4-1.9,0.6
				c0.8-9.5,1.4-14.2,3.1-23.7c0.8-0.2,1.2-0.3,2-0.5c5.8,7.6,8.5,11.5,13.5,19.4c-0.8,0.2-1.2,0.2-2,0.4
				C195.6,56.7,194.9,55.6,193.4,53.5z M183.2,54.5c3.7-1.1,5.5-1.5,9.3-2.4c-2.9-4.2-4.4-6.3-7.5-10.5
				C184.2,46.7,183.8,49.3,183.2,54.5z"/>
			<path class="st4" d="M214.5,50.6c-0.1-0.6-0.2-1.1-0.5-1.6c-0.3-0.4-0.7-0.8-1.2-1.2c-0.5-0.3-1.2-0.6-2.1-0.8
				c-0.9-0.2-1.9-0.4-3.2-0.5c-1.2-0.1-2.4-0.3-3.4-0.5c-1-0.2-1.9-0.5-2.7-0.9c-0.8-0.4-1.4-0.8-1.9-1.4c-0.5-0.6-0.8-1.3-0.9-2.1
				c-0.1-0.8-0.1-1.6,0.2-2.4c0.3-0.8,0.8-1.5,1.4-2.1c0.7-0.6,1.5-1.2,2.5-1.6c1-0.4,2.1-0.8,3.3-0.9c1.3-0.2,2.5-0.2,3.7,0
				c1.1,0.2,2.1,0.6,2.9,1.1c0.8,0.5,1.4,1.1,1.9,1.9c0.5,0.7,0.7,1.6,0.8,2.5c-0.8,0.1-1.3,0.1-2.1,0.2c-0.1-0.7-0.3-1.4-0.6-1.9
				c-0.3-0.6-0.8-1-1.4-1.4c-0.6-0.4-1.3-0.6-2.1-0.8c-0.8-0.1-1.8-0.1-2.8,0s-1.9,0.4-2.7,0.7c-0.8,0.3-1.4,0.7-1.8,1.2
				c-0.5,0.5-0.8,0.9-1,1.5c-0.2,0.5-0.2,1.1-0.1,1.6c0.1,0.5,0.3,1,0.6,1.4c0.3,0.4,0.7,0.7,1.3,1c0.6,0.3,1.3,0.5,2.2,0.7
				c0.9,0.2,1.9,0.3,3.2,0.5c1.3,0.1,2.5,0.3,3.5,0.6s1.9,0.6,2.6,1c0.7,0.4,1.3,1,1.7,1.6c0.4,0.6,0.7,1.4,0.7,2.3
				c0.1,0.9,0,1.7-0.4,2.5c-0.3,0.7-0.8,1.4-1.5,2c-0.6,0.6-1.4,1-2.3,1.4c-0.9,0.4-1.9,0.7-3.1,0.8c-0.7,0.1-1.3,0.1-2,0.1
				c-0.7,0-1.4-0.1-2-0.2c-0.7-0.1-1.3-0.3-1.9-0.6c-0.6-0.3-1.1-0.6-1.6-1c-0.5-0.4-0.9-0.9-1.2-1.5c-0.3-0.6-0.6-1.2-0.7-2
				c0.8-0.2,1.2-0.2,2-0.4c0.2,0.9,0.5,1.6,1,2.2c0.5,0.6,1.1,1,1.8,1.3c0.7,0.3,1.4,0.4,2.2,0.5c0.8,0,1.6,0,2.4-0.1
				c0.9-0.1,1.7-0.3,2.4-0.6c0.7-0.3,1.3-0.6,1.8-1.1c0.5-0.4,0.8-0.9,1.1-1.4C214.4,51.8,214.5,51.2,214.5,50.6z"/>
			<path class="st4" d="M233.3,48.7c-4.3,0.1-6.4,0.1-10.7,0.4c-0.8,2.5-1.2,3.8-2,6.3c-0.8,0.1-1.2,0.1-2,0.2
				c2.7-9.1,4.3-13.6,7.8-22.6c0.8,0,1.2-0.1,2-0.1c4.1,8.7,5.9,13.1,9.2,22c-0.8,0-1.2,0-2,0C234.8,52.4,234.3,51.1,233.3,48.7z
				 M223.2,47.5c3.8-0.3,5.7-0.3,9.5-0.4c-1.9-4.8-3-7.2-5.1-11.9C225.7,40.1,224.8,42.6,223.2,47.5z"/>
			<path class="st4" d="M243,53.4c4.5,0.2,6.8,0.3,11.3,0.8c-0.1,0.6-0.1,0.9-0.2,1.6c-5.2-0.5-7.9-0.7-13.1-0.9
				c0.3-8.8,0.5-13.3,0.8-22.1c0.9,0,1.3,0,2.2,0.1C243.6,41.1,243.4,45.2,243,53.4z"/>
			<path class="st4" d="M271.5,52.1c-4.2-0.8-6.3-1.2-10.6-1.7c-1.3,2.3-1.9,3.5-3.2,5.8c-0.8-0.1-1.2-0.1-2-0.2
				c4.4-8.4,6.9-12.6,12.1-20.7c0.8,0.1,1.2,0.2,2,0.3c2.3,9.4,3.2,14.1,4.7,23.5c-0.8-0.2-1.2-0.3-2-0.4
				C272.2,56,272,54.7,271.5,52.1z M261.8,48.8c3.8,0.5,5.7,0.8,9.4,1.5c-1-5.1-1.5-7.6-2.7-12.7C265.7,42.1,264.3,44.3,261.8,48.8z
				"/>
			<path class="st4" d="M299.7,60.6c0.2-0.6,0.3-1.1,0.2-1.6c0-0.5-0.2-1-0.6-1.6c-0.4-0.5-0.9-1.1-1.6-1.7
				c-0.7-0.6-1.6-1.2-2.7-1.9c-1.1-0.7-2-1.3-2.8-2c-0.8-0.6-1.5-1.3-2-2c-0.5-0.7-0.9-1.4-1.1-2.1c-0.2-0.7-0.2-1.5,0.1-2.4
				c0.2-0.8,0.6-1.5,1.2-2.1c0.6-0.6,1.3-1,2.2-1.3s1.9-0.4,2.9-0.3c1.1,0,2.2,0.3,3.4,0.6c1.3,0.4,2.4,1,3.3,1.7
				c0.9,0.7,1.6,1.4,2.1,2.3c0.5,0.8,0.8,1.7,0.9,2.6c0.1,0.9,0,1.8-0.3,2.6c-0.8-0.3-1.2-0.4-2-0.7c0.2-0.7,0.3-1.4,0.3-2
				c-0.1-0.7-0.3-1.3-0.7-1.9c-0.4-0.6-0.9-1.2-1.6-1.7c-0.7-0.5-1.5-0.9-2.5-1.2c-1-0.3-1.9-0.5-2.7-0.5c-0.8,0-1.5,0.1-2.2,0.3
				c-0.6,0.2-1.1,0.5-1.5,0.9c-0.4,0.4-0.7,0.9-0.8,1.4c-0.1,0.5-0.2,1-0.1,1.5c0.1,0.5,0.3,1,0.7,1.5c0.4,0.5,0.9,1.1,1.6,1.6
				c0.7,0.6,1.6,1.2,2.7,1.8c1.1,0.7,2.1,1.4,2.9,2.1s1.5,1.4,1.9,2.1c0.5,0.7,0.7,1.5,0.8,2.2c0.1,0.8,0,1.6-0.3,2.4
				c-0.3,0.8-0.8,1.5-1.4,2.1c-0.6,0.5-1.4,0.9-2.2,1.1c-0.8,0.2-1.7,0.3-2.7,0.2c-1-0.1-2-0.3-3.1-0.6c-0.6-0.2-1.3-0.5-1.9-0.8
				c-0.6-0.3-1.2-0.7-1.7-1.1c-0.5-0.4-1-0.9-1.5-1.3c-0.4-0.5-0.8-1-1-1.6c-0.3-0.6-0.4-1.2-0.5-1.9c-0.1-0.7,0-1.4,0.2-2.1
				c0.8,0.2,1.2,0.3,1.9,0.5c-0.3,0.9-0.3,1.7-0.1,2.4c0.2,0.7,0.6,1.4,1.1,1.9c0.5,0.6,1.1,1,1.8,1.5c0.7,0.4,1.4,0.7,2.2,1
				c0.9,0.3,1.7,0.4,2.4,0.5c0.8,0.1,1.5,0,2.1-0.2c0.6-0.2,1.1-0.4,1.6-0.8C299.1,61.7,299.4,61.2,299.7,60.6z"/>
			<path class="st4" d="M305.8,68.9c-0.7-0.3-1.1-0.4-1.8-0.7c3.3-8.3,4.9-12.4,8.2-20.6c0.8,0.3,1.2,0.5,2,0.8
				C310.8,56.5,309.1,60.6,305.8,68.9z"/>
			<path class="st4" d="M326.9,79.4c-0.7-0.4-1-0.6-1.7-1c-1-9.3-1.8-14-3.9-23.4c-3.2,6.9-4.8,10.4-8,17.3
				c-0.7-0.3-1.1-0.5-1.8-0.8c3.6-8.1,5.5-12.2,9.1-20.3c0.8,0.4,1.2,0.6,2,0.9c2.2,9.5,3,14.2,4.1,23.6c3.7-6.7,5.5-10,9.2-16.7
				c0.8,0.4,1.1,0.6,1.9,1.1C333.5,67.7,331.3,71.6,326.9,79.4z"/>
			<path class="st4" d="M350,86.4c-0.8,0.8-1.6,1.5-2.5,1.9c-0.9,0.5-1.8,0.7-2.8,0.8c-1,0.1-1.9-0.1-3-0.4c-1-0.3-2.1-0.9-3.1-1.6
				c-1.1-0.8-2-1.6-2.6-2.6c-0.7-1-1.1-2.1-1.3-3.3c-0.2-1.2-0.2-2.4,0.1-3.7c0.3-1.3,0.8-2.6,1.6-3.9c0.6-1,0.9-1.4,1.4-2.4
				c0.8-1.3,1.7-2.3,2.7-3.2c1-0.8,2.1-1.4,3.3-1.7c1.2-0.3,2.4-0.3,3.7,0c1.3,0.3,2.6,0.9,3.9,1.7c1.2,0.8,2.1,1.7,2.8,2.6
				c0.7,0.9,1.2,1.9,1.5,2.9c0.3,1,0.4,2,0.2,3c-0.1,1-0.5,2-1.1,3c-0.7-0.5-1.1-0.8-1.8-1.3c0.4-0.8,0.7-1.6,0.8-2.4
				c0.1-0.8,0.1-1.5-0.1-2.3c-0.2-0.7-0.6-1.5-1.1-2.2c-0.5-0.7-1.3-1.4-2.2-2c-1-0.7-2-1.1-3.1-1.3c-1-0.2-2-0.2-3,0.1
				c-0.9,0.3-1.8,0.7-2.7,1.4c-0.8,0.7-1.6,1.6-2.2,2.7c-0.6,1-0.9,1.4-1.5,2.4c-0.6,1-1.1,2.1-1.4,3.1c-0.3,1-0.4,2-0.3,3
				c0.1,1,0.4,1.8,0.9,2.7c0.5,0.8,1.2,1.6,2.1,2.2c1.7,1.2,3.3,1.7,4.7,1.6c1.4-0.1,2.8-0.9,4.1-2.3C349,85.7,349.3,85.9,350,86.4z
				"/>
			<path class="st4" d="M367,95.9c-3.5-3.3-5.3-4.9-9-7.9c-2.3,2.8-3.4,4.3-5.6,7.1c4,3.3,6,5.1,9.9,8.7c-0.4,0.5-0.6,0.7-1.1,1.2
				c-4.4-4.2-6.7-6.2-11.4-9.9c5.5-7,8.2-10.5,13.6-17.6c5.2,4.2,7.7,6.4,12.6,11c-0.4,0.5-0.6,0.7-1.1,1.2c-4.2-4-6.4-5.9-10.8-9.5
				c-2.1,2.6-3.1,3.9-5.2,6.6c3.7,3,5.5,4.6,9.1,7.9C367.6,95.1,367.4,95.4,367,95.9z"/>
			<path class="st4" d="M379.8,125.5c-3.9-5-6-7.4-10.2-12c0.4-0.4,0.6-0.6,1-1c4.6,0.1,6.9,0.2,11.7,0.7c1.1,0.1,2.1,0.2,2.9,0.2
				c0.8,0,1.6,0,2.2-0.1c0.6-0.1,1.2-0.2,1.6-0.4c0.5-0.2,0.9-0.4,1.2-0.7c0.5-0.4,0.9-0.9,1.2-1.5c0.3-0.5,0.4-1.1,0.4-1.8
				c0-0.6-0.2-1.3-0.5-2c-0.3-0.7-0.8-1.4-1.4-2.1c-0.6-0.7-1.3-1.3-2-1.7c-0.7-0.4-1.4-0.6-2.1-0.7c-0.7-0.1-1.4,0-2,0.2
				c-0.7,0.2-1.2,0.6-1.8,1.1c-0.6-0.7-0.9-1-1.5-1.6c0.7-0.6,1.4-1.1,2.3-1.4c0.8-0.3,1.7-0.4,2.7-0.3c0.9,0.1,1.9,0.4,2.9,1
				c1,0.5,1.9,1.3,2.8,2.3c0.8,1,1.5,1.9,1.9,2.9c0.4,1,0.7,1.9,0.8,2.8c0.1,0.9-0.1,1.7-0.4,2.5c-0.3,0.8-0.9,1.4-1.6,2
				c-0.5,0.4-1.1,0.7-1.8,0.9s-1.5,0.3-2.3,0.4c-0.8,0-1.7,0-2.6,0s-1.8-0.1-2.7-0.2c-4-0.4-6-0.5-9.9-0.7c3.5,3.9,5.3,6,8.6,10.2
				C380.5,124.9,380.2,125.1,379.8,125.5z"/>
			<path class="st4" d="M398.8,136.3c-1.4,0.9-2.6,1.5-3.8,1.9c-1.2,0.4-2.3,0.5-3.3,0.3c-1-0.1-2-0.5-2.9-1.1
				c-0.9-0.6-1.7-1.4-2.4-2.4c-0.7-1-1.2-2-1.5-3.1c-0.3-1-0.3-2.1-0.1-3.1c0.2-1,0.7-2.1,1.4-3.1c0.7-1,1.7-2.1,3-3.1
				c1.2-0.9,1.8-1.4,3-2.3c1.3-1,2.5-1.7,3.7-2.1c1.2-0.4,2.3-0.6,3.4-0.4c1.1,0.1,2.1,0.5,3,1.2c0.9,0.7,1.8,1.6,2.6,2.7
				s1.3,2.3,1.7,3.4c0.3,1.1,0.3,2.2,0.1,3.3c-0.2,1.1-0.7,2.1-1.5,3.1s-1.9,1.9-3.2,2.8C400.7,135.1,400.1,135.5,398.8,136.3z
				 M400.9,132.2c2.1-1.4,3.4-2.9,3.9-4.6c0.5-1.6,0.1-3.4-1.1-5.1c-1.2-1.8-2.7-2.7-4.4-2.8c-1.7-0.1-3.5,0.7-5.5,2.2
				c-1.3,1-2,1.5-3.3,2.5c-1,0.8-1.8,1.5-2.4,2.3c-0.6,0.8-1.1,1.6-1.3,2.4c-0.2,0.8-0.3,1.6-0.1,2.4c0.1,0.8,0.5,1.6,1.1,2.4
				c0.6,0.8,1.2,1.4,1.9,1.8c0.7,0.4,1.5,0.6,2.3,0.7c0.8,0,1.7-0.1,2.6-0.5c0.9-0.3,1.9-0.9,3-1.6
				C398.8,133.6,399.5,133.1,400.9,132.2z"/>
			<path class="st4" d="M398.6,154.2c-0.4-0.8-0.6-1.2-1.1-1.9c7-3.9,10.5-5.9,17.5-9.8c-2.4-2.4-3.5-3.5-5.9-5.8
				c0.6-0.4,0.9-0.5,1.5-0.9c3,2.8,4.5,4.3,7.5,7.3c0.1,0.1,0.1,0.2,0.2,0.4C410.3,147.7,406.4,149.9,398.6,154.2z"/>
			<path class="st4" d="M410.4,179.9c-2.6-6.7-4-9.9-6.9-16.1c0.5-0.2,0.8-0.4,1.3-0.6c4.6,1.9,6.8,2.9,11.4,5.1
				c1.1,0.5,2,1,2.8,1.3c0.8,0.4,1.6,0.6,2.2,0.8c0.6,0.2,1.2,0.2,1.7,0.2c0.5,0,1-0.1,1.4-0.3c0.6-0.2,1.2-0.6,1.6-1.1
				c0.4-0.5,0.7-1,0.9-1.7c0.2-0.7,0.2-1.4,0.1-2.2s-0.4-1.7-0.8-2.7c-0.4-1-0.9-1.8-1.5-2.5c-0.6-0.7-1.2-1.2-1.9-1.5
				s-1.4-0.5-2.1-0.6c-0.7,0-1.4,0.1-2.1,0.4c-0.4-0.9-0.6-1.3-1.1-2.2c0.8-0.4,1.7-0.6,2.6-0.6c0.9,0,1.8,0.3,2.7,0.8
				c0.9,0.5,1.8,1.2,2.6,2.1c0.8,0.9,1.5,2.1,2.1,3.4c0.6,1.3,0.9,2.5,1.1,3.7c0.2,1.1,0.2,2.2,0,3.1c-0.2,0.9-0.5,1.7-1.1,2.4
				c-0.5,0.7-1.2,1.1-2.1,1.5c-0.6,0.2-1.3,0.3-2.1,0.2c-0.8-0.1-1.6-0.2-2.4-0.5c-0.8-0.3-1.7-0.6-2.6-1c-0.9-0.4-1.8-0.8-2.7-1.3
				c-3.9-2-5.8-2.8-9.7-4.5c2.5,5.3,3.6,8.1,5.8,13.7C411.3,179.6,411,179.7,410.4,179.9z"/>
		</g>
	</g>
	<text transform="matrix(1 0 0 1 163.2117 400.6763)" class="st4 st5 st6">Papamoa 3118</text>
	<path class="st7" d="M330.9,157.4h-53.2l-0.8-2.4h54V157.4 M266.5,158.7h-68.1l-0.7-2.3h69.4L266.5,158.7 M266.7,167.6h-68.4
		l-0.3-7.5l0.5-0.8h68.2l0.3,0.5L266.7,167.6 M130.7,160.1v-2.4H187l-0.5,1.5l0.5,0l0.2,0.8L130.7,160.1 M186.5,168.2V168l0.2-0.1
		l0.2-0.1l0.2,0h11.7l0.2,0v0.1l0.2,0.1v0.5l-0.2,0.1v0.1l-0.2,0H187l-0.2,0l-0.2-0.1l-0.2-0.1L186.5,168.2 M185.8,167.7h-51.8v-7.3
		h53.2l-0.3,6.7L185.8,167.7 M197.9,167.6h-10.3l0.3-7.7l-0.2-0.4l-0.3-0.3h10.6l-0.3,0.4l-0.2,0.5L197.9,167.6 M133.6,173v-1.6
		h-1.5v-1.6h-1.5v-1.7H186v4.9H133.6 M268.6,144.3v-1.3h7.6l0.2,1.3v3.5l0.2,2.4v2.5l0.2,2.6h-8.6v-2.6l0.2-2.5l0.2-2.4v-2.1
		L268.6,144.3 M267.5,156.1h-69.9l-0.5-12.2H268L267.5,156.1 M277.7,158.7h-10.8l1-3h8.9L277.7,158.7 M276.8,152.3h51.5v2.4h-51.5
		V152.3 M198.3,158.7h-11l1-3h8.9L198.3,158.7 M133.9,157.4V155h53.9l-0.7,2.4L133.9,157.4 M189,144.4v-1.3h7.8v2.6l0.2,2.1v2.4
		l0.2,2.5v2.6h-8.6l0.2-2.6v-2.5l0.2-2.4v-2.1L189,144.4 M187.8,152.3v2.4h-51.5v-2.4H187.8 M195.9,208h3.4v0.5h0.2v0.2h0.3v0.3
		l0.2,0.2h0.2l0.3,0.2v2.2l0.3,2.2l0.7,1.8l0.7,1.7l0.8,1.4l1.2,1.2l1.5,1l0.8,0.5l0.8,0.5l0.3,0.3l0.2,0.3h-30.2v-0.3l1.5-1
		l0.8-0.5l1.2-1l1.2-1l0.8-1.4l0.8-1.7l0.5-1.9l0.3-2.2l0.2-2.2l0.2-0.2h0.3v-0.5h0.3l0.2-0.2l0.2-0.2V208L195.9,208 M334.1,160.1
		h-56.6l0.3-0.8l0.3-0.1l-0.3-1.5h56.2V160.1 M212.5,198.4h2.4v-4.7H213l0.7-1.9l0.8-2c0.2-0.5,0.5-1.3,0.8-1.8
		c0.2-0.5,0.6-1.3,0.9-1.7c0.3-0.5,0.7-1.2,1.1-1.7c0.3-0.4,0.9-1.1,1.3-1.5c0.4-0.4,1-1,1.4-1.4s1.1-0.9,1.5-1.3
		c0.6-0.4,1.6-1.1,2.2-1.5s1.6-1,2.2-1.4c0.6-0.4,1.7-0.9,2.3-1.2l0.8-0.5l0.8-0.5l1.2-0.7l1.4-0.5c1,0.4,2.6,1.1,3.6,1.6
		c1,0.5,2.5,1.3,3.5,1.9c0.9,0.5,2.5,1.5,3.4,2.1c0.8,0.5,1.6,1.1,2.3,1.7c0.7,0.6,1.4,1.3,2.1,2c0.6,0.7,1.3,1.5,1.8,2.2
		c0.5,0.7,1.1,1.8,1.5,2.6c0.4,0.7,0.9,1.9,1.2,2.7c0.3,0.8,0.7,2,1,2.8h-2v4.7h2.4v24.1l-1.2-0.2v-22.8h-2.5v-7.3h1.7
		c-0.2-0.7-0.7-1.7-1-2.3s-0.8-1.6-1.2-2.2c-0.4-0.6-1-1.5-1.4-2.1c-0.5-0.7-1.1-1.3-1.6-2c-0.6-0.6-1.2-1.2-1.9-1.8
		c-0.7-0.5-1.3-1-2.1-1.5c-0.8-0.6-2.2-1.4-3.1-1.9c-0.9-0.5-2.3-1.3-3.2-1.7c-0.9-0.4-2.4-1.1-3.3-1.5l-1.2,0.5l-0.7,0.3l-0.7,0.3
		l-1.2,0.7c-0.6,0.3-1.6,0.9-2.2,1.2c-0.6,0.4-1.6,1-2.1,1.4c-0.6,0.4-1.5,1.1-2.1,1.5c-0.4,0.3-1.1,0.9-1.5,1.2
		c-0.4,0.4-1,1-1.3,1.4c-0.3,0.4-0.9,1.1-1.2,1.5c-0.3,0.4-0.8,1.1-1,1.6s-0.7,1.2-0.9,1.6c-0.2,0.5-0.6,1.2-0.8,1.7l-0.5,1.2
		l-0.3,0.9h1.5v7.3h-2.5v22.8h-1.2V198.4 M211.3,197.2l-0.2,25.3h-2.4l-1-1.2l-2-1.2l-1.7-1.4l-1.3-1.7l-0.8-2.4l-0.7-2.9l-0.2-3
		h-0.3v-0.7h-0.3l-0.2-1l-0.7-37.8l0.5-1.2h65.4l0.3,1.2l-0.7,37.8v1h-0.3v0.7h-0.5l-0.2,3.4l-0.9,3.2l-1,2.2l-1.7,1.9l-1.7,1.2
		l-1.3,1l-0.7,0.8h-2.4v-25.3H252v-2.4h2.4c-0.2-0.7-0.5-1.8-0.7-2.5c-0.2-0.7-0.6-1.8-0.9-2.4c-0.3-0.7-0.8-1.7-1.1-2.4
		c-0.3-0.6-0.8-1.5-1.1-2c-0.3-0.5-0.9-1.4-1.3-1.9c-0.4-0.5-1.1-1.3-1.5-1.7c-0.5-0.5-1.3-1.3-1.9-1.7c-0.5-0.4-1.5-1.1-2-1.5
		s-1.5-1-2.2-1.3c-0.8-0.5-2.2-1.3-3-1.7s-2.2-1.2-3.1-1.6s-2.3-1.1-3.2-1.4l-1.7,0.8l-1.4,0.7l-1,0.5l-0.8,0.3
		c-0.7,0.3-1.7,0.9-2.3,1.3c-0.6,0.4-1.6,1-2.3,1.5c-0.6,0.4-1.6,1.1-2.2,1.6c-0.5,0.3-1.2,0.9-1.6,1.3c-0.4,0.4-1.1,1-1.5,1.5
		c-0.4,0.4-1,1.1-1.3,1.6s-0.9,1.2-1.2,1.7c-0.3,0.5-0.8,1.3-1,1.8c-0.3,0.5-0.6,1.4-0.9,1.9l-0.8,2.2l-0.7,1.7l-0.3,1l-0.2,0.7h2.4
		v2.4L211.3,197.2 M199.5,207.6h-13.3l0.7-38.8h11.8L199.5,207.6 M295.4,193.5v28.9h-1.2v-30.6l1.7-5.2c0.2-0.5,0.4-0.9,0.6-1.4
		c0.2-0.4,0.5-0.9,0.8-1.3c0.3-0.4,0.6-0.8,0.9-1.2l4.9-4.4c0.7,0.5,1.7,1.3,2.3,1.9c0.6,0.5,1.5,1.5,2.1,2.1
		c0.5,0.6,1.4,1.6,1.9,2.3c0.4,0.7,0.8,1.5,1.2,2.3c0.3,0.8,0.7,1.6,0.9,2.4c0.2,0.8,0.4,1.7,0.6,2.5v30.6h-1.2v-28.9L295.4,193.5
		 M292,222.5h-1v-46.1h24.3v46.1h-0.8v-31.4h-2l-1.3-4.9c-0.2-0.5-0.5-1-0.7-1.4c-0.3-0.5-0.6-0.9-0.9-1.3c-0.3-0.4-0.7-0.8-1.1-1.2
		l-5.2-4.7l-5.1,4.5c-0.4,0.4-0.7,0.8-1,1.2c-0.3,0.4-0.6,0.9-0.8,1.3c-0.3,0.5-0.5,0.9-0.7,1.4l-1.7,5.1H292V222.5 M278.8,173.9
		h51.7v48.6H316v-46.8l-25.8,0.2v46.6h-2.4c-0.1-0.4-0.3-0.8-0.6-1.2c-0.2-0.1-0.4-0.3-0.6-0.4l-3.5-2.7c-0.3-0.5-0.6-1-0.9-1.5
		c-0.3-0.5-0.5-1-0.7-1.6c-0.2-0.5-0.3-1.1-0.4-1.7c-0.1-0.4-0.2-1.1-0.3-1.6c-0.1-0.5-0.1-1.1-0.1-1.6c0-0.4,0-1.1,0-1.6l-0.8-0.5
		l-0.2-0.8L278.8,173.9 M279,207.6h-13.5l0.8-38.8h11.8L279,207.6 M277.5,167.6h-10.3l0.2-7.7l-0.2-0.4l-0.2-0.3h10.6l-0.5,0.4v0.5
		L277.5,167.6 M279,167.7l-1.2-0.6l-0.2-6.7h53v7.3H279 M266,168.2V168l0.2-0.1v-0.1l0.2,0h11.8v0l0.2,0.1l0.2,0.1v0.5l-0.2,0.1
		l-0.2,0.1v0h-11.8l-0.2,0v-0.1l-0.2-0.1V168.2 M331.2,173h-52.3v-4.9h55.2v1.7h-1.3v1.6h-1.5L331.2,173 M155.1,222.5h-0.8v-28.9
		h14.5v28.9h-0.3v-18.4h-1.2l-1-3l-1.5-2.4l-2.9-2.7l-3.2,2.9l-1.5,2.2l-0.8,3h-1.2L155.1,222.5 M172.8,222.5v-31.4h-2l-1.5-5.1
		c-0.2-0.4-0.5-1-0.8-1.4c-0.2-0.4-0.6-1-0.9-1.3c-0.3-0.3-0.8-0.9-1.1-1.2l-5.1-4.6l-5.2,4.7c-0.4,0.4-0.7,0.8-1,1.2
		c-0.3,0.4-0.6,0.9-0.8,1.3c-0.3,0.5-0.5,0.9-0.7,1.4l-1.5,4.9h-1.9v31.4h-1v-46.1h24.5v46.1H172.8 M153.9,193.5v28.9h-1.2v-30.6
		c0.1-0.8,0.3-1.7,0.5-2.5c0.2-0.8,0.5-1.6,0.8-2.4c0.3-0.8,0.7-1.6,1.2-2.3c0.5-0.7,1.4-1.7,1.9-2.3c0.6-0.6,1.5-1.5,2.2-2.1
		c0.6-0.5,1.7-1.4,2.3-1.9l4.7,4.4c0.4,0.4,0.7,0.8,1,1.2c0.3,0.4,0.6,0.9,0.8,1.3c0.3,0.5,0.5,0.9,0.7,1.4l1.5,5.2v30.6h-1v-28.9
		H153.9 M185.8,173.9l-0.8,33.6v0.8l-0.8,0.5c0,0.4,0.1,1.1,0.1,1.6s-0.1,1.1-0.1,1.6c-0.1,0.4-0.2,1.1-0.3,1.6
		c-0.1,0.6-0.3,1.1-0.5,1.7c-0.2,0.5-0.5,1.1-0.7,1.6c-0.3,0.5-0.6,1-1,1.5L178,221c-0.2,0.1-0.4,0.2-0.6,0.4
		c-0.2,0.2-0.3,0.3-0.4,0.5c-0.1,0.2-0.2,0.4-0.2,0.6h-2.4v-46.6l-25.8-0.2v46.8h-14.4v-48.6H185.8 M309.6,204.1h-1.2l-0.8-3
		l-1.5-2.2l-3-2.9l-3,2.7l-1.5,2.4l-1,3h-1v18.4h-0.5v-28.9h14.5v28.9h-0.8V204.1 M275.3,208h3.5v0.5l0.2,0.2h0.3v0.3l0.2,0.2h0.2
		l0.3,0.2v2.2l0.3,2.2l0.7,1.9l0.7,1.7l0.8,1.4l1.2,1.2l1.4,1l1,0.5l0.8,0.5l0.3,0.3l0.2,0.3h-30.4l0.2-0.3l1.5-1l0.8-0.5l1.2-1
		l1.2-1l0.8-1.4l0.8-1.7l0.5-1.9l0.3-2.2v-2.2l0.3-0.2h0.3v-0.5h0.3l0.2-0.2v-0.2h0.2V208H275.3 M268,143.6h-70.9l-0.2-4.9h71.3
		L268,143.6 M295.4,191.1h15.2v-0.3h-15.2V191.1 M169.4,190.8H154v0.3h15.4V190.8 M377.4,224v1.9H87.2V224h41.4v-0.7h207.7v0.7
		H377.4 M192.7,123.9v-0.6l-0.2-0.2v-0.5l0.2-0.1v-0.1h0.2v0.5l0.2,0.3l-0.2,0.2v0.7l1.9,2.5l1,2.2l0.2,3l0.2,0.1l0.2,0.1v0.2
		l0.2,0.2h-7.3v-0.4l0.2-0.1v-0.1l0.2-0.1l0.3-3l0.8-2.2L192.7,123.9 M189,132.8v-0.2l0.2-0.1l0.2,0h6.9l0.2,0v0.1l0.2,0.1v0.3
		l-0.2,0.1v0.1l-0.2,0h-6.9l-0.2,0L189,133V132.8 M189,142.9v-2.6l0.2-2.4l0.2-2.3v-2.2h6.9v2.2l0.2,2.3v2.4l0.2,2.6L189,142.9
		 M272.3,123.9v-0.5l-0.2-0.1v-0.8l0.2-0.1v-0.1l0.2,0v1.6l1.9,2.5l1,2.2l0.2,3l0.2,0.1l0.2,0.1v0.5h-7.1v-0.4l0.2-0.1v-0.1l0.2-0.1
		l0.3-3l0.8-2.2L272.3,123.9 M268.6,132.8v-0.2l0.2-0.1l0.2,0h6.9l0.2,0.1v0.1l0.2,0.1l-0.2,0.1v0.1l-0.2,0.1v0h-6.9l-0.2,0
		l-0.2-0.1V132.8 M268.4,142.9l0.2-2.6l0.2-2.4v-2.3l0.2-2.2h6.9v2.2l0.2,2.3v2.4l0.2,2.6L268.4,142.9 M194.2,140.1v-6.2h1.7v4
		l0.2,2.2v2.3h-1.9V140.1 M191.9,140.1v-4.2l0.2-2h1.7v8.5h-1.9V140.1 M189.5,140.1v-2.2l0.2-2.1v-2h1.7v6.2l-0.2,2.3h-1.9
		L189.5,140.1 M273.8,140.1v-4.2l-0.2-2h1.7l0.2,2v2.1l0.2,2.2v2.3h-1.9L273.8,140.1 M271.4,140.1v-6.2h1.9v8.5h-1.9V140.1
		 M269.1,140.1v-2.2l0.2-2.1v-2h1.7v4l-0.2,2.2v2.3h-1.9L269.1,140.1"/>
	<path class="st8" d="M264.6,205.3L264.6,205.3c0.8,0,1.6-0.1,2.4-0.2c0.6-0.1,1.2-0.3,1.8-0.6c0.4-0.2,0.7-0.4,1-0.7
		c0.4-0.4,0.8-0.8,1.2-1.2c0.1-0.1,0.3-0.3,0.6-0.7c0.2-0.2,0.4-0.4,0.6-0.6c0.1-0.1,0.2-0.2,0.4-0.3c0.1-0.1,0.2-0.1,0.3-0.2
		c0.2-0.1,0.4-0.1,0.7-0.1c0.3,0,0.6,0.1,0.9,0.2c0.3,0.2,0.5,0.4,0.7,0.7c0.2,0.4,0.3,0.8,0.3,1.2c0,2.1-0.6,3.8-1.7,5.2
		c-0.5,0.7-1.2,1.3-2,1.7c-0.8,0.4-1.7,0.6-2.6,0.6c-0.8,0-2-0.1-3.6-0.2c-1.5-0.1-2.6-0.2-3.4-0.2c-0.5,0-1.2,0.1-2.2,0.2
		c-1.1,0.1-1.9,0.2-2.5,0.2c-0.4,0-0.8-0.1-1.2-0.3c-0.3-0.1-0.6-0.4-0.8-0.7c-0.2-0.3-0.3-0.6-0.3-0.9c-0.1-0.6,0.1-1.1,0.5-1.6
		c0.3-0.3,0.6-0.5,0.9-0.7c0.1-0.1,0.3-0.1,0.4-0.2c0.1,0,0.1-0.1,0.1-0.2c0.2-0.5,0.2-1.2,0.2-2.3v-14.9c0-0.3,0-0.7-0.1-1
		c0-0.1-0.1-0.3-0.2-0.4c-0.1-0.1-0.2-0.1-0.3-0.2c-0.3-0.1-0.6-0.2-0.9-0.2h0c-0.5,0-1.1-0.3-1.5-0.7c-0.4-0.4-0.7-1-0.6-1.6
		c0-0.5,0.2-1.1,0.5-1.5c0.2-0.3,0.5-0.5,0.8-0.6c0.3-0.1,0.7-0.2,1-0.2c0.3,0,0.9,0.1,1.6,0.2c0.5,0.1,0.9,0.1,1.4,0.1
		c0.5,0,1.3-0.1,2.3-0.2c1.2-0.1,2.1-0.2,2.7-0.2c0.5,0,1,0.1,1.5,0.3c0.3,0.2,0.6,0.5,0.8,0.8c0.4,0.9,0.2,2-0.6,2.6
		c-0.3,0.3-0.7,0.4-1.2,0.5l-0.1,0l-0.1,0.1c-0.1,0.4-0.2,0.9-0.2,1.6v15.1C264.5,204.3,264.5,204.9,264.6,205.3 M224.3,183.4
		c0.2-0.1,0.4-0.2,0.6-0.3c0.4-0.2,0.8-0.2,1.1-0.1c0.5,0.1,1,0.4,1.3,0.8c0.2,0.2,0.3,0.5,0.3,0.8c0,0.1,0,0.3,0,0.4
		c0,0.2,0,0.6,0,1c0,0.8,0.1,1.6,0.2,2.3c0.1,0.9,0.2,1.8,0.2,2.8c0,0.4-0.1,0.8-0.2,1.1c-0.1,0.3-0.3,0.5-0.5,0.7
		c-0.3,0.3-0.7,0.5-1.1,0.5c-0.3,0-0.7,0-1-0.1c-0.3-0.1-0.6-0.4-0.8-0.7c-0.3-0.4-0.4-0.8-0.5-1.3c-0.2-1.2-0.8-2.3-1.8-3.3
		c-0.4-0.4-0.9-0.8-1.4-1.1c-0.4-0.2-0.9-0.3-1.3-0.3c-0.5,0-1,0.2-1.3,0.6c-0.4,0.4-0.6,0.9-0.6,1.4c0,0.4,0.1,0.7,0.4,1
		c0.4,0.5,0.9,0.9,1.6,1.3c1.4,0.8,2.7,1.4,3.7,2c1.1,0.6,1.7,1,1.8,1l0,0c1.1,0.8,2,1.9,2.6,3.2c0.6,1.3,0.9,2.7,0.9,4.1
		c0,2.5-0.8,4.7-2.3,6.6c-1.7,2-3.6,2.9-5.9,2.9c-0.4,0-0.9-0.1-1.3-0.2c-0.5-0.1-1.2-0.3-2.3-0.5h0h0c-0.7-0.2-1.5-0.4-2.2-0.7
		c-0.3-0.1-0.5-0.2-0.8-0.4c-0.3-0.2-0.6-0.5-0.8-0.8c-0.1-0.1-0.2-0.5-0.4-1.3c-0.1-0.5-0.3-1.3-0.5-2.2c-0.4-2.1-0.6-3.3-0.6-3.6
		c0-0.5,0.1-1,0.3-1.4c0.2-0.3,0.4-0.5,0.6-0.7c0.3-0.2,0.5-0.3,0.9-0.3c0.4-0.1,0.7,0,1.1,0.1c0.3,0.1,0.5,0.3,0.7,0.5
		c0.3,0.3,0.4,0.6,0.5,0.9c0.7,2.1,1.5,3.7,2.4,4.8c0.7,0.8,1.6,1.3,2.6,1.3c0.6,0,1.1-0.3,1.6-0.8c0.5-0.6,0.8-1.3,0.8-2.1
		c0-0.7-0.3-1.3-0.8-1.8c-0.8-0.7-2-1.4-3.8-2.1c-2.2-0.9-3.7-2.1-4.8-3.5c-1.1-1.5-1.7-3.3-1.7-5.3c0-2.3,0.7-4.3,2.1-5.9
		c1.5-1.7,3.3-2.5,5.4-2.5c1.1,0,2.3,0.3,3.6,0.9C223.6,183.1,224,183.3,224.3,183.4 M195.8,196.6h2.1c-0.5-1.3-0.8-2.2-1-2.7
		c0,0,0,0,0-0.1c-0.4,1-0.7,1.8-0.9,2.5C195.8,196.3,195.8,196.5,195.8,196.6 M199.6,201.7L199.6,201.7c-0.4-0.1-0.8-0.1-1.1-0.1
		h-4.3c0,0-0.1,0-0.1,0l0,0c0,0.1-0.1,0.2-0.1,0.3c-0.2,0.4-0.4,0.8-0.6,1.3c-0.4,0.9-0.6,1.5-0.6,1.9c0,0.2,0,0.3,0,0.5l0.1,0.1
		c0.2,0.2,0.6,0.3,1.1,0.5c0.4,0.1,0.8,0.3,1.1,0.5c0.2,0.2,0.4,0.3,0.6,0.6c0.2,0.3,0.4,0.7,0.4,1.1c0,0.3-0.1,0.6-0.2,0.9
		c-0.1,0.3-0.4,0.6-0.6,0.8c-0.4,0.3-0.9,0.4-1.4,0.4c-0.6,0-1.1-0.1-1.7-0.2c-0.4-0.1-0.8-0.1-1.2-0.1c-0.4,0-0.9,0-1.7,0.1
		c-0.9,0.1-1.6,0.1-2,0.1c-0.2,0-0.5,0-0.7-0.1c-0.3-0.1-0.7-0.3-0.9-0.5c-0.2-0.2-0.4-0.5-0.5-0.9c-0.1-0.2-0.1-0.5-0.1-0.7
		c0-0.3,0.1-0.7,0.3-1c0.2-0.3,0.4-0.6,0.7-0.8c0,0,0.2-0.1,0.4-0.2c0.1,0,0.1-0.1,0.2-0.1c0.3-0.3,0.6-0.7,0.8-1.1
		c0.4-0.7,0.8-1.5,1.1-2.3c0.6-1.8,1.3-3.4,1.9-5c0.6-1.6,1.2-3,1.7-4.4c0.2-0.5,0.9-2.3,2.1-5.5c0.6-1.6,1.1-2.9,1.5-3.7
		c0.2-0.4,0.4-0.8,0.6-1.1c0.1-0.2,0.3-0.4,0.5-0.5c0.1-0.1,0.3-0.2,0.5-0.3c0.3-0.1,0.6-0.2,0.9-0.1c0.3,0,0.5,0.1,0.7,0.2
		c0.2,0.1,0.3,0.2,0.5,0.4c0.2,0.2,0.4,0.4,0.5,0.7c0.4,0.7,0.7,1.5,1,2.3l7.2,18.7c0.3,0.7,0.5,1.2,0.8,1.5
		c0.2,0.2,0.6,0.4,1.1,0.5c0.3,0.1,0.6,0.2,0.8,0.4c0.2,0.2,0.4,0.4,0.5,0.6c0.2,0.4,0.3,0.9,0.3,1.3c-0.1,0.5-0.3,1-0.7,1.3
		c-0.2,0.2-0.5,0.4-0.8,0.5c-0.3,0.1-0.6,0.1-0.9,0.1c-0.8-0.1-1.5-0.2-2.2-0.3c-0.7,0-1.5-0.1-2.4-0.1c-0.6,0-1.2,0.1-1.7,0.1
		c-0.7,0.1-1.4,0.1-2.1,0.1c-0.5,0-1.1-0.2-1.4-0.5c-0.2-0.2-0.4-0.5-0.5-0.8c-0.1-0.3-0.1-0.5-0.1-0.8c0-0.5,0.2-1.1,0.6-1.4
		c0.3-0.3,0.6-0.5,1-0.6c0.2-0.1,0.3-0.1,0.4-0.2l0.1-0.1c0-0.1,0-0.2,0-0.3c0-0.2-0.1-0.5-0.1-0.7c-0.1-0.4-0.3-0.9-0.5-1.6
		c-0.2-0.5-0.4-1-0.6-1.5C199.6,201.8,199.6,201.7,199.6,201.7 M241.9,201.7L241.9,201.7c-0.4-0.1-0.8-0.1-1.1-0.1h-4.3
		c0,0-0.1,0-0.1,0l0,0c-0.1,0.1-0.1,0.2-0.1,0.3c-0.2,0.4-0.4,0.8-0.6,1.3c-0.4,0.9-0.6,1.5-0.6,1.9c0,0.2,0,0.3,0,0.5l0.1,0.1
		c0.2,0.2,0.6,0.3,1.1,0.5c0.4,0.1,0.8,0.3,1.1,0.5c0.2,0.2,0.4,0.3,0.6,0.6c0.2,0.3,0.4,0.7,0.4,1.1c0,0.3-0.1,0.6-0.2,0.9
		c-0.1,0.3-0.4,0.6-0.6,0.8c-0.4,0.3-0.9,0.4-1.4,0.4c-0.6,0-1.1-0.1-1.7-0.2c-0.4-0.1-0.8-0.1-1.2-0.1c-0.4,0-0.9,0-1.7,0.1
		c-0.9,0.1-1.6,0.1-2,0.1c-0.2,0-0.5,0-0.7-0.1c-0.3-0.1-0.7-0.3-0.9-0.5c-0.2-0.2-0.4-0.5-0.5-0.9c-0.1-0.2-0.1-0.5-0.1-0.7
		c0-0.3,0.1-0.7,0.3-1c0.2-0.3,0.4-0.6,0.7-0.8c0.1,0,0.2-0.1,0.4-0.2c0.1,0,0.1-0.1,0.2-0.1c0.3-0.3,0.6-0.7,0.8-1.1
		c0.4-0.7,0.8-1.5,1.1-2.3c0.6-1.8,1.3-3.4,1.9-5c0.6-1.6,1.2-3,1.7-4.4c0.2-0.5,0.9-2.3,2.1-5.5c0.6-1.6,1.1-2.9,1.5-3.7
		c0.2-0.4,0.4-0.8,0.6-1.1c0.1-0.2,0.3-0.4,0.5-0.5c0.1-0.1,0.3-0.2,0.5-0.3c0.3-0.1,0.6-0.2,0.9-0.1c0.3,0,0.5,0.1,0.7,0.2
		c0.2,0.1,0.3,0.2,0.5,0.4c0.2,0.2,0.4,0.4,0.5,0.7c0.4,0.7,0.7,1.5,1,2.3l7.2,18.7c0.3,0.7,0.5,1.2,0.8,1.5
		c0.2,0.2,0.6,0.4,1.1,0.5c0.3,0.1,0.6,0.2,0.8,0.4c0.2,0.2,0.4,0.4,0.5,0.6c0.2,0.4,0.3,0.9,0.3,1.3c-0.1,0.5-0.3,1-0.7,1.3
		c-0.2,0.2-0.5,0.4-0.8,0.5c-0.3,0.1-0.6,0.1-0.9,0.1c-0.8-0.1-1.5-0.2-2.2-0.3c-0.7,0-1.5-0.1-2.4-0.1c-0.6,0-1.2,0.1-1.7,0.1
		c-0.7,0.1-1.4,0.1-2.1,0.1c-0.5,0-1.1-0.2-1.4-0.5c-0.2-0.2-0.4-0.5-0.5-0.8c-0.1-0.3-0.1-0.5-0.1-0.8c0-0.5,0.2-1.1,0.6-1.4
		c0.3-0.3,0.6-0.5,1-0.6c0.2-0.1,0.3-0.1,0.4-0.2l0.1-0.1c0-0.1,0-0.2,0-0.3c0-0.2-0.1-0.5-0.1-0.7c-0.1-0.4-0.3-0.9-0.5-1.6
		c-0.2-0.5-0.4-1-0.6-1.5C242,201.8,242,201.7,241.9,201.7 M238.1,196.6h2.1c-0.5-1.3-0.8-2.2-1-2.7l0-0.1c-0.4,1-0.7,1.8-0.9,2.5
		L238.1,196.6 M289.5,201.7L289.5,201.7c-0.4-0.1-0.8-0.1-1.1-0.1h-4.3c0,0-0.1,0-0.1,0l0,0c0,0.1-0.1,0.1-0.1,0.3
		c-0.2,0.4-0.4,0.8-0.6,1.3c-0.4,0.9-0.6,1.5-0.6,1.9c0,0.2,0,0.3,0,0.5l0.1,0.1c0.2,0.2,0.6,0.3,1.1,0.5c0.4,0.1,0.8,0.3,1.1,0.5
		c0.2,0.2,0.4,0.3,0.6,0.6c0.2,0.3,0.4,0.7,0.4,1.1c0,0.3-0.1,0.6-0.2,0.9c-0.1,0.3-0.4,0.6-0.6,0.8c-0.4,0.3-0.9,0.4-1.4,0.4
		c-0.6,0-1.1-0.1-1.7-0.2c-0.4-0.1-0.8-0.1-1.2-0.1c-0.4,0-0.9,0-1.7,0.1c-0.9,0.1-1.6,0.1-2,0.1c-0.2,0-0.5,0-0.7-0.1
		c-0.3-0.1-0.7-0.3-0.9-0.5c-0.2-0.2-0.4-0.5-0.5-0.9c-0.1-0.2-0.1-0.5-0.1-0.7c0-0.7,0.4-1.4,1-1.8c0.1,0,0.2-0.1,0.4-0.2
		c0.1,0,0.1-0.1,0.2-0.1c0.3-0.3,0.6-0.7,0.8-1.1c0.4-0.7,0.8-1.5,1.1-2.3c0.6-1.8,1.3-3.4,1.9-5c0.6-1.6,1.2-3,1.7-4.4
		c0.2-0.5,0.9-2.3,2.1-5.5c0.6-1.6,1.1-2.9,1.5-3.7c0.2-0.4,0.4-0.8,0.6-1.1c0.1-0.2,0.3-0.4,0.5-0.5c0.1-0.1,0.3-0.2,0.5-0.3
		c0.3-0.1,0.6-0.2,0.9-0.1c0.3,0,0.5,0.1,0.7,0.2c0.2,0.1,0.3,0.2,0.5,0.4c0.2,0.2,0.4,0.4,0.5,0.7c0.4,0.7,0.7,1.5,1,2.3l7.2,18.7
		c0.3,0.7,0.5,1.2,0.8,1.5c0.2,0.2,0.6,0.4,1.1,0.5c0.3,0.1,0.6,0.2,0.8,0.4c0.2,0.2,0.4,0.4,0.5,0.6c0.2,0.4,0.3,0.9,0.3,1.3
		c-0.1,0.5-0.3,1-0.7,1.3c-0.2,0.2-0.5,0.4-0.8,0.5c-0.3,0.1-0.6,0.1-0.9,0.1c-0.8-0.1-1.5-0.2-2.2-0.3c-0.7,0-1.5-0.1-2.4-0.1
		c-0.6,0-1.2,0.1-1.7,0.1c-0.7,0.1-1.4,0.1-2.1,0.1c-0.5,0-1.1-0.2-1.4-0.5c-0.2-0.2-0.4-0.5-0.5-0.8c-0.1-0.3-0.1-0.5-0.1-0.8
		c0-0.5,0.2-1.1,0.6-1.4c0.3-0.3,0.6-0.5,1-0.6c0.2-0.1,0.3-0.1,0.4-0.2l0.1-0.1c0-0.1,0-0.2,0-0.3c0-0.2-0.1-0.5-0.1-0.7
		c-0.1-0.4-0.3-0.9-0.5-1.6c-0.2-0.5-0.4-1-0.6-1.5C289.6,201.8,289.5,201.7,289.5,201.7 M285.7,196.6h2.1c-0.5-1.3-0.8-2.2-1-2.7
		l0-0.1c-0.4,1-0.7,1.8-0.9,2.5C285.8,196.3,285.7,196.4,285.7,196.6"/>
	<path class="st8" d="M159,203.7c0.5-0.9,1.6-3.3,3.4-7c1.8-3.8,3.3-6.8,4.6-9.1c0.6-1.1,1.1-2,1.5-2.7c0.6-1,1.1-1.5,1.4-1.7
		c0.4-0.3,1-0.6,1.5-0.7c0.4-0.1,0.8-0.1,1.3-0.1c0.4,0,1,0,2,0.1l1,0l0.3,0c0.3,0,0.8,0,1.5-0.1c0.7-0.1,1.4-0.1,2.1-0.1
		c0.3,0,0.7,0,1,0.1c0.4,0.1,0.8,0.3,1.1,0.5c0.4,0.3,0.6,0.6,0.8,1c0.1,0.3,0.2,0.7,0.2,1.1c0,0.7-0.3,1.4-0.9,1.9
		c-0.5,0.4-1.1,0.7-1.8,0.7c-0.5,0-1,0.2-1.5,0.4c-0.2,0.1-0.4,0.3-0.5,0.5c-0.2,0.4-0.4,1-0.5,1.6c-0.1,0.9-0.2,1.9-0.2,2.9
		c0,0.1,0.1,1.9,0.2,5.5c0.1,3.6,0.3,7.4,0.4,11.4c0.1,2.4,0.3,4.1,0.9,5c0.2,0.3,0.4,0.5,0.7,0.7c0.5,0.3,1,0.5,1.6,0.5
		c0.7,0.1,1.4,0.3,2,0.7c0.4,0.2,0.7,0.6,1,1c0.2,0.4,0.3,0.8,0.3,1.2c0,0.5-0.2,1-0.5,1.4c-0.3,0.4-0.8,0.7-1.2,0.9
		c-0.4,0.1-1.1,0.3-2.2,0.3c-0.8,0-2-0.1-3.6-0.2c-1.4-0.1-2.4-0.2-3.1-0.2c-0.7,0-1.8,0.1-3.3,0.2c-1.7,0.2-2.9,0.3-3.7,0.3
		c-0.6,0-1.2-0.1-1.8-0.4c-0.4-0.2-0.7-0.4-0.9-0.8c-0.3-0.3-0.4-0.7-0.4-1.2c-0.1-0.6,0.1-1.3,0.5-1.7c0.3-0.4,0.7-0.7,1.1-0.9
		c0.3-0.2,0.5-0.3,0.6-0.3l0,0l0,0c0.5-0.3,1-0.6,1.2-0.9c0.1-0.1,0.1-0.2,0.1-0.4c0-0.3,0.1-0.5,0.1-0.8c0-1.3-0.1-4.3-0.4-9.1
		c-0.1-1-0.1-2-0.1-2.8c-0.6,1.1-1.2,2.3-1.8,3.7c-2.5,4.9-4.5,8.9-6.1,12.1c-0.1,0.1-0.2,0.3-0.3,0.7c-0.2,0.5-0.4,0.8-0.5,1
		c-0.2,0.4-0.5,0.8-0.9,1.1c-0.3,0.2-0.6,0.4-0.9,0.5c-0.4,0.2-0.9,0.2-1.3,0.2c-0.6,0-1.1-0.2-1.6-0.6c-0.4-0.3-0.7-0.6-1-0.9
		c-0.4-0.5-1.3-2.2-2.7-5.1l-5.7-11.9c0,0.2,0,0.4,0,0.7c-0.1,3.9-0.1,6.3-0.1,7c0,1.7,0.2,3.1,0.7,4c0.4,0.7,1,1.2,1.9,1.5h0h0
		c0.9,0.4,1.5,0.7,1.9,0.9c0.3,0.2,0.6,0.5,0.8,0.8c0.3,0.4,0.4,0.9,0.4,1.3c0,0.4-0.1,0.9-0.4,1.3c-0.2,0.4-0.6,0.7-1,0.9
		c-0.6,0.3-1.2,0.4-1.8,0.4c-0.7,0-1.8-0.1-3.2-0.2c-1.2-0.1-2.1-0.2-2.7-0.2c-0.5,0-1.3,0.1-2.3,0.2c-1.2,0.1-2.2,0.2-2.8,0.2
		c-0.3,0-0.7,0-1-0.1c-0.5-0.1-0.9-0.3-1.2-0.5c-0.4-0.3-0.7-0.7-0.9-1.2c-0.1-0.4-0.1-0.8-0.1-1.2c0.1-0.5,0.3-1,1-1.6
		c0.4-0.3,0.8-0.5,1.3-0.7c0.5-0.2,0.9-0.4,1.3-0.7c0.2-0.1,0.3-0.3,0.4-0.5c0.2-0.4,0.4-0.8,0.4-1.3c0.1-0.9,0.2-1.8,0.2-2.7
		c0.2-3.9,0.3-8,0.5-12.2c0.2-4.2,0.3-6.4,0.3-6.5c0-1.3-0.4-2.5-1.2-3.4c-0.3-0.4-0.7-0.7-1.2-0.9c-0.4-0.2-0.9-0.3-1.4-0.3
		c-0.4,0-0.7,0-1.1-0.1c-0.5-0.1-0.9-0.3-1.3-0.6c-0.3-0.3-0.6-0.6-0.7-1c-0.1-0.3-0.2-0.7-0.2-1c0-0.5,0.1-1,0.4-1.4
		c0.3-0.4,0.7-0.7,1.1-0.9c0.5-0.2,1-0.3,1.5-0.3c0.4,0,0.9-0.1,1.6-0.1h0.1c1.1,0.1,1.8,0.1,2.2,0.1l0.1,0l0.2,0
		c0.4,0,1-0.1,1.7-0.2c0.8-0.1,1.6-0.2,2.4-0.2c1,0,2,0.2,2.9,0.7c0.8,0.5,1.5,1.2,1.9,2.1l10.3,21.4
		C158.2,205.2,158.7,204.3,159,203.7"/>
	<path class="st4" d="M276,208.2c0-0.2,0.1-0.4,0.1-0.6c0.1-0.2,0.3-0.4,0.4-0.5c0,0,0.1-0.1,0.3-0.2c0.1-0.1,0.2-0.1,0.3-0.2
		c0.4-0.4,0.8-0.8,1.1-1.3c0.4-0.8,0.8-1.6,1.1-2.5c0.6-1.8,1.3-3.4,1.9-5c0.6-1.6,1.2-3,1.7-4.4c0.2-0.5,0.9-2.3,2.1-5.5
		c0.6-1.6,1.1-2.8,1.5-3.6c0.2-0.3,0.3-0.7,0.6-1c0.1-0.1,0.2-0.2,0.3-0.3c0.1-0.1,0.2-0.1,0.3-0.2c0.1-0.1,0.3-0.1,0.4-0.1
		c0.1,0,0.3,0.1,0.4,0.1c0.1,0.1,0.2,0.1,0.3,0.2c0.1,0.1,0.3,0.3,0.3,0.5c0.3,0.7,0.6,1.4,0.9,2.1l7.2,18.7c0.3,0.9,0.7,1.5,1,1.9
		c0.3,0.3,0.9,0.5,1.5,0.7c0.2,0,0.3,0.1,0.5,0.2c0.1,0.1,0.2,0.2,0.3,0.4c0.1,0.2,0.2,0.5,0.1,0.8c0,0.3-0.2,0.6-0.4,0.8
		c-0.1,0.1-0.3,0.2-0.4,0.2c-0.2,0-0.3,0.1-0.5,0c-0.8-0.1-1.5-0.2-2.2-0.3s-1.5-0.1-2.5-0.1c-0.6,0-1.2,0.1-1.8,0.1
		c-0.6,0.1-1.3,0.1-2,0.1c-0.3,0-0.6-0.1-0.8-0.3c-0.1-0.1-0.2-0.3-0.3-0.4c-0.1-0.1-0.1-0.3-0.1-0.5c0-0.3,0.1-0.6,0.3-0.8
		c0.2-0.2,0.4-0.3,0.7-0.4c0.2-0.1,0.4-0.2,0.6-0.3c0.1-0.1,0.2-0.2,0.3-0.4c0.1-0.2,0.2-0.5,0.2-0.7c0-0.3-0.1-0.6-0.2-0.9
		c-0.1-0.4-0.3-1-0.5-1.6c-0.2-0.5-0.4-1.1-0.7-1.6c-0.1-0.3-0.2-0.5-0.4-0.6c-0.1-0.1-0.3-0.1-0.5-0.1c-0.4-0.1-0.8-0.1-1.2-0.1
		h-4.3c-0.1,0-0.3,0-0.4,0.1c-0.1,0-0.2,0.1-0.3,0.2c-0.1,0.2-0.3,0.3-0.3,0.5c-0.2,0.4-0.4,0.9-0.6,1.4c-0.4,1.1-0.7,1.8-0.7,2.2
		c0,0.3,0,0.5,0.1,0.8c0,0.1,0.1,0.3,0.2,0.4c0.3,0.3,0.8,0.5,1.6,0.7c0.3,0.1,0.6,0.2,0.9,0.4c0.1,0.1,0.3,0.2,0.4,0.3
		c0.1,0.2,0.2,0.4,0.2,0.6c0,0.2,0,0.3-0.1,0.5c-0.1,0.2-0.2,0.3-0.4,0.4c-0.3,0.2-0.6,0.3-0.9,0.3c-0.5,0-1-0.1-1.5-0.1
		c-0.4-0.1-0.9-0.1-1.3-0.1c-0.4,0-1,0-1.8,0.1c-0.9,0.1-1.5,0.1-1.9,0.1c-0.1,0-0.3,0-0.4-0.1c-0.2,0-0.4-0.1-0.5-0.3
		c-0.1-0.1-0.2-0.3-0.3-0.5C276,208.5,275.9,208.3,276,208.2 M289.1,197.5c-0.7-1.9-1.2-3.3-1.5-4c-0.3-0.7-0.6-1.4-0.9-2.2
		c-0.8,1.9-1.4,3.5-1.8,4.6c-0.2,0.6-0.4,1-0.5,1.4c0,0.1,0,0.1-0.1,0.2L289.1,197.5"/>
	<path class="st4" d="M254.8,184.7c0-0.3,0.1-0.6,0.3-0.9c0.1-0.1,0.3-0.3,0.4-0.3c0.2-0.1,0.4-0.1,0.6-0.1c0.3,0,0.8,0.1,1.5,0.2
		c0.5,0.1,1,0.1,1.5,0.1c0.5,0,1.4-0.1,2.5-0.2c1.2-0.1,2-0.2,2.6-0.2c0.4,0,0.7,0.1,1,0.2c0.2,0.1,0.3,0.3,0.4,0.4
		c0.1,0.2,0.1,0.4,0.1,0.6c0,0.3-0.2,0.6-0.5,0.8c-0.2,0.2-0.5,0.3-0.8,0.3c-0.2,0-0.3,0.1-0.5,0.2c-0.1,0.1-0.2,0.2-0.2,0.3
		c-0.2,0.4-0.3,1.1-0.3,2.1v15.1c0,1.1,0.1,1.9,0.3,2.4c0,0.1,0.1,0.2,0.2,0.2c0.2,0.1,0.4,0.1,0.5,0.1c0.9,0,1.7-0.1,2.6-0.2
		c0.7-0.1,1.4-0.4,2-0.7c0.4-0.2,0.8-0.5,1.2-0.8c0.5-0.4,0.9-0.8,1.3-1.3c0.1-0.1,0.3-0.3,0.6-0.7c0.2-0.2,0.3-0.4,0.5-0.5
		c0.1-0.1,0.2-0.1,0.2-0.2c0.1,0,0.1-0.1,0.2-0.1c0.1,0,0.2-0.1,0.3-0.1c0.2,0,0.3,0,0.5,0.1c0.2,0.1,0.3,0.2,0.4,0.4
		c0.1,0.2,0.2,0.5,0.2,0.7c0,1.9-0.5,3.4-1.5,4.6c-0.5,0.6-1,1.1-1.7,1.5c-0.7,0.3-1.4,0.5-2.1,0.5c-0.8,0-2-0.1-3.5-0.2
		c-1.5-0.1-2.7-0.2-3.5-0.2c-0.5,0-1.3,0.1-2.3,0.2c-1.1,0.1-1.9,0.2-2.4,0.2c-0.3,0-0.5-0.1-0.8-0.2c-0.2-0.1-0.3-0.2-0.4-0.4
		c-0.1-0.1-0.2-0.3-0.2-0.5c0-0.3,0.1-0.6,0.3-0.9c0.2-0.2,0.4-0.4,0.6-0.5c0.5-0.2,0.9-0.5,1-0.9c0.2-0.5,0.3-1.4,0.3-2.6v-14.9
		c0-0.4,0-0.9-0.1-1.3c-0.1-0.3-0.2-0.5-0.4-0.7c-0.2-0.2-0.4-0.3-0.6-0.4c-0.4-0.1-0.8-0.2-1.2-0.2c-0.3,0-0.7-0.2-0.9-0.4
		C255,185.3,254.9,185,254.8,184.7"/>
	<path class="st4" d="M228.4,208.2c0-0.2,0.1-0.4,0.1-0.6c0.1-0.2,0.3-0.4,0.4-0.5c0,0,0.1-0.1,0.3-0.2c0.1-0.1,0.2-0.1,0.3-0.2
		c0.4-0.4,0.8-0.8,1.1-1.3c0.4-0.8,0.8-1.6,1.1-2.5c0.6-1.8,1.3-3.4,1.9-5c0.6-1.6,1.2-3,1.7-4.4c0.2-0.5,0.9-2.3,2.1-5.5
		c0.6-1.6,1.1-2.8,1.5-3.6c0.2-0.3,0.3-0.7,0.6-1c0.1-0.1,0.2-0.2,0.3-0.3c0.1-0.1,0.2-0.1,0.3-0.2c0.1-0.1,0.3-0.1,0.4-0.1
		c0.1,0,0.3,0.1,0.4,0.1c0.1,0.1,0.2,0.1,0.3,0.2c0.1,0.1,0.3,0.3,0.3,0.5c0.3,0.7,0.6,1.4,0.9,2.1l7.2,18.7c0.3,0.9,0.7,1.5,1,1.9
		c0.3,0.3,0.9,0.5,1.5,0.7c0.2,0,0.3,0.1,0.5,0.2c0.1,0.1,0.2,0.2,0.3,0.4c0.1,0.2,0.2,0.5,0.1,0.8c0,0.3-0.2,0.6-0.4,0.8
		c-0.2,0.2-0.6,0.3-0.9,0.3c-0.8-0.1-1.5-0.2-2.2-0.3c-0.7-0.1-1.5-0.1-2.5-0.1c-0.6,0-1.2,0.1-1.8,0.1c-0.6,0.1-1.3,0.1-2,0.1
		c-0.3,0-0.6-0.1-0.8-0.3c-0.1-0.1-0.2-0.3-0.3-0.4c-0.1-0.1-0.1-0.3-0.1-0.5c0-0.3,0.1-0.6,0.3-0.8c0.2-0.2,0.4-0.3,0.7-0.4
		c0.2-0.1,0.4-0.2,0.6-0.3c0.1-0.1,0.2-0.2,0.3-0.4c0.1-0.2,0.2-0.5,0.2-0.7c0-0.3-0.1-0.6-0.2-0.9c-0.1-0.4-0.3-1-0.5-1.6
		c-0.2-0.5-0.4-1.1-0.7-1.6c-0.1-0.3-0.2-0.5-0.4-0.6c-0.1-0.1-0.3-0.1-0.5-0.1c-0.4-0.1-0.8-0.1-1.2-0.1h-4.3
		c-0.3,0-0.5,0.1-0.7,0.2c-0.1,0.2-0.3,0.3-0.3,0.5c-0.2,0.4-0.4,0.9-0.6,1.4c-0.4,1.1-0.7,1.8-0.7,2.2c0,0.3,0,0.5,0.1,0.8
		c0,0.1,0.1,0.3,0.2,0.4c0.3,0.3,0.8,0.5,1.6,0.7c0.3,0.1,0.6,0.2,0.9,0.4c0.1,0.1,0.3,0.2,0.4,0.3c0.1,0.2,0.2,0.4,0.2,0.6
		c0,0.2,0,0.3-0.1,0.5c-0.1,0.2-0.2,0.3-0.4,0.4c-0.3,0.2-0.6,0.3-0.9,0.3c-0.5,0-1-0.1-1.5-0.1c-0.4-0.1-0.9-0.1-1.3-0.1
		c-0.4,0-1,0-1.8,0.1c-0.9,0.1-1.5,0.1-1.9,0.1c-0.1,0-0.3,0-0.4-0.1c-0.4-0.1-0.6-0.4-0.7-0.7C228.4,208.5,228.4,208.3,228.4,208.2
		 M241.6,197.5c-0.7-1.9-1.2-3.3-1.5-4c-0.3-0.7-0.6-1.4-0.9-2.2c-0.8,1.9-1.4,3.5-1.8,4.6c-0.2,0.6-0.4,1-0.5,1.4
		c0,0.1,0,0.1-0.1,0.2L241.6,197.5"/>
	<path class="st4" d="M212.4,200.9c0-0.3,0.1-0.7,0.2-1c0.1-0.2,0.2-0.3,0.3-0.4c0.1-0.1,0.3-0.2,0.5-0.2c0.2,0,0.4,0,0.6,0.1
		c0.1,0.1,0.3,0.2,0.4,0.3c0.2,0.2,0.3,0.4,0.3,0.6c0.7,2.3,1.6,4,2.6,5.1c0.9,1,2,1.6,3.2,1.6c0.9,0,1.6-0.4,2.3-1.1
		c0.7-0.7,1.1-1.7,1-2.7c0-0.9-0.4-1.8-1.1-2.4c-0.8-0.8-2.2-1.5-4-2.3c-2-0.8-3.4-1.9-4.4-3.2c-1-1.3-1.5-2.9-1.5-4.7
		c0-2.1,0.6-3.8,1.9-5.3c1.3-1.5,2.9-2.2,4.8-2.2c1,0,2.1,0.3,3.3,0.8c0.5,0.2,1,0.4,1.3,0.5c0.1,0.1,0.2,0.1,0.3,0.1l0,0
		c0.1,0,0.2-0.1,0.3-0.1c0.2-0.1,0.3-0.2,0.5-0.3c0.2-0.1,0.4-0.1,0.7-0.1c0.3,0,0.6,0.2,0.7,0.4c0.1,0.1,0.1,0.3,0.2,0.4
		c0,0.1,0,0.2,0,0.3c0,0.2,0,0.5,0,0.9c0,0.8,0.1,1.6,0.2,2.4c0.1,0.9,0.2,1.8,0.2,2.6c0,0.3-0.1,0.5-0.2,0.8
		c-0.1,0.2-0.2,0.3-0.3,0.4c-0.2,0.2-0.4,0.3-0.6,0.3c-0.2,0-0.4,0-0.6-0.1c-0.2-0.1-0.3-0.2-0.5-0.4c-0.2-0.3-0.3-0.6-0.3-0.9
		c-0.2-1.4-0.9-2.7-2-3.8c-1.1-1.1-2.2-1.7-3.4-1.7c-0.7,0-1.4,0.3-1.9,0.9c-0.5,0.5-0.9,1.3-0.9,2c0,0.6,0.2,1.1,0.6,1.5
		c0.4,0.6,1.1,1,1.9,1.5c1.4,0.8,2.7,1.4,3.7,2c1.1,0.6,1.6,0.9,1.7,0.9l0,0l0,0c1,0.8,1.8,1.7,2.3,2.9c0.5,1.2,0.8,2.4,0.8,3.7
		c0,2.3-0.7,4.3-2.1,6c-1.5,1.7-3.2,2.6-5.3,2.6c-0.4,0-0.7-0.1-1.1-0.1c-0.4-0.1-1.2-0.3-2.2-0.5c-0.7-0.2-1.4-0.4-2.1-0.7
		c-0.2-0.1-0.5-0.2-0.7-0.3c-0.2-0.1-0.4-0.3-0.5-0.5c-0.1-0.3-0.2-0.7-0.3-1c-0.1-0.5-0.3-1.2-0.5-2.2
		C212.6,202.3,212.4,201.1,212.4,200.9"/>
	<path class="st4" d="M186,208.2c0-0.2,0.1-0.4,0.1-0.6c0.1-0.2,0.3-0.4,0.4-0.5c0,0,0.1-0.1,0.3-0.2c0.1-0.1,0.2-0.1,0.3-0.2
		c0.4-0.4,0.8-0.8,1.1-1.3c0.4-0.8,0.8-1.6,1.1-2.5c0.6-1.8,1.3-3.4,1.9-5c0.6-1.6,1.2-3,1.7-4.4c0.2-0.5,0.9-2.3,2.1-5.5
		c0.6-1.6,1.1-2.8,1.5-3.6c0.2-0.3,0.3-0.7,0.6-1c0.1-0.1,0.2-0.2,0.3-0.3c0.1-0.1,0.2-0.1,0.3-0.2c0.1-0.1,0.3-0.1,0.4-0.1
		c0.1,0,0.3,0.1,0.4,0.1c0.1,0.1,0.2,0.1,0.3,0.2c0.1,0.1,0.3,0.3,0.3,0.5c0.3,0.7,0.6,1.4,0.9,2.1l7.2,18.7c0.3,0.9,0.7,1.5,1,1.9
		c0.3,0.3,0.9,0.5,1.5,0.7c0.2,0,0.3,0.1,0.5,0.2c0.1,0.1,0.2,0.2,0.3,0.4c0.1,0.2,0.2,0.5,0.1,0.8c0,0.3-0.2,0.6-0.4,0.8
		c-0.1,0.1-0.3,0.2-0.4,0.2c-0.2,0-0.3,0.1-0.5,0c-0.8-0.1-1.5-0.2-2.2-0.3c-0.7-0.1-1.5-0.1-2.5-0.1c-0.6,0-1.2,0.1-1.8,0.1
		c-0.6,0.1-1.3,0.1-2,0.1c-0.3,0-0.6-0.1-0.8-0.3c-0.1-0.1-0.2-0.3-0.3-0.4c-0.1-0.1-0.1-0.3-0.1-0.5c0-0.3,0.1-0.6,0.3-0.8
		c0.2-0.2,0.4-0.3,0.7-0.4c0.2-0.1,0.4-0.2,0.6-0.3c0.1-0.1,0.2-0.2,0.3-0.4c0.1-0.2,0.2-0.5,0.2-0.7c0-0.3-0.1-0.6-0.2-0.9
		c-0.1-0.4-0.3-1-0.5-1.6c-0.2-0.5-0.4-1.1-0.7-1.6c-0.1-0.3-0.2-0.5-0.4-0.6c-0.1-0.1-0.3-0.1-0.5-0.1c-0.4-0.1-0.8-0.1-1.2-0.1
		h-4.3c-0.1,0-0.3,0-0.4,0.1c-0.1,0-0.2,0.1-0.3,0.2c-0.1,0.2-0.3,0.3-0.3,0.5c-0.2,0.4-0.4,0.9-0.6,1.4c-0.4,1.1-0.7,1.8-0.7,2.2
		c0,0.3,0,0.5,0.1,0.8c0,0.1,0.1,0.3,0.2,0.4c0.3,0.3,0.8,0.5,1.6,0.7c0.3,0.1,0.6,0.2,0.9,0.4c0.1,0.1,0.3,0.2,0.4,0.3
		c0.1,0.2,0.2,0.4,0.2,0.6c0,0.2,0,0.3-0.1,0.5c-0.1,0.2-0.2,0.3-0.4,0.4c-0.3,0.2-0.6,0.3-0.9,0.3c-0.5,0-1-0.1-1.5-0.1
		c-0.4-0.1-0.9-0.1-1.3-0.1c-0.4,0-1,0-1.8,0.1c-0.9,0.1-1.5,0.1-1.9,0.1c-0.1,0-0.3,0-0.4-0.1c-0.2,0-0.4-0.1-0.5-0.3
		c-0.1-0.1-0.2-0.3-0.3-0.5C186,208.5,186,208.3,186,208.2 M199.2,197.5c-0.7-1.9-1.2-3.3-1.5-4c-0.3-0.7-0.6-1.4-0.9-2.2
		c-0.8,1.9-1.4,3.5-1.8,4.6c-0.2,0.6-0.4,1-0.5,1.4c0,0.1,0,0.1-0.1,0.2L199.2,197.5"/>
	<path class="st4" d="M157.5,208.5c1.1-2.1,1.9-3.6,2.3-4.5c0.5-1,1.6-3.3,3.4-7c1.8-3.8,3.3-6.8,4.5-9c0.6-1.1,1.1-2,1.5-2.6
		c0.5-0.8,0.9-1.3,1.1-1.4c0.3-0.3,0.7-0.5,1.2-0.6c0.3-0.1,0.7-0.1,1.1-0.1c0.4,0,1,0,1.9,0.1l1,0l0.3,0c0.5,0,1.1-0.1,1.6-0.1
		c0.7-0.1,1.3-0.1,2-0.1c0.3,0,0.5,0,0.8,0.1c0.3,0.1,0.6,0.2,0.8,0.4c0.2,0.2,0.4,0.4,0.5,0.7c0.1,0.2,0.1,0.5,0.1,0.7
		c0,0.5-0.2,0.9-0.6,1.2c-0.4,0.3-0.8,0.5-1.3,0.5c-0.6,0-1.2,0.2-1.8,0.5c-0.4,0.2-0.7,0.5-0.9,0.8c-0.6,1-0.8,2.6-0.8,5
		c0,0.1,0.1,1.9,0.2,5.5c0.1,3.6,0.3,7.4,0.4,11.4c0.1,2.6,0.4,4.4,1,5.5c0.3,0.4,0.6,0.8,1.1,1c0.6,0.3,1.2,0.5,1.9,0.6
		c0.6,0.1,1.2,0.3,1.7,0.6c0.3,0.2,0.5,0.4,0.7,0.7c0.1,0.2,0.2,0.5,0.2,0.8c0,0.3-0.1,0.6-0.3,0.9c-0.2,0.3-0.5,0.5-0.8,0.6
		c-0.3,0.1-1,0.2-1.9,0.2c-0.8,0-1.9-0.1-3.5-0.2c-1.4-0.1-2.5-0.2-3.2-0.2c-0.8,0-1.9,0.1-3.4,0.2c-1.6,0.2-2.8,0.2-3.6,0.2
		c-0.5,0-1-0.1-1.4-0.3c-0.2-0.1-0.4-0.3-0.6-0.5c-0.2-0.2-0.2-0.5-0.3-0.7c0-0.4,0.1-0.8,0.3-1.1c0.2-0.3,0.5-0.5,0.9-0.6
		c0.4-0.2,0.6-0.3,0.7-0.3c0.7-0.4,1.2-0.8,1.5-1.2c0.3-0.4,0.4-0.9,0.4-1.7c0-1.3-0.1-4.4-0.4-9.2c-0.1-2.5-0.2-4.6-0.3-6.2
		c-0.8,1.7-2,3.9-3.4,6.7c-2.5,4.9-4.5,8.9-6.1,12.1c-0.1,0.1-0.2,0.3-0.3,0.7c-0.2,0.4-0.4,0.7-0.5,0.9c-0.2,0.3-0.4,0.6-0.7,0.9
		c-0.2,0.2-0.4,0.3-0.6,0.4c-0.3,0.1-0.6,0.2-0.9,0.1c-0.4,0-0.8-0.2-1.2-0.4c-0.3-0.2-0.5-0.5-0.8-0.7c-0.4-0.5-1.2-2.1-2.6-5
		l-7.3-15.4c0,1.2-0.1,2.7-0.1,4.5c-0.1,3.9-0.1,6.3-0.1,7c0,1.9,0.3,3.4,0.8,4.5c0.5,0.9,1.3,1.5,2.4,1.9c0.8,0.3,1.4,0.6,1.7,0.8
		c0.2,0.1,0.4,0.3,0.6,0.5c0.2,0.2,0.3,0.5,0.3,0.8c0,0.3-0.1,0.5-0.2,0.8c-0.2,0.2-0.4,0.4-0.6,0.6c-0.4,0.2-0.9,0.3-1.4,0.3
		c-0.7,0-1.7-0.1-3.1-0.2c-1.2-0.1-2.1-0.2-2.8-0.2c-0.5,0-1.3,0.1-2.3,0.2c-1.2,0.1-2.1,0.2-2.7,0.2c-0.3,0-0.6,0-0.8-0.1
		c-0.3-0.1-0.6-0.2-0.9-0.4c-0.3-0.2-0.4-0.4-0.5-0.7c-0.1-0.2-0.1-0.5,0-0.7c0-0.3,0.2-0.7,0.7-1c0.4-0.2,0.7-0.4,1.1-0.6
		c0.5-0.2,1-0.5,1.5-0.8c0.3-0.2,0.5-0.5,0.7-0.8c0.3-0.5,0.4-1,0.5-1.6c0.1-0.9,0.2-1.9,0.2-2.8c0.2-3.9,0.3-7.9,0.5-12.2
		c0.2-4.3,0.3-6.4,0.3-6.5c0-1.6-0.5-2.9-1.4-4c-0.4-0.5-0.9-0.8-1.5-1.1c-0.5-0.2-1.1-0.3-1.7-0.3c-0.3,0-0.6,0-0.8-0.1
		c-0.3-0.1-0.6-0.2-0.9-0.4c-0.2-0.2-0.4-0.4-0.5-0.7c-0.1-0.2-0.1-0.4-0.1-0.7c0-0.3,0.1-0.6,0.3-0.9c0.2-0.3,0.5-0.5,0.8-0.6
		c0.4-0.2,0.8-0.2,1.2-0.3c0.4,0,0.9,0,1.5,0h0.1c1.1,0.1,1.8,0.1,2.2,0.1h0.1l0.2,0c0.4,0,1.1-0.1,1.9-0.2c0.8-0.1,1.5-0.2,2.3-0.2
		c0.9,0,1.7,0.2,2.4,0.6c0.7,0.4,1.2,1,1.6,1.7L157.5,208.5"/>
	<path class="st8" d="M355.3,239c0.1,0.1,0.1,0.1,0.2,0.2c0.2,0.3,0.4,0.7,0.4,1.1c0.1,0.5,0.2,1,0.2,1.5c0,0.4,0.1,0.9,0.1,1.3
		c0,0.2,0.1,0.3,0.1,0.4l0.8,1.1h-3.9l-0.2-0.3c-0.1-0.1-0.2-0.3-0.2-0.5c0-0.1-0.1-0.6-0.2-1.6c0,0,0-0.2,0-0.7
		c0-0.3,0-0.5-0.1-0.7c0-0.1-0.1-0.2-0.2-0.3c-0.2-0.1-0.4-0.1-0.7-0.1h-1.3v4.2H347v-11.8h4.8c0.6,0,1.2,0.1,1.8,0.2
		c0.5,0.1,1,0.3,1.4,0.6c0.4,0.3,0.7,0.7,0.9,1.2c0.2,0.5,0.3,1,0.3,1.5c0,0.7-0.2,1.4-0.5,2C355.6,238.6,355.5,238.8,355.3,239
		 M351.7,237.6c0.2,0,0.5,0,0.7-0.1c0.1,0,0.2-0.1,0.3-0.1c0.1,0,0.1-0.1,0.1-0.2c0-0.1,0.1-0.3,0.1-0.5c0-0.1,0-0.2-0.1-0.3
		c0-0.1-0.1-0.1-0.1-0.2c-0.2-0.2-0.6-0.2-1-0.2h-1.4v1.5L351.7,237.6"/>
	<path class="st8" d="M328.6,238.9c0-1.8,0.5-3.3,1.5-4.4c1-1.1,2.3-1.7,4-1.7c1.6,0,2.9,0.6,3.9,1.7c1,1.1,1.5,2.5,1.5,4.3
		c0,1.8-0.5,3.3-1.5,4.5c-1,1.2-2.3,1.8-3.9,1.8c-1.6,0-2.9-0.6-3.9-1.7C329.1,242.1,328.6,240.7,328.6,238.9 M332,238.7
		c0,1,0.1,1.8,0.6,2.4c0.2,0.2,0.4,0.4,0.6,0.6c0.3,0.1,0.6,0.2,0.9,0.2c0.3,0,0.6-0.1,0.8-0.2c0.3-0.1,0.5-0.3,0.7-0.6
		c0.4-0.6,0.6-1.3,0.6-2.2c0-0.9-0.2-1.6-0.6-2.2c-0.2-0.2-0.4-0.4-0.6-0.6c-0.3-0.1-0.5-0.2-0.8-0.2c-0.3,0-0.6,0.1-0.8,0.2
		c-0.2,0.1-0.5,0.3-0.6,0.5C332.2,237.1,332,237.8,332,238.7"/>
	<path class="st8" d="M310.7,238.9c0-1.8,0.5-3.3,1.5-4.4c1-1.1,2.3-1.7,3.9-1.7c1.6,0,2.9,0.6,3.9,1.7c1,1.1,1.5,2.5,1.5,4.3
		c0,1.8-0.5,3.3-1.5,4.5c-1,1.2-2.3,1.8-3.9,1.8c-1.6,0-2.9-0.6-3.9-1.7C311.2,242.1,310.7,240.7,310.7,238.9 M314,238.7
		c0,1,0.1,1.8,0.6,2.4c0.2,0.2,0.4,0.4,0.6,0.6c0.3,0.1,0.6,0.2,0.9,0.2c0.3,0,0.6-0.1,0.8-0.2c0.3-0.1,0.5-0.3,0.7-0.6
		c0.4-0.6,0.6-1.3,0.6-2.2c0-0.9-0.2-1.6-0.6-2.2c-0.2-0.2-0.4-0.4-0.6-0.6c-0.3-0.1-0.5-0.2-0.8-0.2c-0.3,0-0.6,0.1-0.8,0.2
		c-0.2,0.1-0.5,0.3-0.6,0.5C314.2,237.1,314,237.8,314,238.7"/>
	<path class="st8" d="M294,244.7v-11.8h4.5c0.5,0,1,0,1.6,0.1c0.4,0.1,0.8,0.2,1.2,0.4c0.8,0.4,1.4,1.1,1.8,2.1
		c0.4,0.9,0.6,2,0.6,3.2c0,1.3-0.2,2.5-0.7,3.4c-0.5,1.1-1.2,1.8-2,2.2c-0.3,0.2-0.7,0.3-1.1,0.3c-0.5,0.1-1.1,0.1-1.6,0.1
		L294,244.7 M298.2,241.6c0.3,0,0.7,0,1-0.2c0.2-0.1,0.4-0.2,0.5-0.4c0.2-0.3,0.3-0.5,0.3-0.8c0.1-0.5,0.2-1,0.1-1.6
		c0-0.5,0-0.9-0.1-1.4c-0.1-0.3-0.2-0.5-0.3-0.7c-0.1-0.2-0.3-0.3-0.5-0.4c-0.3-0.1-0.6-0.2-1-0.1h-1v5.6L298.2,241.6"/>
	<polyline class="st8" points="276.8,244.7 276.8,232.9 279.8,232.9 282.9,238.3 282.9,232.9 286,232.9 286,244.7 283.1,244.7 
		279.9,239.1 279.9,244.7 276.8,244.7 	"/>
	<path class="st8" d="M258.5,244.7l4-11.8h3.2l4,11.8h-3.5l-0.7-2.2h-2.7l-0.7,2.2H258.5 M264.5,239.5L264,238l-0.5,1.5H264.5"/>
	<polyline class="st8" points="242.6,236 242.6,232.9 251.9,232.9 251.9,236 248.9,236 248.9,244.7 245.6,244.7 245.6,236 
		242.6,236 	"/>
	<path class="st8" d="M219.5,238h2.9l-0.1,0.8c-0.1,0.6-0.2,1.2-0.4,1.8c-0.1,0.4-0.3,0.8-0.6,1.1l2.3,3h-3.9l-0.5-0.7
		c-0.3,0.2-0.6,0.4-1,0.5c-0.5,0.2-1.1,0.3-1.7,0.3c-1.1,0-2-0.3-2.7-1c-0.7-0.7-1.1-1.5-1.1-2.6c0-0.7,0.2-1.4,0.6-2
		c0.4-0.5,0.8-0.9,1.3-1.3c-0.2-0.3-0.3-0.5-0.5-0.8c-0.2-0.4-0.2-0.8-0.2-1.3c0-0.8,0.3-1.6,1-2.2c0.6-0.5,1.4-0.8,2.3-0.8
		c0.8,0,1.6,0.3,2.2,0.8c0.6,0.5,0.9,1.3,0.9,2.1c0,0.6-0.2,1.2-0.5,1.7C219.7,237.7,219.6,237.9,219.5,238 M219.3,239.1
		c0-0.1,0.1-0.3,0.1-0.5l0.1-0.5c-0.2,0.2-0.3,0.4-0.5,0.5L219.3,239.1 M216,241.2c0,0.2,0.1,0.4,0.2,0.6c0.2,0.2,0.4,0.2,0.6,0.2
		c0.2,0,0.4,0,0.6-0.1c0,0,0.1,0,0.1-0.1l-1.1-1.4c-0.1,0.1-0.2,0.2-0.3,0.3C216,240.8,216,241,216,241.2 M217,235.9
		c0,0.1,0,0.2,0.1,0.3c0,0,0.1,0.1,0.1,0.1c0,0,0.1-0.1,0.1-0.1c0.1-0.1,0.1-0.2,0.1-0.3c0,0,0-0.1,0-0.1c0,0-0.1-0.1-0.1,0
		c-0.1,0-0.1,0-0.2,0.1C217,235.9,217,235.9,217,235.9"/>
	<path class="st8" d="M182.1,238.9c0-1.8,0.5-3.3,1.5-4.4c1-1.1,2.3-1.7,3.9-1.7c1.6,0,2.9,0.6,3.9,1.7c1,1.1,1.5,2.5,1.5,4.3
		c0,1.8-0.5,3.3-1.5,4.5c-1,1.2-2.3,1.8-3.9,1.8c-1.6,0-2.9-0.6-3.9-1.7C182.6,242.1,182.1,240.7,182.1,238.9 M185.4,238.7
		c0,1,0.1,1.8,0.6,2.4c0.2,0.2,0.4,0.4,0.6,0.6c0.3,0.1,0.6,0.2,0.9,0.2c0.3,0,0.6-0.1,0.8-0.2c0.3-0.1,0.5-0.3,0.7-0.6
		c0.4-0.6,0.6-1.3,0.6-2.2c0-0.9-0.2-1.6-0.6-2.2c-0.2-0.2-0.4-0.4-0.6-0.6c-0.3-0.1-0.5-0.2-0.8-0.2c-0.3,0-0.6,0.1-0.8,0.2
		c-0.2,0.1-0.5,0.3-0.6,0.5C185.6,237.1,185.5,237.8,185.4,238.7"/>
	<path class="st8" d="M173.8,239c0.1,0.1,0.1,0.1,0.2,0.2c0.2,0.3,0.4,0.7,0.4,1.1c0.1,0.5,0.2,1,0.2,1.5c0,0.4,0.1,0.9,0.1,1.3
		c0,0.2,0.1,0.3,0.1,0.4l0.8,1.1h-3.9l-0.2-0.3c-0.1-0.1-0.2-0.3-0.2-0.5c0-0.1-0.1-0.6-0.2-1.6c0,0,0-0.2,0-0.7
		c0-0.2,0-0.5-0.1-0.7c0-0.1-0.1-0.2-0.2-0.3c-0.2-0.1-0.4-0.1-0.7-0.1h-1.3v4.2h-3.3v-11.8h4.8c0.6,0,1.2,0.1,1.8,0.2
		c0.5,0.1,1,0.3,1.4,0.6c0.4,0.3,0.7,0.7,0.9,1.2c0.2,0.5,0.3,1,0.3,1.5c0,0.7-0.2,1.4-0.5,2C174.1,238.6,174,238.8,173.8,239
		 M170.2,237.6c0.2,0,0.5,0,0.7-0.1c0.1,0,0.2-0.1,0.3-0.1c0.1,0,0.1-0.1,0.1-0.2c0-0.1,0.1-0.3,0.1-0.5c0-0.1,0-0.2-0.1-0.3
		c0-0.1-0.1-0.1-0.1-0.2c-0.2-0.2-0.6-0.2-1-0.2h-1.4v1.5L170.2,237.6"/>
	<polyline class="st8" points="148.7,236 148.7,232.9 158,232.9 158,236 155,236 155,244.7 151.7,244.7 151.7,236 148.7,236 	"/>
	<path class="st8" d="M132.3,240.2h3.2l0.1,0.6c0.1,0.4,0.2,0.7,0.5,0.9c0.2,0.2,0.6,0.3,1.1,0.3c0.4,0,0.8-0.1,1.1-0.2
		c0.1,0,0.1-0.1,0.2-0.2c0-0.1,0.1-0.2,0.1-0.3c0,0,0-0.1-0.1-0.1c-0.2-0.2-0.5-0.3-0.7-0.4c-0.2-0.1-0.5-0.2-1-0.4
		c-0.5-0.2-0.9-0.4-1.3-0.5c-0.4-0.2-0.8-0.4-1.2-0.6c-0.3-0.2-0.6-0.4-0.8-0.6c-0.3-0.3-0.5-0.7-0.6-1.1c-0.1-0.4-0.2-0.9-0.2-1.4
		c0-0.5,0.1-1,0.3-1.5c0.2-0.4,0.5-0.8,1-1.1c0.8-0.6,1.8-0.9,3.1-0.9c1.4,0,2.4,0.3,3.2,1s1.2,1.6,1.4,2.9l0.1,0.8h-3.2l-0.1-0.6
		c0-0.3-0.2-0.6-0.4-0.8c-0.3-0.2-0.6-0.3-0.9-0.3c-0.4,0-0.7,0-0.9,0.2c-0.1,0-0.1,0.1-0.1,0.1c0,0.1-0.1,0.2-0.1,0.2
		c0,0,0,0.1,0.1,0.1c0.2,0.2,0.4,0.3,0.6,0.4c0.4,0.2,0.9,0.4,1.5,0.6c0.6,0.2,1,0.4,1.2,0.5c0.8,0.3,1.4,0.8,1.8,1.3
		c0.4,0.6,0.6,1.3,0.6,2c0,0.6-0.1,1.1-0.3,1.6c-0.2,0.5-0.6,0.9-1,1.2c-0.8,0.6-1.9,1-3.3,1s-2.5-0.4-3.3-1c-0.8-0.7-1.3-1.7-1.4-3
		L132.3,240.2"/>
	<polyline class="st8" points="121.4,244.7 121.4,232.9 124.8,232.9 124.8,244.7 121.4,244.7 	"/>
	<path class="st8" d="M104.4,244.7v-11.8h5c0.6,0,1.1,0,1.7,0.1c0.4,0.1,0.9,0.3,1.2,0.6c0.4,0.3,0.7,0.7,0.9,1.2
		c0.2,0.4,0.3,0.9,0.3,1.4c0,0.6-0.1,1.1-0.4,1.6c-0.1,0.2-0.2,0.4-0.4,0.6c0.2,0.2,0.4,0.5,0.6,0.7c0.3,0.5,0.5,1.2,0.5,1.8
		c0,0.6-0.1,1.1-0.3,1.6c-0.2,0.5-0.6,1-1,1.3c-0.4,0.3-0.9,0.6-1.4,0.7c-0.6,0.1-1.2,0.2-1.8,0.2L104.4,244.7 M109.1,241.7
		c0.3,0,0.6,0,0.8-0.1c0.1,0,0.3-0.1,0.4-0.1c0.1,0,0.1-0.1,0.1-0.2c0-0.1,0.1-0.3,0.1-0.4c0-0.1,0-0.2-0.1-0.3
		c0-0.1-0.1-0.1-0.1-0.1c-0.1-0.1-0.3-0.1-0.4-0.1c-0.3,0-0.5-0.1-0.8-0.1h-1.4v1.5L109.1,241.7 M109.1,237.2c0.2,0,0.4,0,0.6-0.1
		c0.1,0,0.2-0.1,0.3-0.1c0,0,0.1-0.1,0.1-0.1c0-0.1,0.1-0.2,0-0.3c0-0.1,0-0.2,0-0.3c0,0,0-0.1-0.1-0.1c-0.1,0-0.2-0.1-0.2-0.1
		c-0.2,0-0.4-0.1-0.6-0.1h-1.5v1.1H109.1"/>
	<path class="st4" d="M349.6,238.3h2.1c0.7,0,1.2-0.1,1.5-0.4c0.3-0.2,0.4-0.6,0.4-1.2c0-0.4-0.2-0.8-0.5-1
		c-0.3-0.2-0.8-0.3-1.4-0.3h-2.1L349.6,238.3 M347.7,244.1v-10.4h4.1c1.3,0,2.2,0.2,2.9,0.7c0.6,0.5,1,1.2,0.9,2.1
		c0,0.6-0.2,1.1-0.4,1.6c-0.3,0.5-0.7,0.8-1.1,1c0.2,0.1,0.4,0.1,0.5,0.3c0.1,0.1,0.3,0.2,0.4,0.4c0.2,0.3,0.4,1,0.5,2.2
		c0.1,1.2,0.2,1.9,0.4,2.2h-2.1c-0.1-0.1-0.1-0.2-0.1-0.3c0-0.1-0.1-0.6-0.2-1.4c0,0,0-0.2,0-0.7c0-0.3-0.1-0.7-0.2-1
		c-0.1-0.3-0.3-0.5-0.6-0.7c-0.3-0.2-0.7-0.2-1-0.2h-2v4.2L347.7,244.1"/>
	<path class="st4" d="M331.3,238.7c0,1.2,0.2,2.1,0.7,2.8s1.2,1,2.1,1c0.8,0,1.6-0.4,2-1.1c0.5-0.7,0.8-1.6,0.8-2.7
		s-0.3-1.9-0.8-2.6c-0.5-0.7-1.2-1-2-1c-0.8,0-1.5,0.3-2,1C331.6,236.7,331.3,237.6,331.3,238.7L331.3,238.7 M329.4,238.9
		c0-1.6,0.4-3,1.3-4c0.9-1,2-1.5,3.4-1.5c1.4,0,2.5,0.5,3.4,1.4s1.3,2.2,1.3,3.8c0,1.6-0.4,3-1.3,4c-0.8,1-2.1,1.6-3.4,1.6
		c-1.4,0-2.6-0.5-3.4-1.5C329.8,241.8,329.4,240.5,329.4,238.9L329.4,238.9"/>
	<path class="st4" d="M313.3,238.7c0,1.2,0.2,2.1,0.7,2.8s1.2,1,2.1,1c0.8,0,1.6-0.4,2-1.1c0.5-0.7,0.8-1.6,0.8-2.7
		s-0.3-1.9-0.8-2.6c-0.5-0.7-1.2-1-2-1c-0.8,0-1.5,0.3-2,1C313.6,236.7,313.3,237.6,313.3,238.7L313.3,238.7 M311.4,238.9
		c0-1.6,0.4-3,1.3-4c0.9-1,2-1.5,3.4-1.5c1.4,0,2.5,0.5,3.4,1.4c0.9,1,1.3,2.2,1.3,3.8c0,1.6-0.4,3-1.3,4c-0.8,1-2.1,1.6-3.4,1.6
		c-1.4,0-2.5-0.5-3.4-1.5S311.4,240.5,311.4,238.9L311.4,238.9"/>
	<path class="st4" d="M296.5,242.3h1.7c1,0,1.6-0.3,2.1-0.8c0.4-0.5,0.6-1.5,0.6-2.8c0-1.2-0.2-2.1-0.6-2.6
		c-0.4-0.5-1.1-0.7-2.1-0.7h-1.7V242.3 M294.6,244.1v-10.4h3.8c0.5,0,1,0,1.5,0.1c0.3,0.1,0.7,0.2,1,0.3c0.7,0.3,1.2,0.9,1.5,1.7
		s0.5,1.8,0.5,2.9c0,1.2-0.2,2.3-0.6,3.2c-0.4,0.9-1,1.5-1.7,1.9c-0.3,0.1-0.6,0.2-0.9,0.3c-0.5,0.1-1,0.1-1.5,0.1L294.6,244.1"/>
	<polyline class="st4" points="277.5,244.1 277.5,233.6 279.4,233.6 283.6,240.9 283.6,233.6 285.3,233.6 285.3,244.1 283.6,244.1 
		279.2,236.4 279.2,244.1 277.5,244.1 	"/>
	<path class="st4" d="M262.6,240.2h2.8l-1.4-4.6L262.6,240.2 M259.5,244l3.6-10.4h2.2l3.5,10.4h-2.1l-0.7-2.2h-3.8l-0.7,2.2H259.5"
		/>
	<polyline class="st4" points="243.3,235.4 243.3,233.6 251.2,233.6 251.2,235.4 248.2,235.4 248.2,244.1 246.3,244.1 246.3,235.4 
		243.3,235.4 	"/>
	<path class="st4" d="M216.3,235.9c0,0.2,0.1,0.5,0.2,0.7c0.2,0.3,0.4,0.6,0.6,0.8c0.3-0.2,0.6-0.4,0.8-0.7c0.2-0.2,0.2-0.5,0.2-0.7
		c0-0.2-0.1-0.5-0.3-0.6c-0.2-0.2-0.4-0.2-0.6-0.2c-0.2,0-0.5,0.1-0.6,0.2C216.4,235.5,216.3,235.7,216.3,235.9L216.3,235.9
		 M215.3,241.2c0,0.4,0.1,0.8,0.4,1.1c0.3,0.3,0.7,0.4,1.1,0.4c0.3,0,0.6-0.1,0.9-0.2c0.3-0.1,0.6-0.3,0.8-0.6l-1.9-2.5
		c-0.4,0.2-0.7,0.6-1,0.9C215.4,240.5,215.3,240.8,215.3,241.2L215.3,241.2 M213.5,241.3c0-0.6,0.2-1.1,0.5-1.6
		c0.3-0.5,0.9-1,1.7-1.5c-0.3-0.4-0.6-0.8-0.8-1.3c-0.1-0.3-0.2-0.6-0.2-1c0-0.6,0.2-1.3,0.7-1.7c0.5-0.4,1.1-0.7,1.8-0.6
		c0.6,0,1.2,0.2,1.7,0.6c0.5,0.4,0.7,1,0.7,1.6c0,0.5-0.1,1-0.4,1.4c-0.3,0.5-0.8,0.9-1.3,1.2l1.6,2.1c0.1-0.2,0.2-0.4,0.3-0.6
		c0.1-0.4,0.2-0.8,0.2-1.2h1.5c0,0.6-0.2,1.1-0.4,1.7c-0.2,0.5-0.4,1-0.8,1.4l1.8,2.3h-2.1l-0.8-0.9c-0.4,0.4-0.8,0.7-1.3,0.9
		c-0.5,0.2-1,0.3-1.5,0.3c-0.9,0-1.7-0.3-2.2-0.8C213.8,242.9,213.5,242.2,213.5,241.3L213.5,241.3"/>
	<path class="st4" d="M184.7,238.7c0,1.2,0.2,2.1,0.7,2.8c0.5,0.7,1.2,1,2.1,1c0.8,0,1.6-0.4,2-1.1c0.5-0.7,0.8-1.6,0.8-2.7
		s-0.3-1.9-0.8-2.6c-0.5-0.7-1.2-1.1-2-1c-0.8,0-1.5,0.3-2,1C185,236.7,184.8,237.6,184.7,238.7L184.7,238.7 M182.8,238.9
		c0-1.6,0.4-3,1.3-4c0.9-1,2-1.5,3.4-1.5c1.4,0,2.5,0.5,3.4,1.4s1.3,2.2,1.3,3.8c0,1.6-0.4,3-1.3,4c-0.8,1-2.1,1.6-3.4,1.6
		c-1.4,0-2.5-0.5-3.4-1.5S182.8,240.5,182.8,238.9L182.8,238.9"/>
	<path class="st4" d="M168.1,238.3h2.1c0.7,0,1.2-0.1,1.5-0.4c0.3-0.2,0.4-0.6,0.4-1.2c0-0.4-0.2-0.8-0.5-1
		c-0.3-0.2-0.8-0.3-1.4-0.3h-2.1L168.1,238.3 M166.2,244.1v-10.4h4.1c1.3,0,2.2,0.2,2.9,0.7c0.6,0.5,1,1.2,0.9,2.1
		c0,0.6-0.2,1.1-0.4,1.6c-0.3,0.5-0.7,0.8-1.1,1c0.2,0.1,0.4,0.1,0.5,0.3c0.1,0.1,0.3,0.2,0.4,0.4c0.2,0.3,0.4,1,0.5,2.2
		c0.1,1.2,0.2,1.9,0.4,2.2h-2.1c-0.1-0.1-0.1-0.2-0.1-0.3c0-0.1-0.1-0.6-0.2-1.4c0,0,0-0.2,0-0.7c0-0.3-0.1-0.7-0.2-1
		c-0.1-0.3-0.3-0.5-0.6-0.7c-0.3-0.2-0.7-0.2-1-0.2h-2v4.2L166.2,244.1"/>
	<polyline class="st4" points="149.4,235.4 149.4,233.6 157.3,233.6 157.3,235.4 154.3,235.4 154.3,244.1 152.4,244.1 152.4,235.4 
		149.4,235.4 	"/>
	<path class="st4" d="M133.1,240.9h1.8c0.1,0.6,0.4,1,0.7,1.3c0.4,0.3,0.9,0.4,1.5,0.4c0.6,0,1.1-0.1,1.5-0.4c0.3-0.2,0.5-0.6,0.5-1
		c0-0.2-0.1-0.4-0.3-0.6c-0.3-0.2-0.6-0.4-1-0.5l-1-0.4c-0.5-0.2-0.9-0.4-1.3-0.5c-0.4-0.1-0.7-0.3-1.1-0.5
		c-0.2-0.1-0.5-0.3-0.6-0.5c-0.2-0.2-0.4-0.5-0.5-0.9c-0.1-0.4-0.2-0.8-0.2-1.2c0-0.8,0.3-1.6,1-2c0.7-0.5,1.5-0.8,2.7-0.8
		c1.2,0,2.1,0.3,2.7,0.8s1,1.3,1.1,2.4h-1.8c0-0.5-0.3-0.9-0.6-1.2c-0.4-0.3-0.9-0.4-1.4-0.4c-0.5,0-1,0.1-1.2,0.3
		c-0.3,0.2-0.5,0.5-0.5,0.9c0,0.2,0.1,0.5,0.2,0.6c0.3,0.2,0.6,0.4,0.9,0.6c0.4,0.2,0.9,0.4,1.5,0.6l1.2,0.5
		c0.6,0.2,1.1,0.6,1.5,1.1c0.3,0.5,0.5,1,0.5,1.6c0,1-0.3,1.8-1,2.3s-1.6,0.8-2.9,0.8c-1.2,0-2.2-0.3-2.8-0.8
		C133.6,242.9,133.2,242.1,133.1,240.9L133.1,240.9"/>
	<polyline class="st4" points="122.1,244.1 122.1,233.6 124.1,233.6 124.1,244.1 122.1,244.1 	"/>
	<path class="st4" d="M107,237.9h2.2c0.6,0,1-0.1,1.3-0.3c0.3-0.2,0.4-0.5,0.4-1c0-0.4-0.1-0.7-0.4-0.9c-0.3-0.2-0.7-0.3-1.2-0.3
		h-2.2L107,237.9 M106.9,242.4h2.1c0.8,0,1.3-0.1,1.6-0.3s0.5-0.6,0.5-1.2c0-0.5-0.2-0.9-0.5-1.1c-0.3-0.2-0.8-0.3-1.6-0.3h-2.1
		L106.9,242.4 M105,244v-10.4h4.3c0.5,0,1,0,1.5,0.1c0.3,0.1,0.7,0.2,0.9,0.4c0.3,0.2,0.5,0.5,0.7,0.9c0.2,0.4,0.3,0.7,0.2,1.1
		c0,0.4-0.1,0.9-0.3,1.3c-0.2,0.4-0.5,0.8-0.9,1c0.5,0.2,0.9,0.6,1.1,1c0.3,0.4,0.4,0.9,0.4,1.5c0,0.5-0.1,0.9-0.3,1.3
		c-0.2,0.4-0.5,0.8-0.8,1.1c-0.3,0.3-0.7,0.4-1.1,0.5c-0.5,0.1-1.1,0.2-1.7,0.2L105,244"/>
	<g>
		<ellipse class="st9" cx="242.4" cy="273.1" rx="3.1" ry="3"/>
		<g>
			<ellipse class="st9" cx="286" cy="273.1" rx="3.1" ry="3"/>
			<ellipse class="st9" cx="275.1" cy="273.1" rx="3.1" ry="3"/>
			<ellipse class="st9" cx="264.3" cy="273.1" rx="4.9" ry="4.8"/>
			<ellipse class="st9" cx="255.6" cy="273.1" rx="2.4" ry="4.8"/>
			<g>
				<g>
					<path class="st9" d="M376.3,275.8c-0.3,0-0.5,0-0.8-0.1c-1-0.2-1.7-1.2-1.7-2.4c0-1.2,0.7-2.2,1.7-2.4l0,0
						c2.3-0.6,5.2,1.7,5.3,1.8l0.8,0.6l-0.8,0.6C380.8,274,378.4,275.8,376.3,275.8z M375.8,272.3c-0.5,0.1-0.7,0.6-0.7,0.9
						c0,0.4,0.2,0.8,0.7,0.9c1.1,0.3,2.5-0.4,3.4-0.9C378.3,272.7,376.8,272,375.8,272.3L375.8,272.3z"/>
				</g>
				<g>
					<path class="st9" d="M371.5,274c-0.1,0-0.1,0-0.2,0c0,0,0,0,0,0c-0.4,0-2.7-0.2-4.3-3.6c-0.5-1-1.1-2-1.7-2.5l-0.1-0.1
						c-0.7-0.7-1.6-0.9-2.4-0.5c-0.8,0.3-1.4,1-1.6,2c0,0.1,0,0.2,0,0.2c-0.1,0.7,0,1.4,0.4,2c0.5,0.8,1.2,1.2,1.9,1
						c0.6-0.2,1-0.7,1.2-1.5c0.1-0.3,0-0.7-0.2-1c-0.3-0.5-0.6-0.7-1-0.6c-0.3,0.1-0.5,0.4-0.6,0.7c-0.1,0.3,0.1,0.6,0.4,0.7
						l-0.2,1.5c-0.9-0.2-1.5-1.3-1.4-2.5c0.2-1,0.8-1.7,1.5-1.9c0.8-0.2,1.7,0.2,2.2,1.1c0.4,0.6,0.5,1.4,0.4,2.2
						c-0.2,1.3-1,2.4-2.1,2.7c-1.1,0.3-2.3-0.3-3.1-1.6c-0.6-0.9-0.8-2.1-0.6-3.1c0-0.1,0-0.2,0.1-0.3c0.3-1.4,1.2-2.6,2.4-3
						c1.2-0.5,2.6-0.2,3.6,0.8l0.1,0.1c0.7,0.6,1.4,1.8,2,3c0.9,1.9,2,2.5,2.7,2.7c-0.3-0.2-0.5-0.5-0.6-0.9c-0.2-0.7,0-1.5,0.5-2.1
						c0.3-0.4,0.8-0.6,1.3-0.6c1.1,0.1,1.9,1.3,1.8,2.6c0,0.7-0.3,1.4-0.8,1.9C372.6,273.8,372.1,274,371.5,274z M371.9,270.4
						c-0.1,0-0.2,0.1-0.3,0.1c-0.1,0.2-0.2,0.3-0.1,0.5c0,0.1,0.1,0.2,0.2,0.2l-0.1,1.3c0.2,0,0.4-0.1,0.6-0.3
						c0.2-0.2,0.3-0.5,0.4-0.9C372.6,270.8,372.3,270.4,371.9,270.4C371.9,270.4,371.9,270.4,371.9,270.4z"/>
				</g>
				<g>
					<path class="st9" d="M363.7,280.9c-0.4,0-0.8-0.1-1.2-0.2c-1.2-0.5-2.1-1.6-2.4-3c0-0.1,0-0.2-0.1-0.3
						c-0.2-1.1,0.1-2.2,0.6-3.1c0.8-1.3,2-1.9,3.1-1.6c1.1,0.3,1.9,1.3,2.1,2.7c0.1,0.8,0,1.6-0.4,2.2c-0.6,0.9-1.4,1.4-2.2,1.1
						c-0.8-0.2-1.4-1-1.5-1.9c-0.2-1.1,0.4-2.2,1.4-2.5l0.2,1.5c-0.3,0.1-0.4,0.4-0.4,0.7c0.1,0.4,0.3,0.6,0.6,0.7
						c0.3,0.1,0.7-0.1,1-0.6c0.2-0.3,0.3-0.7,0.2-1c-0.1-0.7-0.6-1.3-1.2-1.5c-0.7-0.2-1.3,0.2-1.9,1c-0.4,0.6-0.5,1.3-0.4,2
						c0,0.1,0,0.2,0,0.2c0.2,1,0.8,1.7,1.6,2c0.8,0.3,1.7,0.1,2.4-0.5l0.1-0.1c0.6-0.5,1.2-1.5,1.7-2.6c1.6-3.4,3.9-3.5,4.3-3.6
						c0.6-0.1,1.2,0.2,1.6,0.6c0.5,0.5,0.8,1.2,0.8,1.9c0.1,1.3-0.7,2.4-1.8,2.6c-0.5,0.1-0.9-0.2-1.3-0.6c-0.5-0.6-0.7-1.4-0.5-2.1
						c0.1-0.4,0.3-0.7,0.6-0.9c-0.6,0.2-1.8,0.8-2.7,2.7c-0.6,1.2-1.3,2.4-2,3l-0.1,0.1C365.4,280.6,364.5,280.9,363.7,280.9z
						 M371.6,274l0.1,1.3c-0.1,0-0.2,0.1-0.2,0.2c0,0.1,0,0.3,0.1,0.5c0.1,0.1,0.2,0.2,0.3,0.1c0.4,0,0.7-0.5,0.6-0.9
						c0-0.3-0.2-0.7-0.4-0.9C372,274.1,371.8,274,371.6,274z"/>
				</g>
			</g>
			<g>
				<g>
					<polygon class="st9" points="360.7,274.3 291.8,273.7 291.8,272.2 360.7,272.7 					"/>
				</g>
			</g>
		</g>
		<g>
			<ellipse class="st9" cx="199.8" cy="273.4" rx="3.1" ry="3"/>
			<ellipse class="st9" cx="210.6" cy="273.4" rx="3.1" ry="3"/>
			<ellipse class="st9" cx="221.5" cy="273.4" rx="4.9" ry="4.8"/>
			<ellipse class="st9" cx="230.2" cy="273.4" rx="2.4" ry="4.8"/>
			<g>
				<g>
					<path class="st9" d="M109.4,270.7c0.3,0,0.5,0,0.8,0.1c1,0.2,1.7,1.2,1.7,2.4c0,1.2-0.7,2.2-1.7,2.4l0,0
						c-2.3,0.6-5.2-1.7-5.3-1.8l-0.8-0.6l0.8-0.6C105,272.5,107.3,270.7,109.4,270.7z M110,274.2c0.5-0.1,0.7-0.6,0.7-0.9
						c0-0.4-0.2-0.8-0.7-0.9c-1.1-0.3-2.5,0.4-3.4,0.9C107.5,273.8,108.9,274.4,110,274.2L110,274.2z"/>
				</g>
				<g>
					<path class="st9" d="M114.2,272.5c0.1,0,0.1,0,0.2,0c0,0,0,0,0,0c0.4,0,2.7,0.2,4.3,3.6c0.5,1,1.1,2,1.7,2.5l0.1,0.1
						c0.7,0.7,1.6,0.9,2.4,0.5c0.8-0.3,1.4-1,1.6-2c0-0.1,0-0.2,0-0.2c0.1-0.7,0-1.4-0.4-2c-0.5-0.8-1.2-1.2-1.9-1
						c-0.6,0.2-1,0.7-1.2,1.5c-0.1,0.3,0,0.7,0.2,1c0.3,0.5,0.6,0.7,1,0.6c0.3-0.1,0.5-0.4,0.6-0.7c0.1-0.3-0.1-0.6-0.4-0.7l0.2-1.5
						c0.9,0.2,1.5,1.3,1.4,2.5c-0.2,1-0.8,1.7-1.5,1.9c-0.8,0.2-1.7-0.2-2.3-1.1c-0.4-0.6-0.5-1.4-0.4-2.2c0.2-1.3,1-2.4,2.1-2.7
						c1.1-0.3,2.3,0.3,3.1,1.6c0.6,0.9,0.8,2.1,0.6,3.1c0,0.1,0,0.2-0.1,0.3c-0.3,1.4-1.2,2.6-2.4,3c-1.2,0.5-2.6,0.2-3.6-0.8
						l-0.1-0.1c-0.7-0.6-1.4-1.8-2-3c-0.9-1.9-2-2.5-2.7-2.7c0.3,0.2,0.5,0.5,0.6,0.9c0.2,0.7,0,1.5-0.5,2.1
						c-0.3,0.4-0.8,0.6-1.3,0.6c-1.1-0.1-1.9-1.3-1.8-2.6c0-0.7,0.3-1.4,0.8-1.9C113.2,272.7,113.7,272.5,114.2,272.5z M113.8,276.1
						c0.1,0,0.2-0.1,0.3-0.1c0.1-0.2,0.2-0.3,0.1-0.5c0-0.1-0.1-0.2-0.2-0.2l0.1-1.3c-0.2,0-0.4,0.1-0.6,0.3
						c-0.2,0.2-0.3,0.5-0.4,0.9C113.2,275.6,113.4,276,113.8,276.1C113.8,276.1,113.8,276.1,113.8,276.1z"/>
				</g>
				<g>
					<path class="st9" d="M122.1,265.6c0.4,0,0.8,0.1,1.2,0.2c1.2,0.5,2.1,1.6,2.4,3c0,0.1,0,0.2,0.1,0.3c0.2,1.1-0.1,2.2-0.6,3.1
						c-0.8,1.3-2,1.9-3.1,1.6c-1.1-0.3-1.9-1.3-2.1-2.7c-0.1-0.8,0-1.6,0.4-2.2c0.6-0.9,1.4-1.4,2.3-1.1c0.8,0.2,1.4,1,1.5,1.9
						c0.2,1.1-0.4,2.2-1.4,2.5l-0.2-1.5c0.3-0.1,0.4-0.4,0.4-0.7c-0.1-0.4-0.3-0.6-0.6-0.7c-0.3-0.1-0.7,0.1-1,0.6
						c-0.2,0.3-0.3,0.7-0.2,1c0.1,0.7,0.6,1.3,1.2,1.5c0.7,0.2,1.3-0.2,1.9-1c0.4-0.6,0.5-1.3,0.4-2c0-0.1,0-0.2,0-0.2
						c-0.2-1-0.8-1.7-1.6-2c-0.8-0.3-1.7-0.1-2.4,0.5l-0.1,0.1c-0.6,0.5-1.2,1.5-1.7,2.6c-1.6,3.4-3.9,3.5-4.3,3.6
						c-0.6,0.1-1.2-0.2-1.6-0.6c-0.5-0.5-0.8-1.2-0.8-1.9c-0.1-1.3,0.7-2.4,1.8-2.6c0.5-0.1,0.9,0.2,1.3,0.6
						c0.5,0.6,0.7,1.4,0.5,2.1c-0.1,0.4-0.3,0.7-0.6,0.9c0.6-0.2,1.8-0.8,2.7-2.7c0.6-1.2,1.3-2.4,2-3l0.1-0.1
						C120.4,265.9,121.2,265.6,122.1,265.6z M114.2,272.5l-0.1-1.3c0.1,0,0.2-0.1,0.2-0.2c0-0.1,0-0.3-0.1-0.5
						c-0.1-0.1-0.2-0.2-0.3-0.1c-0.4,0-0.7,0.5-0.6,0.9c0,0.3,0.2,0.7,0.4,0.9C113.7,272.4,113.9,272.5,114.2,272.5z"/>
				</g>
			</g>
			<g>
				<g>
					<polygon class="st9" points="125,272.2 194,272.7 194,274.3 125,273.7 					"/>
				</g>
			</g>
		</g>
	</g>
	<g>
		<ellipse class="st9" cx="242.4" cy="318.7" rx="3.1" ry="3"/>
		<g>
			<ellipse class="st9" cx="286" cy="318.7" rx="3.1" ry="3"/>
			<ellipse class="st9" cx="275.1" cy="318.7" rx="3.1" ry="3"/>
			<ellipse class="st9" cx="264.3" cy="318.7" rx="4.9" ry="4.8"/>
			<ellipse class="st9" cx="255.6" cy="318.7" rx="2.4" ry="4.8"/>
			<g>
				<g>
					<path class="st9" d="M376.3,321.4c-0.3,0-0.5,0-0.8-0.1c-1-0.2-1.7-1.2-1.7-2.4c0-1.2,0.7-2.2,1.7-2.4l0,0
						c2.3-0.6,5.2,1.7,5.3,1.8l0.8,0.6l-0.8,0.6C380.8,319.6,378.5,321.4,376.3,321.4z M375.8,317.9c-0.5,0.1-0.7,0.6-0.7,0.9
						c0,0.4,0.2,0.8,0.7,0.9c1.1,0.3,2.5-0.4,3.4-0.9C378.3,318.3,376.9,317.7,375.8,317.9L375.8,317.9z"/>
				</g>
				<g>
					<path class="st9" d="M371.6,319.6c-0.1,0-0.1,0-0.2,0c0,0,0,0,0,0c-0.4,0-2.7-0.2-4.3-3.6c-0.5-1-1.1-2-1.7-2.5l-0.1-0.1
						c-0.7-0.7-1.6-0.9-2.4-0.5c-0.8,0.3-1.4,1-1.6,2c0,0.1,0,0.2,0,0.2c-0.1,0.7,0,1.4,0.4,2c0.5,0.8,1.2,1.2,1.9,1
						c0.6-0.2,1-0.7,1.2-1.5c0.1-0.3,0-0.7-0.2-1c-0.3-0.5-0.6-0.7-1-0.6c-0.3,0.1-0.5,0.4-0.6,0.7c-0.1,0.3,0.1,0.6,0.4,0.7
						l-0.2,1.5c-0.9-0.2-1.5-1.3-1.4-2.5c0.2-1,0.8-1.7,1.5-1.9c0.8-0.2,1.7,0.2,2.2,1.1c0.4,0.6,0.5,1.4,0.4,2.2
						c-0.2,1.3-1,2.4-2.1,2.7c-1.1,0.3-2.3-0.3-3.1-1.6c-0.6-0.9-0.8-2.1-0.6-3.1c0-0.1,0-0.2,0.1-0.3c0.3-1.4,1.2-2.6,2.4-3
						c1.2-0.5,2.6-0.2,3.6,0.8l0.1,0.1c0.7,0.6,1.4,1.8,2,3c0.9,1.9,2,2.5,2.7,2.7c-0.3-0.2-0.5-0.5-0.6-0.9c-0.2-0.7,0-1.5,0.5-2.1
						c0.3-0.4,0.8-0.6,1.3-0.6c1.1,0.1,1.9,1.3,1.8,2.6c0,0.7-0.3,1.4-0.8,1.9C372.6,319.4,372.1,319.6,371.6,319.6z M371.9,316
						c-0.1,0-0.2,0.1-0.3,0.1c-0.1,0.2-0.2,0.3-0.1,0.5c0,0.1,0.1,0.2,0.2,0.2l-0.1,1.3c0.2,0,0.4-0.1,0.6-0.3
						c0.2-0.2,0.3-0.5,0.4-0.9C372.6,316.5,372.3,316.1,371.9,316C371.9,316,371.9,316,371.9,316z"/>
				</g>
				<g>
					<path class="st9" d="M363.7,326.5c-0.4,0-0.8-0.1-1.2-0.2c-1.2-0.5-2.1-1.6-2.4-3c0-0.1,0-0.2-0.1-0.3
						c-0.2-1.1,0.1-2.2,0.6-3.1c0.8-1.3,2-1.9,3.1-1.6c1.1,0.3,1.9,1.3,2.1,2.7c0.1,0.8,0,1.6-0.4,2.2c-0.6,0.9-1.4,1.4-2.2,1.1
						c-0.8-0.2-1.4-1-1.5-1.9c-0.2-1.1,0.4-2.2,1.4-2.5l0.2,1.5c-0.3,0.1-0.4,0.4-0.4,0.7c0.1,0.4,0.3,0.6,0.6,0.7
						c0.3,0.1,0.7-0.1,1-0.6c0.2-0.3,0.3-0.7,0.2-1c-0.1-0.7-0.6-1.3-1.2-1.5c-0.7-0.2-1.3,0.2-1.9,1c-0.4,0.6-0.5,1.3-0.4,2
						c0,0.1,0,0.2,0,0.2c0.2,1,0.8,1.7,1.6,2c0.8,0.3,1.7,0.1,2.4-0.5l0.1-0.1c0.6-0.5,1.2-1.5,1.7-2.6c1.6-3.4,3.9-3.5,4.3-3.6
						c0.6-0.1,1.2,0.2,1.6,0.6c0.5,0.5,0.8,1.2,0.8,1.9c0.1,1.3-0.7,2.4-1.8,2.6c-0.5,0.1-0.9-0.2-1.3-0.6c-0.5-0.6-0.7-1.4-0.5-2.1
						c0.1-0.4,0.3-0.7,0.6-0.9c-0.6,0.2-1.8,0.8-2.7,2.7c-0.6,1.2-1.3,2.4-2,3l-0.1,0.1C365.4,326.2,364.6,326.5,363.7,326.5z
						 M371.6,319.6l0.1,1.3c-0.1,0-0.2,0.1-0.2,0.2c0,0.1,0,0.3,0.1,0.5c0.1,0.1,0.2,0.2,0.3,0.1c0.4,0,0.7-0.5,0.6-0.9
						c0-0.3-0.2-0.7-0.4-0.9C372,319.7,371.8,319.6,371.6,319.6z"/>
				</g>
			</g>
			<g>
				<g>
					<polygon class="st9" points="360.8,319.9 291.8,319.4 291.8,317.9 360.8,318.4 					"/>
				</g>
			</g>
		</g>
		<g>
			<ellipse class="st9" cx="199.8" cy="319" rx="3.1" ry="3"/>
			<ellipse class="st9" cx="210.6" cy="319" rx="3.1" ry="3"/>
			<ellipse class="st9" cx="221.5" cy="319" rx="4.9" ry="4.8"/>
			<ellipse class="st9" cx="230.2" cy="319" rx="2.4" ry="4.8"/>
			<g>
				<g>
					<path class="st9" d="M109.4,316.4c0.3,0,0.5,0,0.8,0.1c1,0.2,1.7,1.2,1.7,2.4c0,1.2-0.7,2.2-1.7,2.4l0,0
						c-2.3,0.6-5.2-1.7-5.3-1.8l-0.8-0.6l0.8-0.6C105,318.2,107.3,316.4,109.4,316.4z M110,319.8c0.5-0.1,0.7-0.6,0.7-0.9
						c0-0.4-0.2-0.8-0.7-0.9c-1.1-0.3-2.5,0.4-3.4,0.9C107.5,319.5,108.9,320.1,110,319.8L110,319.8z"/>
				</g>
				<g>
					<path class="st9" d="M114.2,318.1c0.1,0,0.1,0,0.2,0c0,0,0,0,0,0c0.4,0,2.7,0.2,4.3,3.6c0.5,1,1.1,2,1.7,2.5l0.1,0.1
						c0.7,0.7,1.6,0.9,2.4,0.5c0.8-0.3,1.4-1,1.6-2c0-0.1,0-0.2,0-0.2c0.1-0.7,0-1.4-0.4-2c-0.5-0.8-1.2-1.2-1.9-1
						c-0.6,0.2-1,0.7-1.2,1.5c-0.1,0.3,0,0.7,0.2,1c0.3,0.5,0.6,0.7,1,0.6c0.3-0.1,0.5-0.4,0.6-0.7c0.1-0.3-0.1-0.6-0.4-0.7l0.2-1.5
						c0.9,0.2,1.5,1.3,1.4,2.5c-0.2,1-0.8,1.7-1.5,1.9c-0.8,0.2-1.7-0.2-2.3-1.1c-0.4-0.6-0.5-1.4-0.4-2.2c0.2-1.3,1-2.4,2.1-2.7
						c1.1-0.3,2.3,0.3,3.1,1.6c0.6,0.9,0.8,2.1,0.6,3.1c0,0.1,0,0.2-0.1,0.3c-0.3,1.4-1.2,2.6-2.4,3c-1.2,0.5-2.6,0.2-3.6-0.8
						l-0.1-0.1c-0.7-0.6-1.4-1.8-2-3c-0.9-1.9-2-2.5-2.7-2.7c0.3,0.2,0.5,0.5,0.6,0.9c0.2,0.7,0,1.5-0.5,2.1
						c-0.3,0.4-0.8,0.6-1.3,0.6c-1.1-0.1-1.9-1.3-1.8-2.6c0-0.7,0.3-1.4,0.8-1.9C113.2,318.3,113.7,318.1,114.2,318.1z M113.8,321.7
						c0.1,0,0.2-0.1,0.3-0.1c0.1-0.2,0.2-0.3,0.1-0.5c0-0.1-0.1-0.2-0.2-0.2l0.1-1.3c-0.2,0-0.4,0.1-0.6,0.3
						c-0.2,0.2-0.3,0.5-0.4,0.9C113.2,321.3,113.4,321.7,113.8,321.7C113.8,321.7,113.8,321.7,113.8,321.7z"/>
				</g>
				<g>
					<path class="st9" d="M122.1,311.2c0.4,0,0.8,0.1,1.2,0.2c1.2,0.5,2.1,1.6,2.4,3c0,0.1,0,0.2,0.1,0.3c0.2,1.1-0.1,2.2-0.6,3.1
						c-0.8,1.3-2,1.9-3.1,1.6c-1.1-0.3-1.9-1.3-2.1-2.7c-0.1-0.8,0-1.6,0.4-2.2c0.6-0.9,1.4-1.4,2.3-1.1c0.8,0.2,1.4,1,1.5,1.9
						c0.2,1.1-0.4,2.2-1.4,2.5l-0.2-1.5c0.3-0.1,0.4-0.4,0.4-0.7c-0.1-0.4-0.3-0.6-0.6-0.7c-0.3-0.1-0.7,0.1-1,0.6
						c-0.2,0.3-0.3,0.7-0.2,1c0.1,0.7,0.6,1.3,1.2,1.5c0.7,0.2,1.3-0.2,1.9-1c0.4-0.6,0.5-1.3,0.4-2c0-0.1,0-0.2,0-0.2
						c-0.2-1-0.8-1.7-1.6-2c-0.8-0.3-1.7-0.1-2.4,0.5l-0.1,0.1c-0.6,0.5-1.2,1.5-1.7,2.6c-1.6,3.4-3.9,3.5-4.3,3.6
						c-0.6,0.1-1.2-0.2-1.6-0.6c-0.5-0.5-0.8-1.2-0.8-1.9c-0.1-1.3,0.7-2.4,1.8-2.6c0.5-0.1,0.9,0.2,1.3,0.6
						c0.5,0.6,0.7,1.4,0.5,2.1c-0.1,0.4-0.3,0.7-0.6,0.9c0.6-0.2,1.8-0.8,2.7-2.7c0.6-1.2,1.3-2.4,2-3l0.1-0.1
						C120.4,311.6,121.2,311.2,122.1,311.2z M114.2,318.1l-0.1-1.3c0.1,0,0.2-0.1,0.2-0.2c0-0.1,0-0.3-0.1-0.5
						c-0.1-0.1-0.2-0.2-0.3-0.1c-0.4,0-0.7,0.5-0.6,0.9c0,0.3,0.2,0.7,0.4,0.9C113.7,318,113.9,318.1,114.2,318.1z"/>
				</g>
			</g>
			<g>
				<g>
					<polygon class="st9" points="125,317.9 194,318.4 194,319.9 125,319.4 					"/>
				</g>
			</g>
		</g>
	</g>
	<g>
		<text transform="matrix(1 0 0 1 118.8665 305.9995)" class="st10 st11 st12">LUNCH DINE-IN MENU</text>
	</g>
	<text transform="matrix(1 0 0 1 149.6731 378.2134)" class="st4 st5 st13">30 Gravatt Road</text>
	<path class="st8" d="M289.6,155.3h2.1c-0.5-1.3-0.8-2.2-1-2.7c0,0,0,0,0-0.1c-0.4,1-0.7,1.8-0.9,2.5L289.6,155.3 M293.4,160.4
		L293.4,160.4c-0.4-0.1-0.8-0.1-1.1-0.1H288c0,0-0.1,0-0.1,0l0,0c-0.1,0.1-0.1,0.2-0.1,0.3c-0.2,0.4-0.4,0.8-0.6,1.3
		c-0.4,0.9-0.6,1.5-0.6,1.9c0,0.2,0,0.3,0,0.5l0.1,0.1c0.2,0.2,0.6,0.3,1.1,0.5c0.4,0.1,0.8,0.3,1.1,0.5c0.2,0.2,0.4,0.3,0.6,0.6
		c0.2,0.3,0.4,0.7,0.4,1.1c0,0.3-0.1,0.6-0.2,0.9c-0.1,0.3-0.4,0.6-0.6,0.8c-0.4,0.3-0.9,0.4-1.4,0.4c-0.6,0-1.1-0.1-1.7-0.2
		c-0.4-0.1-0.8-0.1-1.2-0.1c-0.4,0-0.9,0-1.7,0.1c-0.9,0.1-1.6,0.1-2,0.1c-0.2,0-0.5,0-0.7-0.1c-0.3-0.1-0.7-0.3-0.9-0.5
		c-0.2-0.2-0.4-0.5-0.5-0.9c-0.1-0.2-0.1-0.5-0.1-0.7c0-0.7,0.4-1.4,1-1.8c0,0,0.2-0.1,0.4-0.2c0.1,0,0.1-0.1,0.2-0.1
		c0.3-0.3,0.6-0.7,0.8-1.1c0.4-0.7,0.8-1.5,1.1-2.3c0.6-1.8,1.3-3.4,1.9-5c0.6-1.6,1.2-3,1.7-4.4c0.2-0.5,0.9-2.3,2.1-5.5
		c0.6-1.6,1.1-2.9,1.5-3.7c0.2-0.4,0.4-0.8,0.6-1.1c0.1-0.2,0.3-0.4,0.5-0.5c0.1-0.1,0.3-0.2,0.5-0.3c0.3-0.1,0.6-0.2,0.9-0.1
		c0.3,0,0.5,0.1,0.7,0.2c0.2,0.1,0.3,0.2,0.5,0.4c0.2,0.2,0.4,0.4,0.5,0.7c0.4,0.7,0.7,1.5,1,2.3l7.2,18.7c0.3,0.7,0.5,1.2,0.8,1.5
		c0.2,0.2,0.6,0.4,1.1,0.5c0.3,0.1,0.6,0.2,0.8,0.4c0.2,0.2,0.4,0.4,0.5,0.6c0.2,0.4,0.3,0.9,0.3,1.3c-0.1,0.5-0.3,1-0.7,1.3
		c-0.4,0.4-1.1,0.6-1.7,0.5c-0.8-0.1-1.5-0.2-2.2-0.3c-0.7,0-1.5-0.1-2.4-0.1c-0.6,0-1.2,0.1-1.7,0.1c-0.7,0.1-1.4,0.1-2.1,0.1
		c-0.5,0-1.1-0.2-1.4-0.5c-0.2-0.2-0.4-0.5-0.5-0.8c-0.1-0.3-0.1-0.5-0.1-0.8c0-0.5,0.2-1.1,0.6-1.4c0.3-0.3,0.6-0.5,1-0.6
		c0.2-0.1,0.3-0.1,0.4-0.2l0.1-0.1c0-0.1,0-0.2,0-0.3c0-0.2-0.1-0.5-0.1-0.7c-0.1-0.4-0.3-0.9-0.5-1.6c-0.2-0.5-0.4-1-0.6-1.5
		C293.4,160.5,293.4,160.4,293.4,160.4 M267.6,156.6c-0.1,0.3-0.1,0.7-0.1,1c0,0,0,0.6,0,1.8s0,1.8,0,2c0,0.6,0,1.2,0.2,1.8
		c0,0.3,0.1,0.6,0.3,0.8c0.1,0.1,0.2,0.2,0.4,0.2c0.4,0.1,0.8,0.2,1.2,0.2c0.7,0,1.4-0.1,2-0.3c0.4-0.1,0.8-0.3,1.2-0.7
		c0.3-0.3,0.5-0.7,0.7-1.1c0.2-0.6,0.3-1.2,0.3-1.8c0-0.8-0.1-1.5-0.5-2.1c-0.3-0.5-0.8-0.9-1.3-1.2c-0.6-0.3-1.2-0.4-1.8-0.5
		C269.2,156.6,268.4,156.6,267.6,156.6 M267.6,145.7L267.6,145.7c-0.1,0.3-0.1,0.5-0.1,0.8v5.1c0,0.1,0,0.1,0,0.2l0,0l0.4,0
		c0.4,0,0.9,0,1.4,0c0.5,0,1.1,0,1.6-0.2c0.3-0.1,0.5-0.2,0.7-0.3c0.1-0.1,0.2-0.3,0.3-0.5c0.1-0.4,0.2-0.8,0.2-1.2
		c0-1.2-0.4-2.2-1.1-3c-0.6-0.7-1.5-1.1-2.5-1.1C268.2,145.6,267.9,145.6,267.6,145.7 M279.2,154.9c0.9,1.2,1.4,2.8,1.4,4.8
		c0,3-0.9,5.2-2.7,6.8c-1.7,1.6-4.1,2.4-7.2,2.4c-0.7,0-1.6,0-3-0.1c-1.3,0-2.3-0.1-2.9-0.1c-0.5,0-1.2,0-2.1,0.1
		c-1,0.1-1.8,0.1-2.3,0.1c-0.5,0-1-0.2-1.4-0.5c-0.3-0.2-0.5-0.5-0.6-0.8c-0.3-0.7-0.1-1.5,0.4-2.1c0.2-0.3,0.5-0.5,0.9-0.7
		c0.1-0.1,0.3-0.1,0.3-0.1c0.2-0.1,0.4-0.3,0.5-0.5c0.2-0.4,0.2-0.9,0.2-1.6V148c0-0.7-0.1-1.3-0.4-1.8c-0.2-0.3-0.5-0.4-0.8-0.5
		c-0.5-0.1-1-0.2-1.4-0.5c-0.3-0.2-0.5-0.4-0.7-0.6c-0.2-0.3-0.4-0.7-0.4-1.1c0-0.5,0.2-1.1,0.5-1.5c0.4-0.5,1-0.8,1.7-0.8
		c0.3,0,0.9,0,1.6,0.1c0.6,0.1,1.1,0.1,1.4,0.1c0.7,0,1.9-0.1,3.3-0.2c1.6-0.2,2.8-0.2,3.6-0.2c2.9,0,5.2,0.7,6.9,1.9
		c1.9,1.3,2.9,3.5,2.8,5.7c0,1.5-0.6,3-1.6,4.1c-0.1,0.1-0.1,0.2-0.2,0.2C277.9,153.5,278.6,154.1,279.2,154.9 M305.4,143.5
		c-0.1-0.4,0-0.8,0.2-1.1c0.1-0.3,0.4-0.5,0.6-0.7c0.5-0.4,1.1-0.5,1.7-0.4l1,0.1c0.6,0.1,1.1,0.1,1.7,0.1h0c0.6,0,1.5-0.1,2.5-0.2
		c1.2-0.1,2.1-0.2,3-0.2c0.5,0,1,0.2,1.4,0.5c0.5,0.4,0.7,1,0.7,1.6c0,0.6-0.2,1.1-0.6,1.5c-0.3,0.3-0.7,0.6-1.1,0.7
		c-0.2,0.1-0.4,0.1-0.5,0.2l0,0c0,0.3,0,0.6,0,1v14.5c0,0.7,0,1.4,0.1,2.1c0,0.4,0.2,0.8,0.3,1.2c0.1,0.1,0.2,0.2,0.3,0.3
		c0.2,0.1,0.5,0.1,0.8,0.1c0.3,0,0.6,0.1,0.8,0.2c0.2,0.1,0.4,0.2,0.5,0.3c0.2,0.1,0.3,0.3,0.5,0.5c0.3,0.3,0.4,0.7,0.4,1.1
		c0,0.4-0.1,0.7-0.2,1.1c-0.2,0.3-0.4,0.6-0.7,0.8c-0.5,0.3-1,0.4-1.6,0.4c-0.6,0-1.4,0-2.5-0.1c-1-0.1-1.7-0.1-2.2-0.1
		c-0.5,0-1,0.1-1.5,0.1c-0.7,0.1-1.3,0.2-2,0.2c-0.4,0-0.8-0.1-1.1-0.3c-0.3-0.1-0.5-0.4-0.7-0.6c-0.2-0.3-0.4-0.7-0.3-1.1
		c0-0.5,0.2-0.9,0.5-1.3c0.2-0.3,0.5-0.5,0.8-0.7c0.2-0.1,0.3-0.2,0.4-0.3l0,0c0.2-0.3,0.3-0.6,0.4-0.9c0.1-0.4,0.1-1.3,0.1-2.6
		v-13.1c0-0.6,0-1.1-0.1-1.6c0-0.2-0.1-0.3-0.2-0.5c0,0-0.1-0.1-0.1-0.1c-0.4-0.1-0.7-0.2-1.1-0.3h0h0c-0.5-0.1-0.9-0.3-1.3-0.7
		C305.7,144.5,305.4,144,305.4,143.5"/>
	<path class="st8" d="M233.3,157.7c0,1.9,0,3,0,3.4c0,1.2,0.1,2.1,0.4,2.7c0.2,0.4,0.5,0.7,0.9,0.9l0,0h0c0.4,0.2,0.8,0.4,1.2,0.7
		c0.2,0.2,0.4,0.4,0.5,0.6c0.2,0.3,0.3,0.7,0.3,1c0,0.7-0.3,1.3-0.9,1.7c-0.4,0.2-0.8,0.4-1.3,0.4c-0.6,0-1.3-0.1-1.9-0.2
		c-0.5-0.1-1-0.1-1.5-0.1c-0.4,0-0.8,0.1-1.2,0.1c-0.6,0.1-1.1,0.1-1.7,0.1c-0.2,0-0.5,0-0.7-0.1c-0.3-0.1-0.6-0.2-0.9-0.5
		c-0.3-0.3-0.5-0.6-0.6-1c-0.1-0.3-0.1-0.6,0-0.9c0.1-0.5,0.3-0.9,0.7-1.2c0.3-0.2,0.5-0.4,0.8-0.5c0.2-0.1,0.5-0.3,0.7-0.4
		c0.1-0.1,0.1-0.2,0.2-0.2c0.1-0.3,0.2-0.6,0.2-0.8c0.1-0.6,0.1-1.2,0.1-1.9c0.1-2.7,0.2-5.5,0.3-8.5c0.1-2.9,0.2-4.4,0.2-4.5
		c0-0.9-0.2-1.6-0.6-2.2c-0.1-0.2-0.3-0.4-0.6-0.5c-0.2-0.1-0.4-0.1-0.6-0.1c-0.2,0-0.5,0-0.7-0.1c-0.7-0.2-1.2-0.7-1.4-1.3
		c-0.1-0.2-0.1-0.5-0.1-0.8c0-0.4,0.1-0.7,0.3-1.1c0.2-0.3,0.5-0.6,0.8-0.8c0.3-0.2,0.7-0.3,1-0.3c0.2,0,0.6,0,1,0h0.1
		c0.6,0,1.1,0.1,1.3,0.1l0.1,0l0.1,0c0.2,0,0.5,0,0.9-0.1c0.5-0.1,1-0.1,1.5-0.1c0.7,0,1.4,0.2,1.9,0.6c0.5,0.4,1,0.9,1.2,1.6
		l5.6,14c0.2-0.5,0.4-0.8,0.5-1.1c0.3-0.7,0.9-2.3,2-4.9c1.1-2.6,1.9-4.7,2.6-6.3c0.4-0.8,0.7-1.4,0.9-1.9c0.4-0.7,0.7-1.1,0.9-1.2
		c0.3-0.3,0.6-0.5,1-0.6c0.3-0.1,0.6-0.1,0.9-0.1c0.2,0,0.6,0,1.2,0l0.6,0l0.1,0c0.3,0,0.5,0,0.8-0.1c0.4-0.1,0.8-0.1,1.3-0.1
		c0.2,0,0.5,0,0.7,0.1c0.3,0.1,0.6,0.2,0.8,0.5c0.2,0.2,0.4,0.5,0.5,0.8c0.1,0.3,0.1,0.5,0.1,0.8c0,0.5-0.2,1.1-0.6,1.5
		c-0.3,0.4-0.8,0.6-1.3,0.6c-0.2,0-0.5,0.1-0.7,0.2c-0.1,0-0.1,0.1-0.2,0.2c-0.3,0.6-0.4,1.6-0.4,3c0,0.1,0,1.3,0.1,3.8
		c0.1,2.5,0.2,5.1,0.3,7.9c0.1,1.6,0.2,2.8,0.5,3.4c0.1,0.1,0.2,0.3,0.3,0.4c0.2,0.1,0.5,0.3,0.8,0.3c0.5,0.1,0.9,0.3,1.3,0.6
		c0.3,0.2,0.5,0.5,0.6,0.8c0.1,0.3,0.2,0.6,0.2,0.9c0,0.8-0.5,1.5-1.2,1.8c-0.3,0.1-0.7,0.2-1.5,0.2c-0.7,0-1.4-0.1-2.1-0.2
		c-0.6-0.1-1.2-0.1-1.7-0.1c-0.6,0-1.2,0.1-1.8,0.1c-0.7,0.1-1.5,0.2-2.2,0.2c-0.4,0-0.9-0.1-1.3-0.3c-0.3-0.2-0.5-0.4-0.7-0.6
		c-0.4-0.7-0.4-1.6,0.1-2.2c0.2-0.3,0.5-0.5,0.8-0.7c0.2-0.1,0.3-0.2,0.3-0.2c0.3-0.2,0.5-0.3,0.6-0.5c0.1-0.2,0.1-0.4,0.1-0.7
		c0-0.9-0.1-3-0.2-6.3l0-0.3l-0.4,0.9c-1.4,3.4-2.6,6.2-3.5,8.4c0,0.1-0.1,0.2-0.2,0.5c-0.1,0.3-0.2,0.6-0.3,0.7
		c-0.1,0.3-0.3,0.6-0.5,0.8c-0.2,0.2-0.4,0.3-0.6,0.5c-0.3,0.2-0.7,0.2-1,0.2c-0.4,0-0.8-0.2-1.1-0.5c-0.2-0.2-0.5-0.4-0.6-0.7
		c-0.2-0.3-0.8-1.5-1.6-3.6L233.3,157.7"/>
	<path class="st8" d="M221.5,145.3c-0.1,0.3-0.2,0.8-0.2,1.3c0,1.4,0,2.9,0,4.6c0,1.7,0,2.5,0,2.6c0,2-0.2,4.1-0.5,6.1
		c-0.4,1.9-0.9,3.5-1.6,4.7c-0.9,1.6-2.2,2.8-3.8,3.6c-1.5,0.7-3.4,1.1-5.6,1.1c-1.9,0-3.5-0.3-4.8-0.8c-1.4-0.5-2.6-1.3-3.6-2.4
		c-0.9-1-1.5-2.4-2-4.1c-0.4-1.5-0.6-3.4-0.6-5.5c0-1,0-2.7,0.1-4.9c0.1-2.2,0.1-3.6,0.1-4.1c0-0.4,0-0.8-0.1-1.2
		c0-0.2-0.1-0.3-0.2-0.5c-0.1-0.1-0.2-0.2-0.3-0.3c-0.3-0.1-0.6-0.3-0.9-0.3c-0.2,0-0.4-0.1-0.6-0.2c-0.3-0.1-0.7-0.4-0.9-0.6
		c-0.2-0.3-0.3-0.5-0.4-0.9c-0.1-0.2-0.1-0.5,0-0.8c0-0.4,0.2-0.7,0.4-1c0.2-0.2,0.4-0.4,0.6-0.6c0.4-0.3,0.8-0.4,1.3-0.4
		c0.7,0,1.5,0.1,2.2,0.2c0.6,0.1,1.2,0.1,1.8,0.1c0.4,0,1.1,0,2-0.1c1-0.1,1.8-0.1,2.3-0.1c0.2,0,0.5,0,0.7,0.1
		c0.3,0.1,0.6,0.2,0.8,0.4c0.3,0.2,0.5,0.5,0.6,0.8c0.1,0.3,0.2,0.7,0.2,1c0,0.4-0.2,0.9-0.5,1.2c-0.2,0.3-0.5,0.5-0.8,0.6
		c-0.1,0.1-0.4,0.2-0.6,0.3c-0.1,0-0.2,0.1-0.2,0.1c-0.1,0.1-0.1,0.1-0.2,0.2c0,0,0,0.1-0.1,0.2c-0.1,0.3-0.1,0.6-0.2,0.8
		c-0.1,0.9-0.2,2.3-0.2,4.3v5.4c0,1.2,0.1,2.4,0.4,3.6c0.2,0.9,0.5,1.7,1,2.4c0.4,0.5,0.9,1,1.5,1.2c0.7,0.3,1.5,0.5,2.2,0.4
		c1.2,0,2.3-0.3,3.1-0.9c0.8-0.6,1.4-1.6,1.8-2.8c0.3-0.8,0.5-2,0.6-3.4c0.2-1.6,0.2-3.4,0.2-5.6c0-1.4-0.1-2.9-0.2-4.3
		c0-0.4-0.1-0.8-0.2-1.2c0-0.1-0.1-0.2-0.1-0.3c-0.1-0.1-0.1-0.1-0.2-0.2c-0.2-0.1-0.3-0.1-0.5-0.1c-0.3,0-0.5-0.1-0.8-0.1
		c-0.3-0.1-0.6-0.2-0.9-0.4c-0.3-0.2-0.5-0.5-0.7-0.8c-0.1-0.3-0.2-0.5-0.2-0.8c0-0.3,0-0.7,0.1-1c0.1-0.3,0.3-0.6,0.6-0.8
		c0.5-0.4,1.1-0.6,1.6-0.5c0.6,0.1,1.3,0.1,2.1,0.2c0.4,0,0.7,0.1,0.9,0.1l0.1,0c0.5,0,0.9-0.1,1.4-0.1c0.6-0.1,1.2-0.1,1.8-0.2
		c0.5,0,1,0.2,1.4,0.5c0.4,0.4,0.7,0.9,0.7,1.5c0,0.3,0,0.7-0.2,1c-0.1,0.3-0.3,0.6-0.6,0.8c-0.3,0.2-0.5,0.3-0.9,0.4
		C221.9,145.2,221.7,145.3,221.5,145.3"/>
	<path class="st8" d="M168.9,161.4c0.5-0.9,1.6-3.3,3.4-7c1.8-3.8,3.3-6.8,4.6-9.1c0.6-1.1,1.1-2,1.5-2.7c0.6-1,1.1-1.5,1.4-1.7
		c0.4-0.3,1-0.6,1.5-0.7c0.4-0.1,0.8-0.1,1.3-0.1c0.4,0,1,0,2,0.1l1,0l0.3,0c0.3,0,0.8,0,1.5-0.1c0.7-0.1,1.4-0.1,2.1-0.1
		c0.3,0,0.7,0,1,0.1c0.4,0.1,0.8,0.3,1.1,0.5c0.4,0.3,0.6,0.6,0.8,1c0.1,0.3,0.2,0.7,0.2,1.1c0,0.7-0.3,1.4-0.9,1.9
		c-0.5,0.4-1.1,0.7-1.8,0.7c-0.5,0-1,0.2-1.5,0.4c-0.2,0.1-0.4,0.3-0.5,0.5c-0.2,0.4-0.4,1-0.5,1.6c-0.1,0.9-0.2,1.9-0.2,2.9
		c0,0.1,0.1,1.9,0.2,5.5c0.2,3.6,0.3,7.4,0.4,11.4c0.1,2.4,0.3,4.1,0.9,5c0.2,0.3,0.4,0.5,0.7,0.7c0.5,0.3,1,0.5,1.6,0.5
		c0.7,0.1,1.4,0.3,2,0.7c0.4,0.2,0.7,0.6,1,1c0.2,0.4,0.3,0.8,0.3,1.2c0,0.5-0.2,1-0.5,1.4c-0.3,0.4-0.8,0.7-1.2,0.9
		c-0.4,0.1-1.1,0.3-2.2,0.3c-0.8,0-2-0.1-3.6-0.2c-1.4-0.1-2.4-0.2-3.1-0.2c-0.7,0-1.8,0.1-3.3,0.2c-1.7,0.2-2.9,0.3-3.7,0.3
		c-0.6,0-1.2-0.1-1.8-0.4c-0.4-0.2-0.7-0.4-0.9-0.8c-0.3-0.3-0.4-0.7-0.4-1.2c-0.1-0.6,0.1-1.3,0.6-1.7c0.3-0.4,0.7-0.7,1.1-0.9
		c0.3-0.2,0.5-0.3,0.6-0.3l0,0l0,0c0.5-0.3,1-0.6,1.2-0.9c0.1-0.1,0.1-0.2,0.1-0.4c0-0.3,0.1-0.5,0.1-0.8c0-1.3-0.1-4.3-0.4-9.1
		c-0.1-1-0.1-2-0.1-2.8c-0.6,1.1-1.2,2.3-1.8,3.7c-2.5,4.9-4.5,8.9-6.1,12.1c-0.1,0.1-0.2,0.3-0.3,0.7c-0.2,0.3-0.3,0.7-0.5,1
		c-0.2,0.4-0.5,0.8-0.9,1.1c-0.3,0.2-0.6,0.4-0.9,0.5c-0.4,0.2-0.9,0.2-1.3,0.2c-0.6,0-1.1-0.3-1.6-0.6c-0.4-0.3-0.7-0.6-1-0.9
		c-0.4-0.5-1.3-2.2-2.7-5.1l-5.7-11.9c0,0.2,0,0.4,0,0.7c-0.1,3.9-0.1,6.3-0.1,7c0,1.7,0.2,3.1,0.7,4c0.4,0.7,1,1.2,1.9,1.5h0h0
		c0.9,0.4,1.5,0.7,1.9,0.9c0.3,0.2,0.6,0.5,0.8,0.8c0.3,0.4,0.4,0.9,0.4,1.3c0,0.4-0.1,0.9-0.4,1.3c-0.2,0.4-0.6,0.7-1,0.9
		c-0.6,0.3-1.2,0.4-1.8,0.4c-0.7,0-1.8-0.1-3.2-0.2c-1.2-0.1-2.1-0.2-2.7-0.2c-0.5,0-1.3,0.1-2.3,0.2c-1.2,0.1-2.2,0.2-2.8,0.2
		c-0.3,0-0.7,0-1-0.1c-0.5-0.1-0.9-0.3-1.2-0.5c-0.4-0.3-0.7-0.7-0.9-1.2c-0.1-0.4-0.1-0.8-0.1-1.2c0.1-0.5,0.3-1,1-1.6
		c0.4-0.3,0.8-0.5,1.3-0.7c0.5-0.2,0.9-0.4,1.3-0.7c0.2-0.1,0.3-0.3,0.4-0.5c0.2-0.4,0.4-0.8,0.4-1.3c0.1-0.9,0.2-1.8,0.2-2.7
		c0.2-3.9,0.3-8,0.5-12.2c0.2-4.2,0.3-6.4,0.3-6.5c0-1.3-0.4-2.5-1.2-3.4c-0.3-0.4-0.7-0.7-1.2-0.9c-0.4-0.2-0.9-0.3-1.4-0.3
		c-0.4,0-0.7,0-1.1-0.1c-0.5-0.1-0.9-0.3-1.2-0.6c-0.3-0.3-0.6-0.6-0.7-1c-0.1-0.3-0.2-0.7-0.2-1c0-0.5,0.1-1,0.4-1.4
		c0.3-0.4,0.7-0.7,1.1-0.9c0.5-0.2,1-0.3,1.5-0.3c0.4,0,0.9-0.1,1.6-0.1h0.1h0.1c1.1,0.1,1.8,0.1,2.2,0.1h0.1l0.2,0
		c0.4,0,1-0.1,1.7-0.2c0.8-0.1,1.6-0.2,2.4-0.2c1,0,2,0.2,2.9,0.7c0.8,0.5,1.5,1.2,1.9,2.1l10.3,21.4
		C168.1,163,168.6,162,168.9,161.4"/>
	<path class="st4" d="M306.3,143.4c0-0.2,0-0.4,0.1-0.6c0.1-0.2,0.2-0.3,0.4-0.4c0.3-0.2,0.7-0.3,1-0.3l0.9,0.1
		c0.6,0.1,1.2,0.1,1.8,0.1c0.6,0,1.5-0.1,2.6-0.2c1.1-0.1,2.1-0.1,2.9-0.1c0.3,0,0.6,0.1,0.8,0.3c0.3,0.2,0.4,0.6,0.4,0.9
		c0,0.3-0.1,0.7-0.4,0.9c-0.2,0.2-0.5,0.4-0.8,0.5c-0.4,0.1-0.6,0.2-0.7,0.3c-0.1,0.1-0.2,0.2-0.3,0.3c-0.1,0.3-0.1,0.7-0.1,1.4
		v14.5c0,1.7,0.2,3,0.6,3.7c0.1,0.3,0.4,0.5,0.7,0.6c0.4,0.2,0.8,0.2,1.2,0.2c0.2,0,0.3,0,0.5,0.1c0.1,0.1,0.2,0.1,0.4,0.2
		c0.1,0.1,0.2,0.2,0.3,0.3c0.1,0.2,0.2,0.4,0.2,0.6c0,0.2,0,0.4-0.1,0.6c-0.1,0.2-0.2,0.3-0.4,0.4c-0.3,0.2-0.7,0.3-1.1,0.3
		c-0.5,0-1.3,0-2.4-0.1c-1-0.1-1.8-0.1-2.3-0.1c-0.5,0-1.1,0.1-1.6,0.2c-0.6,0.1-1.2,0.2-1.9,0.2c-0.3,0-0.5-0.1-0.7-0.2
		c-0.2-0.1-0.3-0.2-0.4-0.3c-0.1-0.2-0.2-0.4-0.2-0.6c0-0.3,0.1-0.5,0.3-0.7c0.2-0.2,0.4-0.4,0.6-0.5c0.2-0.1,0.4-0.2,0.5-0.4
		c0,0,0.1-0.1,0.1-0.1c0.3-0.4,0.5-0.8,0.6-1.3c0.1-0.5,0.2-1.4,0.2-2.8v-13.1c0-0.6,0-1.3-0.2-1.9c-0.1-0.3-0.2-0.6-0.4-0.9
		c-0.1-0.1-0.2-0.2-0.4-0.3c-0.4-0.2-0.9-0.3-1.3-0.4c-0.3-0.1-0.6-0.2-0.9-0.4C306.4,144,306.3,143.7,306.3,143.4"/>
	<path class="st4" d="M279.8,166.9c0-0.4,0.2-0.8,0.6-1.1c0,0,0.1-0.1,0.3-0.2c0.1-0.1,0.2-0.1,0.3-0.2c0.4-0.4,0.8-0.8,1.1-1.3
		c0.4-0.8,0.8-1.6,1.1-2.5c0.6-1.8,1.3-3.4,1.9-5c0.6-1.6,1.2-3,1.7-4.4c0.2-0.5,0.9-2.3,2.1-5.5c0.6-1.6,1.1-2.8,1.5-3.6
		c0.2-0.3,0.3-0.7,0.6-1c0.1-0.1,0.2-0.2,0.3-0.3c0.1-0.1,0.2-0.1,0.3-0.2c0.1-0.1,0.3-0.1,0.4-0.1c0.1,0,0.3,0.1,0.4,0.1
		c0.1,0.1,0.2,0.1,0.3,0.2c0.1,0.1,0.3,0.3,0.3,0.5c0.3,0.7,0.6,1.4,0.9,2.1l7.2,18.7c0.3,0.9,0.7,1.5,1,1.9
		c0.3,0.3,0.9,0.5,1.5,0.7c0.2,0,0.3,0.1,0.5,0.2c0.1,0.1,0.2,0.2,0.3,0.4c0.1,0.2,0.2,0.5,0.1,0.8c0,0.3-0.2,0.6-0.4,0.8
		c-0.2,0.2-0.6,0.3-0.9,0.3c-0.8-0.1-1.5-0.2-2.2-0.3s-1.5-0.1-2.5-0.1c-0.6,0-1.2,0.1-1.8,0.1c-0.6,0.1-1.3,0.1-2,0.1
		c-0.3,0-0.6-0.1-0.8-0.3c-0.1-0.1-0.2-0.3-0.3-0.4c-0.1-0.1-0.1-0.3-0.1-0.5c0-0.3,0.1-0.6,0.3-0.8c0.2-0.2,0.4-0.3,0.7-0.4
		c0.2-0.1,0.4-0.2,0.6-0.3c0.1-0.1,0.2-0.2,0.3-0.4c0.1-0.2,0.2-0.5,0.2-0.7c0-0.3-0.1-0.6-0.2-0.9c-0.1-0.4-0.3-1-0.5-1.6
		c-0.2-0.5-0.4-1.1-0.7-1.6c-0.1-0.2-0.2-0.4-0.4-0.6c-0.1-0.1-0.3-0.1-0.5-0.1c-0.4-0.1-0.8-0.1-1.2-0.1H288c-0.1,0-0.3,0-0.4,0.1
		c-0.1,0-0.2,0.1-0.3,0.2c-0.1,0.2-0.3,0.3-0.3,0.5c-0.2,0.4-0.4,0.9-0.6,1.4c-0.4,1.1-0.7,1.8-0.7,2.2c0,0.3,0,0.5,0.1,0.8
		c0,0.1,0.1,0.3,0.2,0.4c0.3,0.3,0.8,0.5,1.6,0.7c0.3,0.1,0.6,0.2,0.9,0.4c0.1,0.1,0.3,0.2,0.4,0.3c0.1,0.2,0.2,0.4,0.2,0.6
		c0,0.2,0,0.3-0.1,0.5c-0.1,0.2-0.2,0.3-0.4,0.4c-0.3,0.2-0.6,0.3-0.9,0.3c-0.5,0-1-0.1-1.5-0.1c-0.4-0.1-0.9-0.1-1.3-0.1
		c-0.4,0-1,0-1.8,0.1c-0.9,0.1-1.5,0.1-1.9,0.1c-0.1,0-0.3,0-0.4-0.1c-0.4-0.1-0.6-0.4-0.7-0.7C279.8,167.2,279.8,167.1,279.8,166.9
		 M293,156.2c-0.7-1.9-1.2-3.3-1.5-4c-0.3-0.7-0.6-1.4-0.9-2.2c-0.8,1.9-1.4,3.5-1.8,4.6c-0.2,0.6-0.4,1-0.5,1.4
		c0,0.1,0,0.1-0.1,0.2L293,156.2"/>
	<path class="st4" d="M266.6,151.6c0,0.3,0,0.6,0.2,0.8c0.1,0.1,0.2,0.3,0.4,0.3c0.1,0,0.3,0,0.7,0c0.4,0,0.9,0,1.5,0
		c0.6,0,1.2-0.1,1.8-0.2c0.4-0.1,0.8-0.3,1.1-0.5c0.3-0.2,0.4-0.5,0.6-0.9c0.2-0.5,0.2-1,0.2-1.5c0-1.4-0.4-2.6-1.3-3.6
		c-0.8-0.9-2-1.4-3.2-1.4c-0.4,0-0.7,0-1.1,0.1c-0.2,0-0.3,0.1-0.5,0.2c-0.1,0.1-0.2,0.2-0.2,0.4c-0.1,0.4-0.1,0.7-0.1,1.1V151.6
		 M266.5,161.4c0,0.7,0.1,1.4,0.2,2c0.1,0.4,0.2,0.8,0.5,1.2c0.2,0.3,0.5,0.4,0.8,0.6c0.5,0.2,1,0.2,1.5,0.2c0.8,0,1.5-0.1,2.3-0.3
		c0.6-0.2,1.1-0.5,1.5-0.9c0.4-0.4,0.7-0.9,0.9-1.4c0.2-0.7,0.3-1.4,0.3-2.1c0-1-0.2-1.8-0.6-2.5c-0.4-0.7-1-1.2-1.7-1.6
		c-0.6-0.3-1.3-0.5-2-0.6c-1-0.2-2-0.2-2.9-0.2c-0.1,0-0.1,0-0.2,0c-0.1,0.1-0.1,0.1-0.2,0.2c-0.2,0.4-0.3,0.9-0.3,1.6
		c0,0.5,0,1.1,0,1.8C266.6,160.5,266.5,161.1,266.5,161.4 M275.4,153.3c1.3,0.5,2.3,1.2,3.1,2.1c0.8,1.1,1.2,2.5,1.2,4.3
		c0,2.6-0.8,4.7-2.4,6.2c-1.6,1.4-3.8,2.2-6.6,2.2c-0.6,0-1.6,0-2.9-0.1c-1.3,0-2.3-0.1-2.9-0.1c-0.5,0-1.2,0-2.1,0.1
		c-1,0.1-1.8,0.1-2.3,0.1c-0.3,0-0.6-0.1-0.9-0.3c-0.1-0.1-0.3-0.3-0.3-0.5c-0.1-0.4-0.1-0.9,0.2-1.2c0.1-0.2,0.3-0.3,0.5-0.4
		c0.2-0.1,0.3-0.1,0.4-0.2c0.4-0.2,0.7-0.5,0.9-0.9c0.2-0.4,0.3-1.1,0.3-1.9V148c0-0.9-0.2-1.7-0.5-2.3c-0.3-0.5-0.8-0.8-1.4-0.9
		c-0.4,0-0.7-0.2-1-0.3c-0.2-0.1-0.3-0.2-0.4-0.4c-0.1-0.2-0.2-0.4-0.2-0.6c0-0.3,0.1-0.6,0.3-0.9c0.2-0.3,0.6-0.5,1-0.5
		c0.3,0,0.8,0,1.5,0.1c0.6,0.1,1.1,0.1,1.5,0.1c0.8,0,1.9-0.1,3.4-0.2c1.6-0.2,2.8-0.2,3.6-0.2c2.7,0,4.8,0.6,6.4,1.8
		c0.8,0.6,1.4,1.3,1.8,2.2c0.4,0.9,0.6,1.8,0.5,2.8c0,1.3-0.5,2.6-1.4,3.6C276.2,152.6,275.8,153,275.4,153.3"/>
	<path class="st4" d="M240.6,159.6c0.7-1.5,1.1-2.5,1.3-3.1c0.3-0.7,0.9-2.3,2-4.9c1.1-2.6,1.9-4.7,2.6-6.3c0.4-0.8,0.6-1.4,0.9-1.8
		c0.3-0.6,0.5-0.9,0.7-1c0.2-0.2,0.4-0.3,0.7-0.4c0.2-0.1,0.4-0.1,0.6-0.1c0.2,0,0.6,0,1.1,0l0.6,0h0.2c0.3,0,0.6,0,0.9-0.1
		c0.4-0.1,0.8-0.1,1.1-0.1c0.2,0,0.3,0,0.5,0.1c0.2,0.1,0.3,0.1,0.5,0.3c0.1,0.1,0.2,0.3,0.3,0.5c0.1,0.2,0.1,0.3,0.1,0.5
		c0,0.3-0.1,0.6-0.3,0.8c-0.2,0.2-0.5,0.3-0.7,0.4c-0.4,0-0.7,0.1-1,0.3c-0.2,0.1-0.4,0.3-0.5,0.6c-0.3,0.7-0.5,1.8-0.5,3.4
		c0,0.1,0,1.3,0.1,3.8c0.1,2.5,0.2,5.1,0.3,7.9c0.1,1.8,0.2,3.1,0.6,3.8c0.1,0.3,0.3,0.5,0.6,0.7c0.3,0.2,0.7,0.4,1.1,0.4
		c0.3,0.1,0.7,0.2,1,0.4c0.2,0.1,0.3,0.3,0.4,0.5c0.1,0.2,0.1,0.4,0.1,0.5c0,0.2-0.1,0.4-0.2,0.6c-0.1,0.2-0.3,0.3-0.5,0.4
		c-0.4,0.1-0.7,0.2-1.1,0.2c-0.7,0-1.3-0.1-2-0.1c-0.6-0.1-1.2-0.1-1.8-0.1c-0.7,0-1.3,0.1-1.9,0.2c-0.7,0.1-1.4,0.2-2.1,0.2
		c-0.3,0-0.6-0.1-0.8-0.2c-0.1-0.1-0.3-0.2-0.4-0.3c-0.1-0.2-0.1-0.3-0.2-0.5c0-0.3,0-0.5,0.2-0.7c0.1-0.2,0.3-0.3,0.5-0.4
		c0.2-0.1,0.3-0.2,0.4-0.2c0.3-0.2,0.6-0.5,0.9-0.8c0.2-0.3,0.2-0.7,0.2-1.2c0-0.9-0.1-3-0.2-6.4c-0.1-1.7-0.1-3.2-0.2-4.3
		c-0.5,1.2-1.1,2.7-2,4.6c-1.4,3.4-2.6,6.2-3.5,8.4c0,0.1-0.1,0.2-0.2,0.5c-0.1,0.3-0.2,0.5-0.3,0.6c-0.1,0.2-0.2,0.4-0.4,0.6
		c-0.1,0.1-0.2,0.2-0.3,0.3c-0.2,0.1-0.3,0.1-0.5,0.1c-0.2,0-0.5-0.1-0.7-0.3c-0.2-0.2-0.3-0.3-0.4-0.5c-0.2-0.3-0.7-1.5-1.5-3.4
		l-4.2-10.7c0,0.8,0,1.8-0.1,3.1c0,2.7-0.1,4.3-0.1,4.8c0,1.3,0.1,2.4,0.5,3.1c0.3,0.6,0.8,1.1,1.4,1.3c0.3,0.1,0.7,0.3,1,0.5
		c0.1,0.1,0.2,0.2,0.3,0.4c0.2,0.3,0.2,0.7,0,1.1c-0.1,0.2-0.2,0.3-0.4,0.4c-0.2,0.1-0.5,0.2-0.8,0.2c-0.6,0-1.2-0.1-1.8-0.1
		c-0.5-0.1-1.1-0.1-1.6-0.1c-0.5,0-0.9,0.1-1.4,0.1c-0.5,0.1-1,0.1-1.6,0.1c-0.2,0-0.3,0-0.5-0.1c-0.2,0-0.4-0.1-0.5-0.3
		c-0.2-0.1-0.3-0.3-0.3-0.5c0-0.2,0-0.3,0-0.5c0-0.3,0.2-0.5,0.4-0.7c0.2-0.2,0.4-0.3,0.6-0.4c0.3-0.1,0.6-0.3,0.9-0.6
		c0.2-0.2,0.3-0.3,0.4-0.5c0.2-0.4,0.3-0.7,0.3-1.1c0.1-0.7,0.1-1.3,0.1-2c0.1-2.7,0.2-5.5,0.3-8.5c0.1-3,0.2-4.5,0.2-4.5
		c0-1.1-0.3-2-0.8-2.8c-0.2-0.3-0.5-0.6-0.9-0.8c-0.3-0.2-0.7-0.2-1-0.2c-0.2,0-0.3,0-0.5-0.1c-0.4-0.1-0.7-0.4-0.8-0.7
		c0-0.2-0.1-0.3-0.1-0.5c0-0.2,0-0.4,0.1-0.6c0.1-0.2,0.3-0.3,0.4-0.4c0.2-0.1,0.5-0.2,0.7-0.2c0.3,0,0.6,0,0.9,0h0
		c0.6,0,1,0.1,1.3,0.1h0l0.1,0c0.4,0,0.7-0.1,1.1-0.1c0.4-0.1,0.9-0.1,1.3-0.1c0.5,0,1,0.1,1.4,0.4c0.4,0.3,0.7,0.7,0.9,1.2
		L240.6,159.6"/>
	<path class="st4" d="M196.4,143c0-0.2,0.1-0.4,0.2-0.5c0.1-0.1,0.2-0.3,0.4-0.3c0.2-0.2,0.5-0.2,0.8-0.3c0.7,0,1.4,0.1,2.1,0.2
		c0.6,0.1,1.3,0.1,1.9,0.2c0.5,0,1.2,0,2.1-0.1c1-0.1,1.7-0.1,2.2-0.1c0.2,0,0.3,0,0.5,0.1c0.2,0,0.4,0.1,0.5,0.2
		c0.1,0.1,0.3,0.3,0.3,0.4c0.1,0.2,0.1,0.4,0.1,0.6c0,0.3-0.1,0.5-0.3,0.7c-0.1,0.1-0.3,0.3-0.5,0.3c-0.1,0.1-0.3,0.1-0.5,0.2
		c-0.2,0.1-0.3,0.1-0.5,0.2c-0.1,0.1-0.2,0.2-0.3,0.4c-0.1,0.1-0.2,0.3-0.2,0.5c-0.1,0.3-0.2,0.7-0.2,1c-0.1,0.9-0.2,2.4-0.2,4.4
		v5.4c0,2.9,0.5,5.1,1.6,6.6c0.5,0.7,1.1,1.2,1.8,1.5c0.8,0.4,1.7,0.5,2.6,0.5c1.5,0,2.7-0.3,3.7-1.1c1-0.7,1.7-1.8,2.2-3.2
		c0.3-0.9,0.5-2.1,0.7-3.6c0.2-1.6,0.2-3.5,0.2-5.7c0-1.5-0.1-2.9-0.2-4.4c-0.1-0.5-0.1-0.9-0.3-1.3c-0.1-0.2-0.1-0.4-0.3-0.6
		c-0.1-0.2-0.3-0.3-0.5-0.4c-0.3-0.1-0.6-0.2-0.8-0.2c-0.2,0-0.4-0.1-0.7-0.1c-0.2,0-0.4-0.1-0.6-0.2c-0.2-0.1-0.3-0.3-0.4-0.4
		c-0.1-0.2-0.1-0.3-0.1-0.5c0-0.2,0-0.4,0.1-0.5c0.1-0.2,0.2-0.3,0.3-0.5c0.3-0.2,0.6-0.3,1-0.3c0.6,0.1,1.3,0.1,2.1,0.2l0.9,0.1
		l0.2,0c0.5,0,1-0.1,1.5-0.1c0.6-0.1,1.1-0.1,1.7-0.1c0.3,0,0.6,0.1,0.8,0.3c0.2,0.2,0.4,0.5,0.4,0.8c0,0.2,0,0.4-0.1,0.6
		c-0.1,0.2-0.2,0.3-0.3,0.4c-0.2,0.1-0.4,0.2-0.6,0.3c-0.2,0.1-0.4,0.1-0.6,0.1c-0.1,0-0.1,0.1-0.2,0.1c-0.1,0.1-0.2,0.2-0.2,0.3
		c-0.2,0.4-0.3,1-0.3,1.7c0,1.4,0,2.9,0,4.6c0,1.7,0,2.6,0,2.6c0,2-0.2,4-0.5,5.9c-0.4,1.8-0.9,3.3-1.5,4.4c-0.8,1.4-2,2.5-3.4,3.2
		c-1.4,0.7-3.2,1.1-5.2,1.1c-1.7,0-3.2-0.2-4.5-0.7c-1.2-0.4-2.3-1.2-3.2-2.2c-0.8-0.9-1.4-2.2-1.8-3.7c-0.4-1.5-0.6-3.2-0.6-5.3
		c0-1,0-2.6,0.1-4.9c0.1-2.2,0.1-3.6,0.1-4.2c0-0.5,0-0.9-0.1-1.4c-0.1-0.3-0.2-0.6-0.3-0.8c-0.2-0.2-0.4-0.4-0.6-0.5
		c-0.4-0.2-0.8-0.3-1.2-0.4c-0.2,0-0.3-0.1-0.5-0.1c-0.2-0.1-0.4-0.2-0.5-0.4c-0.1-0.1-0.2-0.3-0.2-0.5
		C196.4,143.3,196.4,143.2,196.4,143"/>
	<path class="st4" d="M167.4,166.3c1.1-2.1,1.9-3.6,2.3-4.5c0.5-1,1.6-3.3,3.4-7c1.8-3.8,3.3-6.8,4.5-9c0.6-1.1,1.1-2,1.5-2.6
		c0.5-0.8,0.9-1.3,1.1-1.4c0.3-0.3,0.7-0.5,1.2-0.6c0.3-0.1,0.7-0.1,1.1-0.1c0.4,0,1,0,1.9,0.1l1,0l0.3,0c0.5,0,1.1-0.1,1.6-0.1
		c0.7-0.1,1.3-0.1,2-0.1c0.3,0,0.5,0,0.8,0.1c0.3,0.1,0.6,0.2,0.8,0.4c0.2,0.2,0.4,0.4,0.5,0.7c0.1,0.2,0.1,0.5,0.1,0.7
		c0,0.5-0.2,0.9-0.6,1.2c-0.4,0.3-0.8,0.5-1.3,0.5c-0.6,0-1.2,0.2-1.8,0.5c-0.4,0.2-0.7,0.5-0.9,0.8c-0.6,1-0.8,2.6-0.8,5
		c0,0.1,0.1,1.9,0.2,5.5c0.2,3.6,0.3,7.4,0.4,11.4c0.1,2.6,0.4,4.4,1,5.5c0.3,0.4,0.6,0.8,1,1c0.6,0.3,1.2,0.5,1.9,0.7
		c0.6,0.1,1.2,0.3,1.7,0.6c0.3,0.2,0.5,0.4,0.7,0.7c0.1,0.2,0.2,0.5,0.2,0.8c0,0.3-0.1,0.6-0.3,0.9c-0.2,0.3-0.5,0.5-0.8,0.6
		c-0.3,0.1-1,0.2-1.9,0.2c-0.8,0-1.9-0.1-3.5-0.2c-1.4-0.1-2.5-0.2-3.2-0.2c-0.8,0-1.9,0.1-3.4,0.2c-1.6,0.2-2.8,0.2-3.6,0.2
		c-0.5,0-1-0.1-1.4-0.3c-0.2-0.1-0.4-0.3-0.6-0.5c-0.2-0.2-0.2-0.5-0.3-0.7c0-0.4,0.1-0.8,0.3-1.1c0.2-0.3,0.5-0.5,0.9-0.6
		c0.4-0.2,0.6-0.3,0.7-0.3c0.7-0.4,1.2-0.8,1.5-1.2s0.4-0.9,0.4-1.7c0-1.3-0.1-4.3-0.4-9.2c-0.1-2.5-0.2-4.6-0.3-6.2
		c-0.8,1.7-2,3.9-3.4,6.7c-2.5,4.9-4.5,8.9-6.1,12.1c-0.1,0.1-0.2,0.3-0.3,0.7c-0.2,0.3-0.3,0.6-0.5,0.9c-0.2,0.3-0.4,0.6-0.7,0.9
		c-0.2,0.2-0.4,0.3-0.6,0.4c-0.3,0.1-0.6,0.2-0.9,0.1c-0.4,0-0.8-0.2-1.2-0.4c-0.3-0.2-0.5-0.5-0.8-0.7c-0.4-0.5-1.2-2.1-2.6-5
		l-7.3-15.4c0,1.2-0.1,2.7-0.1,4.5c-0.1,3.9-0.1,6.3-0.1,7c0,1.9,0.3,3.4,0.8,4.5c0.5,0.9,1.3,1.5,2.4,1.9c0.8,0.3,1.4,0.6,1.7,0.8
		c0.2,0.1,0.4,0.3,0.6,0.5c0.2,0.2,0.3,0.5,0.3,0.8c0,0.3-0.1,0.5-0.2,0.8c-0.2,0.2-0.4,0.4-0.6,0.6c-0.4,0.2-0.9,0.3-1.4,0.3
		c-0.7,0-1.7-0.1-3.1-0.2c-1.2-0.1-2.1-0.2-2.8-0.2c-0.5,0-1.3,0.1-2.3,0.2c-1.2,0.1-2.1,0.2-2.7,0.2c-0.3,0-0.6,0-0.8-0.1
		c-0.3-0.1-0.6-0.2-0.9-0.4c-0.3-0.2-0.4-0.4-0.5-0.7c-0.1-0.2-0.1-0.5,0-0.7c0-0.3,0.2-0.7,0.7-1c0.4-0.2,0.7-0.4,1.1-0.6
		c0.5-0.2,1-0.5,1.5-0.8c0.3-0.2,0.5-0.5,0.7-0.8c0.3-0.5,0.4-1,0.5-1.6c0.2-0.9,0.2-1.9,0.2-2.8c0.2-3.9,0.3-8,0.5-12.2
		c0.2-4.3,0.3-6.4,0.3-6.5c0-1.6-0.5-2.9-1.4-4c-0.4-0.5-0.9-0.8-1.5-1.1c-0.5-0.2-1.1-0.3-1.7-0.3c-0.3,0-0.6,0-0.8-0.1
		c-0.3-0.1-0.6-0.2-0.9-0.4c-0.2-0.2-0.4-0.4-0.5-0.7c-0.1-0.2-0.1-0.4-0.1-0.7c0-0.3,0.1-0.6,0.3-0.9c0.2-0.3,0.5-0.5,0.8-0.6
		c0.4-0.2,0.8-0.2,1.2-0.3c0.4,0,0.9-0.1,1.5-0.1h0.1c1.1,0.1,1.8,0.1,2.2,0.1h0.1l0.2,0c0.4,0,1.1-0.1,1.9-0.2
		c0.8-0.1,1.5-0.2,2.3-0.2c0.9,0,1.7,0.2,2.4,0.6c0.7,0.4,1.2,1,1.6,1.7L167.4,166.3"/>
</g>
</svg>
