<svg id="Layer_1" data-name="Layer 1" xmlns="http://www.w3.org/2000/svg" viewBox="0 0 1976.33 835.56"><defs><style>.cls-1{fill:#fed09e;}.cls-2{fill:#404041;}.cls-3{fill:#cf9c51;}</style></defs><title>Mumbai-logo</title><path class="cls-1" d="M968.34,242.8H606.18l-5.75-16.44H968.34V242.8M530,252H66.65L62,236H534.56L530,252m1.12,60.13H65.52L63.21,261l3.44-5.41H531.12l2.31,3.69-2.31,52.88m-925.5-50.82V244.88H-11.52L-15,255.23l3.44.34,1.12,5.75h-384m379.42,55v-1.15l1.12-1,1.12-.69,1.2-.23H67.77l1.19.23v.69l1.13,1v3.21l-1.13,1v.68l-1.19.23H-11.52l-1.2-.23-1.12-.68-1.12-1v-2.06m-4.63-3h-353V263.74H-10.4l-2.32,45.41-6.87,4.14m82.8-.92H-7l2.31-52.66-1.12-3-2.31-2.29H64.33L62,257.19l-1.12,3.33,2.31,51.85m-438,36.91v-11h-10.38V327.32H-395.5V315.93H-18.4v33.35H-374.81M544.08,154v-8.62h51.79L597,154V178l1.13,16.33v17l1.19,17.82H540.64V211.3l1.19-17L543,178V163.47l1.12-9.43m-7.21,79.81H60.9l-3.44-83H540.31l-3.44,83M606.18,252H532.64l6.88-20.58h60.91L606.18,252m-5.75-44H951.08v16.32H600.43V208M65.52,252H-9.21l6.88-20.57H58.58L65.52,252m-438.08-9.19V226.37H-5.77l-4.63,16.45H-372.56M2.23,154.05v-8.62H55.14v18L56.33,178V194.3l1.13,17v17.81H-1.21L0,211.32v-17L1.11,178v-14.5l1.12-9.43m-8,53.93v16.33H-356.42V208H-5.77M49.39,587.26h23v3.46h1.13v1.15h2.31v2.3L77,595.31h1.2l2.31,1.15v14.95l2.25,15L87.35,639l4.56,11.5,5.76,9.2,8.06,8,10.39,6.9,5.68,3.45,5.76,3.45,2.31,2.29,1.13,2.31H-74.75v-2.31l10.31-6.89,5.76-3.45,8.07-6.9,8.07-6.89,5.69-9.2L-31.1,639l3.51-12.64,2.24-15,1.19-14.95,1.13-1.15h2.31v-3.44h2.32l1.12-1.15,1.12-1.15v-2.31H49.39M990.17,261.31H605.06l2.25-5.74,2.31-.35-2.31-10.35H990.17v16.44M162.08,521.73h16.07V489.54H165.52l4.63-12.65,5.69-13.79c1.33-3.47,3.58-9,5.19-12.38s4.28-8.69,6.1-11.91,5.06-8.31,7.16-11.36,6-7.73,8.56-10.52,6.88-7.09,9.62-9.61S220,401,223,398.72c4-2.91,10.59-7.44,14.8-10.11s11-6.8,15.3-9.21,11.43-6.12,15.92-8.28l5.69-3.45,5.75-3.45,8.07-4.6,9.2-3.44c6.87,2.8,18,7.74,24.62,11s17.34,8.95,23.8,12.67S362.84,390,369,394.11A177.6,177.6,0,0,1,385,405.59a168.31,168.31,0,0,1,14.24,13.49,163.66,163.66,0,0,1,12.35,15.28c3.09,4.68,7.72,12.52,10.32,17.5s6.39,13.24,8.49,18.45,5,13.83,6.53,19.23H423.05v32.19h16.07V686.14l-8-1.14V529.78H413.86V480.35h11.51c-1.62-4.45-4.49-11.5-6.53-15.76s-5.61-11-8.07-15-6.73-10.33-9.54-14.08A166.13,166.13,0,0,0,390,422.12a168.52,168.52,0,0,0-12.7-11.93,160.72,160.72,0,0,0-14-10.32c-5.69-3.75-15.16-9.52-21.13-12.89s-15.71-8.53-21.82-11.52S304,368,297.73,365.37l-8.07,3.45-4.56,2.3-4.64,2.3-8,4.6c-4.29,2.17-11,5.9-15.16,8.32s-10.6,6.55-14.53,9.2-10.25,7.18-14,10.07c-2.88,2.14-7.44,5.85-10.11,8.27s-6.81,6.56-9.19,9.24-6.18,7.19-8.28,10.09-5.26,7.57-7.09,10.57-4.56,8-6.17,11.14-3.86,8.36-5.12,11.63l-3.45,8L177,480.35h10.31v49.43H170.15V685h-8.07V521.73m-8.07-8-1.12,172.45H136.75l-6.88-8-13.75-8-11.51-9.2-9.19-11.5-5.76-16.1L85,613.71,83.91,593H81.6v-4.61H79.28l-1.12-6.89L73.53,324.44,77,316.17h445l2.32,8.27-4.63,257.08v6.89h-2.25V593h-3.5l-1.13,23L507,637.86,500.1,652.8l-11.51,12.64-11.51,8-9.19,6.9-4.63,5.75H447.19V513.69H431.12v-16.1h16.07c-1.26-4.7-3.51-12.26-5.05-16.88s-4.28-12-6.11-16.49-5.12-11.7-7.22-16.06c-1.9-3.85-5.27-9.91-7.51-13.53s-6.25-9.32-8.84-12.69-7.16-8.64-10.11-11.73c-3.37-3.35-9.12-8.53-12.84-11.57s-9.89-7.68-13.82-10.38-10.53-6.76-14.74-9.09c-5.54-3.38-14.8-8.64-20.56-11.75s-15.16-7.92-21.05-10.74-15.58-7.17-21.61-9.71l-11.51,5.76-9.2,4.6-6.87,3.44-5.76,2.3c-4.49,2.36-11.58,6.4-15.93,9s-11.15,7.09-15.37,10-10.73,7.76-14.66,10.88c-3.16,2.33-8.07,6.34-11,9s-7.36,7.09-10,10-6.6,7.79-8.91,10.93-5.9,8.36-7.93,11.68-5.12,8.81-6.88,12.29-4.42,9.22-5.89,12.81l-5.76,14.95-4.63,11.5L155.21,493l-1.2,4.59h16.14v16.1H154M73.53,585H-17.28l4.56-263.86H67.77L73.53,585m653-96.58V685h-8V476.89l11.51-35.64a91.78,91.78,0,0,1,4.28-9.43,90.3,90.3,0,0,1,5.4-8.86,100.31,100.31,0,0,1,6.39-8.14l33.33-29.9C784,388.24,790.9,394,795,397.71s10.52,10.1,14.24,14.22S818.68,423,822,427.45a148.69,148.69,0,0,1,8.21,15.66,157.87,157.87,0,0,1,6.18,16.56,165.2,165.2,0,0,1,4,17.22V685h-8V488.39H726.55M703.6,686.14h-6.94V372.28h165.6V686.14h-5.75V472.29H842.68L833.49,439a101,101,0,0,0-5-9.57,95.6,95.6,0,0,0-6.18-8.86,101.6,101.6,0,0,0-7.23-8l-35.64-32.19L745,411.36a105,105,0,0,0-6.8,8.11,93.84,93.84,0,0,0-5.76,8.86,96.93,96.93,0,0,0-4.7,9.47l-11.51,34.49H703.6V686.14M613.92,355H965.69V686.14H866.82V367.67L691,368.82V686.14H674.83a14.11,14.11,0,0,0-4.21-7.89,17.15,17.15,0,0,0-3.86-2.45l-24.14-18.4a91.79,91.79,0,0,1-6.31-9.95,99.48,99.48,0,0,1-4.64-10.82,89.31,89.31,0,0,1-2.8-11.42c-.7-2.92-1.48-7.68-1.83-10.64a92.36,92.36,0,0,1-.77-10.76c-.07-3,.07-7.82.28-10.79l-5.75-3.45-1.13-5.75L613.92,355M615.38,585h-92l5.75-263.86h80.49L615.38,585M605.06,312.36H534.89l1.19-52.66-1.19-3-1.12-2.3h72.41l-3.43,2.76v3.34l2.31,51.85m10.32.92-8.07-4.14-1.13-45.41h361v49.55H615.38m-88.49,3v-1.15l1.12-1v-.69l1.12-.22h80.49v.22l1.2.69,1.12,1v3.22l-1.12,1-1.2.68v.23H529.13l-1.12-.23v-.68l-1.12-1v-2.07m443.77,33H614.25V315.92H990.17v11.39H981v10.92H970.66v11M-228.85,686.14h-5.75V489.54h98.87v196.6H-138V560.82H-146l-6.88-20.7L-163.31,524l-19.5-18.39-21.9,19.55L-215,540.12l-5.76,20.7h-8.07V686.14m120.77,0V472.29H-121.9l-10.32-34.49c-1.26-2.7-3.58-7-5.12-9.52s-4.28-6.51-6.11-8.85-5.12-6-7.22-8.07l-34.46-31.05-35.65,32.19a101.59,101.59,0,0,0-6.87,8.07,91.48,91.48,0,0,0-5.76,8.87A95.92,95.92,0,0,0-238,439l-10.31,33.34H-261V686.14h-6.95V372.28h166.72V686.14h-6.87M-236.85,488.39V685h-8.07V476.89a162.79,162.79,0,0,1,3.65-17.17,153,153,0,0,1,5.76-16.56,162.09,162.09,0,0,1,7.86-15.71c3.43-4.46,9.33-11.44,13.12-15.56s10.38-10.48,14.66-14.22,11.3-9.44,15.86-12.75l32.21,29.9a103.29,103.29,0,0,1,6.81,8.09,92.47,92.47,0,0,1,5.75,8.86,94.89,94.89,0,0,1,4.7,9.48l10.32,35.64V685h-6.87V488.39H-236.85M-19.59,355l-5.76,228.79v5.75L-31.1,593c.28,3,.42,7.8.35,10.79s-.42,7.8-.77,10.76-1.2,7.72-1.83,10.64a91.4,91.4,0,0,1-3.23,11.48,99.54,99.54,0,0,1-5.05,10.82,92,92,0,0,1-6.66,9.89l-24.14,18.4a17.15,17.15,0,0,0-3.86,2.45,18.19,18.19,0,0,0-2.81,3.59,18.34,18.34,0,0,0-1.4,4.3H-96.64V368.82l-175.85-1.15V686.14h-97.75V355H-19.59M823.17,560.82H815.1l-5.75-20.7L799,525.19l-20.7-19.55L757.63,524l-10.38,16.09-6.88,20.7h-6.88V686.14h-3.43V489.54h98.87v196.6h-5.76V560.82m-233,26.43h24.13v3.46l1.13,1.14h2.31v2.3l1.12,1.15H620l2.24,1.15V611.4l2.32,15L629.2,639l4.56,11.48,5.75,9.2,8.07,8.05,9.2,6.9,6.88,3.45,5.75,3.45,2.31,2.29,1.13,2.31H465.91l1.19-2.31,10.32-6.89,5.75-3.45,8.07-6.9,8-6.9,5.75-9.2L510.75,639l3.44-12.65,2.31-15V596.45l2.32-1.15h2.32v-3.45h2.24l1.19-1.14v-1.15h1.13v-2.31h64.42M540.31,149H57.46l-1.13-33.34H541.51L540.31,149M726.55,472.29h103.5V470H726.55v2.29M-131.09,470H-235.72v2.29h104.63V470M1285.33,696.49v12.64H-691V696.49h281.67v-4.6H1004.78v4.6h280.55M27.56,14.48v-3.9L26.44,9.19V6l1.12-1v-1h1.13V7.12l1.19,1.73-1.19,1.38v4.61l12.7,16.77,6.87,15L49.39,67l1.19.46,1.12.57v1.5l1.12,1.6H3.42V68.64l1.12-.58v-.57L5.74,67,8,46.45l5.76-15.07,13.82-16.9M2.23,75.19V73.58L3.42,73l1.12-.12H51.7l1.12.12v.57l1.2.69v1.84l-1.2.68v.47l-1.12.23H4.54l-1.12-.23-1.19-.47v-1.6m0,68.87V126.58l1.19-16.67L4.54,94.16V79.22H51.7V94.16l1.12,15.75v16.67L54,144.06H2.23M569.41,14.47V11.36l-1.19-.8V4.93l1.19-.58V3.89l1.12.12V14.82L583.17,31.6l7,14.94L591.24,67l1.12.47,1.19.56v3.11H545.27V68.62L546.4,68v-.56l1.19-.47,2.24-20.57,5.76-15.07,13.82-16.9M544.08,75.18V73.57l1.19-.58,1.13-.11h47.15l1.12.69v.68l1.2.93-1.2.92v.68l-1.12.46v.23H546.4l-1.13-.23-1.19-.46v-1.6M543,144l1.12-17.47,1.19-16.67V94.15l1.13-15h47.15v15l1.12,15.75v16.67l1.2,17.47H543M37.88,124.85V82.55H49.39V110l1.19,14.83v15.53H37.88V124.85m-16.07,0V96l1.12-13.44H34.44v57.83H21.81V124.85m-16.07,0V110L6.86,96V82.55H18.37v42.3l-1.19,15.53H4.54l1.2-15.53m574,0V96L578.6,82.54h11.52L591.24,96v14l1.12,14.83v15.53H579.73V124.84m-16.07,0V82.54h12.63v57.83H563.66V124.84m-16.07,0V110l1.12-14V82.54h11.51V110L559,124.84v15.53H546.4l1.19-15.53" transform="translate(691 -3.89)"/><path class="cls-2" d="M517.14,568.82h.1a81,81,0,0,0,16.2-1.41,47.52,47.52,0,0,0,12.25-4.33,41.19,41.19,0,0,0,6.81-4.66,78.76,78.76,0,0,0,8.17-8c.59-.62,2-2.25,4.24-4.84a46.92,46.92,0,0,1,3.89-4.12,19,19,0,0,1,2.48-1.95,13.72,13.72,0,0,1,2.22-1.16,11.73,11.73,0,0,1,4.47-.88,12.73,12.73,0,0,1,6.29,1.57,13.06,13.06,0,0,1,4.85,4.75,15.59,15.59,0,0,1,2.22,8.3c-.14,14.29-4.06,26-11.32,35.32A40.65,40.65,0,0,1,566.24,599a38,38,0,0,1-17.42,4q-8.19,0-24.6-1.15-15.37-1.1-23.09-1.11c-3.29,0-8.2.37-14.74,1.07-7.59.81-13.18,1.19-16.78,1.19a17.6,17.6,0,0,1-8.06-1.84,13.67,13.67,0,0,1-5.26-4.45,12.65,12.65,0,0,1-2.17-6.1A13.09,13.09,0,0,1,457.39,580a17.12,17.12,0,0,1,6.43-4.78,10.1,10.1,0,0,0,2.77-1.6,3,3,0,0,0,.9-1.21c1.21-3.12,1.53-8.37,1.53-15.6V455.45a25.87,25.87,0,0,0-.76-6.92,6.22,6.22,0,0,0-1.15-2.47,4.94,4.94,0,0,0-2-1.21,22.09,22.09,0,0,0-6.24-1.2h-.16a15.62,15.62,0,0,1-9.93-4.51,14.43,14.43,0,0,1-4.41-10.61,15,15,0,0,1,3.7-10,14.21,14.21,0,0,1,5.37-4,14.46,14.46,0,0,1,6.75-1.08c2.2.13,5.8.51,10.69,1.17a74.44,74.44,0,0,0,9.53.82c3.57,0,8.92-.41,16-1.19,8.18-.89,14.32-1.31,18.39-1.31a19.73,19.73,0,0,1,10.1,2.38,13.55,13.55,0,0,1,5.38,5.52,14.4,14.4,0,0,1-4.25,17.8,19.33,19.33,0,0,1-8,3.52l-.36.06-.37.48c-.89,2.49-1.08,6.2-1.08,11V556.56c0,5.47.09,9.62.87,12.26M242.57,419.91a25.51,25.51,0,0,1,3.82-1.94,14.27,14.27,0,0,1,7.82-.92,13.56,13.56,0,0,1,9,5.53,12.48,12.48,0,0,1,2.2,5.47,27.93,27.93,0,0,1,.33,2.87c.11,1.61.17,3.9.17,6.84a132,132,0,0,0,1.46,15.8A153.27,153.27,0,0,1,269,472.35a19.47,19.47,0,0,1-1.56,7.66,14.55,14.55,0,0,1-3.27,4.84,12.49,12.49,0,0,1-7.49,3.57,13.12,13.12,0,0,1-6.91-.93,13.74,13.74,0,0,1-5.63-4.6,19.26,19.26,0,0,1-3.29-8.62c-1.22-8.44-5.31-15.89-12-22.56a38.28,38.28,0,0,0-9.75-7.3,20.44,20.44,0,0,0-9.13-2.25,11.92,11.92,0,0,0-8.7,4,13.23,13.23,0,0,0-4,9.51,10.47,10.47,0,0,0,2.56,6.47c2.49,3.18,6.25,6,11.08,8.61q14.55,7.82,25.05,13.52c7.62,4.15,11.82,6.56,12.33,6.92l.31.23a60.68,60.68,0,0,1,17.73,21.69,63.23,63.23,0,0,1,6,27.74c0,17.29-5.35,32.2-15.91,44.8-11.25,13.4-24.82,19.84-40.5,19.84a47.07,47.07,0,0,1-8.82-1.13q-4.64-.95-15.48-3.63l-.1,0-.1,0a131.88,131.88,0,0,1-14.78-5,38.63,38.63,0,0,1-5.44-2.75,14.57,14.57,0,0,1-5.54-5.56c-.37-.62-1.44-3.2-2.71-8.84q-1.17-5.26-3.19-15.23c-2.9-14.37-4.18-22.53-4.18-24.49a19.54,19.54,0,0,1,2.19-9.77,14,14,0,0,1,4.21-4.72,13.38,13.38,0,0,1,5.8-2.22,11.58,11.58,0,0,1,7.37,1,13.83,13.83,0,0,1,4.52,3.34,16.35,16.35,0,0,1,3.71,6.44c4.54,14.26,9.94,25.19,16.56,32.44C205,571,210.74,574,217.42,574c4.2,0,7.74-2.09,10.92-5.63a20.54,20.54,0,0,0,5.52-14.11,16,16,0,0,0-5.39-12c-5.22-4.92-13.85-9.65-25.65-14.52-14.66-6.14-25.48-14.2-32.78-23.86-7.71-10.19-11.66-22.18-11.66-36.06,0-15.67,4.9-29,14.49-39.92,10.13-11.58,22.52-17.25,37.07-17.25,7.3,0,15.59,1.88,24.8,5.93q4.84,2.13,7.83,3.3M48.3,509.54H62.69q-4.83-13.05-7-18.54c-.06-.15-.12-.29-.17-.44q-3.81,9.82-6.36,16.71c-.3.79-.58,1.55-.84,2.27m25.87,34.75-.37-.06a43.72,43.72,0,0,0-7.42-.48H37.28a1.72,1.72,0,0,0-.56.07l-.25.11a18.92,18.92,0,0,0-.92,1.76,83.39,83.39,0,0,0-3.85,8.59c-2.42,6.09-4,10.32-4,12.73a15.26,15.26,0,0,0,.26,3.18l.5.9c1.62,1.2,4.32,2.06,7.75,3.09A23.7,23.7,0,0,1,44,577.47a15.22,15.22,0,0,1,4,3.88,12.81,12.81,0,0,1,2.43,7.55,14.5,14.5,0,0,1-1.23,6,13.44,13.44,0,0,1-4.41,5.47,15.88,15.88,0,0,1-9.71,2.95,80.92,80.92,0,0,1-11.41-1.1,58.94,58.94,0,0,0-8.05-.85c-2.52,0-6.37.28-11.55.8q-9.25.92-13.83.91a17.61,17.61,0,0,1-4.58-.57,13.08,13.08,0,0,1-6.15-3.59,13.05,13.05,0,0,1-3.24-5.81,13.92,13.92,0,0,1-.44-4.79,14.94,14.94,0,0,1,1.74-6.65,15.21,15.21,0,0,1,4.94-5.49c.34-.22,1.17-.74,2.61-1.57a12.12,12.12,0,0,0,1.4-1,25.13,25.13,0,0,0,5.74-7.2A105.58,105.58,0,0,0-.52,550.61q6.62-17.88,12.75-34t11.55-29.9q2-5.19,14.18-37.15,6.34-16.67,10.4-24.9a54.57,54.57,0,0,1,4.31-7.51,18.46,18.46,0,0,1,3.23-3.51,12.85,12.85,0,0,1,3.27-2,11.77,11.77,0,0,1,6-.89,12.42,12.42,0,0,1,5,1.65,14.58,14.58,0,0,1,3.12,2.43,21.55,21.55,0,0,1,3.32,4.56,149,149,0,0,1,6.55,15.32l49,127c1.89,4.87,3.55,8.48,5.58,10.39,1.67,1.55,4.26,2.41,7.46,3.14a13,13,0,0,1,5.73,2.69,14.17,14.17,0,0,1,3.58,4.39,15.3,15.3,0,0,1,1.72,9.11,14.22,14.22,0,0,1-4.57,9,13.51,13.51,0,0,1-5.27,3.08,13.67,13.67,0,0,1-6.08.39c-5.31-.9-10.15-1.51-14.67-1.85s-10-.51-16.27-.51a114.06,114.06,0,0,0-11.81.9,136.33,136.33,0,0,1-14,1,14.25,14.25,0,0,1-9.86-3.66,13.52,13.52,0,0,1-3.67-5.35,14.78,14.78,0,0,1-1-5.36,13.66,13.66,0,0,1,4-9.84A18.65,18.65,0,0,1,79.79,575c1.11-.43,2-.79,2.69-1.1l.72-.9a5.41,5.41,0,0,0,.32-1.82,20.69,20.69,0,0,0-.89-4.65q-1.17-4.37-3.49-10.65a98.09,98.09,0,0,0-4.23-10.18c-.27-.53-.51-1-.74-1.44m288.55,0-.37-.06a43.72,43.72,0,0,0-7.42-.48h-29.1a1.72,1.72,0,0,0-.56.07l-.25.11a18.62,18.62,0,0,0-.93,1.76,85.86,85.86,0,0,0-3.84,8.59c-2.42,6.09-4,10.32-4,12.73a14.61,14.61,0,0,0,.26,3.18l.5.9c1.62,1.19,4.31,2.06,7.75,3.09a23.8,23.8,0,0,1,7.79,3.29,15.22,15.22,0,0,1,4,3.88A12.8,12.8,0,0,1,339,588.9a14.63,14.63,0,0,1-1.22,6,13.5,13.5,0,0,1-4.41,5.47,15.89,15.89,0,0,1-9.72,2.95,80.81,80.81,0,0,1-11.4-1.1,59.09,59.09,0,0,0-8.05-.85c-2.52,0-6.37.28-11.55.8q-9.25.92-13.83.91a17.61,17.61,0,0,1-4.58-.57,13,13,0,0,1-6.15-3.59,12.86,12.86,0,0,1-3.24-5.81,13.92,13.92,0,0,1-.44-4.79,14.94,14.94,0,0,1,1.74-6.65,15.29,15.29,0,0,1,4.94-5.49c.35-.23,1.17-.74,2.6-1.57a12.47,12.47,0,0,0,1.42-1,25.43,25.43,0,0,0,5.73-7.2A105.58,105.58,0,0,0,288,550.61q6.62-17.88,12.75-34t11.55-29.9q2-5.19,14.18-37.15,6.33-16.67,10.4-24.9a54.57,54.57,0,0,1,4.31-7.51,19.13,19.13,0,0,1,3.22-3.51,13.06,13.06,0,0,1,3.28-2,11.74,11.74,0,0,1,6-.89,12.57,12.57,0,0,1,5.05,1.65,14,14,0,0,1,3.11,2.43,20.87,20.87,0,0,1,3.33,4.56,149,149,0,0,1,6.55,15.32l49,127c1.88,4.87,3.55,8.48,5.58,10.39,1.67,1.55,4.26,2.41,7.46,3.14a13,13,0,0,1,5.73,2.69,14.17,14.17,0,0,1,3.58,4.39,15.25,15.25,0,0,1,1.71,9.12,14.16,14.16,0,0,1-4.56,9,13.51,13.51,0,0,1-5.27,3.08,13.68,13.68,0,0,1-6.08.39c-5.31-.9-10.15-1.51-14.67-1.85s-10-.51-16.27-.51a114.25,114.25,0,0,0-11.81.9,136.52,136.52,0,0,1-14,1,14.25,14.25,0,0,1-9.86-3.66,13.44,13.44,0,0,1-3.66-5.34,15,15,0,0,1-1-5.37,13.69,13.69,0,0,1,4-9.84,18.7,18.7,0,0,1,6.63-4.27c1.1-.43,2-.79,2.69-1.1l.72-.9a5.41,5.41,0,0,0,.32-1.82,20.69,20.69,0,0,0-.89-4.65q-1.17-4.37-3.49-10.65a99,99,0,0,0-4.23-10.18c-.27-.53-.51-1-.74-1.44m-25.87-34.75h14.39q-4.83-13.05-7-18.54l-.18-.44q-3.8,9.82-6.36,16.71l-.83,2.27m349.79,34.75-.37-.06a43.72,43.72,0,0,0-7.42-.48h-29.1a1.72,1.72,0,0,0-.56.07l-.25.11c-.29.4-.54,1-.93,1.76a85.86,85.86,0,0,0-3.84,8.59c-2.42,6.09-4,10.32-4,12.73a14.61,14.61,0,0,0,.26,3.18l.5.9c1.62,1.19,4.31,2.06,7.75,3.09a23.7,23.7,0,0,1,7.79,3.29,15.22,15.22,0,0,1,4,3.88,12.81,12.81,0,0,1,2.43,7.55,14.46,14.46,0,0,1-1.23,6,13.42,13.42,0,0,1-4.41,5.47,15.89,15.89,0,0,1-9.72,2.95,80.81,80.81,0,0,1-11.4-1.1,58.94,58.94,0,0,0-8-.85c-2.52,0-6.37.28-11.55.8q-9.25.92-13.83.91a17.61,17.61,0,0,1-4.58-.57,13.08,13.08,0,0,1-6.15-3.59,12.86,12.86,0,0,1-3.24-5.81,14.15,14.15,0,0,1-.45-4.79A15.14,15.14,0,0,1,595,576.13c.35-.23,1.17-.74,2.6-1.57a12.47,12.47,0,0,0,1.42-1,25.43,25.43,0,0,0,5.73-7.2A105.58,105.58,0,0,0,612,550.61q6.62-17.88,12.76-34t11.54-29.9q2-5.19,14.18-37.15,6.35-16.67,10.4-24.9a54.57,54.57,0,0,1,4.31-7.51,19.13,19.13,0,0,1,3.22-3.51,13.06,13.06,0,0,1,3.28-2,11.74,11.74,0,0,1,6-.89,12.57,12.57,0,0,1,5,1.65,14.27,14.27,0,0,1,3.12,2.43,21.2,21.2,0,0,1,3.32,4.56,151.43,151.43,0,0,1,6.55,15.32l49,127c1.89,4.87,3.55,8.48,5.58,10.39,1.67,1.55,4.26,2.41,7.46,3.14a13,13,0,0,1,5.73,2.69,14,14,0,0,1,3.58,4.39,15.25,15.25,0,0,1,1.71,9.12,14.16,14.16,0,0,1-4.56,9,13.51,13.51,0,0,1-5.27,3.08,13.68,13.68,0,0,1-6.08.39c-5.31-.9-10.15-1.51-14.67-1.85s-10-.51-16.27-.51a114.25,114.25,0,0,0-11.81.9,136.37,136.37,0,0,1-14,1,14.26,14.26,0,0,1-9.87-3.66,13.54,13.54,0,0,1-3.66-5.34,15,15,0,0,1-1-5.37,13.71,13.71,0,0,1,4-9.84,18.56,18.56,0,0,1,6.62-4.27c1.11-.43,2-.79,2.69-1.1l.72-.9a5.41,5.41,0,0,0,.32-1.82,20.69,20.69,0,0,0-.89-4.65q-1.17-4.37-3.49-10.65a99,99,0,0,0-4.23-10.18c-.27-.53-.51-1-.74-1.44m-25.87-34.75h14.39q-4.83-13.05-7-18.54l-.18-.44q-3.8,9.82-6.35,16.71c-.3.79-.58,1.55-.84,2.27" transform="translate(691 -3.89)"/><path class="cls-2" d="M-202.06,557.92q4.83-9.7,23.29-47.94,18.65-38.89,31-61.66,6.34-11.73,10.44-18.26c4.1-6.55,7.45-10,9.27-11.35a27.47,27.47,0,0,1,10.21-5,38.58,38.58,0,0,1,8.62-.85q3.8,0,13.51.37l6.92.26,1.93.08c2.37,0,5.61-.29,10.07-.79a137.13,137.13,0,0,1,14.07-1,27.7,27.7,0,0,1,7,.85,20.77,20.77,0,0,1,7.56,3.61,17.29,17.29,0,0,1,5.51,7,18.18,18.18,0,0,1,1.42,7.2,16.23,16.23,0,0,1-6.09,12.82,21.92,21.92,0,0,1-12.1,5.07,28.59,28.59,0,0,0-10,2.46,8.93,8.93,0,0,0-3.72,3.29c-1.64,2.73-2.7,6.49-3.44,11.18a126.54,126.54,0,0,0-1.23,19.48q0,.87,1.53,37.48,1.53,37.13,3,77.34c.63,16.16,2.34,27.75,6.23,34.38a13.22,13.22,0,0,0,4.91,4.66,34,34,0,0,0,10.94,3.67,34.71,34.71,0,0,1,13.66,4.87A20.28,20.28,0,0,1-31,653.86a16.25,16.25,0,0,1,2.27,8.42,15.44,15.44,0,0,1-3.23,9.78,18.71,18.71,0,0,1-8.5,5.91c-2.76,1-7.73,1.95-15.2,1.95-5.43,0-13.51-.49-24.22-1.52-9.32-.89-16.34-1.37-21.07-1.37-5,0-12.43.53-22.23,1.54-11.29,1.16-19.63,1.71-25,1.71a26.58,26.58,0,0,1-12.24-2.6,17.75,17.75,0,0,1-6.31-5.19,15.67,15.67,0,0,1-3-7.94A15.41,15.41,0,0,1-166,652.72a23.66,23.66,0,0,1,7.83-5.94c2.16-1.07,3.62-1.78,4-2l.11-.08.11-.06c3.62-2.06,6.55-4,8-6.11A6.66,6.66,0,0,0-145,636a28.12,28.12,0,0,0,.41-5.37q0-13.11-2.59-62.17-.54-10.41-1-19.3-5.62,11.11-12.58,25-25.2,50.14-41.39,82.26c-.46.87-1.2,2.37-2.34,4.71-1.51,3.08-2.72,5.32-3.7,6.88a30.37,30.37,0,0,1-5.83,7.34,19.87,19.87,0,0,1-6,3.67,17.88,17.88,0,0,1-9,1.23,21.39,21.39,0,0,1-10.84-4,31.06,31.06,0,0,1-6.54-6.32c-2.61-3.32-8.81-14.89-18.19-35l-38.62-81.22c0,1.44-.06,2.93-.09,4.44q-.8,40.15-.79,47.49c0,11.74,1.38,20.93,4.92,27.37,2.63,4.79,6.88,8.1,12.63,10.06l.1,0,.1,0c6.38,2.42,10.44,4.49,12.74,6.07a21.36,21.36,0,0,1,5.4,5.17,15.35,15.35,0,0,1,3,9.07,15.34,15.34,0,0,1-2.48,8.56,17.53,17.53,0,0,1-6.53,5.82,25.28,25.28,0,0,1-12.25,2.91c-5,0-12.24-.48-21.74-1.5-8-.85-14.07-1.31-18.25-1.31-3.4,0-8.52.4-15.37,1.14-8.4.9-14.71,1.32-18.95,1.32a35.35,35.35,0,0,1-7-.64,20.69,20.69,0,0,1-8.51-3.69,16,16,0,0,1-5.83-8.19,16.27,16.27,0,0,1-.43-7.92c.51-3.33,2.24-7.11,6.9-10.58a48.93,48.93,0,0,1,8.79-4.75,41.6,41.6,0,0,0,8.83-4.67,11.13,11.13,0,0,0,3-3.37,27.35,27.35,0,0,0,2.86-8.88,125.29,125.29,0,0,0,1.49-18.39c1.06-26.48,2.21-54.21,3.45-83.4q1.83-43.27,1.84-44.22c0-9.09-2.5-16.77-8.05-22.83a23.43,23.43,0,0,0-7.95-5.9,22.74,22.74,0,0,0-9.24-1.79,31.94,31.94,0,0,1-7.15-.75,20.29,20.29,0,0,1-8.52-4.08,17.16,17.16,0,0,1-5.08-7,18.69,18.69,0,0,1-1.25-6.85,16.19,16.19,0,0,1,2.9-9.53,18.67,18.67,0,0,1,7.61-6.16,30.51,30.51,0,0,1,10.26-2.37q4.08-.37,10.72-.38h.8q11,.54,15.17.8l.59.05,1.28.17c2.84-.08,6.73-.46,11.68-1.08a142,142,0,0,1,16.24-1.36,37.91,37.91,0,0,1,19.77,5.08,33.86,33.86,0,0,1,13.07,14.17l70.41,145.63q7-13.24,10.06-19.49" transform="translate(691 -3.89)"/><path class="cls-3" d="M594.48,588.62a9.37,9.37,0,0,1,1-4.12,9,9,0,0,1,3-3.27c.24-.17,1-.6,2.2-1.33a17.21,17.21,0,0,0,2.16-1.46,30.58,30.58,0,0,0,7.21-8.92,110.36,110.36,0,0,0,7.67-16.72q6.63-17.91,12.75-34T642,489q2.06-5.2,14.21-37.21,6.19-16.31,10.17-24.37a47.19,47.19,0,0,1,3.77-6.61,13.34,13.34,0,0,1,2.13-2.36,7,7,0,0,1,1.75-1.06,5.72,5.72,0,0,1,2.91-.44,6.32,6.32,0,0,1,2.63.86,8.2,8.2,0,0,1,1.79,1.4,15,15,0,0,1,2.34,3.25A145.54,145.54,0,0,1,689.89,437l49,127c2.33,6,4.62,10.33,7.12,12.67,2.33,2.19,5.85,3.67,10.42,4.69a7,7,0,0,1,3.1,1.44,8.08,8.08,0,0,1,2,2.48,9.2,9.2,0,0,1,1,5.51,8.12,8.12,0,0,1-2.61,5.17,7.29,7.29,0,0,1-2.87,1.7,7.39,7.39,0,0,1-3.33.2c-5.43-.92-10.46-1.55-15.15-1.9s-10.31-.54-16.74-.54a121.66,121.66,0,0,0-12.51.94,129.54,129.54,0,0,1-13.29,1,8.24,8.24,0,0,1-5.74-2.09,7.46,7.46,0,0,1-2-2.93,8.74,8.74,0,0,1-.55-3.16,7.71,7.71,0,0,1,2.29-5.53,12.59,12.59,0,0,1,4.45-2.82,41.61,41.61,0,0,0,4.4-1.92,5.55,5.55,0,0,0,2.11-2.66,11.8,11.8,0,0,0,1.13-5,26.57,26.57,0,0,0-1.1-6.24q-1.22-4.59-3.66-11.2a104.94,104.94,0,0,0-4.51-10.84c-1-1.88-1.67-3.25-2.42-3.84a7.66,7.66,0,0,0-3.14-1,51,51,0,0,0-8.5-.57h-29.1a7.82,7.82,0,0,0-2.62.42,8,8,0,0,0-2.2,1.19,14.56,14.56,0,0,0-2.37,3.59,89.43,89.43,0,0,0-4.15,9.24c-2.85,7.19-4.45,12.18-4.45,15a19.06,19.06,0,0,0,.68,5.52,5.85,5.85,0,0,0,1.4,2.53c2,1.93,5.74,3.52,11,5.1a17.89,17.89,0,0,1,5.92,2.42,9.63,9.63,0,0,1,2.44,2.33,6.77,6.77,0,0,1,1.3,4,8.3,8.3,0,0,1-.71,3.44,7.26,7.26,0,0,1-2.4,3,9.91,9.91,0,0,1-6.06,1.75,76,76,0,0,1-10.47-1,65.23,65.23,0,0,0-9-.92q-4,0-12.17.83c-5.89.59-10.3.87-13.21.87a11.59,11.59,0,0,1-3-.35,7.05,7.05,0,0,1-3.31-1.9,7,7,0,0,1-1.71-3.09,8.56,8.56,0,0,1-.25-2.87m89.58-72.89q-7.32-19.86-10.17-27-2.68-6.76-6-14.89-7.77,19.79-12.05,31.3-2.24,6-3.34,9.32c-.17.5-.33.93-.47,1.29h32.07" transform="translate(691 -3.89)"/><path class="cls-3" d="M450.54,428.52a9.07,9.07,0,0,1,2.24-6,8.11,8.11,0,0,1,3.05-2.3,8.36,8.36,0,0,1,3.93-.61c2.15.13,5.59.5,10.27,1.13a81.49,81.49,0,0,0,10.36.87q5.58,0,16.71-1.22,11.83-1.27,17.72-1.27a13.87,13.87,0,0,1,7,1.52,7.56,7.56,0,0,1,3,3,7.75,7.75,0,0,1,.73,4.33,8.21,8.21,0,0,1-3.27,5.74,13.53,13.53,0,0,1-5.47,2.36,7.6,7.6,0,0,0-3.18,1.29,5.48,5.48,0,0,0-1.68,2.21c-1.32,3-1.84,7.72-1.84,14.09V556.56c0,7.78.51,13.22,1.95,16.19a3.32,3.32,0,0,0,1.48,1.55,8,8,0,0,0,3.73.71,87.5,87.5,0,0,0,17.46-1.54,54.06,54.06,0,0,0,13.84-4.9,47.54,47.54,0,0,0,7.9-5.38,82.31,82.31,0,0,0,8.79-8.61c.61-.65,2-2.28,4.38-5A47,47,0,0,1,573,546a13.18,13.18,0,0,1,1.65-1.3,8.32,8.32,0,0,1,1.2-.63,5.63,5.63,0,0,1,2.14-.42,6.62,6.62,0,0,1,3.29.79,6.89,6.89,0,0,1,2.56,2.56,9.58,9.58,0,0,1,1.32,5.07c-.13,12.7-3.53,23.16-10,31.52a34.49,34.49,0,0,1-11.68,9.88,31.88,31.88,0,0,1-14.62,3.37q-8,0-24.17-1.14-15.66-1.1-23.52-1.11c-3.44,0-8.57.38-15.39,1.1-7.3.78-12.68,1.15-16.13,1.15a11.52,11.52,0,0,1-5.27-1.17,7.5,7.5,0,0,1-2.95-2.43,6.7,6.7,0,0,1-1.12-3.29,7.34,7.34,0,0,1,1.87-6,11.1,11.1,0,0,1,4.15-3.07c3.47-1.47,5.89-3.45,7-6.25,1.39-3.57,2-9.54,2-17.84V455.45a32.1,32.1,0,0,0-1-8.6,12.17,12.17,0,0,0-2.49-4.91,11.07,11.07,0,0,0-4.41-2.86,27.88,27.88,0,0,0-8-1.61,9.65,9.65,0,0,1-6.16-2.73,8.47,8.47,0,0,1-2.59-6.22" transform="translate(691 -3.89)"/><path class="cls-3" d="M270.56,588.62a9.51,9.51,0,0,1,1-4.12,9.1,9.1,0,0,1,3-3.27c.24-.17,1-.6,2.2-1.33a17.21,17.21,0,0,0,2.16-1.46,30.74,30.74,0,0,0,7.21-8.92,110.36,110.36,0,0,0,7.67-16.72q6.63-17.91,12.75-34T318.09,489q2.06-5.2,14.21-37.21,6.19-16.31,10.17-24.37a47.19,47.19,0,0,1,3.77-6.61,13.34,13.34,0,0,1,2.13-2.36,7,7,0,0,1,1.75-1.06,5.75,5.75,0,0,1,2.91-.44,6.32,6.32,0,0,1,2.63.86,8.2,8.2,0,0,1,1.79,1.4,15,15,0,0,1,2.34,3.25A146.42,146.42,0,0,1,366,437l49,127c2.33,6,4.62,10.33,7.12,12.67,2.33,2.19,5.85,3.67,10.41,4.69a6.89,6.89,0,0,1,3.11,1.44,8.08,8.08,0,0,1,2,2.48,9.2,9.2,0,0,1,1,5.51,8.12,8.12,0,0,1-2.61,5.17,7.12,7.12,0,0,1-6.2,1.9c-5.43-.92-10.46-1.55-15.15-1.9s-10.31-.54-16.74-.54a121.66,121.66,0,0,0-12.51.94,129.49,129.49,0,0,1-13.3,1,8.25,8.25,0,0,1-5.73-2.09,7.36,7.36,0,0,1-2-2.93,8.74,8.74,0,0,1-.56-3.16,7.72,7.72,0,0,1,2.3-5.53,12.5,12.5,0,0,1,4.45-2.82,41.61,41.61,0,0,0,4.4-1.92,5.55,5.55,0,0,0,2.11-2.66,11.8,11.8,0,0,0,1.13-5,26.57,26.57,0,0,0-1.1-6.24q-1.21-4.59-3.66-11.2A102.49,102.49,0,0,0,369,542.93c-1-1.88-1.66-3.25-2.42-3.84a7.56,7.56,0,0,0-3.14-1,50.78,50.78,0,0,0-8.49-.57h-29.1a7.69,7.69,0,0,0-4.82,1.61,14.56,14.56,0,0,0-2.37,3.59,89.43,89.43,0,0,0-4.15,9.24c-2.85,7.19-4.45,12.18-4.45,15a18.72,18.72,0,0,0,.68,5.52,6,6,0,0,0,1.39,2.53c2,1.93,5.75,3.52,11,5.1a17.8,17.8,0,0,1,5.92,2.42,9.46,9.46,0,0,1,2.44,2.33,6.83,6.83,0,0,1,1.29,4,8.47,8.47,0,0,1-.69,3.44,7.37,7.37,0,0,1-2.41,3,9.91,9.91,0,0,1-6.06,1.75,76,76,0,0,1-10.47-1,65.23,65.23,0,0,0-9-.92q-4,0-12.17.83c-5.89.59-10.3.87-13.21.87a11.59,11.59,0,0,1-3-.35,6.84,6.84,0,0,1-5-5,8.56,8.56,0,0,1-.25-2.87m89.57-72.89q-7.31-19.86-10.16-27-2.69-6.76-6-14.89-7.77,19.79-12.05,31.3-2.24,6-3.34,9.32c-.17.5-.33.93-.47,1.29h32.06" transform="translate(691 -3.89)"/><path class="cls-3" d="M161.71,538.86a13.63,13.63,0,0,1,1.38-6.7,7.94,7.94,0,0,1,2.36-2.7,7.27,7.27,0,0,1,3.27-1.2,5.84,5.84,0,0,1,3.79.5,7.83,7.83,0,0,1,2.53,1.9,10.25,10.25,0,0,1,2.36,4.07c4.87,15.35,10.79,27,17.9,34.81,6.43,7,13.77,10.69,22.12,10.69,5.88,0,11-2.66,15.52-7.68a26.53,26.53,0,0,0,7.12-18.25,21.91,21.91,0,0,0-7.34-16.51c-5.61-5.3-14.83-10.5-27.53-15.75-13.46-5.63-23.49-13-30.21-21.86-6.91-9.14-10.41-19.9-10.41-32.33q0-21.08,13-35.84c8.85-10.13,19.66-15.13,32.4-15.13,6.58,0,14,1.75,22.31,5.4q5.49,2.43,8.71,3.64c.94.36,1.63.68,2.08.83l.32-.09a18.44,18.44,0,0,0,1.73-1,21.12,21.12,0,0,1,3.57-1.89,8.32,8.32,0,0,1,4.48-.59,7.68,7.68,0,0,1,5,3.05,6.85,6.85,0,0,1,1.12,2.9c.1.56.18,1.3.25,2.23.1,1.53.16,3.67.16,6.43a137.76,137.76,0,0,0,1.51,16.64,145.45,145.45,0,0,1,1.61,18,13.3,13.3,0,0,1-1.07,5.23,8.49,8.49,0,0,1-1.88,2.82,6.43,6.43,0,0,1-3.88,1.86,7,7,0,0,1-3.75-.46,7.58,7.58,0,0,1-3.09-2.57,13.26,13.26,0,0,1-2.16-5.89c-1.4-9.67-6-18.32-13.77-26C225.74,439.9,218,436,209.94,436a17.82,17.82,0,0,0-13.13,5.89A19.2,19.2,0,0,0,191,455.69,16.42,16.42,0,0,0,194.9,466c2.93,3.75,7.29,7.12,13,10.23q14.56,7.83,25.05,13.52c7.26,3.95,11.12,6.12,11.61,6.46l.11.07.11.09a54.32,54.32,0,0,1,15.92,19.45,57.27,57.27,0,0,1,5.39,25.07q0,23.61-14.47,40.82c-9.93,11.83-21.88,17.63-35.75,17.63a41.88,41.88,0,0,1-7.59-1q-4.54-.91-15.21-3.57A129.43,129.43,0,0,1,179,590a33.21,33.21,0,0,1-4.54-2.28,9.43,9.43,0,0,1-3.47-3.4,37.5,37.5,0,0,1-2-7.13q-1.17-5.22-3.17-15.09c-2.75-13.65-4.06-21.4-4.06-23.27" transform="translate(691 -3.89)"/><path class="cls-3" d="M-18,588.62a9.51,9.51,0,0,1,1-4.12,9.1,9.1,0,0,1,3-3.27c.24-.17,1-.6,2.2-1.33a17.21,17.21,0,0,0,2.16-1.46,30.58,30.58,0,0,0,7.21-8.92A110.36,110.36,0,0,0,5.27,552.8q6.63-17.91,12.75-34T29.54,489q2.05-5.2,14.21-37.21,6.2-16.31,10.17-24.37a49.31,49.31,0,0,1,3.77-6.61,13,13,0,0,1,2.14-2.36,7,7,0,0,1,1.74-1.06,5.74,5.74,0,0,1,2.91-.44,6.32,6.32,0,0,1,2.63.86,8.2,8.2,0,0,1,1.79,1.4,15,15,0,0,1,2.34,3.25A146.42,146.42,0,0,1,77.41,437l49,127c2.33,6,4.62,10.33,7.12,12.67,2.33,2.19,5.85,3.67,10.42,4.69a6.9,6.9,0,0,1,3.1,1.44,8.08,8.08,0,0,1,2,2.48,9.2,9.2,0,0,1,1,5.51,8.12,8.12,0,0,1-2.61,5.17,7.29,7.29,0,0,1-2.87,1.7,7.4,7.4,0,0,1-3.33.2c-5.43-.92-10.46-1.55-15.15-1.9s-10.31-.54-16.74-.54a121.66,121.66,0,0,0-12.51.94,129.49,129.49,0,0,1-13.3,1,8.25,8.25,0,0,1-5.73-2.09,7.46,7.46,0,0,1-2-2.93,8.74,8.74,0,0,1-.55-3.16,7.71,7.71,0,0,1,2.29-5.53,12.59,12.59,0,0,1,4.45-2.82,41.61,41.61,0,0,0,4.4-1.92,5.61,5.61,0,0,0,2.11-2.66,11.8,11.8,0,0,0,1.13-5,26.57,26.57,0,0,0-1.1-6.24q-1.22-4.59-3.66-11.2a104.94,104.94,0,0,0-4.51-10.84c-1-1.88-1.67-3.25-2.42-3.84a7.66,7.66,0,0,0-3.14-1,50.91,50.91,0,0,0-8.5-.57H37.28a7.72,7.72,0,0,0-2.61.42,7.9,7.9,0,0,0-2.21,1.19,14.56,14.56,0,0,0-2.37,3.59A89.43,89.43,0,0,0,25.94,552c-2.85,7.19-4.45,12.18-4.45,15a19.06,19.06,0,0,0,.68,5.52,6,6,0,0,0,1.39,2.53c2,1.93,5.75,3.52,11,5.1a18,18,0,0,1,5.93,2.42,9.57,9.57,0,0,1,2.43,2.33,6.83,6.83,0,0,1,1.29,4,8.47,8.47,0,0,1-.69,3.44,7.37,7.37,0,0,1-2.41,3,9.9,9.9,0,0,1-6.05,1.75,76,76,0,0,1-10.48-1,65.23,65.23,0,0,0-9-.92q-4,0-12.17.83c-5.89.59-10.29.87-13.21.87a11.59,11.59,0,0,1-3-.35,7,7,0,0,1-3.3-1.9,6.88,6.88,0,0,1-1.72-3.09,8.56,8.56,0,0,1-.25-2.87m89.57-72.89q-7.31-19.86-10.16-27-2.69-6.76-6-14.89-7.77,19.79-12.05,31.3-2.23,6-3.34,9.32c-.17.5-.33.93-.47,1.29H71.58" transform="translate(691 -3.89)"/><path class="cls-3" d="M-212.37,591.13q11.58-21.84,15.86-30.45,4.83-9.72,23.31-48,18.58-38.75,30.83-61.41,6.23-11.5,10.24-17.91c3.43-5.47,6.16-8.55,7.69-9.65a21.49,21.49,0,0,1,7.93-3.93,33,33,0,0,1,7.23-.69c2.49,0,6.91.11,13.27.36l6.92.26,2,.08A108.83,108.83,0,0,0-76.17,419,130.8,130.8,0,0,1-62.78,418a21.73,21.73,0,0,1,5.48.65,14.91,14.91,0,0,1,5.36,2.54,11.13,11.13,0,0,1,3.57,4.54,12,12,0,0,1,.93,4.77,10.32,10.32,0,0,1-3.92,8.11,15.81,15.81,0,0,1-8.78,3.62,34.47,34.47,0,0,0-12.07,3.1A15,15,0,0,0-78.44,451c-3.93,6.54-5.55,17.9-5.55,33.85q0,.87,1.53,37.74,1.53,37.13,3,77.31c.69,17.61,2.86,30.1,7.08,37.28A19.29,19.29,0,0,0-65.23,644a40.53,40.53,0,0,0,13,4.42,28.64,28.64,0,0,1,11.3,3.94A14.2,14.2,0,0,1-36.3,657a10.29,10.29,0,0,1,1.42,5.28,9.46,9.46,0,0,1-1.92,6,12.62,12.62,0,0,1-5.78,3.89c-2.36.88-6.64,1.58-13,1.58q-8,0-23.62-1.49-14.37-1.4-21.67-1.4-7.74,0-22.86,1.57-16.51,1.7-24.39,1.68a20.58,20.58,0,0,1-9.42-1.93,11.66,11.66,0,0,1-4.15-3.36,9.5,9.5,0,0,1-1.83-4.87,9.52,9.52,0,0,1,2.37-7.25,17.79,17.79,0,0,1,5.82-4.36c2.45-1.21,4.09-2,4.56-2.34,4.64-2.64,8.18-5.29,10-8s2.39-6.46,2.39-11.39q0-13.18-2.59-62.5-1.35-25.79-2.35-42.24-8.67,17-23,45.44-25.22,50.14-41.39,82.25c-.42.8-1.19,2.35-2.38,4.79q-2.07,4.23-3.42,6.37a25.28,25.28,0,0,1-4.65,5.93,13.89,13.89,0,0,1-4.11,2.54,12.12,12.12,0,0,1-6.14.83,15.42,15.42,0,0,1-7.89-3,24.6,24.6,0,0,1-5.22-5.08c-2.52-3.2-8.41-14.41-17.46-33.8l-49.79-104.73q-.35,11.89-.71,30.46-.79,40.26-.79,47.61c0,13.07,1.76,23.21,5.68,30.35q5,9.17,16.06,12.94c5.71,2.17,9.38,4,11.44,5.39a15,15,0,0,1,3.85,3.65,9.32,9.32,0,0,1,1.84,5.48,9.25,9.25,0,0,1-1.47,5.18,11.38,11.38,0,0,1-4.29,3.76,19.25,19.25,0,0,1-9.3,2.15c-4.84,0-11.87-.47-21.08-1.46-8.27-.88-14.57-1.34-18.91-1.34-3.55,0-8.89.4-16,1.17q-12.15,1.31-18.29,1.29a28.49,28.49,0,0,1-5.72-.52,14.8,14.8,0,0,1-6-2.56,9.9,9.9,0,0,1-3.64-5.08,10.53,10.53,0,0,1-.24-5.07c.32-2.11,1.58-4.47,4.49-6.64a43.48,43.48,0,0,1,7.6-4.05,47.62,47.62,0,0,0,10.1-5.42,17.25,17.25,0,0,0,4.57-5.24,33.59,33.59,0,0,0,3.56-10.83,130.71,130.71,0,0,0,1.58-19.34q1.59-39.55,3.44-83.28,1.86-43.53,1.86-44.48c0-10.8-3.11-19.85-9.68-27a29.67,29.67,0,0,0-10-7.38,28.81,28.81,0,0,0-11.72-2.31,25.82,25.82,0,0,1-5.75-.59,14.05,14.05,0,0,1-5.95-2.82,11,11,0,0,1-3.28-4.5,12.54,12.54,0,0,1-.82-4.59,10.16,10.16,0,0,1,1.77-6,12.73,12.73,0,0,1,5.18-4.11,25.07,25.07,0,0,1,8.16-1.81c2.58-.22,6-.34,10.18-.34h.5q10.89.53,15.07.8l.37,0,1.57.21c3-.05,7.29-.45,12.79-1.14a137.31,137.31,0,0,1,15.46-1.31,31.93,31.93,0,0,1,16.61,4.22,27.68,27.68,0,0,1,10.7,11.64l75.69,156.55" transform="translate(691 -3.89)"/><path class="cls-2" d="M442,228.55h14.4q-4.84-13-7-18.54c-.05-.14-.11-.29-.17-.44q-3.81,9.84-6.36,16.71l-.84,2.27m25.87,34.75-.36-.06a44.84,44.84,0,0,0-7.43-.48H431a1.78,1.78,0,0,0-.57.07l-.24.11a18.62,18.62,0,0,0-.93,1.76,86.66,86.66,0,0,0-3.85,8.59c-2.41,6.1-4,10.32-4,12.73a14.56,14.56,0,0,0,.27,3.18l.5.9c1.61,1.2,4.31,2.06,7.74,3.09a24,24,0,0,1,7.8,3.29,15.7,15.7,0,0,1,4,3.88,12.87,12.87,0,0,1,2.42,7.55,14.46,14.46,0,0,1-1.23,5.95,13.27,13.27,0,0,1-4.4,5.47,15.91,15.91,0,0,1-9.72,2.95,80.92,80.92,0,0,1-11.41-1.1,59,59,0,0,0-8-.85c-2.53,0-6.38.28-11.56.8-6.17.62-10.78.91-13.82.91a17.7,17.7,0,0,1-4.59-.57,13.08,13.08,0,0,1-6.15-3.59,12.94,12.94,0,0,1-3.23-5.81,13.86,13.86,0,0,1-.45-4.78,15.13,15.13,0,0,1,6.68-12.14c.34-.23,1.17-.75,2.61-1.58a13.24,13.24,0,0,0,1.41-1,25.16,25.16,0,0,0,5.74-7.2,105.48,105.48,0,0,0,7.21-15.78q6.61-17.9,12.76-34t11.54-29.9q2-5.21,14.19-37.15,6.33-16.67,10.4-24.9a52.73,52.73,0,0,1,4.31-7.5,18.91,18.91,0,0,1,3.22-3.52,13.14,13.14,0,0,1,3.27-2,11.88,11.88,0,0,1,6-.89,12.61,12.61,0,0,1,5.06,1.65,14.3,14.3,0,0,1,3.11,2.43,21.54,21.54,0,0,1,3.33,4.56,154.52,154.52,0,0,1,6.55,15.33l49,127c1.88,4.87,3.55,8.48,5.58,10.39,1.66,1.55,4.25,2.42,7.45,3.14a13.09,13.09,0,0,1,5.74,2.69,14.15,14.15,0,0,1,3.57,4.39,15.26,15.26,0,0,1,1.72,9.12,14.21,14.21,0,0,1-4.56,9,13.3,13.3,0,0,1-11.36,3.46c-5.3-.9-10.15-1.51-14.66-1.85s-10-.51-16.27-.51a114.4,114.4,0,0,0-11.82.9,136.18,136.18,0,0,1-14,1,14.23,14.23,0,0,1-9.87-3.66,13.54,13.54,0,0,1-3.66-5.34,14.88,14.88,0,0,1-1-5.37,13.67,13.67,0,0,1,4-9.83,18.35,18.35,0,0,1,6.63-4.27c1.1-.44,2-.8,2.68-1.1l.72-.91a5.41,5.41,0,0,0,.32-1.82,20.69,20.69,0,0,0-.89-4.65c-.77-2.91-1.94-6.46-3.48-10.65a98.75,98.75,0,0,0-4.24-10.18c-.27-.53-.51-1-.74-1.44M292.09,237.19a29.37,29.37,0,0,0-.5,6.71s0,4-.11,12-.1,12.51-.1,13.91a59.59,59.59,0,0,0,1.1,12.54,14.15,14.15,0,0,0,2.08,5.45,5.38,5.38,0,0,0,2.56,1.68,22.48,22.48,0,0,0,7.84,1.1,45.64,45.64,0,0,0,13.7-1.8,20,20,0,0,0,7.9-4.43,18,18,0,0,0,4.5-7.23,37.9,37.9,0,0,0,1.81-12.54c0-5.53-.94-10.31-3.14-14.23a20.18,20.18,0,0,0-8.82-8.15,44.22,44.22,0,0,0-12.18-3.59,108.33,108.33,0,0,0-16.64-1.4m0-74.22-.07.15a25.57,25.57,0,0,0-.43,5.32v34.9a12.11,12.11,0,0,0,0,1.49l.09.07,2.46.1q4,.13,9.67.14a44.84,44.84,0,0,0,11-1.13,11.93,11.93,0,0,0,4.79-2.16,7.1,7.1,0,0,0,2-3.16,25.63,25.63,0,0,0,1.11-8.3c0-7.94-2.41-14.71-7.46-20.22a22.41,22.41,0,0,0-17.11-7.72,27.31,27.31,0,0,0-6,.52m79.31,62.91c6.19,8.41,9.58,19.24,9.58,32.72,0,20.1-6.46,35.44-18.53,46.45-11.72,10.69-28,16.5-49.35,16.5q-6.68,0-20.24-.37-13.17-.36-19.69-.36c-3.16,0-7.85.28-14.06.81q-10.58.9-16,.89a14.82,14.82,0,0,1-9.76-3.36,13.41,13.41,0,0,1-4.09-5.74,14.64,14.64,0,0,1,2.47-14.27,16.25,16.25,0,0,1,5.95-4.44c1-.44,1.76-.77,1.94-.88a7.55,7.55,0,0,0,3.3-3.29c1.09-2.48,1.38-6.13,1.38-10.78V178.9c0-5-.68-9.09-2.68-12.11a7.49,7.49,0,0,0-5.44-3.25,26,26,0,0,1-9.39-3.13,15.34,15.34,0,0,1-4.67-4.29,13.18,13.18,0,0,1-2.5-7.8,15.29,15.29,0,0,1,3.69-10,14.37,14.37,0,0,1,11.61-5.4c2.37,0,6,.2,11,.65,4.06.37,7.24.56,9.56.56q7.59,0,22.63-1.55c11-1.13,19.3-1.67,24.84-1.67,19.87,0,35.46,4.67,47.07,13.25a44.71,44.71,0,0,1,18.81,39.14,43.85,43.85,0,0,1-10.79,28.12c-.44.53-.93,1.07-1.45,1.63a45,45,0,0,1,14.79,12.83m178.36-77.83a11.76,11.76,0,0,1,1.4-7.35,14,14,0,0,1,4.21-4.94,15,15,0,0,1,11.25-3l6.52.69a82.21,82.21,0,0,0,11.49.71h.2c4.28-.12,10-.51,17.23-1.15q11.9-1.06,20.11-1.05a14.25,14.25,0,0,1,9.6,3.59,13.6,13.6,0,0,1,4.89,10.78,14.55,14.55,0,0,1-4.2,10.4,19.68,19.68,0,0,1-7.57,4.75c-1.4.52-2.44.88-3.14,1.14l-.09.12a41.6,41.6,0,0,0-.24,6.51v98.62a94.24,94.24,0,0,0,.88,14.24,23.19,23.19,0,0,0,2.34,7.87,4.24,4.24,0,0,0,1.8,1.71,11.94,11.94,0,0,0,5.22.89,14,14,0,0,1,5.59,1.18A17.88,17.88,0,0,1,641,296a16.48,16.48,0,0,1,3.17,3.14,12.13,12.13,0,0,1,2.62,7.6,15.21,15.21,0,0,1-1.69,7.19,14.42,14.42,0,0,1-4.77,5.22A19,19,0,0,1,629.5,322q-5.65,0-17.13-1c-6.76-.61-11.81-.93-15.14-.93a84.91,84.91,0,0,0-10.36,1,106.77,106.77,0,0,1-13.46,1.19,16.85,16.85,0,0,1-7.82-1.91,13.66,13.66,0,0,1-4.94-4.25,12.67,12.67,0,0,1-2.38-7.48,14.09,14.09,0,0,1,3.15-8.89,22,22,0,0,1,5.68-4.89c1.21-.8,2.14-1.4,2.66-1.81l.3-.33a21.25,21.25,0,0,0,2.87-6.25c.8-3,1-8.92,1-17.65V179.45a47.48,47.48,0,0,0-1-11.18,7,7,0,0,0-1.38-3.2,3.08,3.08,0,0,0-.92-.63,50.14,50.14,0,0,0-7.59-2l-.12,0-.13,0a18.83,18.83,0,0,1-8.6-4.52,13.89,13.89,0,0,1-4.43-9.79" transform="translate(691 -3.89)"/><path class="cls-2" d="M58.48,244.9q-.3,19.07-.3,23.19c0,7.91.73,14.11,2.72,18.45a11,11,0,0,0,6,5.82l.11.05.11,0a37.23,37.23,0,0,1,8,4.59,15.82,15.82,0,0,1,3.64,4.16,13.36,13.36,0,0,1,1.93,6.95,13.1,13.1,0,0,1-6.17,11.4A15.72,15.72,0,0,1,65.78,322a107.11,107.11,0,0,1-13-1.07,90.33,90.33,0,0,0-10.17-.88,76.58,76.58,0,0,0-8.5.76,96.33,96.33,0,0,1-11.38.95,20,20,0,0,1-4.79-.54,13.91,13.91,0,0,1-6.16-3.19,13.08,13.08,0,0,1-4-6.57,14.57,14.57,0,0,1-.27-5.92,13.21,13.21,0,0,1,4.62-8.37,29.79,29.79,0,0,1,5.62-3.65,21.08,21.08,0,0,0,4.55-2.84A5.19,5.19,0,0,0,23.57,289a20.31,20.31,0,0,0,1.55-5.78A103.24,103.24,0,0,0,26,270.61c.61-18.36,1.28-37.58,2-57.81q1.07-30,1.08-30.61c0-5.95-1.3-11-4.34-15a11.75,11.75,0,0,0-3.77-3.39,8.3,8.3,0,0,0-3.91-.89,18.46,18.46,0,0,1-5-.64,13.67,13.67,0,0,1-9.58-9.11,16.18,16.18,0,0,1-.79-5.11,14.09,14.09,0,0,1,1.88-7.27,13.9,13.9,0,0,1,5.3-5.12,18.5,18.5,0,0,1,7.13-2c1.66-.17,4-.26,6.73-.26h.39c4.27.25,7.28.44,8.92.56l.47.05.54.08c1.53-.07,3.57-.32,6.12-.7a71.31,71.31,0,0,1,9.88-1,22.25,22.25,0,0,1,13.21,4.06,24.37,24.37,0,0,1,8.32,10.71l38.39,95c1.39-3.18,2.46-5.69,3.23-7.55q2.79-6.72,13.48-33.21,10.82-27,18-42.79,3.7-8.19,6.09-12.75c2.57-4.91,4.72-7.48,5.85-8.46a17.64,17.64,0,0,1,7-4,22.44,22.44,0,0,1,5.83-.7c1.49,0,4.15.08,8,.26l4,.18,1,.06a45.52,45.52,0,0,0,5.34-.52,69.72,69.72,0,0,1,8.57-.71,17,17,0,0,1,5,.73,14.4,14.4,0,0,1,5.45,3.1,13.83,13.83,0,0,1,3.72,5.65,15.72,15.72,0,0,1,.9,5.38,13.7,13.7,0,0,1-4,9.95,14.45,14.45,0,0,1-8.68,4.32,11.65,11.65,0,0,0-4.61,1.3,3.36,3.36,0,0,0-1.29,1.38c-2,4-2.56,11-2.56,20.68q0,.6.88,25.94.9,25.74,1.76,53.6c.36,11,1.26,18.81,3.46,23.31a6.48,6.48,0,0,0,2.12,2.42,14.93,14.93,0,0,0,5.24,2.07,21.08,21.08,0,0,1,9.13,3.93,15.38,15.38,0,0,1,4.41,5.33,14.34,14.34,0,0,1,1.45,6.39,13.08,13.08,0,0,1-8.14,12.5c-1.83.82-5.1,1.63-10.06,1.63a136.4,136.4,0,0,1-14.4-1.07,112.64,112.64,0,0,0-11.85-.93,111.9,111.9,0,0,0-12.48,1,135.21,135.21,0,0,1-14.89,1.21,16.32,16.32,0,0,1-8.69-2.24,13.18,13.18,0,0,1-4.43-4.35,14,14,0,0,1,.48-15.2,16.79,16.79,0,0,1,5.3-4.81c1.11-.66,2-1.17,2.2-1.34,1.74-1.19,3.34-2.35,4.05-3.58s.56-2.79.56-4.8q0-9.09-1.5-43l-.09-2.05-2.69,6.39q-14.59,34.75-24,57c-.27.62-.7,1.65-1.35,3.25-.89,2.19-1.61,3.78-2.19,4.88a23,23,0,0,1-3.72,5.56,14.1,14.1,0,0,1-4.25,3.12,11.44,11.44,0,0,1-6.91,1.11,13.54,13.54,0,0,1-7.82-3.44,22.16,22.16,0,0,1-4.23-4.87c-1.53-2.33-5.19-10.44-10.7-24.57L58.48,244.9" transform="translate(691 -3.89)"/><path class="cls-2" d="M-21.32,160.39c-.86,2.23-1.09,5.29-1.09,9.09q0,14-.24,31.31-.24,17.09-.24,17.75a219.33,219.33,0,0,1-3.6,41.55c-2.53,13-6.28,23.73-11,32.16a59.52,59.52,0,0,1-26,24.49c-10.41,5.09-23.13,7.79-38.23,7.79-12.71,0-23.63-1.77-32.78-5.14a56,56,0,0,1-24.28-16.68c-5.89-7-10.44-16.28-13.39-27.82-2.68-10.45-4.07-22.93-4.07-37.44q0-10.45.79-33.31.76-22.27.77-28.22a35.7,35.7,0,0,0-.75-8,9.1,9.1,0,0,0-1.27-3.28,6.56,6.56,0,0,0-2.22-1.71,25.29,25.29,0,0,0-6.15-2.19,22,22,0,0,1-4.42-1.2,14,14,0,0,1-6-4.37,14.06,14.06,0,0,1-2.73-5.82,15.16,15.16,0,0,1-.26-5.16,12.76,12.76,0,0,1,2.5-6.61,15.35,15.35,0,0,1,4.17-3.91,15.54,15.54,0,0,1,8.57-2.75,125.23,125.23,0,0,1,14.95,1.22,104.26,104.26,0,0,0,12.21,1c3,0,7.58-.29,13.69-.84q10.5-.93,15.68-.92a19.82,19.82,0,0,1,5,.6,15,15,0,0,1,5.71,2.82,13.71,13.71,0,0,1,4.08,5.25,14.74,14.74,0,0,1,1.17,7,15,15,0,0,1-3.07,8.28,15,15,0,0,1-5.32,4.11c-1,.51-2.46,1.12-4.27,1.81a9.57,9.57,0,0,0-1.66.69,10.17,10.17,0,0,0-1.22,1.44,2.88,2.88,0,0,0-.37,1.07,33,33,0,0,0-1.12,5.77c-.72,5.86-1.05,15.66-1.05,29.37v36.91a109.8,109.8,0,0,0,2.43,24.68,45.83,45.83,0,0,0,7,16.52,25.42,25.42,0,0,0,10,8.4,36,36,0,0,0,15.31,3c8.47,0,15.63-1.86,21.3-6s9.79-10.63,12.51-18.9c1.9-5.71,3.26-13.54,4.24-23.46q1.56-16,1.56-38.34a228.47,228.47,0,0,0-1.47-29.06,57.12,57.12,0,0,0-1.57-8.18,7.93,7.93,0,0,0-.81-2.26,3.81,3.81,0,0,0-1.39-1.06,9.85,9.85,0,0,0-3.53-.86,46.58,46.58,0,0,1-5.27-.81,16.55,16.55,0,0,1-6-2.51,13.73,13.73,0,0,1-4.5-5.35,14.57,14.57,0,0,1-1.44-5.59,13,13,0,0,1,1-6.51,14.4,14.4,0,0,1,4.1-5.48,14.43,14.43,0,0,1,11.22-3.43c4,.36,8.76.78,14.05,1.27,2.68.24,4.74.44,6,.56l1,.11a92.42,92.42,0,0,0,9.39-.9,106.61,106.61,0,0,1,12.56-1.09,13.94,13.94,0,0,1,9.45,3.55,12.75,12.75,0,0,1,4.77,10,14.25,14.25,0,0,1-1.19,6.63,14.35,14.35,0,0,1-4.06,5.2,17.63,17.63,0,0,1-5.84,3c-.91.28-2,.56-3.23.83" transform="translate(691 -3.89)"/><path class="cls-2" d="M-379.6,270.13q4.82-9.7,23.27-47.94,18.66-38.91,31-61.67,6.35-11.73,10.44-18.26c4.1-6.54,7.45-10,9.27-11.34a27.51,27.51,0,0,1,10.21-5,39.33,39.33,0,0,1,8.62-.84c2.53,0,7,.11,13.51.36l6.92.26,1.93.08c2.37,0,5.61-.29,10.07-.78a137.74,137.74,0,0,1,14.07-1,28.15,28.15,0,0,1,7,.85,20.87,20.87,0,0,1,7.56,3.62,17.08,17.08,0,0,1,5.51,7,18.13,18.13,0,0,1,1.42,7.19,16.26,16.26,0,0,1-6.09,12.83,22,22,0,0,1-12.1,5.07,28.15,28.15,0,0,0-10,2.46,8.8,8.8,0,0,0-3.72,3.29c-1.64,2.72-2.7,6.48-3.44,11.17A126.68,126.68,0,0,0-255.35,197q0,.87,1.53,37.48,1.55,37.13,3,77.33c.63,16.16,2.34,27.76,6.23,34.38a13.24,13.24,0,0,0,4.91,4.67,34.19,34.19,0,0,0,10.94,3.67,34.62,34.62,0,0,1,13.66,4.87,20.16,20.16,0,0,1,6.55,6.63,16.4,16.4,0,0,1,2.27,8.43,15.47,15.47,0,0,1-3.22,9.77,18.8,18.8,0,0,1-8.51,5.91c-2.76,1-7.73,2-15.2,2-5.43,0-13.51-.49-24.22-1.52-9.32-.9-16.34-1.37-21.07-1.37-5,0-12.43.53-22.23,1.53-11.29,1.16-19.63,1.71-25,1.71a26.58,26.58,0,0,1-12.24-2.6,17.73,17.73,0,0,1-6.31-5.18,15.71,15.71,0,0,1-3-7.95,15.4,15.4,0,0,1,3.76-11.82,23.8,23.8,0,0,1,7.83-5.95c2.16-1.07,3.62-1.78,4-2l.11-.07.11-.06c3.62-2.07,6.55-4,8-6.11a6.71,6.71,0,0,0,.89-2.51,28.06,28.06,0,0,0,.41-5.37q0-13.11-2.59-62.17-.54-10.41-1-19.3-5.62,11.11-12.58,25-25.2,50.15-41.39,82.25c-.46.87-1.2,2.37-2.35,4.72a75.87,75.87,0,0,1-3.69,6.87,30.45,30.45,0,0,1-5.83,7.35,20.08,20.08,0,0,1-6,3.67,18,18,0,0,1-9,1.23,21.58,21.58,0,0,1-10.84-4,31.39,31.39,0,0,1-6.54-6.33c-2.61-3.32-8.81-14.88-18.19-35l-38.62-81.23c0,1.45-.06,2.93-.09,4.45q-.78,40.14-.79,47.48c0,11.74,1.38,20.93,4.91,27.37,2.64,4.79,6.89,8.11,12.64,10.07l.1,0,.1,0c6.38,2.43,10.44,4.5,12.74,6.08a21.34,21.34,0,0,1,5.4,5.16,15.37,15.37,0,0,1,3,9.07,15.38,15.38,0,0,1-2.48,8.57,17.61,17.61,0,0,1-6.53,5.82,25.28,25.28,0,0,1-12.25,2.9c-5,0-12.24-.48-21.74-1.49-8-.86-14.07-1.31-18.25-1.31-3.4,0-8.52.4-15.37,1.13-8.4.9-14.72,1.32-18.95,1.32a34.61,34.61,0,0,1-7-.64,20.56,20.56,0,0,1-8.51-3.69,16,16,0,0,1-5.83-8.19,16.22,16.22,0,0,1-.43-7.91c.51-3.33,2.24-7.12,6.91-10.59a48.37,48.37,0,0,1,8.78-4.75,42.11,42.11,0,0,0,8.83-4.66,11.05,11.05,0,0,0,2.95-3.38,27.37,27.37,0,0,0,2.86-8.87,125.44,125.44,0,0,0,1.49-18.4c1.06-26.48,2.21-54.21,3.45-83.4q1.83-43.27,1.85-44.22c0-9.09-2.51-16.77-8.06-22.83a23.7,23.7,0,0,0-7.95-5.9,22.74,22.74,0,0,0-9.24-1.79,31.94,31.94,0,0,1-7.15-.75,20,20,0,0,1-8.51-4.08,17,17,0,0,1-5.09-7,18.61,18.61,0,0,1-1.25-6.85,16.19,16.19,0,0,1,2.9-9.53,18.74,18.74,0,0,1,7.61-6.16,30.76,30.76,0,0,1,10.26-2.37c2.72-.24,6.29-.37,10.72-.37h.39l.41,0q11,.53,15.17.8l.59,0,1.28.17c2.85-.07,6.73-.46,11.68-1.08a142,142,0,0,1,16.24-1.36,38,38,0,0,1,19.77,5.08A33.86,33.86,0,0,1-460.08,144l70.41,145.63q7-13.23,10.07-19.48" transform="translate(691 -3.89)"/><path class="cls-3" d="M555.92,147.49a6.58,6.58,0,0,1,.75-4,8.1,8.1,0,0,1,2.42-2.81,9.29,9.29,0,0,1,6.95-1.8l6.44.68a87.8,87.8,0,0,0,12.53.75c4.37-.13,10.18-.52,17.6-1.18q11.57-1,19.56-1a8.26,8.26,0,0,1,5.56,2.08,7.69,7.69,0,0,1,2.74,6.09,8.61,8.61,0,0,1-2.49,6.12,13.55,13.55,0,0,1-5.23,3.21c-2.72,1-4.21,1.55-4.67,1.77a4,4,0,0,0-2,2.23c-.69,1.78-.89,5-.89,9.59v98.62c0,11.82,1.19,20.29,4.07,25.22a10.17,10.17,0,0,0,4.43,4.16,18.06,18.06,0,0,0,7.94,1.53,8.09,8.09,0,0,1,3.15.67,11.37,11.37,0,0,1,2.42,1.45,10.45,10.45,0,0,1,2,1.95,6.3,6.3,0,0,1,1.36,3.87,9,9,0,0,1-1,4.29,8.3,8.3,0,0,1-2.74,3,13.09,13.09,0,0,1-7.38,1.87c-3.65,0-9.18-.32-16.58-1q-10.5-.94-15.69-1A90.83,90.83,0,0,0,586,315a100.78,100.78,0,0,1-12.61,1.14,10.71,10.71,0,0,1-5-1.22,7.56,7.56,0,0,1-2.74-2.33,6.62,6.62,0,0,1-1.23-3.9,8.11,8.11,0,0,1,1.83-5.08,16.26,16.26,0,0,1,4.13-3.48,37.82,37.82,0,0,0,3.6-2.54,5.21,5.21,0,0,0,.89-1,27.75,27.75,0,0,0,4-8.53c.87-3.28,1.23-9.71,1.23-19.24V179.45a53.47,53.47,0,0,0-1.22-12.7,12.94,12.94,0,0,0-3-6.05,9.18,9.18,0,0,0-2.66-1.85,53.78,53.78,0,0,0-8.88-2.47,13.12,13.12,0,0,1-5.88-3,8.57,8.57,0,0,1-2.6-5.92" transform="translate(691 -3.89)"/><path class="cls-3" d="M375.71,307.63a8.93,8.93,0,0,1,4-7.39c.25-.16,1-.6,2.21-1.32a17.06,17.06,0,0,0,2.15-1.47,30.83,30.83,0,0,0,7.22-8.91A110.52,110.52,0,0,0,399,271.81q6.61-17.91,12.75-34T423.24,208q2-5.22,14.21-37.22,6.19-16.31,10.16-24.37a47.24,47.24,0,0,1,3.78-6.6,12,12,0,0,1,2.13-2.36,6.65,6.65,0,0,1,1.75-1.07,5.72,5.72,0,0,1,2.91-.44,6.37,6.37,0,0,1,2.63.86,8.48,8.48,0,0,1,1.78,1.4,15.3,15.3,0,0,1,2.35,3.25A150.21,150.21,0,0,1,471.11,156l49,127c2.34,6,4.62,10.33,7.12,12.67,2.33,2.19,5.86,3.67,10.42,4.69a7,7,0,0,1,3.11,1.45,7.85,7.85,0,0,1,2,2.48,9.29,9.29,0,0,1,1,5.5,8.18,8.18,0,0,1-2.62,5.17,7.08,7.08,0,0,1-6.19,1.9c-5.43-.92-10.47-1.55-15.16-1.9s-10.3-.53-16.73-.53a121.27,121.27,0,0,0-12.51.94,131.94,131.94,0,0,1-13.3,1,8.27,8.27,0,0,1-5.73-2.08,7.39,7.39,0,0,1-2-2.94,8.74,8.74,0,0,1-.56-3.16,7.73,7.73,0,0,1,2.29-5.53,12.5,12.5,0,0,1,4.46-2.81,45.49,45.49,0,0,0,4.4-1.93,5.67,5.67,0,0,0,2.11-2.66,11.91,11.91,0,0,0,1.13-5,26.57,26.57,0,0,0-1.1-6.24c-.81-3.06-2-6.79-3.66-11.2a107.92,107.92,0,0,0-4.52-10.84,12.83,12.83,0,0,0-2.42-3.84,7.61,7.61,0,0,0-3.14-1,50.91,50.91,0,0,0-8.5-.57H431a7.78,7.78,0,0,0-2.62.42,8.17,8.17,0,0,0-2.21,1.19,14.86,14.86,0,0,0-2.37,3.59,93.94,93.94,0,0,0-4.15,9.24c-2.85,7.19-4.44,12.19-4.44,15a19,19,0,0,0,.67,5.52,5.9,5.9,0,0,0,1.4,2.53c2,1.93,5.74,3.52,11,5.1a18.16,18.16,0,0,1,5.93,2.43,9.55,9.55,0,0,1,2.43,2.32,6.79,6.79,0,0,1,1.3,4,8.47,8.47,0,0,1-.7,3.44,7.38,7.38,0,0,1-2.41,3,10,10,0,0,1-6.05,1.75,74.5,74.5,0,0,1-10.47-1,65.23,65.23,0,0,0-9-.92q-4,0-12.17.83c-5.9.59-10.3.87-13.21.87a11.24,11.24,0,0,1-3-.35,6.84,6.84,0,0,1-5-5,8,8,0,0,1-.25-2.87m89.57-72.89q-7.32-19.86-10.16-27-2.7-6.76-6-14.88-7.79,19.78-12.06,31.29-2.22,6-3.34,9.32c-.17.51-.33.93-.47,1.29h32.07" transform="translate(691 -3.89)"/><path class="cls-3" d="M285.4,203.34a10.14,10.14,0,0,0,1.22,5.51,5.12,5.12,0,0,0,2.87,2.1c.78.09,2.26.16,4.44.24q4.13.13,9.9.14A50.37,50.37,0,0,0,316.37,210a17.89,17.89,0,0,0,7.28-3.44,13.2,13.2,0,0,0,3.77-5.83,31.62,31.62,0,0,0,1.47-10.34c0-9.61-3-17.76-9.1-24.4a28.32,28.32,0,0,0-21.67-9.74,33,33,0,0,0-7.47.7,7.32,7.32,0,0,0-3.19,1.36,5.42,5.42,0,0,0-1.3,2.7,29.36,29.36,0,0,0-.76,7.43v34.9m-.22,66.45a65.76,65.76,0,0,0,1.25,13.87,20.26,20.26,0,0,0,3.19,7.86,11.59,11.59,0,0,0,5.33,3.75,28.89,28.89,0,0,0,10,1.49,51.69,51.69,0,0,0,15.57-2.1,26.12,26.12,0,0,0,10.3-5.84,24.17,24.17,0,0,0,6.08-9.67,44.2,44.2,0,0,0,2.16-14.59c0-6.73-1.27-12.51-3.95-17.27a26.2,26.2,0,0,0-11.43-10.65,50.7,50.7,0,0,0-13.91-4.16A119.79,119.79,0,0,0,289.71,231a2.55,2.55,0,0,0-1.38.33,3.66,3.66,0,0,0-1.17,1.47c-1.28,2.47-1.76,6.22-1.76,11.13t-.11,11.92q-.1,11.85-.11,14M345.55,215c9.09,3.08,16,8,20.87,14.59,5.49,7.46,8.37,17.12,8.37,29.05,0,18-5.63,31.95-16.52,41.88-10.72,9.78-25.71,14.88-45.17,14.88q-6.62,0-20.08-.37-13.26-.36-19.85-.36-4.92,0-14.59.83-10.21.87-15.42.87a8.86,8.86,0,0,1-5.82-1.95,7.15,7.15,0,0,1-2.22-3.12,8.43,8.43,0,0,1,1.43-8.16,10.36,10.36,0,0,1,3.73-2.75c1.37-.61,2.29-1,2.55-1.19a13.22,13.22,0,0,0,5.81-6.13c1.34-3.06,1.9-7.51,1.9-13.27V178.9c0-6.44-1.14-11.66-3.7-15.53a13.42,13.42,0,0,0-9.7-6,19.76,19.76,0,0,1-7.09-2.31,9.41,9.41,0,0,1-2.83-2.56,7.17,7.17,0,0,1-1.36-4.23,9.28,9.28,0,0,1,2.27-6,8.47,8.47,0,0,1,6.84-3.16c2.25,0,5.72.2,10.41.63q6.45.58,10.12.59,7.8,0,23.25-1.59,16.13-1.65,24.22-1.64c18.27,0,32.69,4.13,43.38,12A39.77,39.77,0,0,1,358.92,164a40.18,40.18,0,0,1,3.74,19.12,37.54,37.54,0,0,1-9.31,24.32,69.19,69.19,0,0,1-7.8,7.56" transform="translate(691 -3.89)"/><path class="cls-3" d="M108.7,258.11q6.7-15.13,9.19-21.1,2.79-6.75,13.5-33.27,10.77-26.87,17.86-42.57,3.62-8,5.93-12.41c2-3.8,3.58-5.93,4.46-6.69a11.82,11.82,0,0,1,4.59-2.72,15.79,15.79,0,0,1,4.2-.48q2.16,0,7.68.25l4,.18,1.19,0a54.16,54.16,0,0,0,6.3-.56,62.09,62.09,0,0,1,7.76-.65,10.45,10.45,0,0,1,3.17.45,8,8,0,0,1,3.11,1.76,7.61,7.61,0,0,1,2.07,3.15,9.84,9.84,0,0,1,.53,3.3,7.76,7.76,0,0,1-2.27,5.63,8.48,8.48,0,0,1-5.08,2.5,17.24,17.24,0,0,0-7,2.15,9.53,9.53,0,0,0-3.61,3.89c-2.27,4.54-3.21,12.4-3.21,23.46q0,.62.89,26.16.89,25.72,1.75,53.58c.4,12.21,1.65,20.86,4.1,25.84a12.48,12.48,0,0,0,4.13,4.77,20.84,20.84,0,0,0,7.55,3.06,15.08,15.08,0,0,1,6.54,2.73,9.37,9.37,0,0,1,2.67,3.19,8.26,8.26,0,0,1,.82,3.66,7.44,7.44,0,0,1-1.11,4.14,7.32,7.32,0,0,1-3.35,2.7,19.86,19.86,0,0,1-7.55,1.1,129.33,129.33,0,0,1-13.69-1,120.35,120.35,0,0,0-12.56-1A118.45,118.45,0,0,0,160,314.44a126.24,126.24,0,0,1-14.13,1.16,10.33,10.33,0,0,1-5.46-1.33,7.24,7.24,0,0,1-2.4-2.33,7.41,7.41,0,0,1-1.06-3.37,7.49,7.49,0,0,1,1.37-5,10.82,10.82,0,0,1,3.38-3c1.41-.84,2.36-1.41,2.63-1.62a18.72,18.72,0,0,0,5.81-5.53c1.05-1.81,1.39-4.48,1.39-7.89q0-9.14-1.5-43.32-.78-17.86-1.36-29.27-5,11.76-13.32,31.49-14.59,34.75-24,57c-.24.56-.69,1.63-1.37,3.32-.8,2-1.47,3.43-2,4.42a17.52,17.52,0,0,1-2.7,4.11A7.83,7.83,0,0,1,103,315a6,6,0,0,1-3.56.57,8.16,8.16,0,0,1-4.57-2,16.31,16.31,0,0,1-3-3.52c-1.45-2.22-4.87-10-10.11-23.44L52.85,214q-.2,8.25-.41,21.12Q52,263,52,268.09c0,9.05,1,16.09,3.29,21a17.06,17.06,0,0,0,9.31,9,31.15,31.15,0,0,1,6.63,3.73,9.76,9.76,0,0,1,2.23,2.53,7.65,7.65,0,0,1,.21,7.39,7.14,7.14,0,0,1-2.48,2.6,9.73,9.73,0,0,1-5.39,1.49,102.22,102.22,0,0,1-12.22-1,94.68,94.68,0,0,0-11-.93,81,81,0,0,0-9.28.81,91.4,91.4,0,0,1-10.6.89,14.07,14.07,0,0,1-3.32-.35,7.91,7.91,0,0,1-3.48-1.78A7,7,0,0,1,13.81,310a8.74,8.74,0,0,1-.13-3.51,7.4,7.4,0,0,1,2.6-4.6,23.68,23.68,0,0,1,4.4-2.81,26.72,26.72,0,0,0,5.85-3.76,11.69,11.69,0,0,0,2.65-3.63,26.34,26.34,0,0,0,2.06-7.5,108.35,108.35,0,0,0,.92-13.41q.92-27.41,2-57.72,1.08-30.16,1.08-30.82c0-7.49-1.8-13.76-5.61-18.73a17.84,17.84,0,0,0-5.81-5.12,14.4,14.4,0,0,0-6.79-1.6,12.63,12.63,0,0,1-3.34-.41,7.51,7.51,0,0,1-5.35-5.07,10.34,10.34,0,0,1-.47-3.18,8.06,8.06,0,0,1,1-4.15,7.7,7.7,0,0,1,3-2.84,12.5,12.5,0,0,1,4.72-1.25,57.76,57.76,0,0,1,5.9-.24h.29q6.32.38,8.74.56h.21l.91.15a63.26,63.26,0,0,0,7.4-.79,66.5,66.5,0,0,1,9-.91,16.26,16.26,0,0,1,9.63,2.92,18.38,18.38,0,0,1,6.2,8.07l43.85,108.5" transform="translate(691 -3.89)"/><path class="cls-3" d="M-192.32,144.79a6.93,6.93,0,0,1,1.36-3.6,9.11,9.11,0,0,1,2.5-2.32,9.66,9.66,0,0,1,5.21-1.77,120.71,120.71,0,0,1,14.16,1.17,111,111,0,0,0,13,1.08q4.71,0,14.24-.86,10.14-.9,15.13-.9a14,14,0,0,1,3.45.4,9.24,9.24,0,0,1,3.4,1.66,7.82,7.82,0,0,1,2.29,2.92,8.73,8.73,0,0,1,.66,4,8.89,8.89,0,0,1-1.78,4.89,9.27,9.27,0,0,1-3.19,2.37c-.91.44-2.15,1-3.72,1.58a15.78,15.78,0,0,0-3.13,1.48,15.67,15.67,0,0,0-2.34,2.5,9.25,9.25,0,0,0-1.49,3.15,40.2,40.2,0,0,0-1.36,6.87q-1.11,9-1.09,30.12v36.91c0,19.81,3.37,34.81,10.59,44.82A31.6,31.6,0,0,0-112,291.7a42.13,42.13,0,0,0,17.93,3.53c10,0,18.32-2.35,25-7.24s11.53-12.28,14.71-21.94c2-6,3.49-14.3,4.52-24.8q1.61-16.25,1.59-38.94a236,236,0,0,0-1.52-29.87,62.27,62.27,0,0,0-1.77-9.1,13.55,13.55,0,0,0-1.83-4.29A10,10,0,0,0-57,156.2a15.79,15.79,0,0,0-5.74-1.48,39.67,39.67,0,0,1-4.43-.68,10.77,10.77,0,0,1-3.81-1.52,7.62,7.62,0,0,1-2.49-3,9.1,9.1,0,0,1-.85-3.42,7.37,7.37,0,0,1,.5-3.62,8.26,8.26,0,0,1,2.36-3.11,8.43,8.43,0,0,1,6.63-2c4,.35,8.79.78,14.09,1.26l5.9.56,1.33.15a93.33,93.33,0,0,0,10.5-1,101.25,101.25,0,0,1,11.75-1,8,8,0,0,1,5.38,2,6.93,6.93,0,0,1,2.64,5.51,8.13,8.13,0,0,1-.64,3.91,8.13,8.13,0,0,1-2.35,2.95,11.32,11.32,0,0,1-3.77,1.9,33.21,33.21,0,0,1-4.22,1,3,3,0,0,0-1.26.71,6.77,6.77,0,0,0-1.45,2.3c-1.21,2.84-1.71,6.8-1.71,11.84q0,14-.25,31.23t-.24,17.83a212.57,212.57,0,0,1-3.48,40.37q-3.59,18.4-10.36,30.29a53.25,53.25,0,0,1-23.34,22c-9.66,4.73-21.48,7.17-35.5,7.17-11.88,0-22.09-1.62-30.65-4.76a50,50,0,0,1-21.65-14.84c-5.37-6.43-9.46-14.87-12.15-25.38q-3.85-15-3.88-35.91,0-10.39.79-33.09.78-22.46.78-28.44a42,42,0,0,0-.92-9.42,15.27,15.27,0,0,0-2.3-5.53,12.52,12.52,0,0,0-4.26-3.49,32,32,0,0,0-7.9-2.83,14.69,14.69,0,0,1-3.31-.87,8.06,8.06,0,0,1-3.42-2.45,8,8,0,0,1-1.54-3.31,9.69,9.69,0,0,1-.14-3.23" transform="translate(691 -3.89)"/><path class="cls-3" d="M-389.92,303.33q11.58-21.82,15.86-30.45,4.83-9.72,23.31-48,18.58-38.76,30.83-61.41,6.23-11.52,10.24-17.92c3.43-5.47,6.16-8.55,7.69-9.64a21.77,21.77,0,0,1,7.93-3.94,33.08,33.08,0,0,1,7.23-.69q3.74,0,13.27.36l6.92.26,2.05.08a105.86,105.86,0,0,0,10.87-.82,130.8,130.8,0,0,1,13.39-.94,21.7,21.7,0,0,1,5.48.66,14.59,14.59,0,0,1,5.36,2.54,11.06,11.06,0,0,1,3.57,4.54,12,12,0,0,1,.93,4.76,10.33,10.33,0,0,1-3.92,8.12,16,16,0,0,1-8.78,3.62,34.26,34.26,0,0,0-12.07,3.09,15,15,0,0,0-6.22,5.63c-3.94,6.54-5.56,17.89-5.56,33.85q0,.87,1.53,37.73,1.54,37.13,3,77.31c.68,17.62,2.85,30.1,7.07,37.29a19.35,19.35,0,0,0,7.13,6.88,40.51,40.51,0,0,0,13,4.43,28.66,28.66,0,0,1,11.3,3.94,14.15,14.15,0,0,1,4.6,4.59,10.3,10.3,0,0,1,1.42,5.29,9.41,9.41,0,0,1-1.92,6,12.63,12.63,0,0,1-5.78,3.9c-2.36.87-6.64,1.57-13,1.57-5.3,0-13.18-.48-23.62-1.49-9.58-.92-16.81-1.4-21.67-1.4q-7.74,0-22.86,1.58-16.51,1.68-24.39,1.67a20.59,20.59,0,0,1-9.42-1.92,11.79,11.79,0,0,1-4.16-3.36,9.65,9.65,0,0,1-1.82-4.87,9.47,9.47,0,0,1,2.37-7.25,17.62,17.62,0,0,1,5.82-4.36c2.45-1.22,4.09-2,4.56-2.35,4.64-2.63,8.18-5.29,10-8s2.39-6.46,2.39-11.39q0-13.17-2.59-62.49-1.35-25.8-2.36-42.25-8.66,17-23,45.45-25.22,50.13-41.39,82.24c-.42.8-1.19,2.36-2.38,4.8a71,71,0,0,1-3.42,6.36,24.81,24.81,0,0,1-4.65,5.93,13.8,13.8,0,0,1-4.11,2.54,12.22,12.22,0,0,1-6.14.84,15.67,15.67,0,0,1-7.9-3,25.07,25.07,0,0,1-5.21-5.08c-2.52-3.2-8.41-14.42-17.46-33.81l-49.79-104.72q-.35,11.9-.71,30.46-.8,40.25-.79,47.6c0,13.07,1.76,23.22,5.68,30.35q5,9.17,16.06,12.95c5.71,2.17,9.38,4,11.45,5.39a15.07,15.07,0,0,1,3.84,3.65,9.29,9.29,0,0,1,1.84,5.47,9.23,9.23,0,0,1-1.47,5.19,11.44,11.44,0,0,1-4.29,3.75,19.28,19.28,0,0,1-9.3,2.16q-7.26,0-21.08-1.46-12.41-1.33-18.91-1.35c-3.55,0-8.89.41-16,1.17q-12.15,1.31-18.29,1.29a29.33,29.33,0,0,1-5.72-.51,14.69,14.69,0,0,1-6-2.57,9.88,9.88,0,0,1-3.65-5.07,10.57,10.57,0,0,1-.24-5.08c.32-2.1,1.58-4.46,4.49-6.63a43.33,43.33,0,0,1,7.6-4.06,47.17,47.17,0,0,0,10.1-5.42,17.15,17.15,0,0,0,4.57-5.24,33.44,33.44,0,0,0,3.56-10.82A132.24,132.24,0,0,0-522,321.54q1.59-39.56,3.44-83.28,1.86-43.51,1.86-44.48c0-10.79-3.11-19.84-9.68-27a29.63,29.63,0,0,0-10-7.39,28.9,28.9,0,0,0-11.73-2.31,25.82,25.82,0,0,1-5.75-.59,14,14,0,0,1-6-2.81,10.84,10.84,0,0,1-3.28-4.51,12.5,12.5,0,0,1-.82-4.59,10.18,10.18,0,0,1,1.77-6,12.73,12.73,0,0,1,5.18-4.11,25.14,25.14,0,0,1,8.16-1.8c2.57-.23,6-.35,10.18-.35h.49q10.91.54,15.09.8l.36,0,1.57.22q4.54-.09,12.78-1.15a136.82,136.82,0,0,1,15.47-1.3,32,32,0,0,1,16.62,4.21,27.78,27.78,0,0,1,10.69,11.64l75.69,156.55" transform="translate(691 -3.89)"/><path class="cls-2" d="M1134.69,798.7c.42.44.83.91,1.24,1.43a17.67,17.67,0,0,1,3,7.29,72.56,72.56,0,0,1,1.27,10.49,77.57,77.57,0,0,0,1,9.11,8.94,8.94,0,0,0,.81,3l5.62,7.58h-26.4l-1.4-2.16a11.57,11.57,0,0,1-1.39-3.09c-.22-.76-.73-4.3-1.41-10.66,0,0-.12-1.63-.3-4.69a17.31,17.31,0,0,0-.85-5.09,3.7,3.7,0,0,0-1.69-2,9.76,9.76,0,0,0-4.65-.87h-9v28.6h-22.63V757.1h32.85a53.78,53.78,0,0,1,12.52,1.31,27.45,27.45,0,0,1,9.78,4.33,19.33,19.33,0,0,1,6.36,7.89,25.41,25.41,0,0,1,2,10.44,26.42,26.42,0,0,1-3.66,13.45,22.48,22.48,0,0,1-3.07,4.18m-24.76-10a20.41,20.41,0,0,0,4.87-.48,5.67,5.67,0,0,0,2.22-1,2.68,2.68,0,0,0,.79-1.18,8.71,8.71,0,0,0,.39-3.12,4.68,4.68,0,0,0-.42-2,2.88,2.88,0,0,0-1-1.13c-1.56-1.12-3.9-1.46-6.87-1.46h-9.41v10.34h9.41" transform="translate(691 -3.89)"/><path class="cls-2" d="M953.06,797.72c0-12.5,3.41-22.49,9.92-30.05,6.74-7.82,15.68-11.84,26.9-11.91,11,0,19.81,3.87,26.56,11.46,6.56,7.37,10,17,10,29,0,12.47-3.4,22.57-10,30.42Q1006.19,839,989.9,839c-11.1,0-20-3.93-26.82-11.65-6.58-7.49-10-17.31-10-29.61m22.64-1.13c-.13,6.69,1,12.1,3.81,16.1a11.46,11.46,0,0,0,4.18,3.75,12.9,12.9,0,0,0,5.88,1.25,11.87,11.87,0,0,0,5.55-1.27,13.35,13.35,0,0,0,4.49-4c3-4.08,4.39-9.18,4.39-15.25s-1.36-11-4.3-15a12.68,12.68,0,0,0-4.42-3.89,12.26,12.26,0,0,0-5.6-1.24,12.73,12.73,0,0,0-5.56,1.16,12,12,0,0,0-4.21,3.51c-2.82,3.64-4.12,8.65-4.21,14.87" transform="translate(691 -3.89)"/><path class="cls-2" d="M830.86,797.72c0-12.5,3.4-22.49,9.92-30.05,6.74-7.82,15.68-11.84,26.89-11.91,11,0,19.82,3.87,26.57,11.46,6.56,7.37,10,17,10,29,0,12.47-3.4,22.57-10,30.42Q884,839,867.7,839c-11.1,0-20-3.93-26.81-11.65-6.6-7.49-10-17.31-10-29.61m22.63-1.13c-.12,6.69,1,12.1,3.82,16.1a11.3,11.3,0,0,0,4.18,3.75,12.87,12.87,0,0,0,5.88,1.25,11.87,11.87,0,0,0,5.55-1.27,13.44,13.44,0,0,0,4.49-4c3-4.08,4.39-9.18,4.39-15.25s-1.36-11-4.3-15a12.86,12.86,0,0,0-4.42-3.89,12.29,12.29,0,0,0-5.6-1.24,12.69,12.69,0,0,0-5.56,1.16,11.88,11.88,0,0,0-4.21,3.51c-2.82,3.64-4.12,8.65-4.22,14.87" transform="translate(691 -3.89)"/><path class="cls-2" d="M716.88,837.64V757.1h30.57a70,70,0,0,1,10.65.64,27.3,27.3,0,0,1,7.9,2.54c5.41,2.66,9.67,7.28,12.58,14,2.62,6.08,4,13.32,4,21.73,0,9-1.55,16.86-4.55,23.48-3.25,7.18-7.86,12.18-13.66,15.17a24.76,24.76,0,0,1-7.35,2.38,74.37,74.37,0,0,1-10.8.58H716.88M746,816.35a18,18,0,0,0,6.64-1.06,8.51,8.51,0,0,0,3.68-2.69,14.7,14.7,0,0,0,2.36-5.75,48.77,48.77,0,0,0,1-10.58,40.38,40.38,0,0,0-1-9.47,12.15,12.15,0,0,0-2.25-5,8.52,8.52,0,0,0-3.67-2.43,19.4,19.4,0,0,0-6.67-1h-7v38H746" transform="translate(691 -3.89)"/><polyline class="cls-2" points="1290.85 833.75 1290.85 753.21 1311.24 753.21 1332.53 789.93 1332.53 753.21 1354.02 753.21 1354.02 833.75 1334.29 833.75 1312.34 795.14 1312.34 833.75 1290.85 833.75"/><path class="cls-2" d="M475.29,837.64l27.44-80.54h21.53l27.22,80.54H527.36l-4.9-15H503.77l-4.8,15H475.29m41-35.55-3.05-10.19-3.12,10.19h6.17" transform="translate(691 -3.89)"/><polyline class="cls-2" points="1058.52 774.5 1058.52 753.21 1121.47 753.21 1121.47 774.5 1101.14 774.5 1101.14 833.75 1078.96 833.75 1078.96 774.5 1058.52 774.5"/><path class="cls-2" d="M210,791.64h19.47l-.52,5.22a51.48,51.48,0,0,1-2.68,12.44,45.44,45.44,0,0,1-3.75,7.79l16,20.55H212.29l-3.6-4.53a33.54,33.54,0,0,1-6.56,3.61A30.74,30.74,0,0,1,190.38,839c-7.66,0-13.77-2.36-18.44-6.83s-7.22-10.5-7.22-18a23.43,23.43,0,0,1,4-13.32,38.79,38.79,0,0,1,8.64-8.7,38,38,0,0,1-3.23-5.6,21.5,21.5,0,0,1-1.64-8.61,19.13,19.13,0,0,1,6.51-15,22.26,22.26,0,0,1,15.36-5.59,21.11,21.11,0,0,1,14.73,5.38,18.6,18.6,0,0,1,6.13,14.47,21.85,21.85,0,0,1-3.39,11.87,25,25,0,0,1-1.89,2.59M208.38,799c.19-1,.39-2.13.59-3.38l.57-3.5a33.52,33.52,0,0,1-3.64,3.59l2.48,3.29m-22.29,14.17a5.51,5.51,0,0,0,1.54,4.08,5.41,5.41,0,0,0,4,1.54,9.28,9.28,0,0,0,4-.95c.3-.14.6-.3.89-.46l-7.28-9.76a14.4,14.4,0,0,0-2.09,2.22,5.44,5.44,0,0,0-1.06,3.33M193,777.65a5,5,0,0,0,.64,2.31c.17.31.36.65.59,1a8,8,0,0,0,.9-1,3.85,3.85,0,0,0,.59-2.28,1.09,1.09,0,0,0-.26-.85,1.41,1.41,0,0,0-1-.34,1.56,1.56,0,0,0-1.11.43,1,1,0,0,0-.31.76" transform="translate(691 -3.89)"/><path class="cls-2" d="M-44.62,797.72c0-12.5,3.41-22.49,9.92-30.05C-28,759.85-19,755.83-7.81,755.76c11,0,19.82,3.87,26.57,11.46,6.56,7.37,10,17,10,29,0,12.47-3.4,22.57-10,30.42Q8.51,839-7.78,839c-11.1,0-20-3.93-26.81-11.65-6.6-7.49-10-17.31-10-29.61M-22,796.59c-.12,6.69,1,12.1,3.82,16.1A11.3,11.3,0,0,0-14,816.44a12.87,12.87,0,0,0,5.88,1.25,11.87,11.87,0,0,0,5.55-1.27,13.35,13.35,0,0,0,4.49-4c3-4.08,4.39-9.18,4.39-15.25s-1.36-11-4.3-15a12.68,12.68,0,0,0-4.42-3.89A12.29,12.29,0,0,0-8,777.05a12.69,12.69,0,0,0-5.56,1.16,12,12,0,0,0-4.21,3.51c-2.82,3.64-4.12,8.65-4.22,14.87" transform="translate(691 -3.89)"/><path class="cls-2" d="M-101.18,798.7c.42.44.83.91,1.24,1.43a17.81,17.81,0,0,1,3,7.29,75.5,75.5,0,0,1,1.27,10.49,77.57,77.57,0,0,0,1,9.11,8.71,8.71,0,0,0,.81,3l5.62,7.58h-26.4l-1.41-2.16a11.56,11.56,0,0,1-1.38-3.09c-.22-.76-.73-4.3-1.42-10.66,0,0-.11-1.63-.3-4.69A17,17,0,0,0-120,812a3.79,3.79,0,0,0-1.69-2,9.78,9.78,0,0,0-4.66-.87h-9v28.6H-158V757.1h32.86a53.63,53.63,0,0,1,12.51,1.31,27.42,27.42,0,0,1,9.79,4.33,19.5,19.5,0,0,1,6.36,7.89,25.57,25.57,0,0,1,2,10.44,26.52,26.52,0,0,1-3.66,13.45,22.94,22.94,0,0,1-3.07,4.18m-24.76-10a20.46,20.46,0,0,0,4.87-.48,5.69,5.69,0,0,0,2.21-1,2.52,2.52,0,0,0,.79-1.18,8.7,8.7,0,0,0,.4-3.12,4.83,4.83,0,0,0-.42-2,2.91,2.91,0,0,0-1-1.13c-1.55-1.12-3.9-1.46-6.86-1.46h-9.41v10.34h9.41" transform="translate(691 -3.89)"/><polyline class="cls-2" points="419.15 774.5 419.15 753.21 482.09 753.21 482.09 774.5 461.77 774.5 461.77 833.75 439.58 833.75 439.58 774.5 419.15 774.5"/><path class="cls-2" d="M-383.7,806.85h21.57l.77,3.8c.55,2.7,1.52,4.81,3.2,6.13s4.26,1.89,7.31,1.89,5.47-.44,7.2-1.64a3.59,3.59,0,0,0,1.19-1.27,3.73,3.73,0,0,0,.36-1.73c0-.26-.26-.43-.46-.61a16,16,0,0,0-4.95-2.62c-1.28-.49-3.56-1.37-6.82-2.65s-6.19-2.44-8.7-3.48a59.79,59.79,0,0,1-8-3.89,25,25,0,0,1-5.41-4.34,20.55,20.55,0,0,1-4.41-7.59,30.62,30.62,0,0,1-1.32-9.36,22.24,22.24,0,0,1,2.18-9.91,21.38,21.38,0,0,1,6.47-7.73c5.22-4,12.18-6.09,21-6.09,9.21-.06,16.32,2.25,21.46,6.58s8.49,10.9,9.31,19.61l.49,5.2h-21.9l-.59-4.06a8.11,8.11,0,0,0-2.61-5.32,9.27,9.27,0,0,0-6.16-1.82c-2.45,0-4.43.29-5.8,1.24a2.67,2.67,0,0,0-.84.9,3.72,3.72,0,0,0-.38,1.58,1.21,1.21,0,0,0,.44.84,13.12,13.12,0,0,0,4.37,2.64c2.84,1.24,6.16,2.62,10,4.15s6.66,2.69,8.3,3.36c5.44,2.25,9.44,5.28,12.13,9a22.73,22.73,0,0,1,4.28,13.83,27,27,0,0,1-2.15,11,22,22,0,0,1-6.65,8.5c-5.35,4.19-12.81,6.47-22.54,6.47s-17.24-2.43-22.39-6.86-8.53-11.27-9.42-20.54l-.49-5.2" transform="translate(691 -3.89)"/><polyline class="cls-2" points="233.02 833.75 233.02 753.21 256.35 753.21 256.35 833.75 233.02 833.75"/><path class="cls-2" d="M-574,837.64V757.1h33.86a54.93,54.93,0,0,1,11.39.93,20.71,20.71,0,0,1,8.3,3.84,21.07,21.07,0,0,1,6.24,7.86,23,23,0,0,1,2.13,9.76,23.32,23.32,0,0,1-2.66,10.93,23.53,23.53,0,0,1-2.7,4.09,21.6,21.6,0,0,1,4.2,4.9,22.84,22.84,0,0,1,3.44,12.42,26.72,26.72,0,0,1-2.32,11.06,24.34,24.34,0,0,1-6.69,8.9,23.66,23.66,0,0,1-9.34,4.64,53.42,53.42,0,0,1-12.55,1.21H-574m31.94-21a26.79,26.79,0,0,0,5.6-.49,7.31,7.31,0,0,0,2.67-1A2.48,2.48,0,0,0-533,814a7.64,7.64,0,0,0,.41-2.92,5.87,5.87,0,0,0-.46-2.38,2.46,2.46,0,0,0-.88-1,8.13,8.13,0,0,0-2.69-1,26.28,26.28,0,0,0-5.27-.45h-9.75v10.34h9.53m.44-30.66a16.62,16.62,0,0,0,4-.39,4.52,4.52,0,0,0,1.75-.75,1.79,1.79,0,0,0,.55-.79,5.72,5.72,0,0,0,.3-2.23,4.9,4.9,0,0,0-.33-1.86,1.27,1.27,0,0,0-.41-.53,4.47,4.47,0,0,0-1.68-.64,18.69,18.69,0,0,0-3.92-.35h-10.2v7.54h10" transform="translate(691 -3.89)"/><path class="cls-3" d="M1095.77,793.48h14.16q7,0,10-2.46t3-8.11a8.22,8.22,0,0,0-3.38-6.92q-3.28-2.36-9.64-2.35h-14.16v19.84m-13.13,39.41v-71h28.1q13,0,19.49,4.72t6.44,14.5a21.8,21.8,0,0,1-3,11.07q-3,5.24-7.71,6.69a16.15,16.15,0,0,1,3.67,1.76,12.05,12.05,0,0,1,2.6,2.48q2.47,3.12,3.22,15.14t2.72,14.68h-14.39a7.1,7.1,0,0,1-.81-1.82c-.2-.7-.62-4-1.25-9.85,0-.14-.11-1.63-.28-4.45a22.24,22.24,0,0,0-1.17-6.57,8.33,8.33,0,0,0-3.82-4.45,14.39,14.39,0,0,0-6.94-1.46h-13.72v28.6h-13.13" transform="translate(691 -3.89)"/><path class="cls-3" d="M971,796.51q-.23,11.85,4.67,18.89t14,7a16.42,16.42,0,0,0,13.87-7.25q5.31-7.25,5.31-18.06t-5.24-17.79a16.42,16.42,0,0,0-13.83-7,16.22,16.22,0,0,0-13.52,6.51q-5.05,6.5-5.21,17.7h0m-13.14,1.21q0-16.77,8.77-26.94t23.32-10.27q14.22,0,23,9.86t8.77,25.9q0,16.79-8.85,27.37a28.47,28.47,0,0,1-22.91,10.59q-14.42,0-23.25-10t-8.84-26.47h0" transform="translate(691 -3.89)"/><path class="cls-3" d="M848.74,796.51q-.21,11.85,4.67,18.89t14,7a16.41,16.41,0,0,0,13.87-7.25q5.31-7.25,5.31-18.06t-5.24-17.79a16.42,16.42,0,0,0-13.83-7A16.22,16.22,0,0,0,854,778.81q-5.06,6.5-5.22,17.7h0m-13.13,1.21q0-16.77,8.77-26.94t23.32-10.27q14.22,0,23,9.86t8.77,25.9q0,16.79-8.85,27.37a28.47,28.47,0,0,1-22.91,10.59q-14.4,0-23.25-10t-8.84-26.47h0" transform="translate(691 -3.89)"/><path class="cls-3" d="M734.32,821.1H746q9.75,0,14.07-5.6t4.33-19.23q0-12.43-4.34-17.54t-14-5.09H734.32V821.1m-12.69,11.79v-71h25.82a64.08,64.08,0,0,1,9.88.58,22.36,22.36,0,0,1,6.54,2.09q6.75,3.33,10.35,11.66T777.81,796q0,12.42-4.12,21.52t-11.52,12.91a19.79,19.79,0,0,1-5.94,1.91,70.11,70.11,0,0,1-10,.52H721.63" transform="translate(691 -3.89)"/><polyline class="cls-3" points="1295.6 829 1295.6 757.96 1308.51 757.96 1337.28 807.59 1337.28 757.96 1349.27 757.96 1349.27 829 1337.06 829 1307.59 777.18 1307.59 829 1295.6 829"/><path class="cls-3" d="M503.73,806.85h19l-9.37-31.37-9.59,31.37m-21.8,26,24.2-71h14.72l24,71H530.8l-4.9-15H500.3l-4.79,15H481.93" transform="translate(691 -3.89)"/><polyline class="cls-3" points="1063.27 769.75 1063.27 757.96 1116.72 757.96 1116.72 769.75 1096.39 769.75 1096.39 829 1083.71 829 1083.71 769.75 1063.27 769.75"/><path class="cls-3" d="M188.21,777.65a9.63,9.63,0,0,0,1.18,4.53,29.31,29.31,0,0,0,4.06,5.45,24.76,24.76,0,0,0,5.48-4.92,8.42,8.42,0,0,0,1.49-5.06,5.67,5.67,0,0,0-1.73-4.29,6,6,0,0,0-4.32-1.65A6.2,6.2,0,0,0,190,773.4a5.55,5.55,0,0,0-1.82,4.25h0m-6.86,35.52a10.15,10.15,0,0,0,2.91,7.43,9.94,9.94,0,0,0,7.37,2.94,14,14,0,0,0,6-1.4,17.69,17.69,0,0,0,5.38-4L190.16,800.9a30.13,30.13,0,0,0-6.85,6.14,10.1,10.1,0,0,0-2,6.13h0m-11.88,1a18.81,18.81,0,0,1,3.2-10.67q3.21-4.8,11.3-10.24a50.73,50.73,0,0,1-5.47-8.6,16.72,16.72,0,0,1-1.25-6.72,14.61,14.61,0,0,1,4.92-11.45,17.68,17.68,0,0,1,12.2-4.38,16.55,16.55,0,0,1,11.54,4.14,14.05,14.05,0,0,1,4.57,10.95,17.26,17.26,0,0,1-2.66,9.34,30.2,30.2,0,0,1-8.55,8.3L210,809a16.49,16.49,0,0,0,2-4.4,71.27,71.27,0,0,0,1.7-8.25h10.51a46.79,46.79,0,0,1-2.41,11.28,41.63,41.63,0,0,1-5.12,9.66l12.1,15.56H214.58l-5.13-6.44a32.07,32.07,0,0,1-9.12,5.88,26.19,26.19,0,0,1-10,1.9q-9.39,0-15.15-5.51t-5.76-14.57h0" transform="translate(691 -3.89)"/><path class="cls-3" d="M-26.73,796.51q-.22,11.85,4.66,18.89t14,7a16.41,16.41,0,0,0,13.87-7.25q5.31-7.25,5.31-18.06T5.83,779.34A16.42,16.42,0,0,0-8,772.3a16.22,16.22,0,0,0-13.52,6.51q-5,6.5-5.21,17.7h0m-13.14,1.21q0-16.77,8.77-26.94t23.32-10.27q14.22,0,23,9.86T24,796.27q0,16.79-8.85,27.37A28.47,28.47,0,0,1-7.78,834.23q-14.4,0-23.25-10t-8.84-26.47h0" transform="translate(691 -3.89)"/><path class="cls-3" d="M-140.11,793.48h14.17q7,0,10-2.46c2-1.65,3-4.35,3-8.11a8.2,8.2,0,0,0-3.39-6.92q-3.27-2.36-9.63-2.35h-14.17v19.84m-13.12,39.41v-71h28.1q13,0,19.49,4.72t6.44,14.5a21.71,21.71,0,0,1-3,11.07c-2,3.49-4.58,5.72-7.71,6.69a16.25,16.25,0,0,1,3.68,1.76,12.28,12.28,0,0,1,2.6,2.48q2.47,3.12,3.22,15.14t2.72,14.68h-14.39a6.47,6.47,0,0,1-.81-1.82c-.21-.7-.62-4-1.25-9.85,0-.14-.12-1.63-.28-4.45a22.24,22.24,0,0,0-1.17-6.57,8.33,8.33,0,0,0-3.82-4.45,14.4,14.4,0,0,0-7-1.46h-13.72v28.6h-13.12" transform="translate(691 -3.89)"/><polyline class="cls-3" points="423.89 769.75 423.89 757.96 477.34 757.96 477.34 769.75 457.02 769.75 457.02 829 444.33 829 444.33 769.75 423.89 769.75"/><path class="cls-3" d="M-378.48,811.6H-366q1.23,6,4.93,8.92t10.23,2.9q6.33,0,9.91-2.5a7.92,7.92,0,0,0,3.59-6.89,5.47,5.47,0,0,0-2-4.06,20.3,20.3,0,0,0-6.49-3.6l-6.8-2.64q-4.89-1.9-8.62-3.45a54,54,0,0,1-7.37-3.57,20.12,20.12,0,0,1-4.4-3.5,15.82,15.82,0,0,1-3.37-5.84,25.64,25.64,0,0,1-1.09-7.88,16.46,16.46,0,0,1,6.77-13.85q6.75-5.13,18.13-5.13,11.79-.09,18.41,5.47t7.63,16.42h-12.57a12.72,12.72,0,0,0-4.27-8.29,13.93,13.93,0,0,0-9.2-2.9q-5.49,0-8.5,2.07a7.53,7.53,0,0,0-3.26,6.09,5.74,5.74,0,0,0,1.7,4.37,17.59,17.59,0,0,0,6,3.77c2.87,1.25,6.23,2.65,10.11,4.2l8.27,3.34a23,23,0,0,1,10.1,7.37,18.1,18.1,0,0,1,3.36,11q0,10.34-7,15.8t-19.61,5.46q-12.63,0-19.3-5.71t-7.78-17.39h0" transform="translate(691 -3.89)"/><polyline class="cls-3" points="237.77 829 237.77 757.96 251.6 757.96 251.6 829 237.77 829"/><path class="cls-3" d="M-556.36,790.69h14.72q5.91,0,8.66-2.17c1.83-1.45,2.72-3.72,2.66-6.83q-.1-4.31-2.73-6.18c-1.75-1.24-4.54-1.87-8.36-1.87h-15v17.05m0,30.65h14.28q7.7,0,11-2.38t3.25-8q-.11-5.07-3.48-7.29t-10.57-2.21h-14.5v19.84m-12.91,11.55v-71h29.11a50.89,50.89,0,0,1,10.36.81,16.23,16.23,0,0,1,6.43,3,16.35,16.35,0,0,1,4.83,6.1,18.2,18.2,0,0,1,1.69,7.77,18.64,18.64,0,0,1-2.12,8.73,19.84,19.84,0,0,1-6.11,7,18.27,18.27,0,0,1,7.8,6.75,18.24,18.24,0,0,1,2.72,9.9,22.16,22.16,0,0,1-1.91,9.12,19.81,19.81,0,0,1-5.4,7.19,18.93,18.93,0,0,1-7.46,3.68,48.61,48.61,0,0,1-11.39,1.07h-28.55" transform="translate(691 -3.89)"/></svg>