<?xml version="1.0" encoding="utf-8"?>
<!-- Generator: Adobe Illustrator 21.1.0, SVG Export Plug-In . SVG Version: 6.00 Build 0)  -->
<svg version="1.1" xmlns="http://www.w3.org/2000/svg" xmlns:xlink="http://www.w3.org/1999/xlink" x="0px" y="0px"
	 viewBox="0 0 1920 1080" style="enable-background:new 0 0 1920 1080;" xml:space="preserve" width="100" height="100">
<style type="text/css">
	.st0{fill:none;stroke:#FD6A59;stroke-width:10;stroke-miterlimit:10;}
	.st1{fill:#FFFFFF;stroke:#FD6A59;stroke-width:10;stroke-miterlimit:10;}
	.st2{fill:#FD6A59;}
</style>
<g id="Layer_1">
	<ellipse class="st0" cx="1073.5" cy="633.5" rx="267.5" ry="269.5"/>
	<ellipse class="st0" cx="1073.5" cy="633.5" rx="247.6" ry="249.5"/>
	<path class="st1" d="M1043,802c0,0-162-54-162-185s109-154,200-260s185-91,211-40s52,190,25,272s-54,184-97,207S1062,802,1043,802z
		"/>
	<path class="st1" d="M1152,501c0,5-6,18-6,18"/>
	<path class="st2" d="M1120,522.2c-2.2-1.3-5.6-0.6-6.8,1.8c-2.1,4.1-2.7,8.4-1.8,12.9c0.5,2.7,3.7,4.2,6.2,3.5
		c2.8-0.8,4-3.5,3.5-6.2c-0.3-1.6,0-3.6,0.8-5.2C1123.1,526.7,1122.4,523.6,1120,522.2z"/>
	<path class="st2" d="M1020.3,516.3c-0.9-3.5-1.7-7.1-2.6-10.6c-1.5-6.2-11.2-3.6-9.6,2.7c0.9,3.5,1.7,7.1,2.6,10.6
		C1012.2,525.2,1021.8,522.5,1020.3,516.3z"/>
	<path class="st2" d="M1015.1,559.6v10.5c0,6.4,10,6.4,10,0v-10.5C1025.1,553.2,1015.1,553.1,1015.1,559.6z"/>
	<path class="st2" d="M962.8,600.3c-1.4,5.9-2,11.8-1.7,17.8c0.3,6.4,10.3,6.4,10,0c-0.3-5.1,0.1-10.1,1.3-15.2
		C973.9,596.7,964.2,594,962.8,600.3z"/>
	<path class="st2" d="M1038.4,711.3c-3.6-8.7-6-17.7-7.4-27c-1-6.3-10.6-3.6-9.6,2.7c1.4,9.3,3.9,18.3,7.4,27
		C1031.1,719.8,1040.8,717.2,1038.4,711.3z"/>
	<path class="st2" d="M1266,519.5c-3.8-6.8-9.1-12.3-15.5-16.6c-5.4-3.6-10.4,5.1-5,8.6c5,3.3,9,7.8,11.9,13
		C1260.5,530.2,1269.1,525.1,1266,519.5z"/>
	<path class="st2" d="M1150.6,433.1h-19.5c-6.4,0-6.4,10,0,10h19.5C1157,443.1,1157,433.1,1150.6,433.1z"/>
	<path class="st2" d="M1090.8,424.3c-8,5-15.3,10.9-21.7,17.8c-4.4,4.7,2.7,11.8,7.1,7.1c5.8-6.3,12.4-11.7,19.6-16.2
		C1101.3,429.6,1096.3,420.9,1090.8,424.3z"/>
	<path class="st2" d="M1210.1,501.1v10.5c0,6.4,10,6.4,10,0v-10.5C1220.1,494.7,1210.1,494.6,1210.1,501.1z"/>
	<path class="st2" d="M1155.1,583.1c-6.4,0-6.4,10,0,10C1161.5,593.1,1161.5,583.1,1155.1,583.1z"/>
	<path class="st2" d="M1068.1,596.6c-6.4,0-6.4,10,0,10C1074.5,606.6,1074.5,596.6,1068.1,596.6z"/>
	<path class="st2" d="M1150.2,712.2c-2.6-0.6-5.5,0.8-6.2,3.5l-1.5,6c-0.6,2.5,0.8,5.5,3.5,6.2c2.6,0.6,5.5-0.8,6.2-3.5
		c0.5-2,1-4,1.5-6C1154.4,715.8,1152.9,712.8,1150.2,712.2z"/>
	<path class="st2" d="M1272.1,569.6c-6.4,0-6.4,10,0,10C1278.5,579.6,1278.5,569.6,1272.1,569.6z"/>
	<path class="st2" d="M1252.1,463.8c-3-2-6-4-9-6c-2.2-1.5-5.5-0.4-6.8,1.8c-1.4,2.5-0.5,5.3,1.8,6.8c3,2,6,4,9,6
		c2.2,1.5,5.5,0.4,6.8-1.8C1255.3,468.2,1254.4,465.3,1252.1,463.8z"/>
	<path class="st2" d="M1179.1,418.1c-6.4,0-6.4,10,0,10C1185.5,428.1,1185.5,418.1,1179.1,418.1z"/>
	<path class="st2" d="M1259.8,661.8c-1.1,4.5-2.1,9-3.2,13.5c-1.5,6.3,8.2,8.9,9.6,2.7c1.1-4.5,2.1-9,3.2-13.5
		C1270.9,658.2,1261.3,655.5,1259.8,661.8z"/>
	<path class="st2" d="M1162.4,663.5c-1.3-2.2-4.6-3.3-6.8-1.8c-3,2-6,4-9,6c-2.2,1.5-3.2,4.4-1.8,6.8c1.3,2.2,4.6,3.3,6.8,1.8
		c3-2,6-4,9-6C1162.8,668.8,1163.8,665.9,1162.4,663.5z"/>
	<path class="st2" d="M1119.1,667.1c-6.4,0-6.4,10,0,10C1125.5,677.1,1125.5,667.1,1119.1,667.1z"/>
	<path class="st2" d="M1198.6,341.6h-9c-2.7,0-5,2.3-5,5c0,2.7,2.3,5,5,5h9c2.7,0,5-2.3,5-5C1203.6,343.9,1201.3,341.6,1198.6,341.6
		z"/>
	<path class="st2" d="M1254.4,366.3c-4.1-17.2-13.4-32.7-26.8-44.2c-4.8-4.2-12,2.9-7.1,7.1c12.2,10.5,20.5,24.1,24.2,39.8
		C1246.2,375.2,1255.9,372.5,1254.4,366.3z"/>
	<path class="st2" d="M1142.5,367.7c-2.3-1.2-5.6-0.7-6.8,1.8c-1,2-2,4-3,6c-1.2,2.3-0.7,5.5,1.8,6.8c2.3,1.2,5.6,0.7,6.8-1.8
		c1-2,2-4,3-6C1145.5,372.2,1145,369,1142.5,367.7z"/>
	<path class="st2" d="M986.9,546.3c-2.5,6.5-5.1,13-7.6,19.5c-2.3,6,7.3,8.6,9.6,2.7c2.5-6.5,5.1-13,7.6-19.5
		C998.8,543,989.2,540.4,986.9,546.3z"/>
	<path class="st2" d="M963.1,668.6c-6.4,0-6.4,10,0,10C969.5,678.6,969.5,668.6,963.1,668.6z"/>
	<path class="st2" d="M1054.6,649.1c-6.4,0-6.4,10,0,10C1061,659.1,1061,649.1,1054.6,649.1z"/>
	<path class="st2" d="M1083.1,511.1c-6.4,0-6.4,10,0,10C1089.5,521.1,1089.5,511.1,1083.1,511.1z"/>
	<path class="st2" d="M1116.6,569.6c-0.9-0.9-2.3-1.5-3.5-1.5c-2.7,0.1-5,2.2-5,5v3c0,1.3,0.6,2.6,1.5,3.5c0.9,0.9,2.3,1.5,3.5,1.5
		c2.7-0.1,5-2.2,5-5v-3C1118.1,571.8,1117.5,570.5,1116.6,569.6z"/>
	<g>
		<path class="st2" d="M1183.3,573.6c-1.9-4.5-6.9-7.3-11.7-7.2c-2.6,0.1-5.1,2.2-5,5c0.1,2.6,2.2,5.1,5,5c0.3,0,0.6,0,0.8,0
			c-0.1,0-0.2,0-0.3,0c0.1,0,0.3,0,0.4,0.1c0,0,0.2,0.1,0.4,0.1c0.2,0.1,0.6,0.3,0.6,0.3c0,0,0,0,0,0c0.1,0.1,0.3,0.3,0.4,0.4
			c0.1,0.1,0.1,0.2,0.2,0.3c0.2,0.3,0.3,0.6,0.5,1c1,2.4,4.8,3.1,6.8,1.8C1184,578.8,1184.4,576.2,1183.3,573.6z"/>
		<path class="st2" d="M1172.1,576.5C1171.9,576.4,1171.9,576.5,1172.1,576.5L1172.1,576.5z"/>
	</g>
	<path class="st2" d="M1198.6,625.1c-6.4,0-6.4,10,0,10C1205,635.1,1205,625.1,1198.6,625.1z"/>
	<path class="st2" d="M1092.6,736c-1-0.9-2.2-1.5-3.5-1.5h-1.5c-1.3,0-2.6,0.6-3.5,1.5c-0.9,0.9-1.5,2.3-1.5,3.5
		c0.1,1.3,0.5,2.6,1.5,3.5c1,0.9,2.2,1.5,3.5,1.5h1.5c1.3,0,2.6-0.6,3.5-1.5c0.9-0.9,1.5-2.3,1.5-3.5
		C1094,738.3,1093.6,736.9,1092.6,736z"/>
	<path class="st2" d="M999.1,745.1c-6.4,0-6.4,10,0,10C1005.5,755.1,1005.5,745.1,999.1,745.1z"/>
	<path class="st2" d="M1131.1,770.6h-3c-1.3,0-2.6,0.6-3.5,1.5c-0.9,0.9-1.5,2.3-1.5,3.5c0.1,2.7,2.2,5,5,5h3c1.3,0,2.6-0.6,3.5-1.5
		c0.9-0.9,1.5-2.3,1.5-3.5C1136,772.9,1133.9,770.6,1131.1,770.6z"/>
	<path class="st2" d="M1207.2,744.3c-2.3-1.2-5.6-0.7-6.8,1.8c-1,2-2,4-3,6c-1.2,2.3-0.7,5.5,1.8,6.8c2.3,1.2,5.6,0.7,6.8-1.8
		c1-2,2-4,3-6C1210.2,748.8,1209.7,745.6,1207.2,744.3z"/>
	<path class="st2" d="M1215.1,697.1c-6.4,0-6.4,10,0,10C1221.5,707.1,1221.5,697.1,1215.1,697.1z"/>
	<path class="st2" d="M1221.3,684.2c-0.3-1.2-1.2-2.4-2.3-3c-1.2-0.6-2.6-0.9-3.9-0.5c-1.2,0.4-2.4,1.1-3,2.3c-0.5,1-1,2-1.5,3
		c-0.6,1.2-0.9,2.5-0.5,3.9c0.3,1.2,1.2,2.4,2.3,3c1.2,0.6,2.6,0.9,3.9,0.5c1.2-0.4,2.4-1.1,3-2.3c0.5-1,1-2,1.5-3
		C1221.4,686.8,1221.6,685.5,1221.3,684.2z"/>
	<path class="st2" d="M1242.1,613.1c-6.4,0-6.4,10,0,10C1248.5,623.1,1248.5,613.1,1242.1,613.1z"/>
	<path class="st2" d="M1129.6,611.6c-6.4,0-6.4,10,0,10C1136,621.6,1136,611.6,1129.6,611.6z"/>
	<path class="st2" d="M1048.6,454.1c-6.4,0-6.4,10,0,10C1055,464.1,1055,454.1,1048.6,454.1z"/>
	<path class="st2" d="M934.6,517.1c-2.7,0.1-5,2.2-5,5v6c0,2.6,2.3,5.1,5,5c2.7-0.1,5-2.2,5-5v-6C939.6,519.5,937.3,517,934.6,517.1
		z"/>
	<path class="st2" d="M967.6,716.2c-7.4-0.9-13.7-5.4-17.5-11.7c-3.3-5.5-12-0.5-8.6,5c5.7,9.6,15.1,15.3,26.1,16.7
		C974,727,973.9,717,967.6,716.2z"/>
	<path class="st2" d="M1293.6,385.1c-1-0.9-2.2-1.5-3.5-1.5h-1.5c-1.3,0-2.6,0.6-3.5,1.5c-0.9,0.9-1.5,2.3-1.5,3.5
		c0.1,1.3,0.5,2.6,1.5,3.5c1,0.9,2.2,1.5,3.5,1.5h1.5c1.3,0,2.6-0.6,3.5-1.5c0.9-0.9,1.5-2.3,1.5-3.5
		C1295,387.3,1294.6,386,1293.6,385.1z"/>
	<path class="st2" d="M1228.6,409.1c-6.4,0-6.4,10,0,10C1235,419.1,1235,409.1,1228.6,409.1z"/>
	<path class="st2" d="M1206.4,457.8c-0.3-1.2-1.2-2.4-2.3-3c-1.2-0.6-2.6-0.9-3.9-0.5c-1.2,0.4-2.4,1.1-3,2.3c-0.5,1-1,2-1.5,3
		c-0.6,1.2-0.9,2.5-0.5,3.9c0.3,1.2,1.2,2.4,2.3,3c1.2,0.6,2.6,0.9,3.9,0.5c1.2-0.4,2.4-1.1,3-2.3c0.5-1,1-2,1.5-3
		C1206.5,460.4,1206.8,459.1,1206.4,457.8z"/>
	<path class="st2" d="M1313.1,492.2c-0.5-1.5-1-3-1.5-4.5c-0.8-2.5-3.5-4.3-6.2-3.5c-2.5,0.8-4.4,3.5-3.5,6.2c0.5,1.5,1,3,1.5,4.5
		c0.8,2.5,3.5,4.3,6.2,3.5C1312.1,497.5,1314,494.9,1313.1,492.2z"/>
	<path class="st2" d="M1311.6,533.6c-1-0.9-2.2-1.5-3.5-1.5c-1.3,0.1-2.6,0.5-3.5,1.5c-0.5,0.5-1,1-1.5,1.5
		c-0.9,0.9-1.5,2.3-1.5,3.5c0,1.2,0.5,2.7,1.5,3.5c1,0.9,2.2,1.5,3.5,1.5c1.3-0.1,2.6-0.5,3.5-1.5l1.5-1.5c0.9-0.9,1.5-2.3,1.5-3.5
		C1313.1,535.9,1312.5,534.4,1311.6,533.6z"/>
	<path class="st2" d="M1239.1,579.3c-0.5-1.5-1-3-1.5-4.5c-0.8-2.5-3.5-4.3-6.2-3.5c-2.5,0.8-4.4,3.5-3.5,6.2c0.5,1.5,1,3,1.5,4.5
		c0.8,2.5,3.5,4.3,6.2,3.5C1238.1,584.7,1240,582,1239.1,579.3z"/>
	<path class="st2" d="M1295.1,602.6c-0.9-0.9-2.3-1.5-3.5-1.5c-1.3,0.1-2.6,0.5-3.5,1.5c-0.9,1-1.5,2.2-1.5,3.5v1.5
		c0,1.3,0.6,2.6,1.5,3.5c0.9,0.9,2.3,1.5,3.5,1.5c1.3-0.1,2.6-0.5,3.5-1.5c0.9-1,1.5-2.2,1.5-3.5v-1.5
		C1296.6,604.8,1296,603.5,1295.1,602.6z"/>
	<path class="st2" d="M1200.1,524.6c-6.4,0-6.4,10,0,10C1206.5,534.6,1206.5,524.6,1200.1,524.6z"/>
	<path class="st2" d="M1164.1,469.1c-6.4,0-6.4,10,0,10C1170.5,479.1,1170.5,469.1,1164.1,469.1z"/>
	<path class="st2" d="M1075.6,472.1c-6.4,0-6.4,10,0,10C1082,482.1,1082,472.1,1075.6,472.1z"/>
	<path class="st2" d="M1011.1,472.1c-6.4,0-6.4,10,0,10C1017.5,482.1,1017.5,472.1,1011.1,472.1z"/>
	<path class="st2" d="M930,583.3c-2.8-0.6-5.2,0.8-6.2,3.5c-0.5,1.5-1,3-1.5,4.5c-0.8,2.5,1,5.6,3.5,6.2c2.8,0.6,5.2-0.8,6.2-3.5
		c0.5-1.5,1-3,1.5-4.5C934.4,587,932.6,583.9,930,583.3z"/>
	<path class="st2" d="M936.5,657.2c-2.4-5.8-4-11.9-4.5-18.1c-0.5-6.4-10.5-6.4-10,0c0.6,7.2,2.1,14.1,4.8,20.8
		c1,2.5,3.3,4.2,6.2,3.5C935.4,662.8,937.5,659.7,936.5,657.2z"/>
	<path class="st2" d="M988.6,635.6c-6.4,0-6.4,10,0,10C995,645.6,995,635.6,988.6,635.6z"/>
	<path class="st2" d="M1018.5,625c-3.5-1.1-7-2.1-10.5-3.2c-6.2-1.9-8.8,7.8-2.7,9.6c3.5,1.1,7,2.1,10.5,3.2
		C1022,636.6,1024.6,626.9,1018.5,625z"/>
	<path class="st2" d="M1080.1,560.6c-6.4,0-6.4,10,0,10C1086.5,570.6,1086.5,560.6,1080.1,560.6z"/>
	<path class="st2" d="M1063.6,527c-0.5-1-1-2-1.5-3c-0.6-1.1-1.8-2-3-2.3c-1.2-0.3-2.8-0.2-3.9,0.5c-2.4,1.5-3.1,4.3-1.8,6.8
		c0.5,1,1,2,1.5,3c0.6,1.1,1.8,2,3,2.3c1.2,0.3,2.8,0.2,3.9-0.5C1064.2,532.3,1064.8,529.5,1063.6,527z"/>
	<path class="st2" d="M1060.6,760.1c-2.7,0.1-5,2.2-5,5v4.5c0,2.6,2.3,5.1,5,5c2.7-0.1,5-2.2,5-5v-4.5
		C1065.6,762.5,1063.3,760,1060.6,760.1z"/>
	<path class="st2" d="M1077.5,781.6c-0.4-1.2-1.1-2.4-2.3-3c-1-0.5-2-1-3-1.5c-1.2-0.6-2.5-0.9-3.9-0.5c-1.2,0.3-2.4,1.2-3,2.3
		c-0.6,1.2-0.9,2.6-0.5,3.9c0.4,1.2,1.1,2.4,2.3,3c1,0.5,2,1,3,1.5c1.2,0.6,2.5,0.9,3.9,0.5c1.2-0.3,2.4-1.2,3-2.3
		C1077.6,784.3,1077.9,782.9,1077.5,781.6z"/>
	<path class="st2" d="M1113.1,779.6c-6.4,0-6.4,10,0,10C1119.5,789.6,1119.5,779.6,1113.1,779.6z"/>
	<path class="st2" d="M1050.1,725.6c-6.4,0-6.4,10,0,10C1056.5,735.6,1056.5,725.6,1050.1,725.6z"/>
	<path class="st2" d="M1092.1,665.6c-6.4,0-6.4,10,0,10C1098.5,675.6,1098.5,665.6,1092.1,665.6z"/>
	<path class="st2" d="M1123.6,727.1c-6.4,0-6.4,10,0,10C1130,737.1,1130,727.1,1123.6,727.1z"/>
	<path class="st2" d="M1075.6,692.6c-6.4,0-6.4,10,0,10C1082,702.6,1082,692.6,1075.6,692.6z"/>
	<path class="st2" d="M1168.6,709.1c-6.4,0-6.4,10,0,10C1175,719.1,1175,709.1,1168.6,709.1z"/>
	<path class="st2" d="M1159.6,757.1c-6.4,0-6.4,10,0,10C1166,767.1,1166,757.1,1159.6,757.1z"/>
	<path class="st2" d="M1245.6,731.5c-0.9-0.9-2.3-1.5-3.5-1.5c-1.3,0.1-2.6,0.5-3.5,1.5c-0.9,1-1.5,2.2-1.5,3.5v1.5
		c0,1.3,0.6,2.6,1.5,3.5c0.9,0.9,2.3,1.5,3.5,1.5c1.3-0.1,2.6-0.5,3.5-1.5c0.9-1,1.5-2.2,1.5-3.5v-1.5
		C1247.1,733.8,1246.5,732.5,1245.6,731.5z"/>
	<path class="st2" d="M1275.1,641.6c-6.4,0-6.4,10,0,10C1281.5,651.6,1281.5,641.6,1275.1,641.6z"/>
	<path class="st2" d="M1210.6,595.1c-6.4,0-6.4,10,0,10C1217,605.1,1217,595.1,1210.6,595.1z"/>
	<path class="st2" d="M1165.6,616.1c-6.4,0-6.4,10,0,10C1172,626.1,1172,616.1,1165.6,616.1z"/>
	<path class="st2" d="M1197.1,673.1c-6.4,0-6.4,10,0,10C1203.5,683.1,1203.5,673.1,1197.1,673.1z"/>
	<path class="st2" d="M1092.1,392.6c-6.4,0-6.4,10,0,10C1098.5,402.6,1098.5,392.6,1092.1,392.6z"/>
	<path class="st2" d="M1150.5,318.7c-1.4-2.2-4.5-3.3-6.8-1.8c-1.5,1-3,2-4.5,3c-2.2,1.4-3.3,4.5-1.8,6.8c1.4,2.2,4.5,3.3,6.8,1.8
		c1.5-1,3-2,4.5-3C1150.8,324.1,1152,321,1150.5,318.7z"/>
	<path class="st2" d="M1222.6,298.1c-6.4,0-6.4,10,0,10C1229,308.1,1229,298.1,1222.6,298.1z"/>
	<path class="st2" d="M1272.1,323.6c-6.4,0-6.4,10,0,10C1278.5,333.6,1278.5,323.6,1272.1,323.6z"/>
	<path class="st2" d="M1200.1,374.6c-6.4,0-6.4,10,0,10C1206.5,384.6,1206.5,374.6,1200.1,374.6z"/>
	<path class="st2" d="M1279.6,424.1c-6.4,0-6.4,10,0,10C1286,434.1,1286,424.1,1279.6,424.1z"/>
	<path class="st2" d="M1285.6,452.6c-6.4,0-6.4,10,0,10C1292,462.6,1292,452.6,1285.6,452.6z"/>
	<path class="st2" d="M1263.1,389.6c-6.4,0-6.4,10,0,10C1269.5,399.6,1269.5,389.6,1263.1,389.6z"/>
	<path class="st2" d="M1307.1,447.2c-0.5-3.5-1-7-1.5-10.5c-0.4-2.7-3.8-4.1-6.2-3.5c-2.9,0.8-3.9,3.5-3.5,6.2c0.5,3.5,1,7,1.5,10.5
		c0.4,2.7,3.8,4.1,6.2,3.5C1306.4,452.6,1307.4,449.9,1307.1,447.2z"/>
</g>
<g id="Layer_2">
</g>
</svg>
