<?xml version="1.0" encoding="utf-8"?>
<!-- Generator: Adobe Illustrator 21.1.0, SVG Export Plug-In . SVG Version: 6.00 Build 0)  -->
<svg version="1.1" xmlns="http://www.w3.org/2000/svg" xmlns:xlink="http://www.w3.org/1999/xlink" x="0px" y="0px"
	 viewBox="0 0 562 650" style="enable-background:new 0 0 562 650;" xml:space="preserve" width="55" height="55"> 
<style type="text/css">
	.st0{fill:none;stroke:#F7931E;stroke-width:10;stroke-miterlimit:10;}
	.st1{fill:#FFFFFF;stroke:#FBB03B;stroke-width:10;stroke-miterlimit:10;}
	.st2{fill:#FBB03B;}
</style>
<g id="Layer_1">
	<g>
		<ellipse class="st0" cx="281" cy="368.1" rx="267.5" ry="269.5"/>
		<ellipse class="st0" cx="281" cy="368.1" rx="247.6" ry="249.5"/>
		<path class="st1" d="M250.5,536.6c0,0-162-54-162-185s109-154,200-260s185-91,211-40s52,190,25,272s-54,184-97,207
			C384.5,553.6,269.5,536.6,250.5,536.6z"/>
		<path class="st1" d="M359.5,235.6c0,5-6,18-6,18"/>
		<path class="st2" d="M327.5,256.8c-2.2-1.3-5.6-0.6-6.8,1.8c-2.1,4.1-2.7,8.4-1.8,12.9c0.5,2.7,3.7,4.2,6.2,3.5
			c2.8-0.8,4-3.5,3.5-6.2c-0.3-1.6,0-3.6,0.8-5.2C330.6,261.3,329.9,258.3,327.5,256.8z"/>
		<path class="st2" d="M227.8,250.9c-0.9-3.5-1.7-7.1-2.6-10.6c-1.5-6.2-11.2-3.6-9.6,2.7c0.9,3.5,1.7,7.1,2.6,10.6
			C219.7,259.8,229.3,257.2,227.8,250.9z"/>
		<path class="st2" d="M222.6,294.2v10.5c0,6.4,10,6.4,10,0v-10.5C232.6,287.8,222.6,287.8,222.6,294.2z"/>
		<path class="st2" d="M170.3,334.9c-1.4,5.9-2,11.8-1.7,17.8c0.3,6.4,10.3,6.4,10,0c-0.3-5.1,0.1-10.1,1.3-15.2
			C181.4,331.3,171.7,328.6,170.3,334.9z"/>
		<path class="st2" d="M245.9,445.9c-3.6-8.7-6-17.7-7.4-27c-1-6.3-10.6-3.6-9.6,2.7c1.4,9.3,3.9,18.3,7.4,27
			C238.6,454.4,248.3,451.9,245.9,445.9z"/>
		<path class="st2" d="M473.5,254.1c-3.8-6.8-9.1-12.3-15.5-16.6c-5.4-3.6-10.4,5.1-5,8.6c5,3.3,9,7.8,11.9,13
			C468,264.8,476.6,259.8,473.5,254.1z"/>
		<path class="st2" d="M358.1,167.7h-19.5c-6.4,0-6.4,10,0,10h19.5C364.5,177.7,364.5,167.7,358.1,167.7z"/>
		<path class="st2" d="M298.3,159c-8,5-15.3,10.9-21.7,17.8c-4.4,4.7,2.7,11.8,7.1,7.1c5.8-6.3,12.4-11.7,19.6-16.2
			C308.8,164.2,303.8,155.5,298.3,159z"/>
		<path class="st2" d="M417.6,235.7v10.5c0,6.4,10,6.4,10,0v-10.5C427.6,229.3,417.6,229.3,417.6,235.7z"/>
		<path class="st2" d="M362.6,317.7c-6.4,0-6.4,10,0,10C369,327.7,369,317.7,362.6,317.7z"/>
		<path class="st2" d="M275.6,331.2c-6.4,0-6.4,10,0,10C282,341.2,282,331.2,275.6,331.2z"/>
		<path class="st2" d="M357.7,446.8c-2.6-0.6-5.5,0.8-6.2,3.5l-1.5,6c-0.6,2.5,0.8,5.5,3.5,6.2c2.6,0.6,5.5-0.8,6.2-3.5
			c0.5-2,1-4,1.5-6C361.9,450.5,360.4,447.4,357.7,446.8z"/>
		<path class="st2" d="M479.6,304.2c-6.4,0-6.4,10,0,10C486,314.2,486,304.2,479.6,304.2z"/>
		<path class="st2" d="M459.6,198.4c-3-2-6-4-9-6c-2.2-1.5-5.5-0.4-6.8,1.8c-1.4,2.5-0.5,5.3,1.8,6.8c3,2,6,4,9,6
			c2.2,1.5,5.5,0.4,6.8-1.8C462.8,202.8,461.9,199.9,459.6,198.4z"/>
		<path class="st2" d="M386.6,152.7c-6.4,0-6.4,10,0,10C393,162.7,393,152.7,386.6,152.7z"/>
		<path class="st2" d="M467.3,396.4c-1.1,4.5-2.1,9-3.2,13.5c-1.5,6.3,8.2,8.9,9.6,2.7c1.1-4.5,2.1-9,3.2-13.5
			C478.4,392.8,468.8,390.1,467.3,396.4z"/>
		<path class="st2" d="M369.9,398.1c-1.3-2.2-4.6-3.3-6.8-1.8c-3,2-6,4-9,6c-2.2,1.5-3.2,4.4-1.8,6.8c1.3,2.2,4.6,3.3,6.8,1.8
			c3-2,6-4,9-6C370.3,403.5,371.3,400.6,369.9,398.1z"/>
		<path class="st2" d="M326.6,401.7c-6.4,0-6.4,10,0,10C333,411.7,333,401.7,326.6,401.7z"/>
		<path class="st2" d="M406.1,76.2h-9c-2.7,0-5,2.3-5,5c0,2.7,2.3,5,5,5h9c2.7,0,5-2.3,5-5C411.1,78.5,408.8,76.2,406.1,76.2z"/>
		<path class="st2" d="M461.9,100.9c-4.1-17.2-13.4-32.7-26.8-44.2c-4.8-4.2-12,2.9-7.1,7.1c12.2,10.5,20.5,24.1,24.2,39.8
			C453.7,109.8,463.4,107.2,461.9,100.9z"/>
		<path class="st2" d="M350,102.4c-2.3-1.2-5.6-0.7-6.8,1.8c-1,2-2,4-3,6c-1.2,2.3-0.7,5.5,1.8,6.8c2.3,1.2,5.6,0.7,6.8-1.8
			c1-2,2-4,3-6C353,106.9,352.5,103.7,350,102.4z"/>
		<path class="st2" d="M194.4,280.9c-2.5,6.5-5.1,13-7.6,19.5c-2.3,6,7.3,8.6,9.6,2.7c2.5-6.5,5.1-13,7.6-19.5
			C206.3,277.6,196.7,275,194.4,280.9z"/>
		<path class="st2" d="M170.6,403.2c-6.4,0-6.4,10,0,10C177,413.2,177,403.2,170.6,403.2z"/>
		<path class="st2" d="M262.1,383.7c-6.4,0-6.4,10,0,10C268.5,393.7,268.5,383.7,262.1,383.7z"/>
		<path class="st2" d="M290.6,245.7c-6.4,0-6.4,10,0,10C297,255.7,297,245.7,290.6,245.7z"/>
		<path class="st2" d="M324.1,304.2c-0.9-0.9-2.3-1.5-3.5-1.5c-2.7,0.1-5,2.2-5,5v3c0,1.3,0.6,2.6,1.5,3.5c0.9,0.9,2.3,1.5,3.5,1.5
			c2.7-0.1,5-2.2,5-5v-3C325.6,306.4,325,305.1,324.1,304.2z"/>
		<g>
			<path class="st2" d="M390.8,308.2c-1.9-4.5-6.9-7.3-11.7-7.2c-2.6,0.1-5.1,2.2-5,5c0.1,2.6,2.2,5.1,5,5c0.3,0,0.6,0,0.8,0
				c-0.1,0-0.2,0-0.3,0c0.1,0,0.3,0,0.4,0.1c0,0,0.2,0.1,0.4,0.1c0.2,0.1,0.6,0.3,0.6,0.3c0,0,0,0,0,0c0.1,0.1,0.3,0.3,0.4,0.4
				c0.1,0.1,0.1,0.2,0.2,0.3c0.2,0.3,0.3,0.6,0.5,1c1,2.4,4.8,3.1,6.8,1.8C391.5,313.5,391.9,310.8,390.8,308.2z"/>
			<path class="st2" d="M379.6,311.1C379.4,311.1,379.4,311.1,379.6,311.1L379.6,311.1z"/>
		</g>
		<path class="st2" d="M406.1,359.7c-6.4,0-6.4,10,0,10C412.5,369.7,412.5,359.7,406.1,359.7z"/>
		<path class="st2" d="M300.1,470.7c-1-0.9-2.2-1.5-3.5-1.5h-1.5c-1.3,0-2.6,0.6-3.5,1.5c-0.9,0.9-1.5,2.3-1.5,3.5
			c0.1,1.3,0.5,2.6,1.5,3.5c1,0.9,2.2,1.5,3.5,1.5h1.5c1.3,0,2.6-0.6,3.5-1.5c0.9-0.9,1.5-2.3,1.5-3.5
			C301.5,472.9,301.1,471.6,300.1,470.7z"/>
		<path class="st2" d="M206.6,479.7c-6.4,0-6.4,10,0,10C213,489.7,213,479.7,206.6,479.7z"/>
		<path class="st2" d="M338.6,505.2h-3c-1.3,0-2.6,0.6-3.5,1.5c-0.9,0.9-1.5,2.3-1.5,3.5c0.1,2.7,2.2,5,5,5h3c1.3,0,2.6-0.6,3.5-1.5
			c0.9-0.9,1.5-2.3,1.5-3.5C343.5,507.5,341.4,505.2,338.6,505.2z"/>
		<path class="st2" d="M414.7,478.9c-2.3-1.2-5.6-0.7-6.8,1.8c-1,2-2,4-3,6c-1.2,2.3-0.7,5.5,1.8,6.8c2.3,1.2,5.6,0.7,6.8-1.8
			c1-2,2-4,3-6C417.7,483.4,417.2,480.3,414.7,478.9z"/>
		<path class="st2" d="M422.6,431.7c-6.4,0-6.4,10,0,10C429,441.7,429,431.7,422.6,431.7z"/>
		<path class="st2" d="M428.8,418.8c-0.3-1.2-1.2-2.4-2.3-3c-1.2-0.6-2.6-0.9-3.9-0.5c-1.2,0.4-2.4,1.1-3,2.3c-0.5,1-1,2-1.5,3
			c-0.6,1.2-0.9,2.5-0.5,3.9c0.3,1.2,1.2,2.4,2.3,3c1.2,0.6,2.6,0.9,3.9,0.5c1.2-0.4,2.4-1.1,3-2.3c0.5-1,1-2,1.5-3
			C428.9,421.5,429.1,420.1,428.8,418.8z"/>
		<path class="st2" d="M449.6,347.7c-6.4,0-6.4,10,0,10C456,357.7,456,347.7,449.6,347.7z"/>
		<path class="st2" d="M337.1,346.2c-6.4,0-6.4,10,0,10C343.5,356.2,343.5,346.2,337.1,346.2z"/>
		<path class="st2" d="M256.1,188.7c-6.4,0-6.4,10,0,10C262.5,198.7,262.5,188.7,256.1,188.7z"/>
		<path class="st2" d="M142.1,251.7c-2.7,0.1-5,2.2-5,5v6c0,2.6,2.3,5.1,5,5c2.7-0.1,5-2.2,5-5v-6
			C147.1,254.1,144.8,251.6,142.1,251.7z"/>
		<path class="st2" d="M175.1,450.8c-7.4-0.9-13.7-5.4-17.5-11.7c-3.3-5.5-12-0.5-8.6,5c5.7,9.6,15.1,15.3,26.1,16.7
			C181.5,461.6,181.4,451.6,175.1,450.8z"/>
		<path class="st2" d="M501.1,119.7c-1-0.9-2.2-1.5-3.5-1.5h-1.5c-1.3,0-2.6,0.6-3.5,1.5c-0.9,0.9-1.5,2.3-1.5,3.5
			c0.1,1.3,0.5,2.6,1.5,3.5c1,0.9,2.2,1.5,3.5,1.5h1.5c1.3,0,2.6-0.6,3.5-1.5c0.9-0.9,1.5-2.3,1.5-3.5
			C502.5,121.9,502.1,120.6,501.1,119.7z"/>
		<path class="st2" d="M436.1,143.7c-6.4,0-6.4,10,0,10C442.5,153.7,442.5,143.7,436.1,143.7z"/>
		<path class="st2" d="M413.9,192.4c-0.3-1.2-1.2-2.4-2.3-3c-1.2-0.6-2.6-0.9-3.9-0.5c-1.2,0.4-2.4,1.1-3,2.3c-0.5,1-1,2-1.5,3
			c-0.6,1.2-0.9,2.5-0.5,3.9c0.3,1.2,1.2,2.4,2.3,3c1.2,0.6,2.6,0.9,3.9,0.5c1.2-0.4,2.4-1.1,3-2.3c0.5-1,1-2,1.5-3
			C414,195,414.3,193.7,413.9,192.4z"/>
		<path class="st2" d="M520.6,226.8c-0.5-1.5-1-3-1.5-4.5c-0.8-2.5-3.5-4.3-6.2-3.5c-2.5,0.8-4.4,3.5-3.5,6.2c0.5,1.5,1,3,1.5,4.5
			c0.8,2.5,3.5,4.3,6.2,3.5C519.6,232.2,521.5,229.5,520.6,226.8z"/>
		<path class="st2" d="M519.1,268.2c-1-0.9-2.2-1.5-3.5-1.5c-1.3,0.1-2.6,0.5-3.5,1.5c-0.5,0.5-1,1-1.5,1.5
			c-0.9,0.9-1.5,2.3-1.5,3.5c0,1.2,0.5,2.7,1.5,3.5c1,0.9,2.2,1.5,3.5,1.5c1.3-0.1,2.6-0.5,3.5-1.5l1.5-1.5c0.9-0.9,1.5-2.3,1.5-3.5
			C520.6,270.5,520,269,519.1,268.2z"/>
		<path class="st2" d="M446.6,314c-0.5-1.5-1-3-1.5-4.5c-0.8-2.5-3.5-4.3-6.2-3.5c-2.5,0.8-4.4,3.5-3.5,6.2c0.5,1.5,1,3,1.5,4.5
			c0.8,2.5,3.5,4.3,6.2,3.5C445.6,319.3,447.5,316.6,446.6,314z"/>
		<path class="st2" d="M502.6,337.2c-0.9-0.9-2.3-1.5-3.5-1.5c-1.3,0.1-2.6,0.5-3.5,1.5c-0.9,1-1.5,2.2-1.5,3.5v1.5
			c0,1.3,0.6,2.6,1.5,3.5c0.9,0.9,2.3,1.5,3.5,1.5c1.3-0.1,2.6-0.5,3.5-1.5c0.9-1,1.5-2.2,1.5-3.5v-1.5
			C504.1,339.4,503.5,338.1,502.6,337.2z"/>
		<path class="st2" d="M407.6,259.2c-6.4,0-6.4,10,0,10C414,269.2,414,259.2,407.6,259.2z"/>
		<path class="st2" d="M371.6,203.7c-6.4,0-6.4,10,0,10C378,213.7,378,203.7,371.6,203.7z"/>
		<path class="st2" d="M283.1,206.7c-6.4,0-6.4,10,0,10C289.5,216.7,289.5,206.7,283.1,206.7z"/>
		<path class="st2" d="M218.6,206.7c-6.4,0-6.4,10,0,10C225,216.7,225,206.7,218.6,206.7z"/>
		<path class="st2" d="M137.5,317.9c-2.8-0.6-5.2,0.8-6.2,3.5c-0.5,1.5-1,3-1.5,4.5c-0.8,2.5,1,5.6,3.5,6.2c2.8,0.6,5.2-0.8,6.2-3.5
			c0.5-1.5,1-3,1.5-4.5C141.9,321.6,140.1,318.5,137.5,317.9z"/>
		<path class="st2" d="M144,391.9c-2.4-5.8-4-11.9-4.5-18.1c-0.5-6.4-10.5-6.4-10,0c0.6,7.2,2.1,14.1,4.8,20.8
			c1,2.5,3.3,4.2,6.2,3.5C142.9,397.4,145,394.4,144,391.9z"/>
		<path class="st2" d="M196.1,370.2c-6.4,0-6.4,10,0,10C202.5,380.2,202.5,370.2,196.1,370.2z"/>
		<path class="st2" d="M226,359.7c-3.5-1.1-7-2.1-10.5-3.2c-6.2-1.9-8.8,7.8-2.7,9.6c3.5,1.1,7,2.1,10.5,3.2
			C229.5,371.2,232.1,361.5,226,359.7z"/>
		<path class="st2" d="M287.6,295.2c-6.4,0-6.4,10,0,10C294,305.2,294,295.2,287.6,295.2z"/>
		<path class="st2" d="M271.1,261.6c-0.5-1-1-2-1.5-3c-0.6-1.1-1.8-2-3-2.3c-1.2-0.3-2.8-0.2-3.9,0.5c-2.4,1.5-3.1,4.3-1.8,6.8
			c0.5,1,1,2,1.5,3c0.6,1.1,1.8,2,3,2.3c1.2,0.3,2.8,0.2,3.9-0.5C271.7,266.9,272.3,264.1,271.1,261.6z"/>
		<path class="st2" d="M268.1,494.7c-2.7,0.1-5,2.2-5,5v4.5c0,2.6,2.3,5.1,5,5c2.7-0.1,5-2.2,5-5v-4.5
			C273.1,497.1,270.8,494.6,268.1,494.7z"/>
		<path class="st2" d="M285,516.2c-0.4-1.2-1.1-2.4-2.3-3c-1-0.5-2-1-3-1.5c-1.2-0.6-2.5-0.9-3.9-0.5c-1.2,0.3-2.4,1.2-3,2.3
			c-0.6,1.2-0.9,2.6-0.5,3.9c0.4,1.2,1.1,2.4,2.3,3c1,0.5,2,1,3,1.5c1.2,0.6,2.5,0.9,3.9,0.5c1.2-0.3,2.4-1.2,3-2.3
			C285.1,518.9,285.4,517.5,285,516.2z"/>
		<path class="st2" d="M320.6,514.2c-6.4,0-6.4,10,0,10C327,524.2,327,514.2,320.6,514.2z"/>
		<path class="st2" d="M257.6,460.2c-6.4,0-6.4,10,0,10C264,470.2,264,460.2,257.6,460.2z"/>
		<path class="st2" d="M299.6,400.2c-6.4,0-6.4,10,0,10C306,410.2,306,400.2,299.6,400.2z"/>
		<path class="st2" d="M331.1,461.7c-6.4,0-6.4,10,0,10C337.5,471.7,337.5,461.7,331.1,461.7z"/>
		<path class="st2" d="M283.1,427.2c-6.4,0-6.4,10,0,10C289.5,437.2,289.5,427.2,283.1,427.2z"/>
		<path class="st2" d="M376.1,443.7c-6.4,0-6.4,10,0,10C382.5,453.7,382.5,443.7,376.1,443.7z"/>
		<path class="st2" d="M367.1,491.7c-6.4,0-6.4,10,0,10C373.5,501.7,373.5,491.7,367.1,491.7z"/>
		<path class="st2" d="M453.1,466.2c-0.9-0.9-2.3-1.5-3.5-1.5c-1.3,0.1-2.6,0.5-3.5,1.5c-0.9,1-1.5,2.2-1.5,3.5v1.5
			c0,1.3,0.6,2.6,1.5,3.5c0.9,0.9,2.3,1.5,3.5,1.5c1.3-0.1,2.6-0.5,3.5-1.5c0.9-1,1.5-2.2,1.5-3.5v-1.5
			C454.6,468.4,454,467.1,453.1,466.2z"/>
		<path class="st2" d="M482.6,376.2c-6.4,0-6.4,10,0,10C489,386.2,489,376.2,482.6,376.2z"/>
		<path class="st2" d="M418.1,329.7c-6.4,0-6.4,10,0,10C424.5,339.7,424.5,329.7,418.1,329.7z"/>
		<path class="st2" d="M373.1,350.7c-6.4,0-6.4,10,0,10C379.5,360.7,379.5,350.7,373.1,350.7z"/>
		<path class="st2" d="M404.6,407.7c-6.4,0-6.4,10,0,10C411,417.7,411,407.7,404.6,407.7z"/>
		<path class="st2" d="M299.6,127.2c-6.4,0-6.4,10,0,10C306,137.2,306,127.2,299.6,127.2z"/>
		<path class="st2" d="M358,53.3c-1.4-2.2-4.5-3.3-6.8-1.8c-1.5,1-3,2-4.5,3c-2.2,1.4-3.3,4.5-1.8,6.8c1.4,2.2,4.5,3.3,6.8,1.8
			c1.5-1,3-2,4.5-3C358.3,58.7,359.5,55.6,358,53.3z"/>
		<path class="st2" d="M430.1,32.7c-6.4,0-6.4,10,0,10C436.5,42.7,436.5,32.7,430.1,32.7z"/>
		<path class="st2" d="M479.6,58.2c-6.4,0-6.4,10,0,10C486,68.2,486,58.2,479.6,58.2z"/>
		<path class="st2" d="M407.6,109.2c-6.4,0-6.4,10,0,10C414,119.2,414,109.2,407.6,109.2z"/>
		<path class="st2" d="M487.1,158.7c-6.4,0-6.4,10,0,10C493.5,168.7,493.5,158.7,487.1,158.7z"/>
		<path class="st2" d="M493.1,187.2c-6.4,0-6.4,10,0,10C499.5,197.2,499.5,187.2,493.1,187.2z"/>
		<path class="st2" d="M470.6,124.2c-6.4,0-6.4,10,0,10C477,134.2,477,124.2,470.6,124.2z"/>
		<path class="st2" d="M514.6,181.9c-0.5-3.5-1-7-1.5-10.5c-0.4-2.7-3.8-4.1-6.2-3.5c-2.9,0.8-3.9,3.5-3.5,6.2c0.5,3.5,1,7,1.5,10.5
			c0.4,2.7,3.8,4.1,6.2,3.5C513.9,187.2,514.9,184.6,514.6,181.9z"/>
	</g>
</g>
<g id="Layer_2">
</g>
</svg>
