<svg xmlns="http://www.w3.org/2000/svg" xmlns:xlink="http://www.w3.org/1999/xlink" width="55" height="55" viewBox="0 0 55 55">
  <defs>
    <clipPath id="clip-path">
      <rect id="Rectangle_611" data-name="Rectangle 611" width="55" height="55" transform="translate(2794 -1432)" fill="#fd6a59" stroke="#707070" stroke-width="1"/>
    </clipPath>
  </defs>
  <g id="Mask_Group_8" data-name="Mask Group 8" transform="translate(-2794 1432)" clip-path="url(#clip-path)">
    <g id="outline" transform="translate(2792.167 -1433.833)">
      <path id="Path_75" data-name="Path 75" d="M50.416,40.393V29.333a.917.917,0,0,0-.917-.917H39.417v-8.25A3.671,3.671,0,0,0,35.75,16.5H29.792a1.376,1.376,0,0,1-1.375-1.375V6.417a4.583,4.583,0,1,0-9.167,0v8.708A1.376,1.376,0,0,1,17.875,16.5H11.917A3.671,3.671,0,0,0,8.25,20.167v8.25H2.75a.917.917,0,0,0-.917.917V49.5a.917.917,0,0,0,.917.917h5.5v2.75a3.671,3.671,0,0,0,3.667,3.667H35.75a3.671,3.671,0,0,0,3.667-3.667v-2.75H42.7a7.332,7.332,0,1,0,7.713-10.024ZM37.583,51.333h-27.5V47.666H16.2a10.08,10.08,0,0,0,11.593,0h9.787Zm0-22v16.5h-7.8a10,10,0,0,0,2.3-6.417,10.112,10.112,0,0,0-.088-1.323A10.079,10.079,0,0,0,35.369,27.5h2.215ZM17.05,46.017a8.213,8.213,0,0,1-2.844-3.879,10.065,10.065,0,0,0,15.585.008A8.257,8.257,0,0,1,17.05,46.017ZM13.75,35.75a8.263,8.263,0,0,1,1.839-5.189,10.082,10.082,0,0,0,13.667,9.111A8.249,8.249,0,0,1,13.92,37.42l0-.017a.045.045,0,0,0,0-.006,8.227,8.227,0,0,1-.165-1.646Zm20.167-5.5A8.25,8.25,0,1,1,25.667,22a8.25,8.25,0,0,1,8.25,8.25ZM15.906,27.717a10.065,10.065,0,0,0-3.819,9.867,10.073,10.073,0,0,0,2.129,8.25H10.083V27.5h5.881Q15.934,27.608,15.906,27.717Zm-3.989-9.384h5.958a3.212,3.212,0,0,0,3.208-3.208V6.417a2.75,2.75,0,0,1,5.5,0v8.708a3.212,3.212,0,0,0,3.208,3.208H35.75a1.836,1.836,0,0,1,1.833,1.833v5.5H34.647a10.081,10.081,0,0,0-17.96,0h-6.6v-5.5a1.835,1.835,0,0,1,1.833-1.833Zm-8.25,30.25V30.25H8.25V48.583ZM35.75,55H11.917a1.835,1.835,0,0,1-1.833-1.833h27.5A1.836,1.836,0,0,1,35.75,55Zm3.667-6.417V30.25h9.167V40.393a7.316,7.316,0,0,0-6.357,8.191ZM49.5,53.166a5.5,5.5,0,1,1,5.5-5.5A5.5,5.5,0,0,1,49.5,53.166Z" fill="#fd6a59"/>
      <path id="Path_76" data-name="Path 76" d="M48.583,45.833a2.732,2.732,0,0,0-1.944.805h0a2.75,2.75,0,1,0,1.944-.805Zm.648,3.4a.917.917,0,1,1-1.3-1.3h0a.917.917,0,1,1,1.3,1.3Z" fill="#fd6a59"/>
      <rect id="Rectangle_609" data-name="Rectangle 609" width="1.833" height="1.833" transform="translate(51.333 44)" fill="#fd6a59"/>
      <rect id="Rectangle_610" data-name="Rectangle 610" width="1.833" height="1.833" transform="translate(52.25 47.666)" fill="#fd6a59"/>
      <path id="Path_77" data-name="Path 77" d="M47.666,44.916H49.5a.917.917,0,1,0,0-1.833H47.666a.917.917,0,1,0,0,1.833Z" fill="#fd6a59"/>
      <path id="Path_78" data-name="Path 78" d="M23.833,8.25a.917.917,0,0,0,.917-.917V6.417a.917.917,0,1,0-1.833,0v.917A.917.917,0,0,0,23.833,8.25Z" fill="#fd6a59"/>
      <path id="Path_79" data-name="Path 79" d="M22,42.109a.917.917,0,1,0,0-1.833,4.537,4.537,0,0,1-4.263-3,.917.917,0,0,0-1.726.617A6.374,6.374,0,0,0,22,42.109Z" fill="#fd6a59"/>
      <path id="Path_80" data-name="Path 80" d="M20.435,28.685l-.917.917a.917.917,0,0,0,1.3,1.3l.917-.917a.917.917,0,1,0-1.3-1.3Z" fill="#fd6a59"/>
      <path id="Path_81" data-name="Path 81" d="M21.59,26.486l1.833.917a.917.917,0,1,0,.82-1.64l-1.833-.917a.917.917,0,1,0-.82,1.64Z" fill="#fd6a59"/>
      <path id="Path_82" data-name="Path 82" d="M26.583,25.667a.914.914,0,0,0,.648-.268l.917-.917a.917.917,0,0,0-1.3-1.3l-.917.917a.917.917,0,0,0,.648,1.565Z" fill="#fd6a59"/>
      <path id="Path_83" data-name="Path 83" d="M28,34.787a5.11,5.11,0,0,1-4.661,0,.917.917,0,1,0-.839,1.63,6.944,6.944,0,0,0,6.339,0A.917.917,0,1,0,28,34.787Z" fill="#fd6a59"/>
      <path id="Path_84" data-name="Path 84" d="M30.794,26.972a.917.917,0,0,0-.465,1.21,5.113,5.113,0,0,1-.126,4.4.917.917,0,1,0,1.63.839,6.954,6.954,0,0,0,.766-3.17A6.883,6.883,0,0,0,32,27.437.917.917,0,0,0,30.794,26.972Z" fill="#fd6a59"/>
      <path id="Path_85" data-name="Path 85" d="M27.857,28.673l-.987.841a.917.917,0,1,0,1.189,1.4l.987-.841a.917.917,0,1,0-1.189-1.4Z" fill="#fd6a59"/>
      <path id="Path_86" data-name="Path 86" d="M23.185,30.518a.917.917,0,0,0,0,1.3l.917.917a.917.917,0,1,0,1.3-1.3l-.917-.917A.917.917,0,0,0,23.185,30.518Z" fill="#fd6a59"/>
      <path id="Path_87" data-name="Path 87" d="M12.833,23.833a.917.917,0,0,0,.917-.917V22h1.833a.917.917,0,0,0,0-1.833H13.75A1.836,1.836,0,0,0,11.917,22v.917A.917.917,0,0,0,12.833,23.833Z" fill="#fd6a59"/>
    </g>
  </g>
</svg>
