<svg xmlns="http://www.w3.org/2000/svg" xmlns:xlink="http://www.w3.org/1999/xlink" width="55" height="55" viewBox="0 0 55 55">
  <defs>
    <clipPath id="clip-path">
      <rect id="Rectangle_614" data-name="Rectangle 614" width="55" height="55" transform="translate(2719 -1432)" fill="#fd6a59" stroke="#707070" stroke-width="1"/>
    </clipPath>
  </defs>
  <g id="Mask_Group_11" data-name="Mask Group 11" transform="translate(-2719 1432)" clip-path="url(#clip-path)">
    <g id="rice_1_" data-name="rice (1)" transform="translate(2719 -1432)">
      <path id="Path_106" data-name="Path 106" d="M27.5,52.367A25.776,25.776,0,0,0,53.23,27.5H1.77A25.776,25.776,0,0,0,27.5,52.367ZM14.308,42.332a.878.878,0,1,1-.878.878A.878.878,0,0,1,14.308,42.332ZM10.8,38.822a.878.878,0,1,1-.878.878A.878.878,0,0,1,10.8,38.822Z" fill="#fd6a59"/>
      <path id="Path_107" data-name="Path 107" d="M51.337,25.745a2.646,2.646,0,0,0-1.168-1.4.878.878,0,0,1-.182-1.381,2.632,2.632,0,0,0-1.181-4.408.878.878,0,0,1-.533-1.287,2.632,2.632,0,0,0-2.281-3.952.878.878,0,0,1-.849-1.105,2.632,2.632,0,0,0-3.227-3.227.878.878,0,0,1-1.105-.848,2.632,2.632,0,0,0-3.952-2.282.878.878,0,0,1-1.287-.533,2.632,2.632,0,0,0-4.408-1.181.878.878,0,0,1-1.381-.182,2.632,2.632,0,0,0-4.564,0,.878.878,0,0,1-1.381.182,2.632,2.632,0,0,0-4.409,1.181.878.878,0,0,1-1.287.533,2.632,2.632,0,0,0-3.952,2.282.878.878,0,0,1-1.105.848,2.632,2.632,0,0,0-3.227,3.227.878.878,0,0,1-.848,1.105,2.632,2.632,0,0,0-2.282,3.952.878.878,0,0,1-.533,1.287,2.632,2.632,0,0,0-1.181,4.408.878.878,0,0,1-.182,1.381,2.646,2.646,0,0,0-1.168,1.4ZM39.117,16.91a.878.878,0,1,1-.878.878A.878.878,0,0,1,39.117,16.91ZM15.712,13.4a.878.878,0,1,1-.878.878A.878.878,0,0,1,15.712,13.4Zm0,7.021a.878.878,0,1,1-.878.878A.878.878,0,0,1,15.712,20.42ZM12.2,16.91a.878.878,0,1,1-.878.878A.878.878,0,0,1,12.2,16.91Z" fill="#fff"/>
      <path id="Path_108" data-name="Path 108" d="M55,26.622a.878.878,0,0,0-.878-.878h-.968a4.414,4.414,0,0,0-1.3-2.328,4.383,4.383,0,0,0-1.659-6.193,4.383,4.383,0,0,0-3.206-5.553,4.383,4.383,0,0,0-4.534-4.534A4.383,4.383,0,0,0,36.9,3.931a4.383,4.383,0,0,0-6.193-1.659,4.384,4.384,0,0,0-6.412,0A4.383,4.383,0,0,0,18.1,3.931a4.383,4.383,0,0,0-5.553,3.206,4.383,4.383,0,0,0-4.534,4.534,4.383,4.383,0,0,0-3.206,5.553,4.383,4.383,0,0,0-1.659,6.193,4.413,4.413,0,0,0-1.3,2.328H.878A.878.878,0,0,0,0,26.623,27.55,27.55,0,0,0,17.8,52.367h-.535a.878.878,0,1,0,0,1.755H37.739a.878.878,0,1,0,0-1.755H37.2A27.55,27.55,0,0,0,55,26.622ZM4.831,24.34a.878.878,0,0,0,.182-1.381,2.632,2.632,0,0,1,1.181-4.408.878.878,0,0,0,.533-1.287,2.632,2.632,0,0,1,2.281-3.952.878.878,0,0,0,.849-1.105,2.632,2.632,0,0,1,3.227-3.227.878.878,0,0,0,1.105-.848,2.632,2.632,0,0,1,3.952-2.282.878.878,0,0,0,1.287-.533,2.632,2.632,0,0,1,4.409-1.181.878.878,0,0,0,1.381-.182,2.632,2.632,0,0,1,4.564,0,.878.878,0,0,0,1.381.182,2.632,2.632,0,0,1,4.408,1.181.878.878,0,0,0,1.287.533,2.632,2.632,0,0,1,3.952,2.282.878.878,0,0,0,1.105.848,2.632,2.632,0,0,1,3.227,3.227.878.878,0,0,0,.848,1.105,2.632,2.632,0,0,1,2.282,3.952.878.878,0,0,0,.533,1.287,2.632,2.632,0,0,1,1.181,4.408.878.878,0,0,0,.182,1.381,2.646,2.646,0,0,1,1.168,1.4H3.663A2.646,2.646,0,0,1,4.831,24.34Zm48.4,3.16a25.745,25.745,0,0,1-51.46,0Z" fill="#fd6a59"/>
      <circle id="Ellipse_17" data-name="Ellipse 17" cx="0.878" cy="0.878" r="0.878" transform="translate(13.431 42.332)" fill="#fd6a59"/>
      <circle id="Ellipse_18" data-name="Ellipse 18" cx="0.878" cy="0.878" r="0.878" transform="translate(9.92 38.822)" fill="#fd6a59"/>
      <circle id="Ellipse_19" data-name="Ellipse 19" cx="0.878" cy="0.878" r="0.878" transform="translate(14.835 20.42)" fill="#fd6a59"/>
      <circle id="Ellipse_20" data-name="Ellipse 20" cx="0.878" cy="0.878" r="0.878" transform="translate(11.325 16.91)" fill="#fd6a59"/>
      <circle id="Ellipse_21" data-name="Ellipse 21" cx="0.878" cy="0.878" r="0.878" transform="translate(38.24 16.91)" fill="#fd6a59"/>
      <circle id="Ellipse_22" data-name="Ellipse 22" cx="0.878" cy="0.878" r="0.878" transform="translate(14.835 13.399)" fill="#fd6a59"/>
    </g>
  </g>
</svg>
