<?xml version="1.0" encoding="utf-8"?>
<!-- Generator: Adobe Illustrator 21.1.0, SVG Export Plug-In . SVG Version: 6.00 Build 0)  -->
<svg version="1.1" id="Layer_1" xmlns="http://www.w3.org/2000/svg" xmlns:xlink="http://www.w3.org/1999/xlink" x="0px" y="0px"
	 viewBox="0 0 478 482" style="enable-background:new 0 0 478 482;" xml:space="preserve">
<style type="text/css">
	.st0{fill:#1C191A;}
	.st1{opacity:0.3;}
	.st2{fill:#3F3E3E;}
	.st3{fill:url(#SVGID_1_);}
	.st4{fill:#D29C19;}
	.st5{font-family:'Roboto-Light';}
	.st6{font-size:23.5663px;}
	.st7{fill:#774F08;}
	.st8{fill:#404041;}
	.st9{fill:#D29B21;}
	.st10{fill:#D59B17;}
	.st11{font-family:'Roboto-Medium';}
	.st12{font-size:25.3753px;}
	.st13{font-size:26.1199px;}
</style>
<g>
	<g>
		<circle class="st0" cx="241.2" cy="239.7" r="211.4"/>
		<g>
			<g class="st1">
				<path class="st2" d="M447.4,241c0,114.9-93.5,208.4-208.4,208.4c-114.9,0-208.4-93.5-208.4-208.4
					c0-114.9,93.5-208.4,208.4-208.4C353.9,32.6,447.4,126.1,447.4,241z M457.3,241c0-120.4-97.9-218.3-218.3-218.3
					C118.6,22.7,20.7,120.6,20.7,241c0,120.4,97.9,218.3,218.3,218.3C359.4,459.3,457.3,361.4,457.3,241z"/>
			</g>
			
				<linearGradient id="SVGID_1_" gradientUnits="userSpaceOnUse" x1="84.7356" y1="396.2644" x2="393.2641" y2="87.7359" gradientTransform="matrix(0 1 -1 0 481 2)">
				<stop  offset="0" style="stop-color:#D29C19"/>
				<stop  offset="0.1075" style="stop-color:#C9A119"/>
				<stop  offset="0.3153" style="stop-color:#BCA919"/>
				<stop  offset="0.6168" style="stop-color:#C98E19"/>
				<stop  offset="0.7989" style="stop-color:#D27C19"/>
				<stop  offset="1" style="stop-color:#D29C0F"/>
			</linearGradient>
			<path class="st3" d="M457.3,241c0-120.4-97.9-218.3-218.3-218.3C118.6,22.7,20.7,120.6,20.7,241c0,120.4,97.9,218.3,218.3,218.3
				C359.4,459.3,457.3,361.4,457.3,241z M447.4,241c0,114.9-93.5,208.4-208.4,208.4c-114.9,0-208.4-93.5-208.4-208.4
				c0-114.9,93.5-208.4,208.4-208.4C353.9,32.6,447.4,126.1,447.4,241z"/>
		</g>
	</g>
	<g>
		<g>
			<path class="st4" d="M43.6,175c8.7-1.6,13.1-2.2,21.6-2.9c-5.1-6.9-7.5-10.4-12.1-17.9c0.6-1.2,0.9-1.8,1.6-3
				c7.5,4,11.2,6.1,18.7,10.1c-0.4,0.8-0.6,1.2-1.1,2c-3.3-1.7-4.9-2.6-8.2-4.3c-3.3-1.8-5-2.7-8.3-4.6c4.6,7.4,7,11,12.1,17.9
				c-0.3,0.7-0.5,1-0.8,1.6c-8.5,0.7-12.8,1.3-21.5,3c3.5,1.2,5.3,1.9,8.8,3.1c3.5,1.3,5.2,2,8.7,3.3c-0.4,0.9-0.5,1.3-0.9,2.2
				c-8-2.9-12-4.3-19.9-7.2C42.8,177,43.1,176.3,43.6,175z"/>
			<path class="st4" d="M69.2,127.5c4.7,3.4,7,5.1,11.7,8.5c1,0.7,1.7,1.5,2.1,2.5c0.4,0.9,0.7,1.9,0.7,2.9c0,1-0.2,2.1-0.5,3.2
				c-0.4,1.1-0.9,2.2-1.6,3.3c-0.7,1.1-1.5,2.1-2.3,2.9c-0.8,0.8-1.7,1.4-2.7,1.8c-0.9,0.4-1.9,0.6-2.9,0.6c-1,0-2-0.3-3.1-1
				c-5-2.9-7.5-4.4-12.4-7.3c0.5-0.9,0.7-1.3,1.2-2.2c4.9,3,7.4,4.5,12.4,7.4c0.8,0.5,1.6,0.7,2.4,0.8c0.8,0.1,1.5-0.1,2.3-0.4
				c0.7-0.3,1.4-0.8,2.1-1.4c0.7-0.6,1.3-1.4,1.8-2.2c0.6-0.9,1-1.7,1.2-2.6c0.3-0.9,0.4-1.7,0.4-2.5c0-0.8-0.2-1.5-0.6-2.2
				c-0.4-0.7-0.9-1.3-1.7-1.9c-4.7-3.4-7.1-5-11.8-8.4C68.3,128.7,68.6,128.3,69.2,127.5z"/>
			<path class="st4" d="M75.1,119.4c8.4,1.4,12.6,2.3,20.6,4.5c-3.2-7.9-4.6-12-7.2-20.3c0.9-0.9,1.3-1.4,2.1-2.3
				c6,6.1,9,9.2,15,15.3c-0.6,0.6-0.9,0.9-1.4,1.5c-2.7-2.6-4-4-6.6-6.6c-2.7-2.8-4-4.1-6.6-6.9c2.6,8.3,4,12.4,7.2,20.3
				c-0.4,0.5-0.6,0.7-1.1,1.3c-8-2.1-12.2-3-20.6-4.4c3,2.3,4.5,3.4,7.5,5.7c2.9,2.3,4.4,3.5,7.3,5.8c-0.5,0.7-0.8,1-1.3,1.7
				c-6.7-5.3-10.1-7.9-16.8-13.2C73.9,121,74.3,120.5,75.1,119.4z"/>
			<path class="st4" d="M110.1,112.3c-5.8-6.3-8.7-9.5-14.5-15.9c2.3-2.3,3.5-3.4,5.9-5.5c1-0.9,2-1.7,3-2.2c1-0.5,1.9-0.9,2.7-1
				c0.9-0.1,1.7,0,2.4,0.3c0.7,0.3,1.4,0.8,2,1.6c0.3,0.4,0.6,0.9,0.7,1.4c0.2,0.5,0.2,1,0.2,1.6c0,0.5-0.1,1.1-0.3,1.7
				c-0.2,0.6-0.5,1.1-0.8,1.7c0.7-0.4,1.3-0.6,2-0.8c0.7-0.1,1.3-0.2,1.9-0.1c0.6,0.1,1.2,0.3,1.7,0.6c0.5,0.3,1,0.7,1.4,1.2
				c0.6,0.8,1,1.6,1.2,2.4c0.2,0.8,0.2,1.7-0.1,2.5c-0.2,0.8-0.6,1.7-1.2,2.5c-0.6,0.8-1.3,1.6-2.1,2.4
				C113.7,108.8,112.5,110,110.1,112.3z M103.7,102c1.7-1.7,2.6-2.5,4.4-4.1c1.3-1.2,2.2-2.4,2.5-3.6c0.3-1.2,0.1-2.3-0.7-3.3
				c-0.9-1.1-1.9-1.5-3.1-1.4c-1.2,0.2-2.7,1-4.3,2.5c-1.7,1.5-2.5,2.3-4.2,3.9C100.4,98.4,101.5,99.6,103.7,102z M104.7,103.1
				c2.4,2.6,3.5,3.9,5.9,6.6c1.8-1.7,2.7-2.6,4.6-4.2c0.7-0.6,1.2-1.2,1.6-1.8c0.4-0.6,0.7-1.2,0.8-1.9c0.1-0.6,0.1-1.2,0-1.8
				c-0.1-0.6-0.4-1.2-0.9-1.7c-0.4-0.5-0.8-0.8-1.3-1.1c-0.5-0.3-1.1-0.4-1.7-0.4c-0.6,0-1.3,0.2-2,0.5c-0.7,0.3-1.4,0.8-2.2,1.5
				C107.6,100.4,106.6,101.3,104.7,103.1z"/>
			<path class="st4" d="M133.1,86c-3.7,2.5-5.5,3.8-9.1,6.5c0.6,2.6,0.9,3.9,1.6,6.4c-0.7,0.5-1,0.8-1.7,1.3
				c-2.3-9.2-3.3-13.9-4.9-23.4c0.7-0.5,1-0.7,1.7-1.2c8.1,4.9,12,7.6,19.4,13.1c-0.7,0.4-1.1,0.7-1.8,1.1
				C136.3,88.2,135.2,87.5,133.1,86z M123.6,90.8c3.2-2.4,4.8-3.5,8.1-5.7c-4.2-2.9-6.3-4.3-10.6-7C122,83.2,122.5,85.7,123.6,90.8z
				"/>
			<path class="st4" d="M145.2,85.6c-0.7,0.4-1,0.6-1.7,1c-4.3-7.6-6.4-11.3-10.7-18.9c0.8-0.5,1.1-0.7,1.9-1.1
				C138.9,74.2,141,78,145.2,85.6z"/>
			<path class="st4" d="M151.4,57.8c6.6,5.4,9.7,8.3,15.7,14.2c0.4-8.5,0.8-12.8,2-21.4c1.1-0.4,1.6-0.6,2.7-1
				c2.7,8.3,4,12.5,6.7,20.9c-0.7,0.2-1.1,0.4-1.8,0.6c-1.2-3.6-1.8-5.4-3-9.1c-1.2-3.7-1.7-5.6-2.9-9.3c-1.2,8.6-1.5,12.9-2,21.4
				c-0.6,0.2-0.8,0.3-1.4,0.6c-6-5.8-9.1-8.6-15.6-14c1.6,3.5,2.4,5.2,4.1,8.7c1.5,3.5,2.3,5.2,3.9,8.7c-0.7,0.3-1.1,0.5-1.8,0.8
				c-3.6-7.9-5.4-11.9-9-19.8C149.8,58.5,150.3,58.3,151.4,57.8z"/>
			<path class="st4" d="M194.9,59.4c-4.2,1-6.3,1.5-10.4,2.7c-0.3,2.6-0.4,4-0.7,6.6c-0.8,0.2-1.2,0.4-1.9,0.6
				c0.8-9.5,1.4-14.2,3.1-23.7c0.8-0.2,1.2-0.3,2-0.5c5.8,7.6,8.5,11.5,13.5,19.4c-0.8,0.2-1.2,0.2-2,0.4
				C197.1,62.6,196.4,61.5,194.9,59.4z M184.7,60.4c3.7-1.1,5.5-1.5,9.3-2.4c-2.9-4.2-4.4-6.3-7.5-10.5
				C185.7,52.6,185.3,55.2,184.7,60.4z"/>
			<path class="st4" d="M216,56.5c-0.1-0.6-0.2-1.1-0.5-1.6c-0.3-0.4-0.7-0.8-1.2-1.2c-0.5-0.3-1.2-0.6-2.1-0.8
				c-0.9-0.2-1.9-0.4-3.2-0.5c-1.2-0.1-2.4-0.3-3.4-0.5s-1.9-0.5-2.7-0.9c-0.8-0.4-1.4-0.8-1.9-1.4c-0.5-0.6-0.8-1.3-0.9-2.1
				c-0.1-0.8-0.1-1.6,0.2-2.4c0.3-0.8,0.8-1.5,1.4-2.1c0.7-0.6,1.5-1.2,2.5-1.6c1-0.4,2.1-0.8,3.3-0.9c1.3-0.2,2.5-0.2,3.7,0
				c1.1,0.2,2.1,0.6,2.9,1.1c0.8,0.5,1.4,1.1,1.9,1.9c0.5,0.8,0.7,1.6,0.8,2.5c-0.8,0.1-1.3,0.1-2.1,0.2c-0.1-0.7-0.3-1.4-0.6-1.9
				c-0.3-0.6-0.8-1-1.4-1.4c-0.6-0.4-1.3-0.6-2.1-0.8c-0.8-0.1-1.8-0.1-2.8,0s-1.9,0.4-2.7,0.7c-0.8,0.3-1.4,0.7-1.8,1.2
				c-0.5,0.5-0.8,0.9-1,1.5c-0.2,0.5-0.2,1.1-0.1,1.6c0.1,0.5,0.3,1,0.6,1.4c0.3,0.4,0.7,0.7,1.3,1c0.6,0.3,1.3,0.5,2.2,0.7
				c0.9,0.2,1.9,0.3,3.2,0.5c1.3,0.1,2.5,0.3,3.5,0.6s1.9,0.6,2.6,1c0.7,0.4,1.3,1,1.7,1.6c0.4,0.6,0.7,1.4,0.7,2.3
				c0.1,0.9,0,1.7-0.4,2.5s-0.8,1.4-1.5,2c-0.6,0.6-1.4,1-2.3,1.4c-0.9,0.4-1.9,0.7-3.1,0.8c-0.7,0.1-1.3,0.1-2,0.1
				c-0.7,0-1.4-0.1-2-0.2c-0.7-0.1-1.3-0.3-1.9-0.6c-0.6-0.3-1.1-0.6-1.6-1c-0.5-0.4-0.9-0.9-1.2-1.5c-0.3-0.6-0.6-1.2-0.7-2
				c0.8-0.2,1.2-0.2,2-0.4c0.2,0.9,0.5,1.6,1,2.2c0.5,0.6,1.1,1,1.8,1.3c0.7,0.3,1.4,0.4,2.2,0.5s1.6,0,2.4-0.1
				c0.9-0.1,1.7-0.3,2.4-0.6c0.7-0.3,1.3-0.6,1.8-1.1c0.5-0.4,0.8-0.9,1.1-1.4C215.9,57.7,216,57.1,216,56.5z"/>
			<path class="st4" d="M234.8,54.6c-4.3,0.1-6.4,0.1-10.7,0.4c-0.8,2.5-1.2,3.8-2,6.3c-0.8,0.1-1.2,0.1-2,0.2
				c2.7-9.1,4.3-13.6,7.8-22.6c0.8,0,1.2-0.1,2-0.1c4.1,8.7,5.9,13.1,9.2,22c-0.8,0-1.2,0-2,0C236.3,58.3,235.8,57,234.8,54.6z
				 M224.7,53.4c3.8-0.3,5.7-0.3,9.5-0.4c-1.9-4.8-3-7.2-5.1-11.9C227.2,46,226.3,48.5,224.7,53.4z"/>
			<path class="st4" d="M244.5,59.3c4.5,0.2,6.8,0.3,11.3,0.8c-0.1,0.6-0.1,0.9-0.2,1.6c-5.2-0.5-7.9-0.7-13.1-0.9
				c0.3-8.8,0.5-13.3,0.8-22.1c0.9,0,1.3,0,2.2,0.1C245.1,47,244.9,51.1,244.5,59.3z"/>
			<path class="st4" d="M273,58c-4.2-0.8-6.3-1.2-10.6-1.7c-1.3,2.3-1.9,3.5-3.2,5.8c-0.8-0.1-1.2-0.1-2-0.2
				c4.4-8.4,6.9-12.6,12.1-20.7c0.8,0.1,1.2,0.2,2,0.3c2.3,9.4,3.2,14.1,4.7,23.5c-0.8-0.2-1.2-0.3-2-0.4
				C273.7,61.9,273.5,60.6,273,58z M263.3,54.7c3.8,0.5,5.7,0.8,9.4,1.5c-1-5.1-1.5-7.6-2.7-12.7C267.2,48,265.8,50.2,263.3,54.7z"
				/>
			<path class="st4" d="M301.2,66.5c0.2-0.6,0.3-1.1,0.2-1.6c0-0.5-0.2-1-0.6-1.6s-0.9-1.1-1.6-1.7c-0.7-0.6-1.6-1.2-2.7-1.9
				c-1.1-0.7-2-1.3-2.8-2c-0.8-0.6-1.5-1.3-2-2s-0.9-1.4-1.1-2.1c-0.2-0.7-0.2-1.5,0.1-2.4c0.2-0.8,0.6-1.5,1.2-2.1
				c0.6-0.6,1.3-1,2.2-1.3c0.9-0.3,1.9-0.4,2.9-0.3c1.1,0,2.2,0.3,3.4,0.6c1.3,0.4,2.4,1,3.3,1.7c0.9,0.7,1.6,1.4,2.1,2.3
				c0.5,0.8,0.8,1.7,0.9,2.6c0.1,0.9,0,1.8-0.3,2.6c-0.8-0.3-1.2-0.4-2-0.7c0.2-0.7,0.3-1.4,0.3-2c-0.1-0.7-0.3-1.3-0.7-1.9
				c-0.4-0.6-0.9-1.2-1.6-1.7c-0.7-0.5-1.5-0.9-2.5-1.2c-1-0.3-1.9-0.5-2.7-0.5c-0.8,0-1.5,0.1-2.2,0.3c-0.6,0.2-1.1,0.5-1.5,0.9
				c-0.4,0.4-0.7,0.9-0.8,1.4c-0.1,0.5-0.2,1-0.1,1.5c0.1,0.5,0.3,1,0.7,1.5c0.4,0.5,0.9,1.1,1.6,1.6c0.7,0.6,1.6,1.2,2.7,1.8
				c1.1,0.7,2.1,1.4,2.9,2.1s1.5,1.4,1.9,2.1c0.5,0.7,0.7,1.5,0.8,2.2c0.1,0.8,0,1.6-0.3,2.4c-0.3,0.8-0.8,1.5-1.4,2.1
				c-0.6,0.5-1.4,0.9-2.2,1.1c-0.8,0.2-1.7,0.3-2.7,0.2c-1-0.1-2-0.3-3.1-0.6c-0.6-0.2-1.3-0.5-1.9-0.8c-0.6-0.3-1.2-0.7-1.7-1.1
				c-0.5-0.4-1-0.9-1.5-1.3c-0.4-0.5-0.8-1-1-1.6c-0.3-0.6-0.4-1.2-0.5-1.9c-0.1-0.7,0-1.4,0.2-2.1c0.8,0.2,1.2,0.3,1.9,0.5
				c-0.3,0.9-0.3,1.7-0.1,2.4c0.2,0.7,0.6,1.4,1.1,1.9c0.5,0.6,1.1,1,1.8,1.5s1.4,0.7,2.2,1c0.9,0.3,1.7,0.4,2.4,0.5
				c0.8,0.1,1.5,0,2.1-0.2c0.6-0.2,1.1-0.4,1.6-0.8C300.6,67.6,300.9,67.1,301.2,66.5z"/>
			<path class="st4" d="M307.3,74.8c-0.7-0.3-1.1-0.4-1.8-0.7c3.3-8.3,4.9-12.4,8.2-20.6c0.8,0.3,1.2,0.5,2,0.8
				C312.3,62.4,310.6,66.5,307.3,74.8z"/>
			<path class="st4" d="M328.4,85.3c-0.7-0.4-1-0.6-1.7-1c-1-9.3-1.8-14-3.9-23.4c-3.2,6.9-4.8,10.4-8,17.3
				c-0.7-0.3-1.1-0.5-1.8-0.8c3.6-8.1,5.5-12.2,9.1-20.3c0.8,0.4,1.2,0.6,2,0.9c2.2,9.5,3,14.2,4.1,23.6c3.7-6.7,5.5-10,9.2-16.7
				c0.8,0.4,1.1,0.6,1.9,1.1C335,73.6,332.8,77.5,328.4,85.3z"/>
			<path class="st4" d="M351.5,92.3c-0.8,0.8-1.6,1.5-2.5,1.9c-0.9,0.5-1.8,0.7-2.8,0.8c-1,0.1-1.9-0.1-3-0.4
				c-1-0.3-2.1-0.9-3.1-1.6c-1.1-0.8-2-1.6-2.6-2.6c-0.7-1-1.1-2.1-1.3-3.3c-0.2-1.2-0.2-2.4,0.1-3.7c0.3-1.3,0.8-2.6,1.6-3.9
				c0.6-1,0.9-1.4,1.4-2.4c0.8-1.3,1.7-2.3,2.7-3.2c1-0.8,2.1-1.4,3.3-1.7c1.2-0.3,2.4-0.3,3.7,0c1.3,0.3,2.6,0.9,3.9,1.7
				c1.2,0.8,2.1,1.7,2.8,2.6c0.7,0.9,1.2,1.9,1.5,2.9c0.3,1,0.4,2,0.2,3c-0.1,1-0.5,2-1.1,3c-0.7-0.5-1.1-0.8-1.8-1.3
				c0.4-0.8,0.7-1.6,0.8-2.4c0.1-0.8,0.1-1.5-0.1-2.3c-0.2-0.7-0.6-1.5-1.1-2.2c-0.5-0.7-1.3-1.4-2.2-2c-1-0.7-2-1.1-3.1-1.3
				c-1-0.2-2-0.2-3,0.1c-0.9,0.3-1.8,0.7-2.7,1.4c-0.8,0.7-1.6,1.6-2.2,2.7c-0.6,1-0.9,1.4-1.5,2.4c-0.6,1-1.1,2.1-1.4,3.1
				c-0.3,1-0.4,2-0.3,3c0.1,1,0.4,1.8,0.9,2.7c0.5,0.8,1.2,1.6,2.1,2.2c1.7,1.2,3.3,1.7,4.7,1.6c1.4-0.1,2.8-0.9,4.1-2.3
				C350.5,91.5,350.8,91.8,351.5,92.3z"/>
			<path class="st4" d="M368.5,101.8c-3.5-3.3-5.3-4.9-9-7.9c-2.3,2.8-3.4,4.3-5.6,7.1c4,3.3,6,5.1,9.9,8.7
				c-0.4,0.5-0.6,0.7-1.1,1.2c-4.4-4.2-6.7-6.2-11.4-9.9c5.5-7,8.2-10.5,13.6-17.6c5.2,4.2,7.7,6.4,12.6,11
				c-0.4,0.5-0.6,0.7-1.1,1.2c-4.2-4-6.4-5.9-10.8-9.5c-2.1,2.6-3.1,3.9-5.2,6.6c3.7,3,5.5,4.6,9.1,7.9
				C369.1,101,368.9,101.3,368.5,101.8z"/>
			<path class="st4" d="M381.3,131.4c-3.9-5-6-7.4-10.2-12c0.4-0.4,0.6-0.6,1-1c4.6,0.1,6.9,0.2,11.7,0.7c1.1,0.1,2.1,0.2,2.9,0.2
				c0.8,0,1.6,0,2.2-0.1c0.6-0.1,1.2-0.2,1.6-0.4c0.5-0.2,0.9-0.4,1.2-0.7c0.5-0.4,0.9-0.9,1.2-1.5c0.3-0.5,0.4-1.1,0.4-1.8
				c0-0.6-0.2-1.3-0.5-2c-0.3-0.7-0.8-1.4-1.4-2.1c-0.6-0.7-1.3-1.3-2-1.7c-0.7-0.4-1.4-0.6-2.1-0.7c-0.7-0.1-1.4,0-2,0.2
				c-0.7,0.2-1.2,0.6-1.8,1.1c-0.6-0.7-0.9-1-1.5-1.6c0.7-0.6,1.4-1.1,2.3-1.4c0.8-0.3,1.7-0.4,2.7-0.3c0.9,0.1,1.9,0.4,2.9,1
				c1,0.5,1.9,1.3,2.8,2.3c0.8,1,1.5,1.9,1.9,2.9c0.4,1,0.7,1.9,0.8,2.8c0.1,0.9-0.1,1.7-0.4,2.5c-0.3,0.8-0.9,1.4-1.6,2
				c-0.5,0.4-1.1,0.7-1.8,0.9s-1.5,0.3-2.3,0.4c-0.8,0-1.7,0-2.6,0s-1.8-0.1-2.7-0.2c-4-0.4-6-0.5-9.9-0.7c3.5,3.9,5.3,6,8.6,10.2
				C382,130.8,381.7,131,381.3,131.4z"/>
			<path class="st4" d="M400.3,142.2c-1.4,0.9-2.6,1.5-3.8,1.9c-1.2,0.4-2.3,0.5-3.3,0.3c-1-0.1-2-0.5-2.9-1.1
				c-0.9-0.6-1.7-1.4-2.4-2.4c-0.7-1-1.2-2-1.5-3.1c-0.3-1-0.3-2.1-0.1-3.1c0.2-1,0.7-2.1,1.4-3.1c0.7-1,1.7-2.1,3-3.1
				c1.2-0.9,1.8-1.4,3-2.3c1.3-1,2.5-1.7,3.7-2.1c1.2-0.4,2.3-0.6,3.4-0.4c1.1,0.1,2.1,0.5,3,1.2c0.9,0.7,1.8,1.6,2.6,2.7
				s1.3,2.3,1.7,3.4c0.3,1.1,0.3,2.2,0.1,3.3c-0.2,1.1-0.7,2.1-1.5,3.1s-1.9,1.9-3.2,2.8C402.2,141,401.6,141.4,400.3,142.2z
				 M402.4,138.1c2.1-1.4,3.4-2.9,3.9-4.6c0.5-1.6,0.1-3.4-1.1-5.1c-1.2-1.8-2.7-2.7-4.4-2.8c-1.7-0.1-3.5,0.7-5.5,2.2
				c-1.3,1-2,1.5-3.3,2.5c-1,0.8-1.8,1.5-2.4,2.3c-0.6,0.8-1.1,1.6-1.3,2.4c-0.2,0.8-0.3,1.6-0.1,2.4c0.1,0.8,0.5,1.6,1.1,2.4
				c0.6,0.8,1.2,1.4,1.9,1.8c0.7,0.4,1.5,0.6,2.3,0.7c0.8,0,1.7-0.1,2.6-0.5c0.9-0.3,1.9-0.9,3-1.6C400.3,139.5,401,139,402.4,138.1
				z"/>
			<path class="st4" d="M400.1,160.1c-0.4-0.8-0.6-1.2-1.1-1.9c7-3.9,10.5-5.9,17.5-9.8c-2.4-2.4-3.5-3.5-5.9-5.8
				c0.6-0.4,0.9-0.5,1.5-0.9c3,2.8,4.5,4.3,7.5,7.3c0.1,0.1,0.1,0.2,0.2,0.4C411.8,153.6,407.9,155.8,400.1,160.1z"/>
			<path class="st4" d="M411.9,185.8c-2.6-6.7-4-9.9-6.9-16.1c0.5-0.2,0.8-0.4,1.3-0.6c4.6,1.9,6.8,2.9,11.4,5.1
				c1.1,0.5,2,1,2.8,1.3c0.8,0.4,1.6,0.6,2.2,0.8c0.6,0.2,1.2,0.2,1.7,0.2c0.5,0,1-0.1,1.4-0.3c0.6-0.2,1.2-0.6,1.6-1.1
				c0.4-0.5,0.7-1,0.9-1.7c0.2-0.7,0.2-1.4,0.1-2.2s-0.4-1.7-0.8-2.7c-0.4-1-0.9-1.8-1.5-2.5c-0.6-0.7-1.2-1.2-1.9-1.5
				s-1.4-0.5-2.1-0.6c-0.7,0-1.4,0.1-2.1,0.4c-0.4-0.9-0.6-1.3-1.1-2.2c0.8-0.4,1.7-0.6,2.6-0.6c0.9,0,1.8,0.3,2.7,0.8
				c0.9,0.5,1.8,1.2,2.6,2.1c0.8,0.9,1.5,2.1,2.1,3.4c0.6,1.3,0.9,2.5,1.1,3.7c0.2,1.1,0.2,2.2,0,3.1c-0.2,0.9-0.5,1.7-1.1,2.4
				c-0.5,0.7-1.2,1.1-2.1,1.5c-0.6,0.2-1.3,0.3-2.1,0.2c-0.8-0.1-1.6-0.2-2.4-0.5c-0.8-0.3-1.7-0.6-2.6-1c-0.9-0.4-1.8-0.8-2.7-1.3
				c-3.9-2-5.8-2.8-9.7-4.5c2.5,5.3,3.6,8.1,5.8,13.7C412.8,185.5,412.5,185.6,411.9,185.8z"/>
		</g>
	</g>
	<text transform="matrix(1 0 0 1 164.7117 408.5731)" class="st4 st5 st6">Papamoa 3118</text>
	<path class="st7" d="M332.4,163.3h-53.2l-0.8-2.4h54V163.3 M268,164.6H200l-0.7-2.3h69.4L268,164.6 M268.2,173.5h-68.4l-0.3-7.5
		l0.5-0.8h68.2l0.3,0.5L268.2,173.5 M132.2,166v-2.4h56.2l-0.5,1.5l0.5,0l0.2,0.8L132.2,166 M188,174.1v-0.2l0.2-0.1l0.2-0.1l0.2,0
		h11.7l0.2,0v0.1l0.2,0.1v0.5l-0.2,0.1v0.1l-0.2,0h-11.6l-0.2,0l-0.2-0.1l-0.2-0.1L188,174.1 M187.3,173.6h-51.8v-7.3h53.2l-0.3,6.7
		L187.3,173.6 M199.4,173.5h-10.3l0.3-7.7l-0.2-0.4L189,165h10.6l-0.3,0.4l-0.2,0.5L199.4,173.5 M135.1,178.9v-1.6h-1.5v-1.6h-1.5
		V174h55.4v4.9H135.1 M270.1,150.2V149h7.6l0.2,1.3v3.5l0.2,2.4v2.5l0.2,2.6h-8.6v-2.6l0.2-2.5l0.2-2.4v-2.1L270.1,150.2 M269,162
		h-69.9l-0.5-12.2h70.9L269,162 M279.2,164.6h-10.8l1-3h8.9L279.2,164.6 M278.3,158.2h51.5v2.4h-51.5V158.2 M199.8,164.6h-11l1-3
		h8.9L199.8,164.6 M135.4,163.3v-2.4h53.9l-0.7,2.4L135.4,163.3 M190.5,150.2V149h7.8v2.6l0.2,2.1v2.4l0.2,2.5v2.6H190l0.2-2.6v-2.5
		l0.2-2.4v-2.1L190.5,150.2 M189.3,158.2v2.4h-51.5v-2.4H189.3 M197.4,213.9h3.4v0.5h0.2v0.2h0.3v0.3l0.2,0.2h0.2l0.3,0.2v2.2
		l0.3,2.2l0.7,1.8l0.7,1.7l0.8,1.4l1.2,1.2l1.5,1l0.8,0.5l0.8,0.5l0.3,0.3l0.2,0.3h-30.2v-0.3l1.5-1l0.8-0.5l1.2-1l1.2-1l0.8-1.4
		l0.8-1.7l0.5-1.9l0.3-2.2l0.2-2.2l0.2-0.2h0.3v-0.5h0.3l0.2-0.2l0.2-0.2v-0.3L197.4,213.9 M335.6,166H279l0.3-0.8l0.3-0.1l-0.3-1.5
		h56.2V166 M214,204.2h2.4v-4.7h-1.9l0.7-1.9l0.8-2c0.2-0.5,0.5-1.3,0.8-1.8c0.2-0.5,0.6-1.3,0.9-1.7c0.3-0.5,0.7-1.2,1.1-1.7
		c0.3-0.4,0.9-1.1,1.3-1.5c0.4-0.4,1-1,1.4-1.4s1.1-0.9,1.5-1.3c0.6-0.4,1.6-1.1,2.2-1.5s1.6-1,2.2-1.4c0.6-0.4,1.7-0.9,2.3-1.2
		l0.8-0.5l0.8-0.5l1.2-0.7l1.4-0.5c1,0.4,2.6,1.1,3.6,1.6c1,0.5,2.5,1.3,3.5,1.9c0.9,0.5,2.5,1.5,3.4,2.1c0.8,0.5,1.6,1.1,2.3,1.7
		c0.7,0.6,1.4,1.3,2.1,2c0.6,0.7,1.3,1.5,1.8,2.2c0.5,0.7,1.1,1.8,1.5,2.6c0.4,0.7,0.9,1.9,1.2,2.7c0.3,0.8,0.7,2,1,2.8h-2v4.7h2.4
		v24.1l-1.2-0.2v-22.8h-2.5v-7.3h1.7c-0.2-0.7-0.7-1.7-1-2.3s-0.8-1.6-1.2-2.2c-0.4-0.6-1-1.5-1.4-2.1c-0.5-0.7-1.1-1.3-1.6-2
		c-0.6-0.6-1.2-1.2-1.9-1.8c-0.7-0.5-1.3-1-2.1-1.5c-0.8-0.6-2.2-1.4-3.1-1.9c-0.9-0.5-2.3-1.3-3.2-1.7c-0.9-0.4-2.4-1.1-3.3-1.5
		l-1.2,0.5l-0.7,0.3l-0.7,0.3l-1.2,0.7c-0.6,0.3-1.6,0.9-2.2,1.2c-0.6,0.4-1.6,1-2.1,1.4c-0.6,0.4-1.5,1.1-2.1,1.5
		c-0.4,0.3-1.1,0.9-1.5,1.2c-0.4,0.4-1,1-1.3,1.4c-0.3,0.4-0.9,1.1-1.2,1.5c-0.3,0.4-0.8,1.1-1,1.6s-0.7,1.2-0.9,1.6
		c-0.2,0.5-0.6,1.2-0.8,1.7l-0.5,1.2l-0.3,0.9h1.5v7.3h-2.5v22.8H214V204.2 M212.8,203.1l-0.2,25.3h-2.4l-1-1.2l-2-1.2l-1.7-1.4
		l-1.3-1.7l-0.8-2.4l-0.7-2.9l-0.2-3h-0.3V214h-0.3l-0.2-1l-0.7-37.8l0.5-1.2h65.4l0.3,1.2l-0.7,37.8v1h-0.3v0.7h-0.5l-0.2,3.4
		l-0.9,3.2l-1,2.2l-1.7,1.9l-1.7,1.2l-1.3,1l-0.7,0.8h-2.4v-25.3h-2.4v-2.4h2.4c-0.2-0.7-0.5-1.8-0.7-2.5c-0.2-0.7-0.6-1.8-0.9-2.4
		c-0.3-0.7-0.8-1.7-1.1-2.4c-0.3-0.6-0.8-1.5-1.1-2c-0.3-0.5-0.9-1.4-1.3-1.9c-0.4-0.5-1.1-1.3-1.5-1.7c-0.5-0.5-1.3-1.3-1.9-1.7
		c-0.5-0.4-1.5-1.1-2-1.5s-1.5-1-2.2-1.3c-0.8-0.5-2.2-1.3-3-1.7s-2.2-1.2-3.1-1.6c-0.9-0.4-2.3-1.1-3.2-1.4l-1.7,0.8l-1.4,0.7
		l-1,0.5l-0.8,0.3c-0.7,0.3-1.7,0.9-2.3,1.3c-0.6,0.4-1.6,1-2.3,1.5c-0.6,0.4-1.6,1.1-2.2,1.6c-0.5,0.3-1.2,0.9-1.6,1.3
		c-0.4,0.4-1.1,1-1.5,1.5c-0.4,0.4-1,1.1-1.3,1.6s-0.9,1.2-1.2,1.7c-0.3,0.5-0.8,1.3-1,1.8c-0.3,0.5-0.6,1.4-0.9,1.9l-0.8,2.2
		l-0.7,1.7l-0.3,1l-0.2,0.7h2.4v2.4L212.8,203.1 M201,213.5h-13.3l0.7-38.8h11.8L201,213.5 M296.9,199.4v28.9h-1.2v-30.6l1.7-5.2
		c0.2-0.5,0.4-0.9,0.6-1.4c0.2-0.4,0.5-0.9,0.8-1.3c0.3-0.4,0.6-0.8,0.9-1.2l4.9-4.4c0.7,0.5,1.7,1.3,2.3,1.9
		c0.6,0.5,1.5,1.5,2.1,2.1c0.5,0.6,1.4,1.6,1.9,2.3c0.4,0.7,0.8,1.5,1.2,2.3c0.3,0.8,0.7,1.6,0.9,2.4c0.2,0.8,0.4,1.7,0.6,2.5v30.6
		h-1.2v-28.9L296.9,199.4 M293.5,228.4h-1v-46.1h24.3v46.1H316V197h-2l-1.3-4.9c-0.2-0.5-0.5-1-0.7-1.4c-0.3-0.5-0.6-0.9-0.9-1.3
		c-0.3-0.4-0.7-0.8-1.1-1.2l-5.2-4.7l-5.1,4.5c-0.4,0.4-0.7,0.8-1,1.2c-0.3,0.4-0.6,0.9-0.8,1.3c-0.3,0.5-0.5,0.9-0.7,1.4l-1.7,5.1
		h-1.9V228.4 M280.3,179.8H332v48.6h-14.5v-46.8l-25.8,0.2v46.6h-2.4c-0.1-0.4-0.3-0.8-0.6-1.2c-0.2-0.1-0.4-0.3-0.6-0.4l-3.5-2.7
		c-0.3-0.5-0.6-1-0.9-1.5c-0.3-0.5-0.5-1-0.7-1.6c-0.2-0.5-0.3-1.1-0.4-1.7c-0.1-0.4-0.2-1.1-0.3-1.6c-0.1-0.5-0.1-1.1-0.1-1.6
		c0-0.4,0-1.1,0-1.6l-0.8-0.5l-0.2-0.8L280.3,179.8 M280.5,213.5H267l0.8-38.8h11.8L280.5,213.5 M279,173.5h-10.3l0.2-7.7l-0.2-0.4
		l-0.2-0.3h10.6l-0.5,0.4v0.5L279,173.5 M280.5,173.6l-1.2-0.6l-0.2-6.7h53v7.3H280.5 M267.5,174.1v-0.2l0.2-0.1v-0.1l0.2,0h11.8v0
		l0.2,0.1l0.2,0.1v0.5l-0.2,0.1l-0.2,0.1v0h-11.8l-0.2,0v-0.1l-0.2-0.1V174.1 M332.7,178.9h-52.3V174h55.2v1.7h-1.3v1.6h-1.5
		L332.7,178.9 M156.6,228.4h-0.8v-28.9h14.5v28.9h-0.3V210h-1.2l-1-3l-1.5-2.4l-2.9-2.7l-3.2,2.9l-1.5,2.2l-0.8,3h-1.2L156.6,228.4
		 M174.3,228.4V197h-2l-1.5-5.1c-0.2-0.4-0.5-1-0.8-1.4c-0.2-0.4-0.6-1-0.9-1.3c-0.3-0.3-0.8-0.9-1.1-1.2l-5.1-4.6l-5.2,4.7
		c-0.4,0.4-0.7,0.8-1,1.2c-0.3,0.4-0.6,0.9-0.8,1.3c-0.3,0.5-0.5,0.9-0.7,1.4l-1.5,4.9h-1.9v31.4h-1v-46.1h24.5v46.1H174.3
		 M155.4,199.4v28.9h-1.2v-30.6c0.1-0.8,0.3-1.7,0.5-2.5c0.2-0.8,0.5-1.6,0.8-2.4c0.3-0.8,0.7-1.6,1.2-2.3c0.5-0.7,1.4-1.7,1.9-2.3
		c0.6-0.6,1.5-1.5,2.2-2.1c0.6-0.5,1.7-1.4,2.3-1.9l4.7,4.4c0.4,0.4,0.7,0.8,1,1.2c0.3,0.4,0.6,0.9,0.8,1.3c0.3,0.5,0.5,0.9,0.7,1.4
		l1.5,5.2v30.6h-1v-28.9H155.4 M187.3,179.8l-0.8,33.6v0.8l-0.8,0.5c0,0.4,0.1,1.1,0.1,1.6s-0.1,1.1-0.1,1.6
		c-0.1,0.4-0.2,1.1-0.3,1.6c-0.1,0.6-0.3,1.1-0.5,1.7c-0.2,0.5-0.5,1.1-0.7,1.6c-0.3,0.5-0.6,1-1,1.5l-3.5,2.7
		c-0.2,0.1-0.4,0.2-0.6,0.4c-0.2,0.2-0.3,0.3-0.4,0.5c-0.1,0.2-0.2,0.4-0.2,0.6H176v-46.6l-25.8-0.2v46.8h-14.4v-48.6H187.3
		 M311.1,210h-1.2l-0.8-3l-1.5-2.2l-3-2.9l-3,2.7l-1.5,2.4l-1,3h-1v18.4h-0.5v-28.9h14.5v28.9h-0.8V210 M276.8,213.9h3.5v0.5
		l0.2,0.2h0.3v0.3l0.2,0.2h0.2l0.3,0.2v2.2l0.3,2.2l0.7,1.9l0.7,1.7l0.8,1.4l1.2,1.2l1.4,1l1,0.5l0.8,0.5l0.3,0.3l0.2,0.3h-30.4
		l0.2-0.3l1.5-1l0.8-0.5l1.2-1l1.2-1l0.8-1.4l0.8-1.7l0.5-1.9l0.3-2.2v-2.2l0.3-0.2h0.3v-0.5h0.3l0.2-0.2v-0.2h0.2v-0.3H276.8
		 M269.5,149.5h-70.9l-0.2-4.9h71.3L269.5,149.5 M296.9,197h15.2v-0.3h-15.2V197 M170.9,196.7h-15.4v0.3h15.4V196.7 M378.9,229.9
		v1.9H88.7v-1.9H130v-0.7h207.7v0.7H378.9 M194.2,129.8v-0.6L194,129v-0.5l0.2-0.1v-0.1h0.2v0.5l0.2,0.3l-0.2,0.2v0.7l1.9,2.5l1,2.2
		l0.2,3l0.2,0.1l0.2,0.1v0.2l0.2,0.2h-7.3v-0.4l0.2-0.1v-0.1l0.2-0.1l0.3-3l0.8-2.2L194.2,129.8 M190.5,138.7v-0.2l0.2-0.1l0.2,0
		h6.9l0.2,0v0.1l0.2,0.1v0.3l-0.2,0.1v0.1l-0.2,0h-6.9l-0.2,0l-0.2-0.1V138.7 M190.5,148.8v-2.6l0.2-2.4l0.2-2.3v-2.2h6.9v2.2
		l0.2,2.3v2.4l0.2,2.6L190.5,148.8 M273.8,129.7v-0.5l-0.2-0.1v-0.8l0.2-0.1v-0.1l0.2,0v1.6l1.9,2.5l1,2.2l0.2,3l0.2,0.1l0.2,0.1
		v0.5h-7.1v-0.4l0.2-0.1v-0.1l0.2-0.1l0.3-3l0.8-2.2L273.8,129.7 M270.1,138.7v-0.2l0.2-0.1l0.2,0h6.9l0.2,0.1v0.1l0.2,0.1l-0.2,0.1
		v0.1l-0.2,0.1v0h-6.9l-0.2,0l-0.2-0.1V138.7 M269.9,148.8l0.2-2.6l0.2-2.4v-2.3l0.2-2.2h6.9v2.2l0.2,2.3v2.4l0.2,2.6L269.9,148.8
		 M195.7,146v-6.2h1.7v4l0.2,2.2v2.3h-1.9V146 M193.4,146v-4.2l0.2-2h1.7v8.5h-1.9V146 M191,146v-2.2l0.2-2.1v-2h1.7v6.2l-0.2,2.3
		h-1.9L191,146 M275.3,146v-4.2l-0.2-2h1.7l0.2,2v2.1l0.2,2.2v2.3h-1.9L275.3,146 M272.9,146v-6.2h1.9v8.5h-1.9V146 M270.6,146v-2.2
		l0.2-2.1v-2h1.7v4l-0.2,2.2v2.3h-1.9L270.6,146"/>
	<path class="st8" d="M266.1,211.2L266.1,211.2c0.8,0,1.6-0.1,2.4-0.2c0.6-0.1,1.2-0.3,1.8-0.6c0.4-0.2,0.7-0.4,1-0.7
		c0.4-0.4,0.8-0.8,1.2-1.2c0.1-0.1,0.3-0.3,0.6-0.7c0.2-0.2,0.4-0.4,0.6-0.6c0.1-0.1,0.2-0.2,0.4-0.3c0.1-0.1,0.2-0.1,0.3-0.2
		c0.2-0.1,0.4-0.1,0.7-0.1c0.3,0,0.6,0.1,0.9,0.2c0.3,0.2,0.5,0.4,0.7,0.7c0.2,0.4,0.3,0.8,0.3,1.2c0,2.1-0.6,3.8-1.7,5.2
		c-0.5,0.7-1.2,1.3-2,1.7c-0.8,0.4-1.7,0.6-2.6,0.6c-0.8,0-2-0.1-3.6-0.2c-1.5-0.1-2.6-0.2-3.4-0.2c-0.5,0-1.2,0.1-2.2,0.2
		c-1.1,0.1-1.9,0.2-2.5,0.2c-0.4,0-0.8-0.1-1.2-0.3c-0.3-0.1-0.6-0.4-0.8-0.7c-0.2-0.3-0.3-0.6-0.3-0.9c-0.1-0.6,0.1-1.1,0.5-1.6
		c0.3-0.3,0.6-0.5,0.9-0.7c0.1-0.1,0.3-0.1,0.4-0.2c0.1,0,0.1-0.1,0.1-0.2c0.2-0.5,0.2-1.2,0.2-2.3v-14.9c0-0.3,0-0.7-0.1-1
		c0-0.1-0.1-0.3-0.2-0.4c-0.1-0.1-0.2-0.1-0.3-0.2c-0.3-0.1-0.6-0.2-0.9-0.2h0c-0.5,0-1.1-0.3-1.5-0.7c-0.4-0.4-0.7-1-0.6-1.6
		c0-0.5,0.2-1.1,0.5-1.5c0.2-0.3,0.5-0.5,0.8-0.6c0.3-0.1,0.7-0.2,1-0.2c0.3,0,0.9,0.1,1.6,0.2c0.5,0.1,0.9,0.1,1.4,0.1
		c0.5,0,1.3-0.1,2.3-0.2c1.2-0.1,2.1-0.2,2.7-0.2c0.5,0,1,0.1,1.5,0.3c0.3,0.2,0.6,0.5,0.8,0.8c0.4,0.9,0.2,2-0.6,2.6
		c-0.3,0.3-0.7,0.4-1.2,0.5l-0.1,0l-0.1,0.1c-0.1,0.4-0.2,0.9-0.2,1.6v15.1C266,210.2,266,210.8,266.1,211.2 M225.8,189.3
		c0.2-0.1,0.4-0.2,0.6-0.3c0.4-0.2,0.8-0.2,1.1-0.1c0.5,0.1,1,0.4,1.3,0.8c0.2,0.2,0.3,0.5,0.3,0.8c0,0.1,0,0.3,0,0.4
		c0,0.2,0,0.6,0,1c0,0.8,0.1,1.6,0.2,2.3c0.1,0.9,0.2,1.8,0.2,2.8c0,0.4-0.1,0.8-0.2,1.1c-0.1,0.3-0.3,0.5-0.5,0.7
		c-0.3,0.3-0.7,0.5-1.1,0.5c-0.3,0-0.7,0-1-0.1c-0.3-0.1-0.6-0.4-0.8-0.7c-0.3-0.4-0.4-0.8-0.5-1.3c-0.2-1.2-0.8-2.3-1.8-3.3
		c-0.4-0.4-0.9-0.8-1.4-1.1c-0.4-0.2-0.9-0.3-1.3-0.3c-0.5,0-1,0.2-1.3,0.6c-0.4,0.4-0.6,0.9-0.6,1.4c0,0.4,0.1,0.7,0.4,1
		c0.4,0.5,0.9,0.9,1.6,1.3c1.4,0.8,2.7,1.4,3.7,2c1.1,0.6,1.7,1,1.8,1l0,0c1.1,0.8,2,1.9,2.6,3.2c0.6,1.3,0.9,2.7,0.9,4.1
		c0,2.5-0.8,4.7-2.3,6.6c-1.7,2-3.6,2.9-5.9,2.9c-0.4,0-0.9-0.1-1.3-0.2c-0.5-0.1-1.2-0.3-2.3-0.5h0h0c-0.7-0.2-1.5-0.4-2.2-0.7
		c-0.3-0.1-0.5-0.2-0.8-0.4c-0.3-0.2-0.6-0.5-0.8-0.8c-0.1-0.1-0.2-0.5-0.4-1.3c-0.1-0.5-0.3-1.3-0.5-2.2c-0.4-2.1-0.6-3.3-0.6-3.6
		c0-0.5,0.1-1,0.3-1.4c0.2-0.3,0.4-0.5,0.6-0.7c0.3-0.2,0.5-0.3,0.9-0.3c0.4-0.1,0.7,0,1.1,0.1c0.3,0.1,0.5,0.3,0.7,0.5
		c0.3,0.3,0.4,0.6,0.5,0.9c0.7,2.1,1.5,3.7,2.4,4.8c0.7,0.8,1.6,1.3,2.6,1.3c0.6,0,1.1-0.3,1.6-0.8c0.5-0.6,0.8-1.3,0.8-2.1
		c0-0.7-0.3-1.3-0.8-1.8c-0.8-0.7-2-1.4-3.8-2.1c-2.2-0.9-3.7-2.1-4.8-3.5c-1.1-1.5-1.7-3.3-1.7-5.3c0-2.3,0.7-4.3,2.1-5.9
		c1.5-1.7,3.3-2.5,5.4-2.5c1.1,0,2.3,0.3,3.6,0.9C225.1,189,225.5,189.2,225.8,189.3 M197.3,202.5h2.1c-0.5-1.3-0.8-2.2-1-2.7
		c0,0,0,0,0-0.1c-0.4,1-0.7,1.8-0.9,2.5C197.3,202.2,197.3,202.4,197.3,202.5 M201.1,207.6L201.1,207.6c-0.4-0.1-0.8-0.1-1.1-0.1
		h-4.3c0,0-0.1,0-0.1,0l0,0c0,0.1-0.1,0.2-0.1,0.3c-0.2,0.4-0.4,0.8-0.6,1.3c-0.4,0.9-0.6,1.5-0.6,1.9c0,0.2,0,0.3,0,0.5l0.1,0.1
		c0.2,0.2,0.6,0.3,1.1,0.5c0.4,0.1,0.8,0.3,1.1,0.5c0.2,0.2,0.4,0.3,0.6,0.6c0.2,0.3,0.4,0.7,0.4,1.1c0,0.3-0.1,0.6-0.2,0.9
		c-0.1,0.3-0.4,0.6-0.6,0.8c-0.4,0.3-0.9,0.4-1.4,0.4c-0.6,0-1.1-0.1-1.7-0.2c-0.4-0.1-0.8-0.1-1.2-0.1c-0.4,0-0.9,0-1.7,0.1
		c-0.9,0.1-1.6,0.1-2,0.1c-0.2,0-0.5,0-0.7-0.1c-0.3-0.1-0.7-0.3-0.9-0.5c-0.2-0.2-0.4-0.5-0.5-0.9c-0.1-0.2-0.1-0.5-0.1-0.7
		c0-0.3,0.1-0.7,0.3-1c0.2-0.3,0.4-0.6,0.7-0.8c0,0,0.2-0.1,0.4-0.2c0.1,0,0.1-0.1,0.2-0.1c0.3-0.3,0.6-0.7,0.8-1.1
		c0.4-0.7,0.8-1.5,1.1-2.3c0.6-1.8,1.3-3.4,1.9-5c0.6-1.6,1.2-3,1.7-4.4c0.2-0.5,0.9-2.3,2.1-5.5c0.6-1.6,1.1-2.9,1.5-3.7
		c0.2-0.4,0.4-0.8,0.6-1.1c0.1-0.2,0.3-0.4,0.5-0.5c0.1-0.1,0.3-0.2,0.5-0.3c0.3-0.1,0.6-0.2,0.9-0.1c0.3,0,0.5,0.1,0.7,0.2
		c0.2,0.1,0.3,0.2,0.5,0.4c0.2,0.2,0.4,0.4,0.5,0.7c0.4,0.7,0.7,1.5,1,2.3l7.2,18.7c0.3,0.7,0.5,1.2,0.8,1.5
		c0.2,0.2,0.6,0.4,1.1,0.5c0.3,0.1,0.6,0.2,0.8,0.4c0.2,0.2,0.4,0.4,0.5,0.6c0.2,0.4,0.3,0.9,0.3,1.3c-0.1,0.5-0.3,1-0.7,1.3
		c-0.2,0.2-0.5,0.4-0.8,0.5c-0.3,0.1-0.6,0.1-0.9,0.1c-0.8-0.1-1.5-0.2-2.2-0.3c-0.7,0-1.5-0.1-2.4-0.1c-0.6,0-1.2,0.1-1.7,0.1
		c-0.7,0.1-1.4,0.1-2.1,0.1c-0.5,0-1.1-0.2-1.4-0.5c-0.2-0.2-0.4-0.5-0.5-0.8c-0.1-0.3-0.1-0.5-0.1-0.8c0-0.5,0.2-1.1,0.6-1.4
		c0.3-0.3,0.6-0.5,1-0.6c0.2-0.1,0.3-0.1,0.4-0.2l0.1-0.1c0-0.1,0-0.2,0-0.3c0-0.2-0.1-0.5-0.1-0.7c-0.1-0.4-0.3-0.9-0.5-1.6
		c-0.2-0.5-0.4-1-0.6-1.5C201.1,207.7,201.1,207.6,201.1,207.6 M243.4,207.6L243.4,207.6c-0.4-0.1-0.8-0.1-1.1-0.1H238
		c0,0-0.1,0-0.1,0l0,0c-0.1,0.1-0.1,0.2-0.1,0.3c-0.2,0.4-0.4,0.8-0.6,1.3c-0.4,0.9-0.6,1.5-0.6,1.9c0,0.2,0,0.3,0,0.5l0.1,0.1
		c0.2,0.2,0.6,0.3,1.1,0.5c0.4,0.1,0.8,0.3,1.1,0.5c0.2,0.2,0.4,0.3,0.6,0.6c0.2,0.3,0.4,0.7,0.4,1.1c0,0.3-0.1,0.6-0.2,0.9
		c-0.1,0.3-0.4,0.6-0.6,0.8c-0.4,0.3-0.9,0.4-1.4,0.4c-0.6,0-1.1-0.1-1.7-0.2c-0.4-0.1-0.8-0.1-1.2-0.1c-0.4,0-0.9,0-1.7,0.1
		c-0.9,0.1-1.6,0.1-2,0.1c-0.2,0-0.5,0-0.7-0.1c-0.3-0.1-0.7-0.3-0.9-0.5c-0.2-0.2-0.4-0.5-0.5-0.9c-0.1-0.2-0.1-0.5-0.1-0.7
		c0-0.3,0.1-0.7,0.3-1c0.2-0.3,0.4-0.6,0.7-0.8c0.1,0,0.2-0.1,0.4-0.2c0.1,0,0.1-0.1,0.2-0.1c0.3-0.3,0.6-0.7,0.8-1.1
		c0.4-0.7,0.8-1.5,1.1-2.3c0.6-1.8,1.3-3.4,1.9-5c0.6-1.6,1.2-3,1.7-4.4c0.2-0.5,0.9-2.3,2.1-5.5c0.6-1.6,1.1-2.9,1.5-3.7
		c0.2-0.4,0.4-0.8,0.6-1.1c0.1-0.2,0.3-0.4,0.5-0.5c0.1-0.1,0.3-0.2,0.5-0.3c0.3-0.1,0.6-0.2,0.9-0.1c0.3,0,0.5,0.1,0.7,0.2
		c0.2,0.1,0.3,0.2,0.5,0.4c0.2,0.2,0.4,0.4,0.5,0.7c0.4,0.7,0.7,1.5,1,2.3l7.2,18.7c0.3,0.7,0.5,1.2,0.8,1.5
		c0.2,0.2,0.6,0.4,1.1,0.5c0.3,0.1,0.6,0.2,0.8,0.4c0.2,0.2,0.4,0.4,0.5,0.6c0.2,0.4,0.3,0.9,0.3,1.3c-0.1,0.5-0.3,1-0.7,1.3
		c-0.2,0.2-0.5,0.4-0.8,0.5c-0.3,0.1-0.6,0.1-0.9,0.1c-0.8-0.1-1.5-0.2-2.2-0.3c-0.7,0-1.5-0.1-2.4-0.1c-0.6,0-1.2,0.1-1.7,0.1
		c-0.7,0.1-1.4,0.1-2.1,0.1c-0.5,0-1.1-0.2-1.4-0.5c-0.2-0.2-0.4-0.5-0.5-0.8c-0.1-0.3-0.1-0.5-0.1-0.8c0-0.5,0.2-1.1,0.6-1.4
		c0.3-0.3,0.6-0.5,1-0.6c0.2-0.1,0.3-0.1,0.4-0.2l0.1-0.1c0-0.1,0-0.2,0-0.3c0-0.2-0.1-0.5-0.1-0.7c-0.1-0.4-0.3-0.9-0.5-1.6
		c-0.2-0.5-0.4-1-0.6-1.5C243.5,207.7,243.5,207.6,243.4,207.6 M239.6,202.5h2.1c-0.5-1.3-0.8-2.2-1-2.7l0-0.1
		c-0.4,1-0.7,1.8-0.9,2.5L239.6,202.5 M291,207.6L291,207.6c-0.4-0.1-0.8-0.1-1.1-0.1h-4.3c0,0-0.1,0-0.1,0l0,0
		c0,0.1-0.1,0.1-0.1,0.3c-0.2,0.4-0.4,0.8-0.6,1.3c-0.4,0.9-0.6,1.5-0.6,1.9c0,0.2,0,0.3,0,0.5l0.1,0.1c0.2,0.2,0.6,0.3,1.1,0.5
		c0.4,0.1,0.8,0.3,1.1,0.5c0.2,0.2,0.4,0.3,0.6,0.6c0.2,0.3,0.4,0.7,0.4,1.1c0,0.3-0.1,0.6-0.2,0.9c-0.1,0.3-0.4,0.6-0.6,0.8
		c-0.4,0.3-0.9,0.4-1.4,0.4c-0.6,0-1.1-0.1-1.7-0.2c-0.4-0.1-0.8-0.1-1.2-0.1c-0.4,0-0.9,0-1.7,0.1c-0.9,0.1-1.6,0.1-2,0.1
		c-0.2,0-0.5,0-0.7-0.1c-0.3-0.1-0.7-0.3-0.9-0.5c-0.2-0.2-0.4-0.5-0.5-0.9c-0.1-0.2-0.1-0.5-0.1-0.7c0-0.7,0.4-1.4,1-1.8
		c0.1,0,0.2-0.1,0.4-0.2c0.1,0,0.1-0.1,0.2-0.1c0.3-0.3,0.6-0.7,0.8-1.1c0.4-0.7,0.8-1.5,1.1-2.3c0.6-1.8,1.3-3.4,1.9-5
		c0.6-1.6,1.2-3,1.7-4.4c0.2-0.5,0.9-2.3,2.1-5.5c0.6-1.6,1.1-2.9,1.5-3.7c0.2-0.4,0.4-0.8,0.6-1.1c0.1-0.2,0.3-0.4,0.5-0.5
		c0.1-0.1,0.3-0.2,0.5-0.3c0.3-0.1,0.6-0.2,0.9-0.1c0.3,0,0.5,0.1,0.7,0.2c0.2,0.1,0.3,0.2,0.5,0.4c0.2,0.2,0.4,0.4,0.5,0.7
		c0.4,0.7,0.7,1.5,1,2.3l7.2,18.7c0.3,0.7,0.5,1.2,0.8,1.5c0.2,0.2,0.6,0.4,1.1,0.5c0.3,0.1,0.6,0.2,0.8,0.4
		c0.2,0.2,0.4,0.4,0.5,0.6c0.2,0.4,0.3,0.9,0.3,1.3c-0.1,0.5-0.3,1-0.7,1.3c-0.2,0.2-0.5,0.4-0.8,0.5c-0.3,0.1-0.6,0.1-0.9,0.1
		c-0.8-0.1-1.5-0.2-2.2-0.3c-0.7,0-1.5-0.1-2.4-0.1c-0.6,0-1.2,0.1-1.7,0.1c-0.7,0.1-1.4,0.1-2.1,0.1c-0.5,0-1.1-0.2-1.4-0.5
		c-0.2-0.2-0.4-0.5-0.5-0.8c-0.1-0.3-0.1-0.5-0.1-0.8c0-0.5,0.2-1.1,0.6-1.4c0.3-0.3,0.6-0.5,1-0.6c0.2-0.1,0.3-0.1,0.4-0.2l0.1-0.1
		c0-0.1,0-0.2,0-0.3c0-0.2-0.1-0.5-0.1-0.7c-0.1-0.4-0.3-0.9-0.5-1.6c-0.2-0.5-0.4-1-0.6-1.5C291.1,207.7,291,207.6,291,207.6
		 M287.2,202.5h2.1c-0.5-1.3-0.8-2.2-1-2.7l0-0.1c-0.4,1-0.7,1.8-0.9,2.5C287.3,202.2,287.2,202.3,287.2,202.5"/>
	<path class="st8" d="M160.5,209.6c0.5-0.9,1.6-3.3,3.4-7c1.8-3.8,3.3-6.8,4.6-9.1c0.6-1.1,1.1-2,1.5-2.7c0.6-1,1.1-1.5,1.4-1.7
		c0.4-0.3,1-0.6,1.5-0.7c0.4-0.1,0.8-0.1,1.3-0.1c0.4,0,1,0,2,0.1l1,0l0.3,0c0.3,0,0.8,0,1.5-0.1c0.7-0.1,1.4-0.1,2.1-0.1
		c0.3,0,0.7,0,1,0.1c0.4,0.1,0.8,0.3,1.1,0.5c0.4,0.3,0.6,0.6,0.8,1c0.1,0.3,0.2,0.7,0.2,1.1c0,0.7-0.3,1.4-0.9,1.9
		c-0.5,0.4-1.1,0.7-1.8,0.7c-0.5,0-1,0.2-1.5,0.4c-0.2,0.1-0.4,0.3-0.5,0.5c-0.2,0.4-0.4,1-0.5,1.6c-0.1,0.9-0.2,1.9-0.2,2.9
		c0,0.1,0.1,1.9,0.2,5.5c0.1,3.6,0.3,7.4,0.4,11.4c0.1,2.4,0.3,4.1,0.9,5c0.2,0.3,0.4,0.5,0.7,0.7c0.5,0.3,1,0.5,1.6,0.5
		c0.7,0.1,1.4,0.3,2,0.7c0.4,0.2,0.7,0.6,1,1c0.2,0.4,0.3,0.8,0.3,1.2c0,0.5-0.2,1-0.5,1.4c-0.3,0.4-0.8,0.7-1.2,0.9
		c-0.4,0.1-1.1,0.3-2.2,0.3c-0.8,0-2-0.1-3.6-0.2c-1.4-0.1-2.4-0.2-3.1-0.2c-0.7,0-1.8,0.1-3.3,0.2c-1.7,0.2-2.9,0.3-3.7,0.3
		c-0.6,0-1.2-0.1-1.8-0.4c-0.4-0.2-0.7-0.4-0.9-0.8c-0.3-0.3-0.4-0.7-0.4-1.2c-0.1-0.6,0.1-1.3,0.5-1.7c0.3-0.4,0.7-0.7,1.1-0.9
		c0.3-0.2,0.5-0.3,0.6-0.3l0,0l0,0c0.5-0.3,1-0.6,1.2-0.9c0.1-0.1,0.1-0.2,0.1-0.4c0-0.3,0.1-0.5,0.1-0.8c0-1.3-0.1-4.3-0.4-9.1
		c-0.1-1-0.1-2-0.1-2.8c-0.6,1.1-1.2,2.3-1.8,3.7c-2.5,4.9-4.5,8.9-6.1,12.1c-0.1,0.1-0.2,0.3-0.3,0.7c-0.2,0.5-0.4,0.8-0.5,1
		c-0.2,0.4-0.5,0.8-0.9,1.1c-0.3,0.2-0.6,0.4-0.9,0.5c-0.4,0.2-0.9,0.2-1.3,0.2c-0.6,0-1.1-0.2-1.6-0.6c-0.4-0.3-0.7-0.6-1-0.9
		c-0.4-0.5-1.3-2.2-2.7-5.1l-5.7-11.9c0,0.2,0,0.4,0,0.7c-0.1,3.9-0.1,6.3-0.1,7c0,1.7,0.2,3.1,0.7,4c0.4,0.7,1,1.2,1.9,1.5h0h0
		c0.9,0.4,1.5,0.7,1.9,0.9c0.3,0.2,0.6,0.5,0.8,0.8c0.3,0.4,0.4,0.9,0.4,1.3c0,0.4-0.1,0.9-0.4,1.3c-0.2,0.4-0.6,0.7-1,0.9
		c-0.6,0.3-1.2,0.4-1.8,0.4c-0.7,0-1.8-0.1-3.2-0.2c-1.2-0.1-2.1-0.2-2.7-0.2c-0.5,0-1.3,0.1-2.3,0.2c-1.2,0.1-2.2,0.2-2.8,0.2
		c-0.3,0-0.7,0-1-0.1c-0.5-0.1-0.9-0.3-1.2-0.5c-0.4-0.3-0.7-0.7-0.9-1.2c-0.1-0.4-0.1-0.8-0.1-1.2c0.1-0.5,0.3-1,1-1.6
		c0.4-0.3,0.8-0.5,1.3-0.7c0.5-0.2,0.9-0.4,1.3-0.7c0.2-0.1,0.3-0.3,0.4-0.5c0.2-0.4,0.4-0.8,0.4-1.3c0.1-0.9,0.2-1.8,0.2-2.7
		c0.2-3.9,0.3-8,0.5-12.2c0.2-4.2,0.3-6.4,0.3-6.5c0-1.3-0.4-2.5-1.2-3.4c-0.3-0.4-0.7-0.7-1.2-0.9c-0.4-0.2-0.9-0.3-1.4-0.3
		c-0.4,0-0.7,0-1.1-0.1c-0.5-0.1-0.9-0.3-1.3-0.6c-0.3-0.3-0.6-0.6-0.7-1c-0.1-0.3-0.2-0.7-0.2-1c0-0.5,0.1-1,0.4-1.4
		c0.3-0.4,0.7-0.7,1.1-0.9c0.5-0.2,1-0.3,1.5-0.3c0.4,0,0.9-0.1,1.6-0.1h0.1c1.1,0.1,1.8,0.1,2.2,0.1l0.1,0l0.2,0
		c0.4,0,1-0.1,1.7-0.2c0.8-0.1,1.6-0.2,2.4-0.2c1,0,2,0.2,2.9,0.7c0.8,0.5,1.5,1.2,1.9,2.1l10.3,21.4
		C159.7,211.1,160.2,210.2,160.5,209.6"/>
	<path class="st4" d="M277.5,214.1c0-0.2,0.1-0.4,0.1-0.6c0.1-0.2,0.3-0.4,0.4-0.5c0,0,0.1-0.1,0.3-0.2c0.1-0.1,0.2-0.1,0.3-0.2
		c0.4-0.4,0.8-0.8,1.1-1.3c0.4-0.8,0.8-1.6,1.1-2.5c0.6-1.8,1.3-3.4,1.9-5c0.6-1.6,1.2-3,1.7-4.4c0.2-0.5,0.9-2.3,2.1-5.5
		c0.6-1.6,1.1-2.8,1.5-3.6c0.2-0.3,0.3-0.7,0.6-1c0.1-0.1,0.2-0.2,0.3-0.3c0.1-0.1,0.2-0.1,0.3-0.2c0.1-0.1,0.3-0.1,0.4-0.1
		c0.1,0,0.3,0.1,0.4,0.1c0.1,0.1,0.2,0.1,0.3,0.2c0.1,0.1,0.3,0.3,0.3,0.5c0.3,0.7,0.6,1.4,0.9,2.1l7.2,18.7c0.3,0.9,0.7,1.5,1,1.9
		c0.3,0.3,0.9,0.5,1.5,0.7c0.2,0,0.3,0.1,0.5,0.2c0.1,0.1,0.2,0.2,0.3,0.4c0.1,0.2,0.2,0.5,0.1,0.8c0,0.3-0.2,0.6-0.4,0.8
		c-0.1,0.1-0.3,0.2-0.4,0.2c-0.2,0-0.3,0.1-0.5,0c-0.8-0.1-1.5-0.2-2.2-0.3s-1.5-0.1-2.5-0.1c-0.6,0-1.2,0.1-1.8,0.1
		c-0.6,0.1-1.3,0.1-2,0.1c-0.3,0-0.6-0.1-0.8-0.3c-0.1-0.1-0.2-0.3-0.3-0.4c-0.1-0.1-0.1-0.3-0.1-0.5c0-0.3,0.1-0.6,0.3-0.8
		c0.2-0.2,0.4-0.3,0.7-0.4c0.2-0.1,0.4-0.2,0.6-0.3c0.1-0.1,0.2-0.2,0.3-0.4c0.1-0.2,0.2-0.5,0.2-0.7c0-0.3-0.1-0.6-0.2-0.9
		c-0.1-0.4-0.3-1-0.5-1.6c-0.2-0.5-0.4-1.1-0.7-1.6c-0.1-0.3-0.2-0.5-0.4-0.6c-0.1-0.1-0.3-0.1-0.5-0.1c-0.4-0.1-0.8-0.1-1.2-0.1
		h-4.3c-0.1,0-0.3,0-0.4,0.1c-0.1,0-0.2,0.1-0.3,0.2c-0.1,0.2-0.3,0.3-0.3,0.5c-0.2,0.4-0.4,0.9-0.6,1.4c-0.4,1.1-0.7,1.8-0.7,2.2
		c0,0.3,0,0.5,0.1,0.8c0,0.1,0.1,0.3,0.2,0.4c0.3,0.3,0.8,0.5,1.6,0.7c0.3,0.1,0.6,0.2,0.9,0.4c0.1,0.1,0.3,0.2,0.4,0.3
		c0.1,0.2,0.2,0.4,0.2,0.6c0,0.2,0,0.3-0.1,0.5c-0.1,0.2-0.2,0.3-0.4,0.4c-0.3,0.2-0.6,0.3-0.9,0.3c-0.5,0-1-0.1-1.5-0.1
		c-0.4-0.1-0.9-0.1-1.3-0.1c-0.4,0-1,0-1.8,0.1c-0.9,0.1-1.5,0.1-1.9,0.1c-0.1,0-0.3,0-0.4-0.1c-0.2,0-0.4-0.1-0.5-0.3
		c-0.1-0.1-0.2-0.3-0.3-0.5C277.5,214.4,277.4,214.2,277.5,214.1 M290.6,203.4c-0.7-1.9-1.2-3.3-1.5-4c-0.3-0.7-0.6-1.4-0.9-2.2
		c-0.8,1.9-1.4,3.5-1.8,4.6c-0.2,0.6-0.4,1-0.5,1.4c0,0.1,0,0.1-0.1,0.2L290.6,203.4"/>
	<path class="st4" d="M256.3,190.6c0-0.3,0.1-0.6,0.3-0.9c0.1-0.1,0.3-0.3,0.4-0.3c0.2-0.1,0.4-0.1,0.6-0.1c0.3,0,0.8,0.1,1.5,0.2
		c0.5,0.1,1,0.1,1.5,0.1c0.5,0,1.4-0.1,2.5-0.2c1.2-0.1,2-0.2,2.6-0.2c0.4,0,0.7,0.1,1,0.2c0.2,0.1,0.3,0.3,0.4,0.4
		c0.1,0.2,0.1,0.4,0.1,0.6c0,0.3-0.2,0.6-0.5,0.8c-0.2,0.2-0.5,0.3-0.8,0.3c-0.2,0-0.3,0.1-0.5,0.2c-0.1,0.1-0.2,0.2-0.2,0.3
		c-0.2,0.4-0.3,1.1-0.3,2.1v15.1c0,1.1,0.1,1.9,0.3,2.4c0,0.1,0.1,0.2,0.2,0.2c0.2,0.1,0.4,0.1,0.5,0.1c0.9,0,1.7-0.1,2.6-0.2
		c0.7-0.1,1.4-0.4,2-0.7c0.4-0.2,0.8-0.5,1.2-0.8c0.5-0.4,0.9-0.8,1.3-1.3c0.1-0.1,0.3-0.3,0.6-0.7c0.2-0.2,0.3-0.4,0.5-0.5
		c0.1-0.1,0.2-0.1,0.2-0.2c0.1,0,0.1-0.1,0.2-0.1c0.1,0,0.2-0.1,0.3-0.1c0.2,0,0.3,0,0.5,0.1c0.2,0.1,0.3,0.2,0.4,0.4
		c0.1,0.2,0.2,0.5,0.2,0.7c0,1.9-0.5,3.4-1.5,4.6c-0.5,0.6-1,1.1-1.7,1.5c-0.7,0.3-1.4,0.5-2.1,0.5c-0.8,0-2-0.1-3.5-0.2
		c-1.5-0.1-2.7-0.2-3.5-0.2c-0.5,0-1.3,0.1-2.3,0.2c-1.1,0.1-1.9,0.2-2.4,0.2c-0.3,0-0.5-0.1-0.8-0.2c-0.2-0.1-0.3-0.2-0.4-0.4
		c-0.1-0.1-0.2-0.3-0.2-0.5c0-0.3,0.1-0.6,0.3-0.9c0.2-0.2,0.4-0.4,0.6-0.5c0.5-0.2,0.9-0.5,1-0.9c0.2-0.5,0.3-1.4,0.3-2.6v-14.9
		c0-0.4,0-0.9-0.1-1.3c-0.1-0.3-0.2-0.5-0.4-0.7c-0.2-0.2-0.4-0.3-0.6-0.4c-0.4-0.1-0.8-0.2-1.2-0.2c-0.3,0-0.7-0.2-0.9-0.4
		C256.5,191.2,256.4,190.9,256.3,190.6"/>
	<path class="st4" d="M229.9,214.1c0-0.2,0.1-0.4,0.1-0.6c0.1-0.2,0.3-0.4,0.4-0.5c0,0,0.1-0.1,0.3-0.2c0.1-0.1,0.2-0.1,0.3-0.2
		c0.4-0.4,0.8-0.8,1.1-1.3c0.4-0.8,0.8-1.6,1.1-2.5c0.6-1.8,1.3-3.4,1.9-5c0.6-1.6,1.2-3,1.7-4.4c0.2-0.5,0.9-2.3,2.1-5.5
		c0.6-1.6,1.1-2.8,1.5-3.6c0.2-0.3,0.3-0.7,0.6-1c0.1-0.1,0.2-0.2,0.3-0.3c0.1-0.1,0.2-0.1,0.3-0.2c0.1-0.1,0.3-0.1,0.4-0.1
		c0.1,0,0.3,0.1,0.4,0.1c0.1,0.1,0.2,0.1,0.3,0.2c0.1,0.1,0.3,0.3,0.3,0.5c0.3,0.7,0.6,1.4,0.9,2.1l7.2,18.7c0.3,0.9,0.7,1.5,1,1.9
		c0.3,0.3,0.9,0.5,1.5,0.7c0.2,0,0.3,0.1,0.5,0.2c0.1,0.1,0.2,0.2,0.3,0.4c0.1,0.2,0.2,0.5,0.1,0.8c0,0.3-0.2,0.6-0.4,0.8
		c-0.2,0.2-0.6,0.3-0.9,0.3c-0.8-0.1-1.5-0.2-2.2-0.3c-0.7-0.1-1.5-0.1-2.5-0.1c-0.6,0-1.2,0.1-1.8,0.1c-0.6,0.1-1.3,0.1-2,0.1
		c-0.3,0-0.6-0.1-0.8-0.3c-0.1-0.1-0.2-0.3-0.3-0.4c-0.1-0.1-0.1-0.3-0.1-0.5c0-0.3,0.1-0.6,0.3-0.8c0.2-0.2,0.4-0.3,0.7-0.4
		c0.2-0.1,0.4-0.2,0.6-0.3c0.1-0.1,0.2-0.2,0.3-0.4c0.1-0.2,0.2-0.5,0.2-0.7c0-0.3-0.1-0.6-0.2-0.9c-0.1-0.4-0.3-1-0.5-1.6
		c-0.2-0.5-0.4-1.1-0.7-1.6c-0.1-0.3-0.2-0.5-0.4-0.6c-0.1-0.1-0.3-0.1-0.5-0.1c-0.4-0.1-0.8-0.1-1.2-0.1H238
		c-0.3,0-0.5,0.1-0.7,0.2c-0.1,0.2-0.3,0.3-0.3,0.5c-0.2,0.4-0.4,0.9-0.6,1.4c-0.4,1.1-0.7,1.8-0.7,2.2c0,0.3,0,0.5,0.1,0.8
		c0,0.1,0.1,0.3,0.2,0.4c0.3,0.3,0.8,0.5,1.6,0.7c0.3,0.1,0.6,0.2,0.9,0.4c0.1,0.1,0.3,0.2,0.4,0.3c0.1,0.2,0.2,0.4,0.2,0.6
		c0,0.2,0,0.3-0.1,0.5c-0.1,0.2-0.2,0.3-0.4,0.4c-0.3,0.2-0.6,0.3-0.9,0.3c-0.5,0-1-0.1-1.5-0.1c-0.4-0.1-0.9-0.1-1.3-0.1
		c-0.4,0-1,0-1.8,0.1c-0.9,0.1-1.5,0.1-1.9,0.1c-0.1,0-0.3,0-0.4-0.1c-0.4-0.1-0.6-0.4-0.7-0.7C229.9,214.4,229.9,214.2,229.9,214.1
		 M243.1,203.4c-0.7-1.9-1.2-3.3-1.5-4c-0.3-0.7-0.6-1.4-0.9-2.2c-0.8,1.9-1.4,3.5-1.8,4.6c-0.2,0.6-0.4,1-0.5,1.4
		c0,0.1,0,0.1-0.1,0.2L243.1,203.4"/>
	<path class="st4" d="M213.9,206.8c0-0.3,0.1-0.7,0.2-1c0.1-0.2,0.2-0.3,0.3-0.4c0.1-0.1,0.3-0.2,0.5-0.2c0.2,0,0.4,0,0.6,0.1
		c0.1,0.1,0.3,0.2,0.4,0.3c0.2,0.2,0.3,0.4,0.3,0.6c0.7,2.3,1.6,4,2.6,5.1c0.9,1,2,1.6,3.2,1.6c0.9,0,1.6-0.4,2.3-1.1
		c0.7-0.7,1.1-1.7,1-2.7c0-0.9-0.4-1.8-1.1-2.4c-0.8-0.8-2.2-1.5-4-2.3c-2-0.8-3.4-1.9-4.4-3.2c-1-1.3-1.5-2.9-1.5-4.7
		c0-2.1,0.6-3.8,1.9-5.3c1.3-1.5,2.9-2.2,4.8-2.2c1,0,2.1,0.3,3.3,0.8c0.5,0.2,1,0.4,1.3,0.5c0.1,0.1,0.2,0.1,0.3,0.1l0,0
		c0.1,0,0.2-0.1,0.3-0.1c0.2-0.1,0.3-0.2,0.5-0.3c0.2-0.1,0.4-0.1,0.7-0.1c0.3,0,0.6,0.2,0.7,0.4c0.1,0.1,0.1,0.3,0.2,0.4
		c0,0.1,0,0.2,0,0.3c0,0.2,0,0.5,0,0.9c0,0.8,0.1,1.6,0.2,2.4c0.1,0.9,0.2,1.8,0.2,2.6c0,0.3-0.1,0.5-0.2,0.8
		c-0.1,0.2-0.2,0.3-0.3,0.4c-0.2,0.2-0.4,0.3-0.6,0.3c-0.2,0-0.4,0-0.6-0.1c-0.2-0.1-0.3-0.2-0.5-0.4c-0.2-0.3-0.3-0.6-0.3-0.9
		c-0.2-1.4-0.9-2.7-2-3.8c-1.1-1.1-2.2-1.7-3.4-1.7c-0.7,0-1.4,0.3-1.9,0.9c-0.5,0.5-0.9,1.3-0.9,2c0,0.6,0.2,1.1,0.6,1.5
		c0.4,0.6,1.1,1,1.9,1.5c1.4,0.8,2.7,1.4,3.7,2c1.1,0.6,1.6,0.9,1.7,0.9l0,0l0,0c1,0.8,1.8,1.7,2.3,2.9c0.5,1.2,0.8,2.4,0.8,3.7
		c0,2.3-0.7,4.3-2.1,6c-1.5,1.7-3.2,2.6-5.3,2.6c-0.4,0-0.7-0.1-1.1-0.1c-0.4-0.1-1.2-0.3-2.2-0.5c-0.7-0.2-1.4-0.4-2.1-0.7
		c-0.2-0.1-0.5-0.2-0.7-0.3c-0.2-0.1-0.4-0.3-0.5-0.5c-0.1-0.3-0.2-0.7-0.3-1c-0.1-0.5-0.3-1.2-0.5-2.2
		C214.1,208.2,213.9,207,213.9,206.8"/>
	<path class="st4" d="M187.5,214.1c0-0.2,0.1-0.4,0.1-0.6c0.1-0.2,0.3-0.4,0.4-0.5c0,0,0.1-0.1,0.3-0.2c0.1-0.1,0.2-0.1,0.3-0.2
		c0.4-0.4,0.8-0.8,1.1-1.3c0.4-0.8,0.8-1.6,1.1-2.5c0.6-1.8,1.3-3.4,1.9-5c0.6-1.6,1.2-3,1.7-4.4c0.2-0.5,0.9-2.3,2.1-5.5
		c0.6-1.6,1.1-2.8,1.5-3.6c0.2-0.3,0.3-0.7,0.6-1c0.1-0.1,0.2-0.2,0.3-0.3c0.1-0.1,0.2-0.1,0.3-0.2c0.1-0.1,0.3-0.1,0.4-0.1
		c0.1,0,0.3,0.1,0.4,0.1c0.1,0.1,0.2,0.1,0.3,0.2c0.1,0.1,0.3,0.3,0.3,0.5c0.3,0.7,0.6,1.4,0.9,2.1l7.2,18.7c0.3,0.9,0.7,1.5,1,1.9
		c0.3,0.3,0.9,0.5,1.5,0.7c0.2,0,0.3,0.1,0.5,0.2c0.1,0.1,0.2,0.2,0.3,0.4c0.1,0.2,0.2,0.5,0.1,0.8c0,0.3-0.2,0.6-0.4,0.8
		c-0.1,0.1-0.3,0.2-0.4,0.2c-0.2,0-0.3,0.1-0.5,0c-0.8-0.1-1.5-0.2-2.2-0.3c-0.7-0.1-1.5-0.1-2.5-0.1c-0.6,0-1.2,0.1-1.8,0.1
		c-0.6,0.1-1.3,0.1-2,0.1c-0.3,0-0.6-0.1-0.8-0.3c-0.1-0.1-0.2-0.3-0.3-0.4c-0.1-0.1-0.1-0.3-0.1-0.5c0-0.3,0.1-0.6,0.3-0.8
		c0.2-0.2,0.4-0.3,0.7-0.4c0.2-0.1,0.4-0.2,0.6-0.3c0.1-0.1,0.2-0.2,0.3-0.4c0.1-0.2,0.2-0.5,0.2-0.7c0-0.3-0.1-0.6-0.2-0.9
		c-0.1-0.4-0.3-1-0.5-1.6c-0.2-0.5-0.4-1.1-0.7-1.6c-0.1-0.3-0.2-0.5-0.4-0.6c-0.1-0.1-0.3-0.1-0.5-0.1c-0.4-0.1-0.8-0.1-1.2-0.1
		h-4.3c-0.1,0-0.3,0-0.4,0.1c-0.1,0-0.2,0.1-0.3,0.2c-0.1,0.2-0.3,0.3-0.3,0.5c-0.2,0.4-0.4,0.9-0.6,1.4c-0.4,1.1-0.7,1.8-0.7,2.2
		c0,0.3,0,0.5,0.1,0.8c0,0.1,0.1,0.3,0.2,0.4c0.3,0.3,0.8,0.5,1.6,0.7c0.3,0.1,0.6,0.2,0.9,0.4c0.1,0.1,0.3,0.2,0.4,0.3
		c0.1,0.2,0.2,0.4,0.2,0.6c0,0.2,0,0.3-0.1,0.5c-0.1,0.2-0.2,0.3-0.4,0.4c-0.3,0.2-0.6,0.3-0.9,0.3c-0.5,0-1-0.1-1.5-0.1
		c-0.4-0.1-0.9-0.1-1.3-0.1c-0.4,0-1,0-1.8,0.1c-0.9,0.1-1.5,0.1-1.9,0.1c-0.1,0-0.3,0-0.4-0.1c-0.2,0-0.4-0.1-0.5-0.3
		c-0.1-0.1-0.2-0.3-0.3-0.5C187.5,214.4,187.5,214.2,187.5,214.1 M200.7,203.4c-0.7-1.9-1.2-3.3-1.5-4c-0.3-0.7-0.6-1.4-0.9-2.2
		c-0.8,1.9-1.4,3.5-1.8,4.6c-0.2,0.6-0.4,1-0.5,1.4c0,0.1,0,0.1-0.1,0.2L200.7,203.4"/>
	<path class="st4" d="M159,214.4c1.1-2.1,1.9-3.6,2.3-4.5c0.5-1,1.6-3.3,3.4-7c1.8-3.8,3.3-6.8,4.5-9c0.6-1.1,1.1-2,1.5-2.6
		c0.5-0.8,0.9-1.3,1.1-1.4c0.3-0.3,0.7-0.5,1.2-0.6c0.3-0.1,0.7-0.1,1.1-0.1c0.4,0,1,0,1.9,0.1l1,0l0.3,0c0.5,0,1.1-0.1,1.6-0.1
		c0.7-0.1,1.3-0.1,2-0.1c0.3,0,0.5,0,0.8,0.1c0.3,0.1,0.6,0.2,0.8,0.4c0.2,0.2,0.4,0.4,0.5,0.7c0.1,0.2,0.1,0.5,0.1,0.7
		c0,0.5-0.2,0.9-0.6,1.2c-0.4,0.3-0.8,0.5-1.3,0.5c-0.6,0-1.2,0.2-1.8,0.5c-0.4,0.2-0.7,0.5-0.9,0.8c-0.6,1-0.8,2.6-0.8,5
		c0,0.1,0.1,1.9,0.2,5.5c0.1,3.6,0.3,7.4,0.4,11.4c0.1,2.6,0.4,4.4,1,5.5c0.3,0.4,0.6,0.8,1.1,1c0.6,0.3,1.2,0.5,1.9,0.6
		c0.6,0.1,1.2,0.3,1.7,0.6c0.3,0.2,0.5,0.4,0.7,0.7c0.1,0.2,0.2,0.5,0.2,0.8c0,0.3-0.1,0.6-0.3,0.9c-0.2,0.3-0.5,0.5-0.8,0.6
		c-0.3,0.1-1,0.2-1.9,0.2c-0.8,0-1.9-0.1-3.5-0.2c-1.4-0.1-2.5-0.2-3.2-0.2c-0.8,0-1.9,0.1-3.4,0.2c-1.6,0.2-2.8,0.2-3.6,0.2
		c-0.5,0-1-0.1-1.4-0.3c-0.2-0.1-0.4-0.3-0.6-0.5c-0.2-0.2-0.2-0.5-0.3-0.7c0-0.4,0.1-0.8,0.3-1.1c0.2-0.3,0.5-0.5,0.9-0.6
		c0.4-0.2,0.6-0.3,0.7-0.3c0.7-0.4,1.2-0.8,1.5-1.2c0.3-0.4,0.4-0.9,0.4-1.7c0-1.3-0.1-4.4-0.4-9.2c-0.1-2.5-0.2-4.6-0.3-6.2
		c-0.8,1.7-2,3.9-3.4,6.7c-2.5,4.9-4.5,8.9-6.1,12.1c-0.1,0.1-0.2,0.3-0.3,0.7c-0.2,0.4-0.4,0.7-0.5,0.9c-0.2,0.3-0.4,0.6-0.7,0.9
		c-0.2,0.2-0.4,0.3-0.6,0.4c-0.3,0.1-0.6,0.2-0.9,0.1c-0.4,0-0.8-0.2-1.2-0.4c-0.3-0.2-0.5-0.5-0.8-0.7c-0.4-0.5-1.2-2.1-2.6-5
		l-7.3-15.4c0,1.2-0.1,2.7-0.1,4.5c-0.1,3.9-0.1,6.3-0.1,7c0,1.9,0.3,3.4,0.8,4.5c0.5,0.9,1.3,1.5,2.4,1.9c0.8,0.3,1.4,0.6,1.7,0.8
		c0.2,0.1,0.4,0.3,0.6,0.5c0.2,0.2,0.3,0.5,0.3,0.8c0,0.3-0.1,0.5-0.2,0.8c-0.2,0.2-0.4,0.4-0.6,0.6c-0.4,0.2-0.9,0.3-1.4,0.3
		c-0.7,0-1.7-0.1-3.1-0.2c-1.2-0.1-2.1-0.2-2.8-0.2c-0.5,0-1.3,0.1-2.3,0.2c-1.2,0.1-2.1,0.2-2.7,0.2c-0.3,0-0.6,0-0.8-0.1
		c-0.3-0.1-0.6-0.2-0.9-0.4c-0.3-0.2-0.4-0.4-0.5-0.7c-0.1-0.2-0.1-0.5,0-0.7c0-0.3,0.2-0.7,0.7-1c0.4-0.2,0.7-0.4,1.1-0.6
		c0.5-0.2,1-0.5,1.5-0.8c0.3-0.2,0.5-0.5,0.7-0.8c0.3-0.5,0.4-1,0.5-1.6c0.1-0.9,0.2-1.9,0.2-2.8c0.2-3.9,0.3-7.9,0.5-12.2
		c0.2-4.3,0.3-6.4,0.3-6.5c0-1.6-0.5-2.9-1.4-4c-0.4-0.5-0.9-0.8-1.5-1.1c-0.5-0.2-1.1-0.3-1.7-0.3c-0.3,0-0.6,0-0.8-0.1
		c-0.3-0.1-0.6-0.2-0.9-0.4c-0.2-0.2-0.4-0.4-0.5-0.7c-0.1-0.2-0.1-0.4-0.1-0.7c0-0.3,0.1-0.6,0.3-0.9c0.2-0.3,0.5-0.5,0.8-0.6
		c0.4-0.2,0.8-0.2,1.2-0.3c0.4,0,0.9,0,1.5,0h0.1c1.1,0.1,1.8,0.1,2.2,0.1h0.1l0.2,0c0.4,0,1.1-0.1,1.9-0.2c0.8-0.1,1.5-0.2,2.3-0.2
		c0.9,0,1.7,0.2,2.4,0.6c0.7,0.4,1.2,1,1.6,1.7L159,214.4"/>
	<path class="st8" d="M356.8,244.9c0.1,0.1,0.1,0.1,0.2,0.2c0.2,0.3,0.4,0.7,0.4,1.1c0.1,0.5,0.2,1,0.2,1.5c0,0.4,0.1,0.9,0.1,1.3
		c0,0.2,0.1,0.3,0.1,0.4l0.8,1.1h-3.9l-0.2-0.3c-0.1-0.1-0.2-0.3-0.2-0.5c0-0.1-0.1-0.6-0.2-1.6c0,0,0-0.2,0-0.7
		c0-0.3,0-0.5-0.1-0.7c0-0.1-0.1-0.2-0.2-0.3c-0.2-0.1-0.4-0.1-0.7-0.1h-1.3v4.2h-3.3v-11.8h4.8c0.6,0,1.2,0.1,1.8,0.2
		c0.5,0.1,1,0.3,1.4,0.6c0.4,0.3,0.7,0.7,0.9,1.2c0.2,0.5,0.3,1,0.3,1.5c0,0.7-0.2,1.4-0.5,2C357.1,244.5,357,244.7,356.8,244.9
		 M353.2,243.5c0.2,0,0.5,0,0.7-0.1c0.1,0,0.2-0.1,0.3-0.1c0.1,0,0.1-0.1,0.1-0.2c0-0.1,0.1-0.3,0.1-0.5c0-0.1,0-0.2-0.1-0.3
		c0-0.1-0.1-0.1-0.1-0.2c-0.2-0.2-0.6-0.2-1-0.2h-1.4v1.5L353.2,243.5"/>
	<path class="st8" d="M330.1,244.8c0-1.8,0.5-3.3,1.5-4.4c1-1.1,2.3-1.7,4-1.7c1.6,0,2.9,0.6,3.9,1.7c1,1.1,1.5,2.5,1.5,4.3
		c0,1.8-0.5,3.3-1.5,4.5c-1,1.2-2.3,1.8-3.9,1.8c-1.6,0-2.9-0.6-3.9-1.7C330.6,248,330.1,246.6,330.1,244.8 M333.5,244.6
		c0,1,0.1,1.8,0.6,2.4c0.2,0.2,0.4,0.4,0.6,0.6c0.3,0.1,0.6,0.2,0.9,0.2c0.3,0,0.6-0.1,0.8-0.2c0.3-0.1,0.5-0.3,0.7-0.6
		c0.4-0.6,0.6-1.3,0.6-2.2c0-0.9-0.2-1.6-0.6-2.2c-0.2-0.2-0.4-0.4-0.6-0.6c-0.3-0.1-0.5-0.2-0.8-0.2c-0.3,0-0.6,0.1-0.8,0.2
		c-0.2,0.1-0.5,0.3-0.6,0.5C333.7,243,333.5,243.7,333.5,244.6"/>
	<path class="st8" d="M312.2,244.8c0-1.8,0.5-3.3,1.5-4.4c1-1.1,2.3-1.7,3.9-1.7c1.6,0,2.9,0.6,3.9,1.7c1,1.1,1.5,2.5,1.5,4.3
		c0,1.8-0.5,3.3-1.5,4.5c-1,1.2-2.3,1.8-3.9,1.8c-1.6,0-2.9-0.6-3.9-1.7C312.7,248,312.2,246.6,312.2,244.8 M315.5,244.6
		c0,1,0.1,1.8,0.6,2.4c0.2,0.2,0.4,0.4,0.6,0.6c0.3,0.1,0.6,0.2,0.9,0.2c0.3,0,0.6-0.1,0.8-0.2c0.3-0.1,0.5-0.3,0.7-0.6
		c0.4-0.6,0.6-1.3,0.6-2.2c0-0.9-0.2-1.6-0.6-2.2c-0.2-0.2-0.4-0.4-0.6-0.6c-0.3-0.1-0.5-0.2-0.8-0.2c-0.3,0-0.6,0.1-0.8,0.2
		c-0.2,0.1-0.5,0.3-0.6,0.5C315.7,243,315.5,243.7,315.5,244.6"/>
	<path class="st8" d="M295.5,250.6v-11.8h4.5c0.5,0,1,0,1.6,0.1c0.4,0.1,0.8,0.2,1.2,0.4c0.8,0.4,1.4,1.1,1.8,2.1
		c0.4,0.9,0.6,2,0.6,3.2c0,1.3-0.2,2.5-0.7,3.4c-0.5,1.1-1.2,1.8-2,2.2c-0.3,0.2-0.7,0.3-1.1,0.3c-0.5,0.1-1.1,0.1-1.6,0.1
		L295.5,250.6 M299.7,247.5c0.3,0,0.7,0,1-0.2c0.2-0.1,0.4-0.2,0.5-0.4c0.2-0.3,0.3-0.5,0.3-0.8c0.1-0.5,0.2-1,0.1-1.6
		c0-0.5,0-0.9-0.1-1.4c-0.1-0.3-0.2-0.5-0.3-0.7c-0.1-0.2-0.3-0.3-0.5-0.4c-0.3-0.1-0.6-0.2-1-0.1h-1v5.6L299.7,247.5"/>
	<polyline class="st8" points="278.3,250.6 278.3,238.8 281.3,238.8 284.4,244.2 284.4,238.8 287.5,238.8 287.5,250.6 284.6,250.6 
		281.4,245 281.4,250.6 278.3,250.6 	"/>
	<path class="st8" d="M260,250.6l4-11.8h3.2l4,11.8h-3.5l-0.7-2.2h-2.7l-0.7,2.2H260 M266,245.4l-0.4-1.5l-0.5,1.5H266"/>
	<polyline class="st8" points="244.1,241.9 244.1,238.8 253.4,238.8 253.4,241.9 250.4,241.9 250.4,250.6 247.1,250.6 247.1,241.9 
		244.1,241.9 	"/>
	<path class="st8" d="M221,243.9h2.9l-0.1,0.8c-0.1,0.6-0.2,1.2-0.4,1.8c-0.1,0.4-0.3,0.8-0.6,1.1l2.3,3h-3.9l-0.5-0.7
		c-0.3,0.2-0.6,0.4-1,0.5c-0.5,0.2-1.1,0.3-1.7,0.3c-1.1,0-2-0.3-2.7-1c-0.7-0.7-1.1-1.5-1.1-2.6c0-0.7,0.2-1.4,0.6-2
		c0.4-0.5,0.8-0.9,1.3-1.3c-0.2-0.3-0.3-0.5-0.5-0.8c-0.2-0.4-0.2-0.8-0.2-1.3c0-0.8,0.3-1.6,1-2.2c0.6-0.5,1.4-0.8,2.3-0.8
		c0.8,0,1.6,0.3,2.2,0.8c0.6,0.5,0.9,1.3,0.9,2.1c0,0.6-0.2,1.2-0.5,1.7C221.2,243.6,221.1,243.8,221,243.9 M220.8,245
		c0-0.1,0.1-0.3,0.1-0.5l0.1-0.5c-0.2,0.2-0.3,0.4-0.5,0.5L220.8,245 M217.5,247.1c0,0.2,0.1,0.4,0.2,0.6c0.2,0.2,0.4,0.2,0.6,0.2
		c0.2,0,0.4,0,0.6-0.1c0,0,0.1,0,0.1-0.1l-1.1-1.4c-0.1,0.1-0.2,0.2-0.3,0.3C217.5,246.7,217.5,246.9,217.5,247.1 M218.5,241.8
		c0,0.1,0,0.2,0.1,0.3c0,0,0.1,0.1,0.1,0.1c0,0,0.1-0.1,0.1-0.1c0.1-0.1,0.1-0.2,0.1-0.3c0,0,0-0.1,0-0.1c0,0-0.1-0.1-0.1,0
		c-0.1,0-0.1,0-0.2,0.1C218.5,241.8,218.5,241.8,218.5,241.8"/>
	<path class="st8" d="M183.6,244.8c0-1.8,0.5-3.3,1.5-4.4c1-1.1,2.3-1.7,3.9-1.7c1.6,0,2.9,0.6,3.9,1.7c1,1.1,1.5,2.5,1.5,4.3
		c0,1.8-0.5,3.3-1.5,4.5c-1,1.2-2.3,1.8-3.9,1.8c-1.6,0-2.9-0.6-3.9-1.7C184.1,248,183.6,246.6,183.6,244.8 M186.9,244.6
		c0,1,0.1,1.8,0.6,2.4c0.2,0.2,0.4,0.4,0.6,0.6c0.3,0.1,0.6,0.2,0.9,0.2c0.3,0,0.6-0.1,0.8-0.2c0.3-0.1,0.5-0.3,0.7-0.6
		c0.4-0.6,0.6-1.3,0.6-2.2c0-0.9-0.2-1.6-0.6-2.2c-0.2-0.2-0.4-0.4-0.6-0.6c-0.3-0.1-0.5-0.2-0.8-0.2c-0.3,0-0.6,0.1-0.8,0.2
		c-0.2,0.1-0.5,0.3-0.6,0.5C187.1,243,187,243.7,186.9,244.6"/>
	<path class="st8" d="M175.3,244.9c0.1,0.1,0.1,0.1,0.2,0.2c0.2,0.3,0.4,0.7,0.4,1.1c0.1,0.5,0.2,1,0.2,1.5c0,0.4,0.1,0.9,0.1,1.3
		c0,0.2,0.1,0.3,0.1,0.4l0.8,1.1h-3.9l-0.2-0.3c-0.1-0.1-0.2-0.3-0.2-0.5c0-0.1-0.1-0.6-0.2-1.6c0,0,0-0.2,0-0.7
		c0-0.2,0-0.5-0.1-0.7c0-0.1-0.1-0.2-0.2-0.3c-0.2-0.1-0.4-0.1-0.7-0.1h-1.3v4.2H167v-11.8h4.8c0.6,0,1.2,0.1,1.8,0.2
		c0.5,0.1,1,0.3,1.4,0.6c0.4,0.3,0.7,0.7,0.9,1.2c0.2,0.5,0.3,1,0.3,1.5c0,0.7-0.2,1.4-0.5,2C175.6,244.5,175.5,244.7,175.3,244.9
		 M171.7,243.5c0.2,0,0.5,0,0.7-0.1c0.1,0,0.2-0.1,0.3-0.1c0.1,0,0.1-0.1,0.1-0.2c0-0.1,0.1-0.3,0.1-0.5c0-0.1,0-0.2-0.1-0.3
		c0-0.1-0.1-0.1-0.1-0.2c-0.2-0.2-0.6-0.2-1-0.2h-1.4v1.5L171.7,243.5"/>
	<polyline class="st8" points="150.2,241.9 150.2,238.8 159.5,238.8 159.5,241.9 156.5,241.9 156.5,250.6 153.2,250.6 153.2,241.9 
		150.2,241.9 	"/>
	<path class="st8" d="M133.8,246.1h3.2l0.1,0.6c0.1,0.4,0.2,0.7,0.5,0.9c0.2,0.2,0.6,0.3,1.1,0.3c0.4,0,0.8-0.1,1.1-0.2
		c0.1,0,0.1-0.1,0.2-0.2c0-0.1,0.1-0.2,0.1-0.3c0,0,0-0.1-0.1-0.1c-0.2-0.2-0.5-0.3-0.7-0.4c-0.2-0.1-0.5-0.2-1-0.4
		c-0.5-0.2-0.9-0.4-1.3-0.5c-0.4-0.2-0.8-0.4-1.2-0.6c-0.3-0.2-0.6-0.4-0.8-0.6c-0.3-0.3-0.5-0.7-0.6-1.1c-0.1-0.4-0.2-0.9-0.2-1.4
		c0-0.5,0.1-1,0.3-1.5c0.2-0.4,0.5-0.8,1-1.1c0.8-0.6,1.8-0.9,3.1-0.9c1.4,0,2.4,0.3,3.2,1s1.2,1.6,1.4,2.9l0.1,0.8h-3.2l-0.1-0.6
		c0-0.3-0.2-0.6-0.4-0.8c-0.3-0.2-0.6-0.3-0.9-0.3c-0.4,0-0.7,0-0.9,0.2c-0.1,0-0.1,0.1-0.1,0.1c0,0.1-0.1,0.2-0.1,0.2
		c0,0,0,0.1,0.1,0.1c0.2,0.2,0.4,0.3,0.6,0.4c0.4,0.2,0.9,0.4,1.5,0.6c0.6,0.2,1,0.4,1.2,0.5c0.8,0.3,1.4,0.8,1.8,1.3
		c0.4,0.6,0.6,1.3,0.6,2c0,0.6-0.1,1.1-0.3,1.6c-0.2,0.5-0.6,0.9-1,1.2c-0.8,0.6-1.9,1-3.3,1s-2.5-0.4-3.3-1c-0.8-0.7-1.3-1.7-1.4-3
		L133.8,246.1"/>
	<polyline class="st8" points="122.9,250.6 122.9,238.8 126.3,238.8 126.3,250.6 122.9,250.6 	"/>
	<path class="st8" d="M105.9,250.6v-11.8h5c0.6,0,1.1,0,1.7,0.1c0.4,0.1,0.9,0.3,1.2,0.6c0.4,0.3,0.7,0.7,0.9,1.2
		c0.2,0.4,0.3,0.9,0.3,1.4c0,0.6-0.1,1.1-0.4,1.6c-0.1,0.2-0.2,0.4-0.4,0.6c0.2,0.2,0.4,0.5,0.6,0.7c0.3,0.5,0.5,1.2,0.5,1.8
		c0,0.6-0.1,1.1-0.3,1.6c-0.2,0.5-0.6,1-1,1.3c-0.4,0.3-0.9,0.6-1.4,0.7c-0.6,0.1-1.2,0.2-1.8,0.2L105.9,250.6 M110.6,247.6
		c0.3,0,0.6,0,0.8-0.1c0.1,0,0.3-0.1,0.4-0.1c0.1,0,0.1-0.1,0.1-0.2c0-0.1,0.1-0.3,0.1-0.4c0-0.1,0-0.2-0.1-0.3
		c0-0.1-0.1-0.1-0.1-0.1c-0.1-0.1-0.3-0.1-0.4-0.1c-0.3,0-0.5-0.1-0.8-0.1h-1.4v1.5L110.6,247.6 M110.6,243.1c0.2,0,0.4,0,0.6-0.1
		c0.1,0,0.2-0.1,0.3-0.1c0,0,0.1-0.1,0.1-0.1c0-0.1,0.1-0.2,0-0.3c0-0.1,0-0.2,0-0.3c0,0,0-0.1-0.1-0.1c-0.1,0-0.2-0.1-0.2-0.1
		c-0.2,0-0.4-0.1-0.6-0.1h-1.5v1.1H110.6"/>
	<path class="st4" d="M351.1,244.2h2.1c0.7,0,1.2-0.1,1.5-0.4c0.3-0.2,0.4-0.6,0.4-1.2c0-0.4-0.2-0.8-0.5-1
		c-0.3-0.2-0.8-0.3-1.4-0.3h-2.1L351.1,244.2 M349.2,249.9v-10.4h4.1c1.3,0,2.2,0.2,2.9,0.7c0.6,0.5,1,1.2,0.9,2.1
		c0,0.6-0.2,1.1-0.4,1.6c-0.3,0.5-0.7,0.8-1.1,1c0.2,0.1,0.4,0.1,0.5,0.3c0.1,0.1,0.3,0.2,0.4,0.4c0.2,0.3,0.4,1,0.5,2.2
		c0.1,1.2,0.2,1.9,0.4,2.2h-2.1c-0.1-0.1-0.1-0.2-0.1-0.3c0-0.1-0.1-0.6-0.2-1.4c0,0,0-0.2,0-0.7c0-0.3-0.1-0.7-0.2-1
		c-0.1-0.3-0.3-0.5-0.6-0.7c-0.3-0.2-0.7-0.2-1-0.2h-2v4.2L349.2,249.9"/>
	<path class="st4" d="M332.8,244.6c0,1.2,0.2,2.1,0.7,2.8s1.2,1,2.1,1c0.8,0,1.6-0.4,2-1.1c0.5-0.7,0.8-1.6,0.8-2.7
		s-0.3-1.9-0.8-2.6c-0.5-0.7-1.2-1-2-1c-0.8,0-1.5,0.3-2,1C333.1,242.6,332.8,243.5,332.8,244.6L332.8,244.6 M330.9,244.8
		c0-1.6,0.4-3,1.3-4c0.9-1,2-1.5,3.4-1.5c1.4,0,2.5,0.5,3.4,1.4s1.3,2.2,1.3,3.8c0,1.6-0.4,3-1.3,4c-0.8,1-2.1,1.6-3.4,1.6
		c-1.4,0-2.6-0.5-3.4-1.5C331.3,247.7,330.9,246.4,330.9,244.8L330.9,244.8"/>
	<path class="st4" d="M314.8,244.6c0,1.2,0.2,2.1,0.7,2.8s1.2,1,2.1,1c0.8,0,1.6-0.4,2-1.1c0.5-0.7,0.8-1.6,0.8-2.7
		s-0.3-1.9-0.8-2.6c-0.5-0.7-1.2-1-2-1c-0.8,0-1.5,0.3-2,1C315.1,242.6,314.8,243.5,314.8,244.6L314.8,244.6 M312.9,244.8
		c0-1.6,0.4-3,1.3-4c0.9-1,2-1.5,3.4-1.5c1.4,0,2.5,0.5,3.4,1.4c0.9,1,1.3,2.2,1.3,3.8c0,1.6-0.4,3-1.3,4c-0.8,1-2.1,1.6-3.4,1.6
		c-1.4,0-2.5-0.5-3.4-1.5S312.9,246.4,312.9,244.8L312.9,244.8"/>
	<path class="st4" d="M298,248.2h1.7c1,0,1.6-0.3,2.1-0.8c0.4-0.5,0.6-1.5,0.6-2.8c0-1.2-0.2-2.1-0.6-2.6c-0.4-0.5-1.1-0.7-2.1-0.7
		H298V248.2 M296.1,249.9v-10.4h3.8c0.5,0,1,0,1.5,0.1c0.3,0.1,0.7,0.2,1,0.3c0.7,0.3,1.2,0.9,1.5,1.7s0.5,1.8,0.5,2.9
		c0,1.2-0.2,2.3-0.6,3.2c-0.4,0.9-1,1.5-1.7,1.9c-0.3,0.1-0.6,0.2-0.9,0.3c-0.5,0.1-1,0.1-1.5,0.1L296.1,249.9"/>
	<polyline class="st4" points="279,249.9 279,239.5 280.9,239.5 285.1,246.8 285.1,239.5 286.8,239.5 286.8,249.9 285.1,249.9 
		280.7,242.3 280.7,249.9 279,249.9 	"/>
	<path class="st4" d="M264.1,246.1h2.8l-1.4-4.6L264.1,246.1 M261,249.9l3.6-10.4h2.2l3.5,10.4h-2.1l-0.7-2.2h-3.8l-0.7,2.2H261"/>
	<polyline class="st4" points="244.8,241.2 244.8,239.5 252.7,239.5 252.7,241.2 249.7,241.2 249.7,249.9 247.8,249.9 247.8,241.2 
		244.8,241.2 	"/>
	<path class="st4" d="M217.8,241.8c0,0.2,0.1,0.5,0.2,0.7c0.2,0.3,0.4,0.6,0.6,0.8c0.3-0.2,0.6-0.4,0.8-0.7c0.2-0.2,0.2-0.5,0.2-0.7
		c0-0.2-0.1-0.5-0.3-0.6c-0.2-0.2-0.4-0.2-0.6-0.2c-0.2,0-0.5,0.1-0.6,0.2C217.9,241.4,217.8,241.6,217.8,241.8L217.8,241.8
		 M216.8,247.1c0,0.4,0.1,0.8,0.4,1.1c0.3,0.3,0.7,0.4,1.1,0.4c0.3,0,0.6-0.1,0.9-0.2c0.3-0.1,0.6-0.3,0.8-0.6l-1.9-2.5
		c-0.4,0.2-0.7,0.6-1,0.9C216.9,246.4,216.8,246.7,216.8,247.1L216.8,247.1 M215,247.2c0-0.6,0.2-1.1,0.5-1.6c0.3-0.5,0.9-1,1.7-1.5
		c-0.3-0.4-0.6-0.8-0.8-1.3c-0.1-0.3-0.2-0.6-0.2-1c0-0.6,0.2-1.3,0.7-1.7c0.5-0.4,1.1-0.7,1.8-0.6c0.6,0,1.2,0.2,1.7,0.6
		c0.5,0.4,0.7,1,0.7,1.6c0,0.5-0.1,1-0.4,1.4c-0.3,0.5-0.8,0.9-1.3,1.2l1.6,2.1c0.1-0.2,0.2-0.4,0.3-0.6c0.1-0.4,0.2-0.8,0.2-1.2
		h1.5c0,0.6-0.2,1.1-0.4,1.7c-0.2,0.5-0.4,1-0.8,1.4l1.8,2.3h-2.1l-0.8-0.9c-0.4,0.4-0.8,0.7-1.3,0.9c-0.5,0.2-1,0.3-1.5,0.3
		c-0.9,0-1.7-0.3-2.2-0.8C215.3,248.8,215,248.1,215,247.2L215,247.2"/>
	<path class="st4" d="M186.2,244.6c0,1.2,0.2,2.1,0.7,2.8c0.5,0.7,1.2,1,2.1,1c0.8,0,1.6-0.4,2-1.1c0.5-0.7,0.8-1.6,0.8-2.7
		s-0.3-1.9-0.8-2.6c-0.5-0.7-1.2-1.1-2-1c-0.8,0-1.5,0.3-2,1C186.5,242.6,186.3,243.5,186.2,244.6L186.2,244.6 M184.3,244.8
		c0-1.6,0.4-3,1.3-4c0.9-1,2-1.5,3.4-1.5c1.4,0,2.5,0.5,3.4,1.4s1.3,2.2,1.3,3.8c0,1.6-0.4,3-1.3,4c-0.8,1-2.1,1.6-3.4,1.6
		c-1.4,0-2.5-0.5-3.4-1.5S184.3,246.4,184.3,244.8L184.3,244.8"/>
	<path class="st4" d="M169.6,244.2h2.1c0.7,0,1.2-0.1,1.5-0.4c0.3-0.2,0.4-0.6,0.4-1.2c0-0.4-0.2-0.8-0.5-1
		c-0.3-0.2-0.8-0.3-1.4-0.3h-2.1L169.6,244.2 M167.7,249.9v-10.4h4.1c1.3,0,2.2,0.2,2.9,0.7c0.6,0.5,1,1.2,0.9,2.1
		c0,0.6-0.2,1.1-0.4,1.6c-0.3,0.5-0.7,0.8-1.1,1c0.2,0.1,0.4,0.1,0.5,0.3c0.1,0.1,0.3,0.2,0.4,0.4c0.2,0.3,0.4,1,0.5,2.2
		c0.1,1.2,0.2,1.9,0.4,2.2h-2.1c-0.1-0.1-0.1-0.2-0.1-0.3c0-0.1-0.1-0.6-0.2-1.4c0,0,0-0.2,0-0.7c0-0.3-0.1-0.7-0.2-1
		c-0.1-0.3-0.3-0.5-0.6-0.7c-0.3-0.2-0.7-0.2-1-0.2h-2v4.2L167.7,249.9"/>
	<polyline class="st4" points="150.9,241.2 150.9,239.5 158.8,239.5 158.8,241.2 155.8,241.2 155.8,249.9 153.9,249.9 153.9,241.2 
		150.9,241.2 	"/>
	<path class="st4" d="M134.6,246.8h1.8c0.1,0.6,0.4,1,0.7,1.3c0.4,0.3,0.9,0.4,1.5,0.4c0.6,0,1.1-0.1,1.5-0.4c0.3-0.2,0.5-0.6,0.5-1
		c0-0.2-0.1-0.4-0.3-0.6c-0.3-0.2-0.6-0.4-1-0.5l-1-0.4c-0.5-0.2-0.9-0.4-1.3-0.5c-0.4-0.1-0.7-0.3-1.1-0.5
		c-0.2-0.1-0.5-0.3-0.6-0.5c-0.2-0.2-0.4-0.5-0.5-0.9c-0.1-0.4-0.2-0.8-0.2-1.2c0-0.8,0.3-1.6,1-2c0.7-0.5,1.5-0.8,2.7-0.8
		c1.2,0,2.1,0.3,2.7,0.8s1,1.3,1.1,2.4h-1.8c0-0.5-0.3-0.9-0.6-1.2c-0.4-0.3-0.9-0.4-1.4-0.4c-0.5,0-1,0.1-1.2,0.3
		c-0.3,0.2-0.5,0.5-0.5,0.9c0,0.2,0.1,0.5,0.2,0.6c0.3,0.2,0.6,0.4,0.9,0.6c0.4,0.2,0.9,0.4,1.5,0.6l1.2,0.5
		c0.6,0.2,1.1,0.6,1.5,1.1c0.3,0.5,0.5,1,0.5,1.6c0,1-0.3,1.8-1,2.3s-1.6,0.8-2.9,0.8c-1.2,0-2.2-0.3-2.8-0.8
		C135.1,248.8,134.7,248,134.6,246.8L134.6,246.8"/>
	<polyline class="st4" points="123.6,249.9 123.6,239.5 125.6,239.5 125.6,249.9 123.6,249.9 	"/>
	<path class="st4" d="M108.5,243.8h2.2c0.6,0,1-0.1,1.3-0.3c0.3-0.2,0.4-0.5,0.4-1c0-0.4-0.1-0.7-0.4-0.9c-0.3-0.2-0.7-0.3-1.2-0.3
		h-2.2L108.5,243.8 M108.4,248.3h2.1c0.8,0,1.3-0.1,1.6-0.3s0.5-0.6,0.5-1.2c0-0.5-0.2-0.9-0.5-1.1c-0.3-0.2-0.8-0.3-1.6-0.3h-2.1
		L108.4,248.3 M106.5,249.9v-10.4h4.3c0.5,0,1,0,1.5,0.1c0.3,0.1,0.7,0.2,0.9,0.4c0.3,0.2,0.5,0.5,0.7,0.9c0.2,0.4,0.3,0.7,0.2,1.1
		c0,0.4-0.1,0.9-0.3,1.3c-0.2,0.4-0.5,0.8-0.9,1c0.5,0.2,0.9,0.6,1.1,1c0.3,0.4,0.4,0.9,0.4,1.5c0,0.5-0.1,0.9-0.3,1.3
		c-0.2,0.4-0.5,0.8-0.8,1.1c-0.3,0.3-0.7,0.4-1.1,0.5c-0.5,0.1-1.1,0.2-1.7,0.2L106.5,249.9"/>
	<g>
		<ellipse class="st9" cx="243.9" cy="279" rx="3.1" ry="3"/>
		<g>
			<ellipse class="st9" cx="287.5" cy="279" rx="3.1" ry="3"/>
			<ellipse class="st9" cx="276.6" cy="279" rx="3.1" ry="3"/>
			<ellipse class="st9" cx="265.8" cy="279" rx="4.9" ry="4.8"/>
			<ellipse class="st9" cx="257.1" cy="279" rx="2.4" ry="4.8"/>
			<g>
				<g>
					<path class="st9" d="M377.8,281.6c-0.3,0-0.5,0-0.8-0.1c-1-0.2-1.7-1.2-1.7-2.4c0-1.2,0.7-2.2,1.7-2.4l0,0
						c2.3-0.6,5.2,1.7,5.3,1.8l0.8,0.6l-0.8,0.6C382.3,279.9,379.9,281.6,377.8,281.6z M377.3,278.2c-0.5,0.1-0.7,0.6-0.7,0.9
						c0,0.4,0.2,0.8,0.7,0.9c1.1,0.3,2.5-0.4,3.4-0.9C379.8,278.5,378.3,277.9,377.3,278.2L377.3,278.2z"/>
				</g>
				<g>
					<path class="st9" d="M373,279.9c-0.1,0-0.1,0-0.2,0c0,0,0,0,0,0c-0.4,0-2.7-0.2-4.3-3.6c-0.5-1-1.1-2-1.7-2.5l-0.1-0.1
						c-0.7-0.7-1.6-0.9-2.4-0.5c-0.8,0.3-1.4,1-1.6,2c0,0.1,0,0.2,0,0.2c-0.1,0.7,0,1.4,0.4,2c0.5,0.8,1.2,1.2,1.9,1
						c0.6-0.2,1-0.7,1.2-1.5c0.1-0.3,0-0.7-0.2-1c-0.3-0.5-0.6-0.7-1-0.6c-0.3,0.1-0.5,0.4-0.6,0.7c-0.1,0.3,0.1,0.6,0.4,0.7
						l-0.2,1.5c-0.9-0.2-1.5-1.3-1.4-2.5c0.2-1,0.8-1.7,1.5-1.9c0.8-0.2,1.7,0.2,2.2,1.1c0.4,0.6,0.5,1.4,0.4,2.2
						c-0.2,1.3-1,2.4-2.1,2.7c-1.1,0.3-2.3-0.3-3.1-1.6c-0.6-0.9-0.8-2.1-0.6-3.1c0-0.1,0-0.2,0.1-0.3c0.3-1.4,1.2-2.6,2.4-3
						c1.2-0.5,2.6-0.2,3.6,0.8l0.1,0.1c0.7,0.6,1.4,1.8,2,3c0.9,1.9,2,2.5,2.7,2.7c-0.3-0.2-0.5-0.5-0.6-0.9c-0.2-0.7,0-1.5,0.5-2.1
						c0.3-0.4,0.8-0.6,1.3-0.6c1.1,0.1,1.9,1.3,1.8,2.6c0,0.7-0.3,1.4-0.8,1.9C374.1,279.7,373.6,279.9,373,279.9z M373.4,276.3
						c-0.1,0-0.2,0.1-0.3,0.1c-0.1,0.2-0.2,0.3-0.1,0.5c0,0.1,0.1,0.2,0.2,0.2l-0.1,1.3c0.2,0,0.4-0.1,0.6-0.3
						c0.2-0.2,0.3-0.5,0.4-0.9C374.1,276.7,373.8,276.3,373.4,276.3C373.4,276.3,373.4,276.3,373.4,276.3z"/>
				</g>
				<g>
					<path class="st9" d="M365.2,286.8c-0.4,0-0.8-0.1-1.2-0.2c-1.2-0.5-2.1-1.6-2.4-3c0-0.1,0-0.2-0.1-0.3
						c-0.2-1.1,0.1-2.2,0.6-3.1c0.8-1.3,2-1.9,3.1-1.6c1.1,0.3,1.9,1.3,2.1,2.7c0.1,0.8,0,1.6-0.4,2.2c-0.6,0.9-1.4,1.4-2.2,1.1
						c-0.8-0.2-1.4-1-1.5-1.9c-0.2-1.1,0.4-2.2,1.4-2.5l0.2,1.5c-0.3,0.1-0.4,0.4-0.4,0.7c0.1,0.4,0.3,0.6,0.6,0.7
						c0.3,0.1,0.7-0.1,1-0.6c0.2-0.3,0.3-0.7,0.2-1c-0.1-0.7-0.6-1.3-1.2-1.5c-0.7-0.2-1.3,0.2-1.9,1c-0.4,0.6-0.5,1.3-0.4,2
						c0,0.1,0,0.2,0,0.2c0.2,1,0.8,1.7,1.6,2c0.8,0.3,1.7,0.1,2.4-0.5l0.1-0.1c0.6-0.5,1.2-1.5,1.7-2.6c1.6-3.4,3.9-3.5,4.3-3.6
						c0.6-0.1,1.2,0.2,1.6,0.6c0.5,0.5,0.8,1.2,0.8,1.9c0.1,1.3-0.7,2.4-1.8,2.6c-0.5,0.1-0.9-0.2-1.3-0.6c-0.5-0.6-0.7-1.4-0.5-2.1
						c0.1-0.4,0.3-0.7,0.6-0.9c-0.6,0.2-1.8,0.8-2.7,2.7c-0.6,1.2-1.3,2.4-2,3l-0.1,0.1C366.9,286.5,366,286.8,365.2,286.8z
						 M373.1,279.9l0.1,1.3c-0.1,0-0.2,0.1-0.2,0.2c0,0.1,0,0.3,0.1,0.5c0.1,0.1,0.2,0.2,0.3,0.1c0.4,0,0.7-0.5,0.6-0.9
						c0-0.3-0.2-0.7-0.4-0.9C373.5,280,373.3,279.9,373.1,279.9z"/>
				</g>
			</g>
			<g>
				<g>
					<polygon class="st9" points="362.2,280.1 293.3,279.6 293.3,278.1 362.2,278.6 					"/>
				</g>
			</g>
		</g>
		<g>
			<ellipse class="st9" cx="201.3" cy="279.3" rx="3.1" ry="3"/>
			<ellipse class="st9" cx="212.1" cy="279.3" rx="3.1" ry="3"/>
			<ellipse class="st9" cx="223" cy="279.3" rx="4.9" ry="4.8"/>
			<ellipse class="st9" cx="231.7" cy="279.3" rx="2.4" ry="4.8"/>
			<g>
				<g>
					<path class="st9" d="M110.9,276.6c0.3,0,0.5,0,0.8,0.1c1,0.2,1.7,1.2,1.7,2.4c0,1.2-0.7,2.2-1.7,2.4l0,0
						c-2.3,0.6-5.2-1.7-5.3-1.8l-0.8-0.6l0.8-0.6C106.5,278.4,108.8,276.6,110.9,276.6z M111.5,280.1c0.5-0.1,0.7-0.6,0.7-0.9
						c0-0.4-0.2-0.8-0.7-0.9c-1.1-0.3-2.5,0.4-3.4,0.9C109,279.7,110.4,280.3,111.5,280.1L111.5,280.1z"/>
				</g>
				<g>
					<path class="st9" d="M115.7,278.4c0.1,0,0.1,0,0.2,0c0,0,0,0,0,0c0.4,0,2.7,0.2,4.3,3.6c0.5,1,1.1,2,1.7,2.5l0.1,0.1
						c0.7,0.7,1.6,0.9,2.4,0.5c0.8-0.3,1.4-1,1.6-2c0-0.1,0-0.2,0-0.2c0.1-0.7,0-1.4-0.4-2c-0.5-0.8-1.2-1.2-1.9-1
						c-0.6,0.2-1,0.7-1.2,1.5c-0.1,0.3,0,0.7,0.2,1c0.3,0.5,0.6,0.7,1,0.6c0.3-0.1,0.5-0.4,0.6-0.7c0.1-0.3-0.1-0.6-0.4-0.7l0.2-1.5
						c0.9,0.2,1.5,1.3,1.4,2.5c-0.2,1-0.8,1.7-1.5,1.9c-0.8,0.2-1.7-0.2-2.3-1.1c-0.4-0.6-0.5-1.4-0.4-2.2c0.2-1.3,1-2.4,2.1-2.7
						c1.1-0.3,2.3,0.3,3.1,1.6c0.6,0.9,0.8,2.1,0.6,3.1c0,0.1,0,0.2-0.1,0.3c-0.3,1.4-1.2,2.6-2.4,3c-1.2,0.5-2.6,0.2-3.6-0.8
						l-0.1-0.1c-0.7-0.6-1.4-1.8-2-3c-0.9-1.9-2-2.5-2.7-2.7c0.3,0.2,0.5,0.5,0.6,0.9c0.2,0.7,0,1.5-0.5,2.1
						c-0.3,0.4-0.8,0.6-1.3,0.6c-1.1-0.1-1.9-1.3-1.8-2.6c0-0.7,0.3-1.4,0.8-1.9C114.7,278.6,115.2,278.4,115.7,278.4z M115.3,282
						c0.1,0,0.2-0.1,0.3-0.1c0.1-0.2,0.2-0.3,0.1-0.5c0-0.1-0.1-0.2-0.2-0.2l0.1-1.3c-0.2,0-0.4,0.1-0.6,0.3
						c-0.2,0.2-0.3,0.5-0.4,0.9C114.7,281.5,114.9,281.9,115.3,282C115.3,282,115.3,282,115.3,282z"/>
				</g>
				<g>
					<path class="st9" d="M123.6,271.5c0.4,0,0.8,0.1,1.2,0.2c1.2,0.5,2.1,1.6,2.4,3c0,0.1,0,0.2,0.1,0.3c0.2,1.1-0.1,2.2-0.6,3.1
						c-0.8,1.3-2,1.9-3.1,1.6c-1.1-0.3-1.9-1.3-2.1-2.7c-0.1-0.8,0-1.6,0.4-2.2c0.6-0.9,1.4-1.4,2.3-1.1c0.8,0.2,1.4,1,1.5,1.9
						c0.2,1.1-0.4,2.2-1.4,2.5l-0.2-1.5c0.3-0.1,0.4-0.4,0.4-0.7c-0.1-0.4-0.3-0.6-0.6-0.7c-0.3-0.1-0.7,0.1-1,0.6
						c-0.2,0.3-0.3,0.7-0.2,1c0.1,0.7,0.6,1.3,1.2,1.5c0.7,0.2,1.3-0.2,1.9-1c0.4-0.6,0.5-1.3,0.4-2c0-0.1,0-0.2,0-0.2
						c-0.2-1-0.8-1.7-1.6-2c-0.8-0.3-1.7-0.1-2.4,0.5l-0.1,0.1c-0.6,0.5-1.2,1.5-1.7,2.6c-1.6,3.4-3.9,3.5-4.3,3.6
						c-0.6,0.1-1.2-0.2-1.6-0.6c-0.5-0.5-0.8-1.2-0.8-1.9c-0.1-1.3,0.7-2.4,1.8-2.6c0.5-0.1,0.9,0.2,1.3,0.6
						c0.5,0.6,0.7,1.4,0.5,2.1c-0.1,0.4-0.3,0.7-0.6,0.9c0.6-0.2,1.8-0.8,2.7-2.7c0.6-1.2,1.3-2.4,2-3l0.1-0.1
						C121.9,271.8,122.7,271.5,123.6,271.5z M115.7,278.4l-0.1-1.3c0.1,0,0.2-0.1,0.2-0.2c0-0.1,0-0.3-0.1-0.5
						c-0.1-0.1-0.2-0.2-0.3-0.1c-0.4,0-0.7,0.5-0.6,0.9c0,0.3,0.2,0.7,0.4,0.9C115.2,278.3,115.4,278.4,115.7,278.4z"/>
				</g>
			</g>
			<g>
				<g>
					<polygon class="st9" points="126.5,278.1 195.5,278.6 195.5,280.1 126.5,279.6 					"/>
				</g>
			</g>
		</g>
	</g>
	<g>
		<ellipse class="st9" cx="243.9" cy="324.6" rx="3.1" ry="3"/>
		<g>
			<ellipse class="st9" cx="287.5" cy="324.6" rx="3.1" ry="3"/>
			<ellipse class="st9" cx="276.6" cy="324.6" rx="3.1" ry="3"/>
			<ellipse class="st9" cx="265.8" cy="324.6" rx="4.9" ry="4.8"/>
			<ellipse class="st9" cx="257.1" cy="324.6" rx="2.4" ry="4.8"/>
			<g>
				<g>
					<path class="st9" d="M377.8,327.3c-0.3,0-0.5,0-0.8-0.1c-1-0.2-1.7-1.2-1.7-2.4c0-1.2,0.7-2.2,1.7-2.4l0,0
						c2.3-0.6,5.2,1.7,5.3,1.8l0.8,0.6l-0.8,0.6C382.3,325.5,380,327.3,377.8,327.3z M377.3,323.8c-0.5,0.1-0.7,0.6-0.7,0.9
						c0,0.4,0.2,0.8,0.7,0.9c1.1,0.3,2.5-0.4,3.4-0.9C379.8,324.2,378.4,323.6,377.3,323.8L377.3,323.8z"/>
				</g>
				<g>
					<path class="st9" d="M373.1,325.5c-0.1,0-0.1,0-0.2,0c0,0,0,0,0,0c-0.4,0-2.7-0.2-4.3-3.6c-0.5-1-1.1-2-1.7-2.5l-0.1-0.1
						c-0.7-0.7-1.6-0.9-2.4-0.5c-0.8,0.3-1.4,1-1.6,2c0,0.1,0,0.2,0,0.2c-0.1,0.7,0,1.4,0.4,2c0.5,0.8,1.2,1.2,1.9,1
						c0.6-0.2,1-0.7,1.2-1.5c0.1-0.3,0-0.7-0.2-1c-0.3-0.5-0.6-0.7-1-0.6c-0.3,0.1-0.5,0.4-0.6,0.7c-0.1,0.3,0.1,0.6,0.4,0.7
						l-0.2,1.5c-0.9-0.2-1.5-1.3-1.4-2.5c0.2-1,0.8-1.7,1.5-1.9c0.8-0.2,1.7,0.2,2.2,1.1c0.4,0.6,0.5,1.4,0.4,2.2
						c-0.2,1.3-1,2.4-2.1,2.7c-1.1,0.3-2.3-0.3-3.1-1.6c-0.6-0.9-0.8-2.1-0.6-3.1c0-0.1,0-0.2,0.1-0.3c0.3-1.4,1.2-2.6,2.4-3
						c1.2-0.5,2.6-0.2,3.6,0.8l0.1,0.1c0.7,0.6,1.4,1.8,2,3c0.9,1.9,2,2.5,2.7,2.7c-0.3-0.2-0.5-0.5-0.6-0.9c-0.2-0.7,0-1.5,0.5-2.1
						c0.3-0.4,0.8-0.6,1.3-0.6c1.1,0.1,1.9,1.3,1.8,2.6c0,0.7-0.3,1.4-0.8,1.9C374.1,325.3,373.6,325.5,373.1,325.5z M373.4,321.9
						c-0.1,0-0.2,0.1-0.3,0.1c-0.1,0.2-0.2,0.3-0.1,0.5c0,0.1,0.1,0.2,0.2,0.2l-0.1,1.3c0.2,0,0.4-0.1,0.6-0.3
						c0.2-0.2,0.3-0.5,0.4-0.9C374.1,322.4,373.8,322,373.4,321.9C373.4,321.9,373.4,321.9,373.4,321.9z"/>
				</g>
				<g>
					<path class="st9" d="M365.2,332.4c-0.4,0-0.8-0.1-1.2-0.2c-1.2-0.5-2.1-1.6-2.4-3c0-0.1,0-0.2-0.1-0.3
						c-0.2-1.1,0.1-2.2,0.6-3.1c0.8-1.3,2-1.9,3.1-1.6c1.1,0.3,1.9,1.3,2.1,2.7c0.1,0.8,0,1.6-0.4,2.2c-0.6,0.9-1.4,1.4-2.2,1.1
						c-0.8-0.2-1.4-1-1.5-1.9c-0.2-1.1,0.4-2.2,1.4-2.5l0.2,1.5c-0.3,0.1-0.4,0.4-0.4,0.7c0.1,0.4,0.3,0.6,0.6,0.7
						c0.3,0.1,0.7-0.1,1-0.6c0.2-0.3,0.3-0.7,0.2-1c-0.1-0.7-0.6-1.3-1.2-1.5c-0.7-0.2-1.3,0.2-1.9,1c-0.4,0.6-0.5,1.3-0.4,2
						c0,0.1,0,0.2,0,0.2c0.2,1,0.8,1.7,1.6,2c0.8,0.3,1.7,0.1,2.4-0.5l0.1-0.1c0.6-0.5,1.2-1.5,1.7-2.6c1.6-3.4,3.9-3.5,4.3-3.6
						c0.6-0.1,1.2,0.2,1.6,0.6c0.5,0.5,0.8,1.2,0.8,1.9c0.1,1.3-0.7,2.4-1.8,2.6c-0.5,0.1-0.9-0.2-1.3-0.6c-0.5-0.6-0.7-1.4-0.5-2.1
						c0.1-0.4,0.3-0.7,0.6-0.9c-0.6,0.2-1.8,0.8-2.7,2.7c-0.6,1.2-1.3,2.4-2,3l-0.1,0.1C366.9,332.1,366.1,332.4,365.2,332.4z
						 M373.1,325.5l0.1,1.3c-0.1,0-0.2,0.1-0.2,0.2c0,0.1,0,0.3,0.1,0.5c0.1,0.1,0.2,0.2,0.3,0.1c0.4,0,0.7-0.5,0.6-0.9
						c0-0.3-0.2-0.7-0.4-0.9C373.5,325.6,373.3,325.5,373.1,325.5z"/>
				</g>
			</g>
			<g>
				<g>
					<polygon class="st9" points="362.3,325.8 293.3,325.3 293.3,323.8 362.3,324.3 					"/>
				</g>
			</g>
		</g>
		<g>
			<ellipse class="st9" cx="201.3" cy="324.9" rx="3.1" ry="3"/>
			<ellipse class="st9" cx="212.1" cy="324.9" rx="3.1" ry="3"/>
			<ellipse class="st9" cx="223" cy="324.9" rx="4.9" ry="4.8"/>
			<ellipse class="st9" cx="231.7" cy="324.9" rx="2.4" ry="4.8"/>
			<g>
				<g>
					<path class="st9" d="M110.9,322.3c0.3,0,0.5,0,0.8,0.1c1,0.2,1.7,1.2,1.7,2.4c0,1.2-0.7,2.2-1.7,2.4l0,0
						c-2.3,0.6-5.2-1.7-5.3-1.8l-0.8-0.6l0.8-0.6C106.5,324.1,108.8,322.3,110.9,322.3z M111.5,325.7c0.5-0.1,0.7-0.6,0.7-0.9
						c0-0.4-0.2-0.8-0.7-0.9c-1.1-0.3-2.5,0.4-3.4,0.9C109,325.4,110.4,326,111.5,325.7L111.5,325.7z"/>
				</g>
				<g>
					<path class="st9" d="M115.7,324c0.1,0,0.1,0,0.2,0c0,0,0,0,0,0c0.4,0,2.7,0.2,4.3,3.6c0.5,1,1.1,2,1.7,2.5l0.1,0.1
						c0.7,0.7,1.6,0.9,2.4,0.5c0.8-0.3,1.4-1,1.6-2c0-0.1,0-0.2,0-0.2c0.1-0.7,0-1.4-0.4-2c-0.5-0.8-1.2-1.2-1.9-1
						c-0.6,0.2-1,0.7-1.2,1.5c-0.1,0.3,0,0.7,0.2,1c0.3,0.5,0.6,0.7,1,0.6c0.3-0.1,0.5-0.4,0.6-0.7c0.1-0.3-0.1-0.6-0.4-0.7l0.2-1.5
						c0.9,0.2,1.5,1.3,1.4,2.5c-0.2,1-0.8,1.7-1.5,1.9c-0.8,0.2-1.7-0.2-2.3-1.1c-0.4-0.6-0.5-1.4-0.4-2.2c0.2-1.3,1-2.4,2.1-2.7
						c1.1-0.3,2.3,0.3,3.1,1.6c0.6,0.9,0.8,2.1,0.6,3.1c0,0.1,0,0.2-0.1,0.3c-0.3,1.4-1.2,2.6-2.4,3c-1.2,0.5-2.6,0.2-3.6-0.8
						l-0.1-0.1c-0.7-0.6-1.4-1.8-2-3c-0.9-1.9-2-2.5-2.7-2.7c0.3,0.2,0.5,0.5,0.6,0.9c0.2,0.7,0,1.5-0.5,2.1
						c-0.3,0.4-0.8,0.6-1.3,0.6c-1.1-0.1-1.9-1.3-1.8-2.6c0-0.7,0.3-1.4,0.8-1.9C114.7,324.2,115.2,324,115.7,324z M115.3,327.6
						c0.1,0,0.2-0.1,0.3-0.1c0.1-0.2,0.2-0.3,0.1-0.5c0-0.1-0.1-0.2-0.2-0.2l0.1-1.3c-0.2,0-0.4,0.1-0.6,0.3
						c-0.2,0.2-0.3,0.5-0.4,0.9C114.7,327.2,114.9,327.6,115.3,327.6C115.3,327.6,115.3,327.6,115.3,327.6z"/>
				</g>
				<g>
					<path class="st9" d="M123.6,317.1c0.4,0,0.8,0.1,1.2,0.2c1.2,0.5,2.1,1.6,2.4,3c0,0.1,0,0.2,0.1,0.3c0.2,1.1-0.1,2.2-0.6,3.1
						c-0.8,1.3-2,1.9-3.1,1.6c-1.1-0.3-1.9-1.3-2.1-2.7c-0.1-0.8,0-1.6,0.4-2.2c0.6-0.9,1.4-1.4,2.3-1.1c0.8,0.2,1.4,1,1.5,1.9
						c0.2,1.1-0.4,2.2-1.4,2.5l-0.2-1.5c0.3-0.1,0.4-0.4,0.4-0.7c-0.1-0.4-0.3-0.6-0.6-0.7c-0.3-0.1-0.7,0.1-1,0.6
						c-0.2,0.3-0.3,0.7-0.2,1c0.1,0.7,0.6,1.3,1.2,1.5c0.7,0.2,1.3-0.2,1.9-1c0.4-0.6,0.5-1.3,0.4-2c0-0.1,0-0.2,0-0.2
						c-0.2-1-0.8-1.7-1.6-2c-0.8-0.3-1.7-0.1-2.4,0.5l-0.1,0.1c-0.6,0.5-1.2,1.5-1.7,2.6c-1.6,3.4-3.9,3.5-4.3,3.6
						c-0.6,0.1-1.2-0.2-1.6-0.6c-0.5-0.5-0.8-1.2-0.8-1.9c-0.1-1.3,0.7-2.4,1.8-2.6c0.5-0.1,0.9,0.2,1.3,0.6
						c0.5,0.6,0.7,1.4,0.5,2.1c-0.1,0.4-0.3,0.7-0.6,0.9c0.6-0.2,1.8-0.8,2.7-2.7c0.6-1.2,1.3-2.4,2-3l0.1-0.1
						C121.9,317.4,122.7,317.1,123.6,317.1z M115.7,324l-0.1-1.3c0.1,0,0.2-0.1,0.2-0.2c0-0.1,0-0.3-0.1-0.5
						c-0.1-0.1-0.2-0.2-0.3-0.1c-0.4,0-0.7,0.5-0.6,0.9c0,0.3,0.2,0.7,0.4,0.9C115.2,323.9,115.4,324,115.7,324z"/>
				</g>
			</g>
			<g>
				<g>
					<polygon class="st9" points="126.5,323.8 195.5,324.3 195.5,325.8 126.5,325.3 					"/>
				</g>
			</g>
		</g>
	</g>
	<g>
		<text transform="matrix(1 0 0 1 138.3665 311.8963)" class="st10 st11 st12">TAKEAWAY MENU</text>
	</g>
	<text transform="matrix(1 0 0 1 151.1732 384.1102)" class="st4 st5 st13">30 Gravatt Road</text>
	<path class="st8" d="M291.1,161.2h2.1c-0.5-1.3-0.8-2.2-1-2.7c0,0,0,0,0-0.1c-0.4,1-0.7,1.8-0.9,2.5L291.1,161.2 M294.9,166.3
		L294.9,166.3c-0.4-0.1-0.8-0.1-1.1-0.1h-4.3c0,0-0.1,0-0.1,0l0,0c-0.1,0.1-0.1,0.2-0.1,0.3c-0.2,0.4-0.4,0.8-0.6,1.3
		c-0.4,0.9-0.6,1.5-0.6,1.9c0,0.2,0,0.3,0,0.5l0.1,0.1c0.2,0.2,0.6,0.3,1.1,0.5c0.4,0.1,0.8,0.3,1.1,0.5c0.2,0.2,0.4,0.3,0.6,0.6
		c0.2,0.3,0.4,0.7,0.4,1.1c0,0.3-0.1,0.6-0.2,0.9c-0.1,0.3-0.4,0.6-0.6,0.8c-0.4,0.3-0.9,0.4-1.4,0.4c-0.6,0-1.1-0.1-1.7-0.2
		c-0.4-0.1-0.8-0.1-1.2-0.1c-0.4,0-0.9,0-1.7,0.1c-0.9,0.1-1.6,0.1-2,0.1c-0.2,0-0.5,0-0.7-0.1c-0.3-0.1-0.7-0.3-0.9-0.5
		c-0.2-0.2-0.4-0.5-0.5-0.9c-0.1-0.2-0.1-0.5-0.1-0.7c0-0.7,0.4-1.4,1-1.8c0,0,0.2-0.1,0.4-0.2c0.1,0,0.1-0.1,0.2-0.1
		c0.3-0.3,0.6-0.7,0.8-1.1c0.4-0.7,0.8-1.5,1.1-2.3c0.6-1.8,1.3-3.4,1.9-5c0.6-1.6,1.2-3,1.7-4.4c0.2-0.5,0.9-2.3,2.1-5.5
		c0.6-1.6,1.1-2.9,1.5-3.7c0.2-0.4,0.4-0.8,0.6-1.1c0.1-0.2,0.3-0.4,0.5-0.5c0.1-0.1,0.3-0.2,0.5-0.3c0.3-0.1,0.6-0.2,0.9-0.1
		c0.3,0,0.5,0.1,0.7,0.2c0.2,0.1,0.3,0.2,0.5,0.4c0.2,0.2,0.4,0.4,0.5,0.7c0.4,0.7,0.7,1.5,1,2.3l7.2,18.7c0.3,0.7,0.5,1.2,0.8,1.5
		c0.2,0.2,0.6,0.4,1.1,0.5c0.3,0.1,0.6,0.2,0.8,0.4c0.2,0.2,0.4,0.4,0.5,0.6c0.2,0.4,0.3,0.9,0.3,1.3c-0.1,0.5-0.3,1-0.7,1.3
		c-0.4,0.4-1.1,0.6-1.7,0.5c-0.8-0.1-1.5-0.2-2.2-0.3c-0.7,0-1.5-0.1-2.4-0.1c-0.6,0-1.2,0.1-1.7,0.1c-0.7,0.1-1.4,0.1-2.1,0.1
		c-0.5,0-1.1-0.2-1.4-0.5c-0.2-0.2-0.4-0.5-0.5-0.8c-0.1-0.3-0.1-0.5-0.1-0.8c0-0.5,0.2-1.1,0.6-1.4c0.3-0.3,0.6-0.5,1-0.6
		c0.2-0.1,0.3-0.1,0.4-0.2l0.1-0.1c0-0.1,0-0.2,0-0.3c0-0.2-0.1-0.5-0.1-0.7c-0.1-0.4-0.3-0.9-0.5-1.6c-0.2-0.5-0.4-1-0.6-1.5
		C294.9,166.4,294.9,166.3,294.9,166.3 M269.1,162.5c-0.1,0.3-0.1,0.7-0.1,1c0,0,0,0.6,0,1.8s0,1.8,0,2c0,0.6,0,1.2,0.2,1.8
		c0,0.3,0.1,0.6,0.3,0.8c0.1,0.1,0.2,0.2,0.4,0.2c0.4,0.1,0.8,0.2,1.2,0.2c0.7,0,1.4-0.1,2-0.3c0.4-0.1,0.8-0.3,1.2-0.7
		c0.3-0.3,0.5-0.7,0.7-1.1c0.2-0.6,0.3-1.2,0.3-1.8c0-0.8-0.1-1.5-0.5-2.1c-0.3-0.5-0.8-0.9-1.3-1.2c-0.6-0.3-1.2-0.4-1.8-0.5
		C270.7,162.5,269.9,162.5,269.1,162.5 M269.1,151.6L269.1,151.6c-0.1,0.3-0.1,0.5-0.1,0.8v5.1c0,0.1,0,0.1,0,0.2l0,0l0.4,0
		c0.4,0,0.9,0,1.4,0c0.5,0,1.1,0,1.6-0.2c0.3-0.1,0.5-0.2,0.7-0.3c0.1-0.1,0.2-0.3,0.3-0.5c0.1-0.4,0.2-0.8,0.2-1.2
		c0-1.2-0.4-2.2-1.1-3c-0.6-0.7-1.5-1.1-2.5-1.1C269.7,151.5,269.4,151.5,269.1,151.6 M280.7,160.8c0.9,1.2,1.4,2.8,1.4,4.8
		c0,3-0.9,5.2-2.7,6.8c-1.7,1.6-4.1,2.4-7.2,2.4c-0.7,0-1.6,0-3-0.1c-1.3,0-2.3-0.1-2.9-0.1c-0.5,0-1.2,0-2.1,0.1
		c-1,0.1-1.8,0.1-2.3,0.1c-0.5,0-1-0.2-1.4-0.5c-0.3-0.2-0.5-0.5-0.6-0.8c-0.3-0.7-0.1-1.5,0.4-2.1c0.2-0.3,0.5-0.5,0.9-0.7
		c0.1-0.1,0.3-0.1,0.3-0.1c0.2-0.1,0.4-0.3,0.5-0.5c0.2-0.4,0.2-0.9,0.2-1.6v-14.8c0-0.7-0.1-1.3-0.4-1.8c-0.2-0.3-0.5-0.4-0.8-0.5
		c-0.5-0.1-1-0.2-1.4-0.5c-0.3-0.2-0.5-0.4-0.7-0.6c-0.2-0.3-0.4-0.7-0.4-1.1c0-0.5,0.2-1.1,0.5-1.5c0.4-0.5,1-0.8,1.7-0.8
		c0.3,0,0.9,0,1.6,0.1c0.6,0.1,1.1,0.1,1.4,0.1c0.7,0,1.9-0.1,3.3-0.2c1.6-0.2,2.8-0.2,3.6-0.2c2.9,0,5.2,0.7,6.9,1.9
		c1.9,1.3,2.9,3.5,2.8,5.7c0,1.5-0.6,3-1.6,4.1c-0.1,0.1-0.1,0.2-0.2,0.2C279.4,159.4,280.1,160,280.7,160.8 M306.9,149.4
		c-0.1-0.4,0-0.8,0.2-1.1c0.1-0.3,0.4-0.5,0.6-0.7c0.5-0.4,1.1-0.5,1.7-0.4l1,0.1c0.6,0.1,1.1,0.1,1.7,0.1h0c0.6,0,1.5-0.1,2.5-0.2
		c1.2-0.1,2.1-0.2,3-0.2c0.5,0,1,0.2,1.4,0.5c0.5,0.4,0.7,1,0.7,1.6c0,0.6-0.2,1.1-0.6,1.5c-0.3,0.3-0.7,0.6-1.1,0.7
		c-0.2,0.1-0.4,0.1-0.5,0.2l0,0c0,0.3,0,0.6,0,1V167c0,0.7,0,1.4,0.1,2.1c0,0.4,0.2,0.8,0.3,1.2c0.1,0.1,0.2,0.2,0.3,0.3
		c0.2,0.1,0.5,0.1,0.8,0.1c0.3,0,0.6,0.1,0.8,0.2c0.2,0.1,0.4,0.2,0.5,0.3c0.2,0.1,0.3,0.3,0.5,0.5c0.3,0.3,0.4,0.7,0.4,1.1
		c0,0.4-0.1,0.7-0.2,1.1c-0.2,0.3-0.4,0.6-0.7,0.8c-0.5,0.3-1,0.4-1.6,0.4c-0.6,0-1.4,0-2.5-0.1c-1-0.1-1.7-0.1-2.2-0.1
		c-0.5,0-1,0.1-1.5,0.1c-0.7,0.1-1.3,0.2-2,0.2c-0.4,0-0.8-0.1-1.1-0.3c-0.3-0.1-0.5-0.4-0.7-0.6c-0.2-0.3-0.4-0.7-0.3-1.1
		c0-0.5,0.2-0.9,0.5-1.3c0.2-0.3,0.5-0.5,0.8-0.7c0.2-0.1,0.3-0.2,0.4-0.3l0,0c0.2-0.3,0.3-0.6,0.4-0.9c0.1-0.4,0.1-1.3,0.1-2.6V154
		c0-0.6,0-1.1-0.1-1.6c0-0.2-0.1-0.3-0.2-0.5c0,0-0.1-0.1-0.1-0.1c-0.4-0.1-0.7-0.2-1.1-0.3h0h0c-0.5-0.1-0.9-0.3-1.3-0.7
		C307.2,150.4,306.9,149.9,306.9,149.4"/>
	<path class="st8" d="M234.8,163.6c0,1.9,0,3,0,3.4c0,1.2,0.1,2.1,0.4,2.7c0.2,0.4,0.5,0.7,0.9,0.9l0,0h0c0.4,0.2,0.8,0.4,1.2,0.7
		c0.2,0.2,0.4,0.4,0.5,0.6c0.2,0.3,0.3,0.7,0.3,1c0,0.7-0.3,1.3-0.9,1.7c-0.4,0.2-0.8,0.4-1.3,0.4c-0.6,0-1.3-0.1-1.9-0.2
		c-0.5-0.1-1-0.1-1.5-0.1c-0.4,0-0.8,0.1-1.2,0.1c-0.6,0.1-1.1,0.1-1.7,0.1c-0.2,0-0.5,0-0.7-0.1c-0.3-0.1-0.6-0.2-0.9-0.5
		c-0.3-0.3-0.5-0.6-0.6-1c-0.1-0.3-0.1-0.6,0-0.9c0.1-0.5,0.3-0.9,0.7-1.2c0.3-0.2,0.5-0.4,0.8-0.5c0.2-0.1,0.5-0.3,0.7-0.4
		c0.1-0.1,0.1-0.2,0.2-0.2c0.1-0.3,0.2-0.6,0.2-0.8c0.1-0.6,0.1-1.2,0.1-1.9c0.1-2.7,0.2-5.5,0.3-8.5c0.1-2.9,0.2-4.4,0.2-4.5
		c0-0.9-0.2-1.6-0.6-2.2c-0.1-0.2-0.3-0.4-0.6-0.5c-0.2-0.1-0.4-0.1-0.6-0.1c-0.2,0-0.5,0-0.7-0.1c-0.7-0.2-1.2-0.7-1.4-1.3
		c-0.1-0.2-0.1-0.5-0.1-0.8c0-0.4,0.1-0.7,0.3-1.1c0.2-0.3,0.5-0.6,0.8-0.8c0.3-0.2,0.7-0.3,1-0.3c0.2,0,0.6,0,1,0h0.1
		c0.6,0,1.1,0.1,1.3,0.1l0.1,0l0.1,0c0.2,0,0.5,0,0.9-0.1c0.5-0.1,1-0.1,1.5-0.1c0.7,0,1.4,0.2,1.9,0.6c0.5,0.4,1,0.9,1.2,1.6
		l5.6,14c0.2-0.5,0.4-0.8,0.5-1.1c0.3-0.7,0.9-2.3,2-4.9c1.1-2.6,1.9-4.7,2.6-6.3c0.4-0.8,0.7-1.4,0.9-1.9c0.4-0.7,0.7-1.1,0.9-1.2
		c0.3-0.3,0.6-0.5,1-0.6c0.3-0.1,0.6-0.1,0.9-0.1c0.2,0,0.6,0,1.2,0l0.6,0l0.1,0c0.3,0,0.5,0,0.8-0.1c0.4-0.1,0.8-0.1,1.3-0.1
		c0.2,0,0.5,0,0.7,0.1c0.3,0.1,0.6,0.2,0.8,0.5c0.2,0.2,0.4,0.5,0.5,0.8c0.1,0.3,0.1,0.5,0.1,0.8c0,0.5-0.2,1.1-0.6,1.5
		c-0.3,0.4-0.8,0.6-1.3,0.6c-0.2,0-0.5,0.1-0.7,0.2c-0.1,0-0.1,0.1-0.2,0.2c-0.3,0.6-0.4,1.6-0.4,3c0,0.1,0,1.3,0.1,3.8
		c0.1,2.5,0.2,5.1,0.3,7.9c0.1,1.6,0.2,2.8,0.5,3.4c0.1,0.1,0.2,0.3,0.3,0.4c0.2,0.1,0.5,0.3,0.8,0.3c0.5,0.1,0.9,0.3,1.3,0.6
		c0.3,0.2,0.5,0.5,0.6,0.8c0.1,0.3,0.2,0.6,0.2,0.9c0,0.8-0.5,1.5-1.2,1.8c-0.3,0.1-0.7,0.2-1.5,0.2c-0.7,0-1.4-0.1-2.1-0.2
		c-0.6-0.1-1.2-0.1-1.7-0.1c-0.6,0-1.2,0.1-1.8,0.1c-0.7,0.1-1.5,0.2-2.2,0.2c-0.4,0-0.9-0.1-1.3-0.3c-0.3-0.2-0.5-0.4-0.7-0.6
		c-0.4-0.7-0.4-1.6,0.1-2.2c0.2-0.3,0.5-0.5,0.8-0.7c0.2-0.1,0.3-0.2,0.3-0.2c0.3-0.2,0.5-0.3,0.6-0.5c0.1-0.2,0.1-0.4,0.1-0.7
		c0-0.9-0.1-3-0.2-6.3l0-0.3l-0.4,0.9c-1.4,3.4-2.6,6.2-3.5,8.4c0,0.1-0.1,0.2-0.2,0.5c-0.1,0.3-0.2,0.6-0.3,0.7
		c-0.1,0.3-0.3,0.6-0.5,0.8c-0.2,0.2-0.4,0.3-0.6,0.5c-0.3,0.2-0.7,0.2-1,0.2c-0.4,0-0.8-0.2-1.1-0.5c-0.2-0.2-0.5-0.4-0.6-0.7
		c-0.2-0.3-0.8-1.5-1.6-3.6L234.8,163.6"/>
	<path class="st8" d="M223,151.2c-0.1,0.3-0.2,0.8-0.2,1.3c0,1.4,0,2.9,0,4.6c0,1.7,0,2.5,0,2.6c0,2-0.2,4.1-0.5,6.1
		c-0.4,1.9-0.9,3.5-1.6,4.7c-0.9,1.6-2.2,2.8-3.8,3.6c-1.5,0.7-3.4,1.1-5.6,1.1c-1.9,0-3.5-0.3-4.8-0.8c-1.4-0.5-2.6-1.3-3.6-2.4
		c-0.9-1-1.5-2.4-2-4.1c-0.4-1.5-0.6-3.4-0.6-5.5c0-1,0-2.7,0.1-4.9c0.1-2.2,0.1-3.6,0.1-4.1c0-0.4,0-0.8-0.1-1.2
		c0-0.2-0.1-0.3-0.2-0.5c-0.1-0.1-0.2-0.2-0.3-0.3c-0.3-0.1-0.6-0.3-0.9-0.3c-0.2,0-0.4-0.1-0.6-0.2c-0.3-0.1-0.7-0.4-0.9-0.6
		c-0.2-0.3-0.3-0.5-0.4-0.9c-0.1-0.2-0.1-0.5,0-0.8c0-0.4,0.2-0.7,0.4-1c0.2-0.2,0.4-0.4,0.6-0.6c0.4-0.3,0.8-0.4,1.3-0.4
		c0.7,0,1.5,0.1,2.2,0.2c0.6,0.1,1.2,0.1,1.8,0.1c0.4,0,1.1,0,2-0.1c1-0.1,1.8-0.1,2.3-0.1c0.2,0,0.5,0,0.7,0.1
		c0.3,0.1,0.6,0.2,0.8,0.4c0.3,0.2,0.5,0.5,0.6,0.8c0.1,0.3,0.2,0.7,0.2,1c0,0.4-0.2,0.9-0.5,1.2c-0.2,0.3-0.5,0.5-0.8,0.6
		c-0.1,0.1-0.4,0.2-0.6,0.3c-0.1,0-0.2,0.1-0.2,0.1c-0.1,0.1-0.1,0.1-0.2,0.2c0,0,0,0.1-0.1,0.2c-0.1,0.3-0.1,0.6-0.2,0.8
		c-0.1,0.9-0.2,2.3-0.2,4.3v5.4c0,1.2,0.1,2.4,0.4,3.6c0.2,0.9,0.5,1.7,1,2.4c0.4,0.5,0.9,1,1.5,1.2c0.7,0.3,1.5,0.5,2.2,0.4
		c1.2,0,2.3-0.3,3.1-0.9c0.8-0.6,1.4-1.6,1.8-2.8c0.3-0.8,0.5-2,0.6-3.4c0.2-1.6,0.2-3.4,0.2-5.6c0-1.4-0.1-2.9-0.2-4.3
		c0-0.4-0.1-0.8-0.2-1.2c0-0.1-0.1-0.2-0.1-0.3c-0.1-0.1-0.1-0.1-0.2-0.2c-0.2-0.1-0.3-0.1-0.5-0.1c-0.3,0-0.5-0.1-0.8-0.1
		c-0.3-0.1-0.6-0.2-0.9-0.4c-0.3-0.2-0.5-0.5-0.7-0.8c-0.1-0.3-0.2-0.5-0.2-0.8c0-0.3,0-0.7,0.1-1c0.1-0.3,0.3-0.6,0.6-0.8
		c0.5-0.4,1.1-0.6,1.6-0.5c0.6,0.1,1.3,0.1,2.1,0.2c0.4,0,0.7,0.1,0.9,0.1l0.1,0c0.5,0,0.9-0.1,1.4-0.1c0.6-0.1,1.2-0.1,1.8-0.2
		c0.5,0,1,0.2,1.4,0.5c0.4,0.4,0.7,0.9,0.7,1.5c0,0.3,0,0.7-0.2,1c-0.1,0.3-0.3,0.6-0.6,0.8c-0.3,0.2-0.5,0.3-0.9,0.4
		C223.4,151.1,223.2,151.2,223,151.2"/>
	<path class="st8" d="M170.4,167.3c0.5-0.9,1.6-3.3,3.4-7c1.8-3.8,3.3-6.8,4.6-9.1c0.6-1.1,1.1-2,1.5-2.7c0.6-1,1.1-1.5,1.4-1.7
		c0.4-0.3,1-0.6,1.5-0.7c0.4-0.1,0.8-0.1,1.3-0.1c0.4,0,1,0,2,0.1l1,0l0.3,0c0.3,0,0.8,0,1.5-0.1c0.7-0.1,1.4-0.1,2.1-0.1
		c0.3,0,0.7,0,1,0.1c0.4,0.1,0.8,0.3,1.1,0.5c0.4,0.3,0.6,0.6,0.8,1c0.1,0.3,0.2,0.7,0.2,1.1c0,0.7-0.3,1.4-0.9,1.9
		c-0.5,0.4-1.1,0.7-1.8,0.7c-0.5,0-1,0.2-1.5,0.4c-0.2,0.1-0.4,0.3-0.5,0.5c-0.2,0.4-0.4,1-0.5,1.6c-0.1,0.9-0.2,1.9-0.2,2.9
		c0,0.1,0.1,1.9,0.2,5.5c0.2,3.6,0.3,7.4,0.4,11.4c0.1,2.4,0.3,4.1,0.9,5c0.2,0.3,0.4,0.5,0.7,0.7c0.5,0.3,1,0.5,1.6,0.5
		c0.7,0.1,1.4,0.3,2,0.7c0.4,0.2,0.7,0.6,1,1c0.2,0.4,0.3,0.8,0.3,1.2c0,0.5-0.2,1-0.5,1.4c-0.3,0.4-0.8,0.7-1.2,0.9
		c-0.4,0.1-1.1,0.3-2.2,0.3c-0.8,0-2-0.1-3.6-0.2c-1.4-0.1-2.4-0.2-3.1-0.2c-0.7,0-1.8,0.1-3.3,0.2c-1.7,0.2-2.9,0.3-3.7,0.3
		c-0.6,0-1.2-0.1-1.8-0.4c-0.4-0.2-0.7-0.4-0.9-0.8c-0.3-0.3-0.4-0.7-0.4-1.2c-0.1-0.6,0.1-1.3,0.6-1.7c0.3-0.4,0.7-0.7,1.1-0.9
		c0.3-0.2,0.5-0.3,0.6-0.3l0,0l0,0c0.5-0.3,1-0.6,1.2-0.9c0.1-0.1,0.1-0.2,0.1-0.4c0-0.3,0.1-0.5,0.1-0.8c0-1.3-0.1-4.3-0.4-9.1
		c-0.1-1-0.1-2-0.1-2.8c-0.6,1.1-1.2,2.3-1.8,3.7c-2.5,4.9-4.5,8.9-6.1,12.1c-0.1,0.1-0.2,0.3-0.3,0.7c-0.2,0.3-0.3,0.7-0.5,1
		c-0.2,0.4-0.5,0.8-0.9,1.1c-0.3,0.2-0.6,0.4-0.9,0.5c-0.4,0.2-0.9,0.2-1.3,0.2c-0.6,0-1.1-0.3-1.6-0.6c-0.4-0.3-0.7-0.6-1-0.9
		c-0.4-0.5-1.3-2.2-2.7-5.1l-5.7-11.9c0,0.2,0,0.4,0,0.7c-0.1,3.9-0.1,6.3-0.1,7c0,1.7,0.2,3.1,0.7,4c0.4,0.7,1,1.2,1.9,1.5h0h0
		c0.9,0.4,1.5,0.7,1.9,0.9c0.3,0.2,0.6,0.5,0.8,0.8c0.3,0.4,0.4,0.9,0.4,1.3c0,0.4-0.1,0.9-0.4,1.3c-0.2,0.4-0.6,0.7-1,0.9
		c-0.6,0.3-1.2,0.4-1.8,0.4c-0.7,0-1.8-0.1-3.2-0.2c-1.2-0.1-2.1-0.2-2.7-0.2c-0.5,0-1.3,0.1-2.3,0.2c-1.2,0.1-2.2,0.2-2.8,0.2
		c-0.3,0-0.7,0-1-0.1c-0.5-0.1-0.9-0.3-1.2-0.5c-0.4-0.3-0.7-0.7-0.9-1.2c-0.1-0.4-0.1-0.8-0.1-1.2c0.1-0.5,0.3-1,1-1.6
		c0.4-0.3,0.8-0.5,1.3-0.7c0.5-0.2,0.9-0.4,1.3-0.7c0.2-0.1,0.3-0.3,0.4-0.5c0.2-0.4,0.4-0.8,0.4-1.3c0.1-0.9,0.2-1.8,0.2-2.7
		c0.2-3.9,0.3-8,0.5-12.2c0.2-4.2,0.3-6.4,0.3-6.5c0-1.3-0.4-2.5-1.2-3.4c-0.3-0.4-0.7-0.7-1.2-0.9c-0.4-0.2-0.9-0.3-1.4-0.3
		c-0.4,0-0.7,0-1.1-0.1c-0.5-0.1-0.9-0.3-1.2-0.6c-0.3-0.3-0.6-0.6-0.7-1c-0.1-0.3-0.2-0.7-0.2-1c0-0.5,0.1-1,0.4-1.4
		c0.3-0.4,0.7-0.7,1.1-0.9c0.5-0.2,1-0.3,1.5-0.3c0.4,0,0.9-0.1,1.6-0.1h0.1h0.1c1.1,0.1,1.8,0.1,2.2,0.1h0.1l0.2,0
		c0.4,0,1-0.1,1.7-0.2c0.8-0.1,1.6-0.2,2.4-0.2c1,0,2,0.2,2.9,0.7c0.8,0.5,1.5,1.2,1.9,2.1l10.3,21.4
		C169.6,168.9,170.1,167.9,170.4,167.3"/>
	<path class="st4" d="M307.8,149.3c0-0.2,0-0.4,0.1-0.6c0.1-0.2,0.2-0.3,0.4-0.4c0.3-0.2,0.7-0.3,1-0.3l0.9,0.1
		c0.6,0.1,1.2,0.1,1.8,0.1c0.6,0,1.5-0.1,2.6-0.2c1.1-0.1,2.1-0.1,2.9-0.1c0.3,0,0.6,0.1,0.8,0.3c0.3,0.2,0.4,0.6,0.4,0.9
		c0,0.3-0.1,0.7-0.4,0.9c-0.2,0.2-0.5,0.4-0.8,0.5c-0.4,0.1-0.6,0.2-0.7,0.3c-0.1,0.1-0.2,0.2-0.3,0.3c-0.1,0.3-0.1,0.7-0.1,1.4V167
		c0,1.7,0.2,3,0.6,3.7c0.1,0.3,0.4,0.5,0.7,0.6c0.4,0.2,0.8,0.2,1.2,0.2c0.2,0,0.3,0,0.5,0.1c0.1,0.1,0.2,0.1,0.4,0.2
		c0.1,0.1,0.2,0.2,0.3,0.3c0.1,0.2,0.2,0.4,0.2,0.6c0,0.2,0,0.4-0.1,0.6c-0.1,0.2-0.2,0.3-0.4,0.4c-0.3,0.2-0.7,0.3-1.1,0.3
		c-0.5,0-1.3,0-2.4-0.1c-1-0.1-1.8-0.1-2.3-0.1c-0.5,0-1.1,0.1-1.6,0.2c-0.6,0.1-1.2,0.2-1.9,0.2c-0.3,0-0.5-0.1-0.7-0.2
		c-0.2-0.1-0.3-0.2-0.4-0.3c-0.1-0.2-0.2-0.4-0.2-0.6c0-0.3,0.1-0.5,0.3-0.7c0.2-0.2,0.4-0.4,0.6-0.5c0.2-0.1,0.4-0.2,0.5-0.4
		c0,0,0.1-0.1,0.1-0.1c0.3-0.4,0.5-0.8,0.6-1.3c0.1-0.5,0.2-1.4,0.2-2.8V154c0-0.6,0-1.3-0.2-1.9c-0.1-0.3-0.2-0.6-0.4-0.9
		c-0.1-0.1-0.2-0.2-0.4-0.3c-0.4-0.2-0.9-0.3-1.3-0.4c-0.3-0.1-0.6-0.2-0.9-0.4C307.9,149.9,307.8,149.6,307.8,149.3"/>
	<path class="st4" d="M281.3,172.8c0-0.4,0.2-0.8,0.6-1.1c0,0,0.1-0.1,0.3-0.2c0.1-0.1,0.2-0.1,0.3-0.2c0.4-0.4,0.8-0.8,1.1-1.3
		c0.4-0.8,0.8-1.6,1.1-2.5c0.6-1.8,1.3-3.4,1.9-5c0.6-1.6,1.2-3,1.7-4.4c0.2-0.5,0.9-2.3,2.1-5.5c0.6-1.6,1.1-2.8,1.5-3.6
		c0.2-0.3,0.3-0.7,0.6-1c0.1-0.1,0.2-0.2,0.3-0.3c0.1-0.1,0.2-0.1,0.3-0.2c0.1-0.1,0.3-0.1,0.4-0.1c0.1,0,0.3,0.1,0.4,0.1
		c0.1,0.1,0.2,0.1,0.3,0.2c0.1,0.1,0.3,0.3,0.3,0.5c0.3,0.7,0.6,1.4,0.9,2.1l7.2,18.7c0.3,0.9,0.7,1.5,1,1.9
		c0.3,0.3,0.9,0.5,1.5,0.7c0.2,0,0.3,0.1,0.5,0.2c0.1,0.1,0.2,0.2,0.3,0.4c0.1,0.2,0.2,0.5,0.1,0.8c0,0.3-0.2,0.6-0.4,0.8
		c-0.2,0.2-0.6,0.3-0.9,0.3c-0.8-0.1-1.5-0.2-2.2-0.3s-1.5-0.1-2.5-0.1c-0.6,0-1.2,0.1-1.8,0.1c-0.6,0.1-1.3,0.1-2,0.1
		c-0.3,0-0.6-0.1-0.8-0.3c-0.1-0.1-0.2-0.3-0.3-0.4c-0.1-0.1-0.1-0.3-0.1-0.5c0-0.3,0.1-0.6,0.3-0.8c0.2-0.2,0.4-0.3,0.7-0.4
		c0.2-0.1,0.4-0.2,0.6-0.3c0.1-0.1,0.2-0.2,0.3-0.4c0.1-0.2,0.2-0.5,0.2-0.7c0-0.3-0.1-0.6-0.2-0.9c-0.1-0.4-0.3-1-0.5-1.6
		c-0.2-0.5-0.4-1.1-0.7-1.6c-0.1-0.2-0.2-0.4-0.4-0.6c-0.1-0.1-0.3-0.1-0.5-0.1c-0.4-0.1-0.8-0.1-1.2-0.1h-4.3c-0.1,0-0.3,0-0.4,0.1
		c-0.1,0-0.2,0.1-0.3,0.2c-0.1,0.2-0.3,0.3-0.3,0.5c-0.2,0.4-0.4,0.9-0.6,1.4c-0.4,1.1-0.7,1.8-0.7,2.2c0,0.3,0,0.5,0.1,0.8
		c0,0.1,0.1,0.3,0.2,0.4c0.3,0.3,0.8,0.5,1.6,0.7c0.3,0.1,0.6,0.2,0.9,0.4c0.1,0.1,0.3,0.2,0.4,0.3c0.1,0.2,0.2,0.4,0.2,0.6
		c0,0.2,0,0.3-0.1,0.5c-0.1,0.2-0.2,0.3-0.4,0.4c-0.3,0.2-0.6,0.3-0.9,0.3c-0.5,0-1-0.1-1.5-0.1c-0.4-0.1-0.9-0.1-1.3-0.1
		c-0.4,0-1,0-1.8,0.1c-0.9,0.1-1.5,0.1-1.9,0.1c-0.1,0-0.3,0-0.4-0.1c-0.4-0.1-0.6-0.4-0.7-0.7C281.3,173.1,281.3,173,281.3,172.8
		 M294.5,162.1c-0.7-1.9-1.2-3.3-1.5-4c-0.3-0.7-0.6-1.4-0.9-2.2c-0.8,1.9-1.4,3.5-1.8,4.6c-0.2,0.6-0.4,1-0.5,1.4
		c0,0.1,0,0.1-0.1,0.2L294.5,162.1"/>
	<path class="st4" d="M268.1,157.5c0,0.3,0,0.6,0.2,0.8c0.1,0.1,0.2,0.3,0.4,0.3c0.1,0,0.3,0,0.7,0c0.4,0,0.9,0,1.5,0
		c0.6,0,1.2-0.1,1.8-0.2c0.4-0.1,0.8-0.3,1.1-0.5c0.3-0.2,0.4-0.5,0.6-0.9c0.2-0.5,0.2-1,0.2-1.5c0-1.4-0.4-2.6-1.3-3.6
		c-0.8-0.9-2-1.4-3.2-1.4c-0.4,0-0.7,0-1.1,0.1c-0.2,0-0.3,0.1-0.5,0.2c-0.1,0.1-0.2,0.2-0.2,0.4c-0.1,0.4-0.1,0.7-0.1,1.1V157.5
		 M268,167.2c0,0.7,0.1,1.4,0.2,2c0.1,0.4,0.2,0.8,0.5,1.2c0.2,0.3,0.5,0.4,0.8,0.6c0.5,0.2,1,0.2,1.5,0.2c0.8,0,1.5-0.1,2.3-0.3
		c0.6-0.2,1.1-0.5,1.5-0.9c0.4-0.4,0.7-0.9,0.9-1.4c0.2-0.7,0.3-1.4,0.3-2.1c0-1-0.2-1.8-0.6-2.5c-0.4-0.7-1-1.2-1.7-1.6
		c-0.6-0.3-1.3-0.5-2-0.6c-1-0.2-2-0.2-2.9-0.2c-0.1,0-0.1,0-0.2,0c-0.1,0.1-0.1,0.1-0.2,0.2c-0.2,0.4-0.3,0.9-0.3,1.6
		c0,0.5,0,1.1,0,1.8C268.1,166.4,268,167,268,167.2 M276.9,159.2c1.3,0.5,2.3,1.2,3.1,2.1c0.8,1.1,1.2,2.5,1.2,4.3
		c0,2.6-0.8,4.7-2.4,6.2c-1.6,1.4-3.8,2.2-6.6,2.2c-0.6,0-1.6,0-2.9-0.1c-1.3,0-2.3-0.1-2.9-0.1c-0.5,0-1.2,0-2.1,0.1
		c-1,0.1-1.8,0.1-2.3,0.1c-0.3,0-0.6-0.1-0.9-0.3c-0.1-0.1-0.3-0.3-0.3-0.5c-0.1-0.4-0.1-0.9,0.2-1.2c0.1-0.2,0.3-0.3,0.5-0.4
		c0.2-0.1,0.3-0.1,0.4-0.2c0.4-0.2,0.7-0.5,0.9-0.9c0.2-0.4,0.3-1.1,0.3-1.9v-14.8c0-0.9-0.2-1.7-0.5-2.3c-0.3-0.5-0.8-0.8-1.4-0.9
		c-0.4,0-0.7-0.2-1-0.3c-0.2-0.1-0.3-0.2-0.4-0.4c-0.1-0.2-0.2-0.4-0.2-0.6c0-0.3,0.1-0.6,0.3-0.9c0.2-0.3,0.6-0.5,1-0.5
		c0.3,0,0.8,0,1.5,0.1c0.6,0.1,1.1,0.1,1.5,0.1c0.8,0,1.9-0.1,3.4-0.2c1.6-0.2,2.8-0.2,3.6-0.2c2.7,0,4.8,0.6,6.4,1.8
		c0.8,0.6,1.4,1.3,1.8,2.2c0.4,0.9,0.6,1.8,0.5,2.8c0,1.3-0.5,2.6-1.4,3.6C277.7,158.5,277.3,158.9,276.9,159.2"/>
	<path class="st4" d="M242.1,165.5c0.7-1.5,1.1-2.5,1.3-3.1c0.3-0.7,0.9-2.3,2-4.9c1.1-2.6,1.9-4.7,2.6-6.3c0.4-0.8,0.6-1.4,0.9-1.8
		c0.3-0.6,0.5-0.9,0.7-1c0.2-0.2,0.4-0.3,0.7-0.4c0.2-0.1,0.4-0.1,0.6-0.1c0.2,0,0.6,0,1.1,0l0.6,0h0.2c0.3,0,0.6,0,0.9-0.1
		c0.4-0.1,0.8-0.1,1.1-0.1c0.2,0,0.3,0,0.5,0.1c0.2,0.1,0.3,0.1,0.5,0.3c0.1,0.1,0.2,0.3,0.3,0.5c0.1,0.2,0.1,0.3,0.1,0.5
		c0,0.3-0.1,0.6-0.3,0.8c-0.2,0.2-0.5,0.3-0.7,0.4c-0.4,0-0.7,0.1-1,0.3c-0.2,0.1-0.4,0.3-0.5,0.6c-0.3,0.7-0.5,1.8-0.5,3.4
		c0,0.1,0,1.3,0.1,3.8c0.1,2.5,0.2,5.1,0.3,7.9c0.1,1.8,0.2,3.1,0.6,3.8c0.1,0.3,0.3,0.5,0.6,0.7c0.3,0.2,0.7,0.4,1.1,0.4
		c0.3,0.1,0.7,0.2,1,0.4c0.2,0.1,0.3,0.3,0.4,0.5c0.1,0.2,0.1,0.4,0.1,0.5c0,0.2-0.1,0.4-0.2,0.6c-0.1,0.2-0.3,0.3-0.5,0.4
		c-0.4,0.1-0.7,0.2-1.1,0.2c-0.7,0-1.3-0.1-2-0.1c-0.6-0.1-1.2-0.1-1.8-0.1c-0.7,0-1.3,0.1-1.9,0.2c-0.7,0.1-1.4,0.2-2.1,0.2
		c-0.3,0-0.6-0.1-0.8-0.2c-0.1-0.1-0.3-0.2-0.4-0.3c-0.1-0.2-0.1-0.3-0.2-0.5c0-0.3,0-0.5,0.2-0.7c0.1-0.2,0.3-0.3,0.5-0.4
		c0.2-0.1,0.3-0.2,0.4-0.2c0.3-0.2,0.6-0.5,0.9-0.8c0.2-0.3,0.2-0.7,0.2-1.2c0-0.9-0.1-3-0.2-6.4c-0.1-1.7-0.1-3.2-0.2-4.3
		c-0.5,1.2-1.1,2.7-2,4.6c-1.4,3.4-2.6,6.2-3.5,8.4c0,0.1-0.1,0.2-0.2,0.5c-0.1,0.3-0.2,0.5-0.3,0.6c-0.1,0.2-0.2,0.4-0.4,0.6
		c-0.1,0.1-0.2,0.2-0.3,0.3c-0.2,0.1-0.3,0.1-0.5,0.1c-0.2,0-0.5-0.1-0.7-0.3c-0.2-0.2-0.3-0.3-0.4-0.5c-0.2-0.3-0.7-1.5-1.5-3.4
		l-4.2-10.7c0,0.8,0,1.8-0.1,3.1c0,2.7-0.1,4.3-0.1,4.8c0,1.3,0.1,2.4,0.5,3.1c0.3,0.6,0.8,1.1,1.4,1.3c0.3,0.1,0.7,0.3,1,0.5
		c0.1,0.1,0.2,0.2,0.3,0.4c0.2,0.3,0.2,0.7,0,1.1c-0.1,0.2-0.2,0.3-0.4,0.4c-0.2,0.1-0.5,0.2-0.8,0.2c-0.6,0-1.2-0.1-1.8-0.1
		c-0.5-0.1-1.1-0.1-1.6-0.1c-0.5,0-0.9,0.1-1.4,0.1c-0.5,0.1-1,0.1-1.6,0.1c-0.2,0-0.3,0-0.5-0.1c-0.2,0-0.4-0.1-0.5-0.3
		c-0.2-0.1-0.3-0.3-0.3-0.5c0-0.2,0-0.3,0-0.5c0-0.3,0.2-0.5,0.4-0.7c0.2-0.2,0.4-0.3,0.6-0.4c0.3-0.1,0.6-0.3,0.9-0.6
		c0.2-0.2,0.3-0.3,0.4-0.5c0.2-0.4,0.3-0.7,0.3-1.1c0.1-0.7,0.1-1.3,0.1-2c0.1-2.7,0.2-5.5,0.3-8.5c0.1-3,0.2-4.5,0.2-4.5
		c0-1.1-0.3-2-0.8-2.8c-0.2-0.3-0.5-0.6-0.9-0.8c-0.3-0.2-0.7-0.2-1-0.2c-0.2,0-0.3,0-0.5-0.1c-0.4-0.1-0.7-0.4-0.8-0.7
		c0-0.2-0.1-0.3-0.1-0.5c0-0.2,0-0.4,0.1-0.6c0.1-0.2,0.3-0.3,0.4-0.4c0.2-0.1,0.5-0.2,0.7-0.2c0.3,0,0.6,0,0.9,0h0
		c0.6,0,1,0.1,1.3,0.1h0l0.1,0c0.4,0,0.7-0.1,1.1-0.1c0.4-0.1,0.9-0.1,1.3-0.1c0.5,0,1,0.1,1.4,0.4c0.4,0.3,0.7,0.7,0.9,1.2
		L242.1,165.5"/>
	<path class="st4" d="M197.9,148.9c0-0.2,0.1-0.4,0.2-0.5c0.1-0.1,0.2-0.3,0.4-0.3c0.2-0.2,0.5-0.2,0.8-0.3c0.7,0,1.4,0.1,2.1,0.2
		c0.6,0.1,1.3,0.1,1.9,0.2c0.5,0,1.2,0,2.1-0.1c1-0.1,1.7-0.1,2.2-0.1c0.2,0,0.3,0,0.5,0.1c0.2,0,0.4,0.1,0.5,0.2
		c0.1,0.1,0.3,0.3,0.3,0.4c0.1,0.2,0.1,0.4,0.1,0.6c0,0.3-0.1,0.5-0.3,0.7c-0.1,0.1-0.3,0.3-0.5,0.3c-0.1,0.1-0.3,0.1-0.5,0.2
		c-0.2,0.1-0.3,0.1-0.5,0.2c-0.1,0.1-0.2,0.2-0.3,0.4c-0.1,0.1-0.2,0.3-0.2,0.5c-0.1,0.3-0.2,0.7-0.2,1c-0.1,0.9-0.2,2.4-0.2,4.4
		v5.4c0,2.9,0.5,5.1,1.6,6.6c0.5,0.7,1.1,1.2,1.8,1.5c0.8,0.4,1.7,0.5,2.6,0.5c1.5,0,2.7-0.3,3.7-1.1c1-0.7,1.7-1.8,2.2-3.2
		c0.3-0.9,0.5-2.1,0.7-3.6c0.2-1.6,0.2-3.5,0.2-5.7c0-1.5-0.1-2.9-0.2-4.4c-0.1-0.5-0.1-0.9-0.3-1.3c-0.1-0.2-0.1-0.4-0.3-0.6
		c-0.1-0.2-0.3-0.3-0.5-0.4c-0.3-0.1-0.6-0.2-0.8-0.2c-0.2,0-0.4-0.1-0.7-0.1c-0.2,0-0.4-0.1-0.6-0.2c-0.2-0.1-0.3-0.3-0.4-0.4
		c-0.1-0.2-0.1-0.3-0.1-0.5c0-0.2,0-0.4,0.1-0.5c0.1-0.2,0.2-0.3,0.3-0.5c0.3-0.2,0.6-0.3,1-0.3c0.6,0.1,1.3,0.1,2.1,0.2l0.9,0.1
		l0.2,0c0.5,0,1-0.1,1.5-0.1c0.6-0.1,1.1-0.1,1.7-0.1c0.3,0,0.6,0.1,0.8,0.3c0.2,0.2,0.4,0.5,0.4,0.8c0,0.2,0,0.4-0.1,0.6
		c-0.1,0.2-0.2,0.3-0.3,0.4c-0.2,0.1-0.4,0.2-0.6,0.3c-0.2,0.1-0.4,0.1-0.6,0.1c-0.1,0-0.1,0.1-0.2,0.1c-0.1,0.1-0.2,0.2-0.2,0.3
		c-0.2,0.4-0.3,1-0.3,1.7c0,1.4,0,2.9,0,4.6c0,1.7,0,2.6,0,2.6c0,2-0.2,4-0.5,5.9c-0.4,1.8-0.9,3.3-1.5,4.4c-0.8,1.4-2,2.5-3.4,3.2
		c-1.4,0.7-3.2,1.1-5.2,1.1c-1.7,0-3.2-0.2-4.5-0.7c-1.2-0.4-2.3-1.2-3.2-2.2c-0.8-0.9-1.4-2.2-1.8-3.7c-0.4-1.5-0.6-3.2-0.6-5.3
		c0-1,0-2.6,0.1-4.9c0.1-2.2,0.1-3.6,0.1-4.2c0-0.5,0-0.9-0.1-1.4c-0.1-0.3-0.2-0.6-0.3-0.8c-0.2-0.2-0.4-0.4-0.6-0.5
		c-0.4-0.2-0.8-0.3-1.2-0.4c-0.2,0-0.3-0.1-0.5-0.1c-0.2-0.1-0.4-0.2-0.5-0.4c-0.1-0.1-0.2-0.3-0.2-0.5
		C197.9,149.2,197.9,149,197.9,148.9"/>
	<path class="st4" d="M168.9,172.2c1.1-2.1,1.9-3.6,2.3-4.5c0.5-1,1.6-3.3,3.4-7c1.8-3.8,3.3-6.8,4.5-9c0.6-1.1,1.1-2,1.5-2.6
		c0.5-0.8,0.9-1.3,1.1-1.4c0.3-0.3,0.7-0.5,1.2-0.6c0.3-0.1,0.7-0.1,1.1-0.1c0.4,0,1,0,1.9,0.1l1,0l0.3,0c0.5,0,1.1-0.1,1.6-0.1
		c0.7-0.1,1.3-0.1,2-0.1c0.3,0,0.5,0,0.8,0.1c0.3,0.1,0.6,0.2,0.8,0.4c0.2,0.2,0.4,0.4,0.5,0.7c0.1,0.2,0.1,0.5,0.1,0.7
		c0,0.5-0.2,0.9-0.6,1.2c-0.4,0.3-0.8,0.5-1.3,0.5c-0.6,0-1.2,0.2-1.8,0.5c-0.4,0.2-0.7,0.5-0.9,0.8c-0.6,1-0.8,2.6-0.8,5
		c0,0.1,0.1,1.9,0.2,5.5c0.2,3.6,0.3,7.4,0.4,11.4c0.1,2.6,0.4,4.4,1,5.5c0.3,0.4,0.6,0.8,1,1c0.6,0.3,1.2,0.5,1.9,0.7
		c0.6,0.1,1.2,0.3,1.7,0.6c0.3,0.2,0.5,0.4,0.7,0.7c0.1,0.2,0.2,0.5,0.2,0.8c0,0.3-0.1,0.6-0.3,0.9c-0.2,0.3-0.5,0.5-0.8,0.6
		c-0.3,0.1-1,0.2-1.9,0.2c-0.8,0-1.9-0.1-3.5-0.2c-1.4-0.1-2.5-0.2-3.2-0.2c-0.8,0-1.9,0.1-3.4,0.2c-1.6,0.2-2.8,0.2-3.6,0.2
		c-0.5,0-1-0.1-1.4-0.3c-0.2-0.1-0.4-0.3-0.6-0.5c-0.2-0.2-0.2-0.5-0.3-0.7c0-0.4,0.1-0.8,0.3-1.1c0.2-0.3,0.5-0.5,0.9-0.6
		c0.4-0.2,0.6-0.3,0.7-0.3c0.7-0.4,1.2-0.8,1.5-1.2s0.4-0.9,0.4-1.7c0-1.3-0.1-4.3-0.4-9.2c-0.1-2.5-0.2-4.6-0.3-6.2
		c-0.8,1.7-2,3.9-3.4,6.7c-2.5,4.9-4.5,8.9-6.1,12.1c-0.1,0.1-0.2,0.3-0.3,0.7c-0.2,0.3-0.3,0.6-0.5,0.9c-0.2,0.3-0.4,0.6-0.7,0.9
		c-0.2,0.2-0.4,0.3-0.6,0.4c-0.3,0.1-0.6,0.2-0.9,0.1c-0.4,0-0.8-0.2-1.2-0.4c-0.3-0.2-0.5-0.5-0.8-0.7c-0.4-0.5-1.2-2.1-2.6-5
		l-7.3-15.4c0,1.2-0.1,2.7-0.1,4.5c-0.1,3.9-0.1,6.3-0.1,7c0,1.9,0.3,3.4,0.8,4.5c0.5,0.9,1.3,1.5,2.4,1.9c0.8,0.3,1.4,0.6,1.7,0.8
		c0.2,0.1,0.4,0.3,0.6,0.5c0.2,0.2,0.3,0.5,0.3,0.8c0,0.3-0.1,0.5-0.2,0.8c-0.2,0.2-0.4,0.4-0.6,0.6c-0.4,0.2-0.9,0.3-1.4,0.3
		c-0.7,0-1.7-0.1-3.1-0.2c-1.2-0.1-2.1-0.2-2.8-0.2c-0.5,0-1.3,0.1-2.3,0.2c-1.2,0.1-2.1,0.2-2.7,0.2c-0.3,0-0.6,0-0.8-0.1
		c-0.3-0.1-0.6-0.2-0.9-0.4c-0.3-0.2-0.4-0.4-0.5-0.7c-0.1-0.2-0.1-0.5,0-0.7c0-0.3,0.2-0.7,0.7-1c0.4-0.2,0.7-0.4,1.1-0.6
		c0.5-0.2,1-0.5,1.5-0.8c0.3-0.2,0.5-0.5,0.7-0.8c0.3-0.5,0.4-1,0.5-1.6c0.2-0.9,0.2-1.9,0.2-2.8c0.2-3.9,0.3-8,0.5-12.2
		c0.2-4.3,0.3-6.4,0.3-6.5c0-1.6-0.5-2.9-1.4-4c-0.4-0.5-0.9-0.8-1.5-1.1c-0.5-0.2-1.1-0.3-1.7-0.3c-0.3,0-0.6,0-0.8-0.1
		c-0.3-0.1-0.6-0.2-0.9-0.4c-0.2-0.2-0.4-0.4-0.5-0.7c-0.1-0.2-0.1-0.4-0.1-0.7c0-0.3,0.1-0.6,0.3-0.9c0.2-0.3,0.5-0.5,0.8-0.6
		c0.4-0.2,0.8-0.2,1.2-0.3c0.4,0,0.9-0.1,1.5-0.1h0.1c1.1,0.1,1.8,0.1,2.2,0.1h0.1l0.2,0c0.4,0,1.1-0.1,1.9-0.2
		c0.8-0.1,1.5-0.2,2.3-0.2c0.9,0,1.7,0.2,2.4,0.6c0.7,0.4,1.2,1,1.6,1.7L168.9,172.2"/>
</g>
</svg>
